<svg width="502" height="125" viewBox="0 0 502 125" fill="none" xmlns="http://www.w3.org/2000/svg">
<g clip-path="url(#clip0_1_4)">
<path d="M330.235 35.8634C330.235 43.9081 330.235 51.9017 330.235 59.885C330.235 66.1795 330.255 72.474 330.265 78.7685C330.265 78.8197 330.265 78.8811 330.265 78.9323C330.315 80.6211 330.315 80.6518 328.601 80.662C321.974 80.6825 315.347 80.6825 308.72 80.6825C307.504 80.6825 307.494 80.6415 307.494 79.3826C307.484 68.8713 307.454 58.3599 307.454 47.8486C307.454 37.89 307.504 27.9211 307.514 17.9624C307.514 12.3843 307.504 6.79604 307.504 1.21796C307.504 0.133054 307.584 0.0511742 308.65 0.0511742C317.31 0.0511742 325.96 0.0511742 334.62 0.0921142C334.929 0.0921142 335.368 0.481044 335.527 0.798329C336.803 3.35708 338.028 5.9363 339.274 8.50528C340.978 12.0261 342.712 15.547 344.406 19.078C346.14 22.7012 347.864 26.3449 349.558 29.9885C350.724 32.4859 351.84 35.0139 352.996 37.5113C353.206 37.9616 353.505 38.3812 353.943 38.7906C353.943 37.6034 353.943 36.4161 353.943 35.2289C353.943 25.8638 353.943 16.509 353.923 7.14403C353.923 5.15844 353.844 3.17285 353.814 1.18726C353.804 0.133054 353.834 0.0921142 354.9 0.102349C357.87 0.122819 360.829 0.194464 363.799 0.194464C367.616 0.194464 371.443 0.143289 375.259 0.122819C376.365 0.122819 376.485 0.173994 376.495 1.31008C376.545 4.87186 376.545 8.4234 376.545 11.9852C376.545 34.5431 376.545 57.0908 376.565 79.6487C376.565 80.4266 376.336 80.6415 375.618 80.6415C368.274 80.6415 360.919 80.6722 353.574 80.6927C353.285 80.6927 352.987 80.6518 352.698 80.6415C352.01 80.6415 351.671 80.3857 351.472 79.6078C351.233 78.6559 350.655 77.786 350.216 76.875C347.804 71.9111 345.393 66.9369 342.981 61.9729C340.141 56.1287 337.281 50.2845 334.451 44.4301C333.693 42.8642 333.046 41.2573 332.348 39.6708C331.89 38.6371 331.431 37.5931 330.923 36.5799C330.774 36.2933 330.445 36.0988 330.225 35.8737L330.235 35.8634Z" fill="#FFC730"/>
<path d="M70.5056 40.3567C70.5056 52.7512 70.5056 65.1561 70.5056 77.5506C70.5056 78.2876 70.5255 79.0347 70.5953 79.7614C70.6651 80.396 70.4159 80.6211 69.8379 80.5904C69.5988 80.5802 69.3596 80.6007 69.1204 80.6007C62.2542 80.6211 55.388 80.6314 48.5218 80.6928C47.7644 80.6928 47.5851 80.4778 47.595 79.7205C47.6449 70.5192 47.6648 61.3282 47.7046 52.1269C47.7046 51.4207 47.4256 51.2569 46.7878 51.2569C42.114 51.2569 37.4402 51.2365 32.7664 51.1853C31.9891 51.1853 31.9692 51.5947 31.9692 52.1679C31.9692 57.3979 31.9692 62.628 31.9692 67.8479C31.9692 71.6553 31.9692 75.4525 31.9692 79.2599C31.9692 80.5802 31.9692 80.5904 30.6438 80.5904C25.382 80.5904 20.1203 80.5904 14.8485 80.5904C13.3836 80.5904 11.9087 80.6621 10.4438 80.6416C9.30773 80.6314 9.23797 80.5188 9.2579 79.526C9.35756 73.1598 9.50704 66.7937 9.52697 60.4275C9.56683 41.9533 9.5469 23.4792 9.52697 4.99476C9.52697 3.66421 9.38746 2.32343 9.27784 0.992878C9.21804 0.235489 9.51701 -0.020386 10.2445 -0.0101511C17.2203 0.0307889 24.1961 0.0614939 31.162 0.0512589C31.8994 0.0512589 31.9791 0.368544 31.9791 0.982643C31.9692 6.13085 31.9692 11.279 31.9791 16.417C31.9791 20.3882 32.009 24.3594 31.9791 28.3203C31.9791 29.0777 32.1884 29.3131 32.9358 29.3029C37.6096 29.2517 42.2834 29.2312 46.9572 29.221C47.5352 29.221 47.615 28.8935 47.6249 28.4431C47.6548 26.7441 47.7046 25.0554 47.7146 23.3563C47.7246 17.0925 47.7246 10.8185 47.7146 4.55466C47.7146 3.32646 47.6847 2.09826 47.6747 0.870059C47.6747 0.276429 47.884 0.0307889 48.5318 0.0307889C55.5375 0.0614939 62.5332 0.0614939 69.539 0.0307889C70.3362 0.0307889 70.5156 0.296899 70.5156 1.06452C70.4957 14.1448 70.5056 27.2354 70.5056 40.3157H70.5255L70.5056 40.3567Z" fill="#FFC730"/>
<path d="M385.733 40.4282C385.733 28.4942 385.733 16.5602 385.733 4.62618C385.733 3.44915 385.683 2.27213 385.693 1.0951C385.693 0.0101931 385.743 0.051133 386.779 0.061368C390.785 0.102308 394.792 0.112543 398.808 0.112543C411.713 0.112543 424.628 0.112543 437.533 0.112543C438.44 0.112543 439.357 0.133013 440.254 0.020428C440.922 -0.061452 441.081 0.112543 441.081 0.777818C441.061 5.5678 441.081 10.3578 441.081 15.1478C441.081 17.1743 441.101 19.2008 441.151 21.2171C441.171 21.8824 440.812 21.9233 440.344 21.9233C438.42 21.9233 436.497 21.9643 434.574 21.9643C426.502 21.9643 418.43 21.9643 410.358 21.9643C408.335 21.9643 408.325 21.9643 408.315 24.001C408.315 25.5874 408.345 27.1739 408.325 28.7603C408.325 29.2618 408.534 29.3335 408.963 29.3335C415.46 29.3232 421.947 29.3232 428.445 29.3232C429.501 29.3232 429.491 29.3232 429.491 30.3877C429.491 36.9585 429.491 43.5294 429.491 50.1003C429.491 51.1852 429.501 51.1954 428.445 51.1954C422.117 51.2159 415.779 51.2363 409.451 51.2671C408.315 51.2671 408.315 51.2978 408.325 52.4441C408.325 54.3273 408.355 56.2208 408.325 58.104C408.325 58.5851 408.464 58.7386 408.903 58.7284C409.919 58.7079 410.936 58.7079 411.952 58.7079C421.409 58.7079 430.877 58.7079 440.334 58.6977C440.892 58.6977 441.061 58.8512 441.061 59.4346C441.041 66.0054 441.041 72.5763 441.041 79.1472C441.041 80.621 441.041 80.621 439.517 80.621C426.312 80.621 413.118 80.6108 399.914 80.621C395.669 80.621 391.413 80.6517 387.168 80.6722C386.899 80.6722 386.63 80.621 386.371 80.6517C385.813 80.7029 385.703 80.4368 385.713 79.925C385.733 77.4584 385.733 75.002 385.733 72.5354C385.733 61.8296 385.733 51.1238 385.733 40.4282Z" fill="#FFC730"/>
<path d="M460.544 80.6722C455.87 80.6722 451.196 80.6722 446.512 80.6722C444.579 80.6722 444.569 80.6825 444.569 78.7071C444.569 72.5252 444.559 66.333 444.559 60.1511C444.559 58.7796 444.559 58.7591 445.944 58.7591C450.698 58.7591 455.461 58.7591 460.215 58.7591C461.012 58.7591 461.819 58.6977 462.607 58.5953C463.982 58.4316 464.889 57.3671 464.988 55.9445C465.168 53.5495 464.59 51.2876 463.802 49.0666C463.195 47.3676 462.736 45.5969 461.989 43.9695C461.421 42.7311 461.112 41.4313 460.633 40.1826C460.105 38.7906 459.388 37.4703 458.83 36.0784C458.292 34.7273 457.853 33.3251 457.385 31.9434C456.896 30.4696 456.358 29.0162 455.96 27.5219C455.262 24.8608 454.535 22.1997 454.056 19.4874C453.737 17.6758 453.678 15.7824 453.777 13.9401C453.887 12.0261 454.445 10.1633 455.252 8.39269C456.408 5.86465 458.491 4.31917 460.753 2.99885C462.308 2.09817 464.012 1.62736 465.766 1.32031C467.171 1.06444 468.546 0.562924 469.961 0.409399C472.054 0.194464 474.166 0.133054 476.279 0.122819C484.461 0.0818789 492.632 0.0921139 500.814 0.0921139C501.97 0.0921139 501.98 0.092114 501.98 1.26914C501.98 7.72742 501.97 14.1857 501.96 20.644C501.96 21.9131 501.96 21.9234 500.685 21.9234C495.423 21.9234 490.151 21.9234 484.889 21.9643C484.132 21.9643 483.345 22.2304 482.617 22.4965C481.78 22.8036 481.531 23.6121 481.471 24.4207C481.322 26.3142 481.521 28.1769 482.139 29.9783C482.607 31.3396 482.956 32.7417 483.484 34.0825C484.451 36.5594 485.537 38.9953 486.524 41.4722C487.112 42.9256 487.63 44.4096 488.138 45.8937C488.985 48.3399 489.852 50.7656 490.629 53.2322C491.925 57.3569 492.902 61.5533 492.782 65.9338C492.662 70.7545 490.57 74.4494 486.663 77.1002C483.933 78.9527 480.913 80.0172 477.664 80.1809C471.964 80.4675 466.254 80.6108 460.544 80.8155C460.544 80.7643 460.544 80.7132 460.544 80.662V80.6722Z" fill="#FFC730"/>
<path d="M187.58 0.0716442C196.957 0.0716442 206.335 0.0818792 215.712 0.0511742C216.549 0.0511742 216.749 0.337754 216.749 1.13608C216.729 7.56366 216.739 14.0015 216.749 20.4291C216.749 21.9029 216.769 21.9234 215.284 21.9336C210.181 21.9643 205.079 21.9848 199.977 22.0155C198.602 22.0155 198.851 22.1178 198.861 23.2334C198.891 27.5526 198.861 31.882 198.851 36.2114C198.851 38.893 198.881 41.5746 198.881 44.2561C198.871 49.3736 198.811 54.4911 198.811 59.6086C198.811 66.3637 198.851 73.129 198.901 79.8841C198.901 80.5494 198.582 80.6006 198.113 80.6006C195.652 80.6006 193.2 80.6108 190.739 80.6211C186.543 80.6415 182.348 80.662 178.153 80.6825C177.963 80.6825 177.774 80.6825 177.594 80.6825C176.01 80.6825 176.02 80.6825 176.09 79.096C176.139 77.786 176.149 76.4656 176.149 75.1556C176.149 59.0355 176.149 42.9153 176.149 26.7952C176.149 25.3726 176.05 23.9499 176.05 22.5272C176.05 21.9643 175.711 22.0052 175.352 22.0052C172.253 21.9848 169.154 21.9643 166.054 21.9541C163.812 21.9541 161.57 21.9745 159.318 21.9541C158.102 21.9541 158.122 21.9336 158.291 20.7566C158.381 20.1322 158.361 19.4977 158.361 18.8733C158.361 13.0394 158.341 7.21567 158.331 1.38172C158.331 0.0818792 158.331 0.0716442 159.607 0.0716442C168.346 0.0716442 177.086 0.0818792 185.816 0.0921142C186.404 0.0921142 186.992 0.0921142 187.58 0.0921142C187.58 0.0818792 187.58 0.0614092 187.58 0.0511742V0.0716442Z" fill="#FFC730"/>
<path d="M271.011 58.7796C271.021 59.0969 271.05 59.363 271.05 59.6291C271.05 63.6821 271.041 67.725 271.031 71.778C271.031 74.5108 270.991 77.2537 271.031 79.9865C271.031 80.5801 270.752 80.6108 270.353 80.6108C267.842 80.6313 265.33 80.6518 262.819 80.662C258.095 80.662 253.362 80.662 248.638 80.662C242.978 80.662 237.307 80.662 231.647 80.662C228.657 80.662 225.668 80.6825 222.668 80.6825C221.403 80.6825 221.393 80.6722 221.393 79.3724C221.393 53.9487 221.393 28.5147 221.393 3.09097C221.393 2.32334 221.393 1.55572 221.393 0.788094C221.393 0.296814 221.552 0.0716438 222.1 0.0716438C229.156 0.0921138 236.211 0.102349 243.267 0.0716438C243.974 0.0716438 244.174 0.307049 244.174 1.0235C244.164 18.8119 244.174 36.6003 244.174 54.3888C244.174 55.5965 244.094 56.794 244.114 58.0017C244.114 58.2269 244.373 58.5954 244.572 58.6465C245.031 58.7693 245.519 58.7591 246.007 58.7591C254.099 58.7591 262.201 58.7591 270.293 58.7591C270.522 58.7591 270.761 58.7796 271.05 58.8001L271.011 58.7796Z" fill="#FFC730"/>
<path d="M275.595 80.7132C275.595 77.4994 275.595 74.4391 275.595 71.3686C275.595 48.1352 275.595 24.8915 275.595 1.65807C275.595 0.020469 275.595 0.061409 277.149 0.071644C283.139 0.102349 289.118 0.092114 295.107 0.092114C296.173 0.092114 297.24 0.092114 298.456 0.092114C298.456 0.532219 298.456 0.982559 298.456 1.4329C298.436 8.79186 298.396 16.1508 298.396 23.52C298.396 30.1932 298.446 36.8767 298.446 43.5499C298.446 53.4267 298.416 63.3035 298.406 73.1905C298.406 75.4115 298.376 77.6222 298.446 79.8432C298.466 80.6108 298.177 80.7029 297.569 80.7029C295.914 80.6825 294.26 80.7029 292.596 80.7029C287.274 80.7029 281.963 80.7029 276.641 80.7029H275.595V80.7132Z" fill="#FFC730"/>
<path d="M115.44 79.6692C136.679 79.6692 153.897 61.9859 153.897 40.1724C153.897 18.3589 136.679 0.67551 115.44 0.67551C94.2008 0.67551 76.9832 18.3589 76.9832 40.1724C76.9832 61.9859 94.2008 79.6692 115.44 79.6692Z" fill="#FFC730"/>
<path d="M130.328 26.5496C131.604 32.2914 123.273 35.9453 123.273 35.9453C130.328 23.1516 116.357 9.57996 116.357 9.57996C116.357 33.6015 93.6454 35.6894 93.6454 54.9926C93.6454 64.0813 99.4752 69.1272 106.74 71.0002C106.72 70.9797 97.8309 65.3095 100.113 57.1932C100.113 57.1932 102.206 64.8285 104.597 64.0915C106.979 63.3546 102.266 59.6393 103.242 56.2106C104.219 52.7819 106.501 52.004 107.747 51.0215C108.982 50.0389 109.75 48.1864 108.514 46.1291C108.514 46.1291 114.423 51.5127 110.607 55.0336C106.79 58.5544 107.079 60.2227 108.982 61.2974C110.886 62.3721 117.373 61.195 119.466 53.1708C119.466 53.1708 122.615 62.3721 119.466 65.4119C119.466 65.4119 120.991 66.9778 124.04 64.4293C124.04 64.4293 123.333 69.6287 119.306 71.3379C123.641 70.5601 127.658 68.8815 130.528 66.4865C141.141 57.6128 130.328 26.5496 130.328 26.5496Z" fill="#25431E"/>
<g opacity="0.1">
<path d="M135.162 53.8975C135.142 53.9794 131.803 66.681 119.296 71.3379C123.631 70.5601 127.648 68.8815 130.518 66.4865C133.717 63.8152 134.962 59.1378 135.162 53.8975Z" fill="#25431E"/>
</g>
<g opacity="0.1">
<path d="M94.5622 48.6367C93.9743 50.5506 93.6354 52.6386 93.6354 54.9926C93.6354 63.9278 99.256 68.9532 106.351 70.8978C98.1299 67.0904 94.5822 48.7288 94.5622 48.6367Z" fill="#25431E"/>
</g>
</g>
<path d="M27.6797 98.2322C27.5471 97.0556 27.0002 96.1442 26.0391 95.4979C25.0779 94.8433 23.8681 94.516 22.4098 94.516C21.3658 94.516 20.4626 94.6817 19.7003 95.0131C18.938 95.3363 18.3455 95.7837 17.9229 96.3555C17.5086 96.9189 17.3015 97.5611 17.3015 98.282C17.3015 98.8868 17.4424 99.4089 17.7241 99.848C18.0141 100.287 18.3911 100.656 18.8551 100.954C19.3274 101.244 19.8329 101.489 20.3714 101.688C20.91 101.878 21.4279 102.036 21.9251 102.16L24.4109 102.806C25.2229 103.005 26.0556 103.274 26.9091 103.614C27.7625 103.954 28.5539 104.401 29.283 104.956C30.0122 105.511 30.6005 106.199 31.0479 107.02C31.5037 107.84 31.7315 108.822 31.7315 109.965C31.7315 111.407 31.3587 112.687 30.6129 113.806C29.8755 114.924 28.8024 115.807 27.3938 116.453C25.9935 117.099 24.299 117.423 22.3104 117.423C20.4046 117.423 18.7557 117.12 17.3636 116.515C15.9716 115.91 14.882 115.053 14.0948 113.942C13.3076 112.824 12.8726 111.498 12.7898 109.965H16.6428C16.7173 110.885 17.0156 111.651 17.5376 112.265C18.0679 112.869 18.7433 113.321 19.5636 113.619C20.3922 113.909 21.2995 114.054 22.2855 114.054C23.371 114.054 24.3363 113.884 25.1815 113.545C26.0349 113.197 26.7061 112.716 27.195 112.103C27.6838 111.482 27.9283 110.757 27.9283 109.928C27.9283 109.174 27.7128 108.557 27.282 108.076C26.8594 107.595 26.2835 107.198 25.5543 106.883C24.8335 106.568 24.0173 106.29 23.1058 106.05L20.098 105.23C18.0597 104.675 16.4439 103.858 15.2507 102.781C14.0658 101.704 13.4734 100.279 13.4734 98.5057C13.4734 97.0391 13.8711 95.7589 14.6665 94.6651C15.462 93.5714 16.5392 92.7221 17.8981 92.1172C19.257 91.504 20.7899 91.1974 22.4968 91.1974C24.2203 91.1974 25.7408 91.4999 27.0582 92.1048C28.384 92.7096 29.428 93.5424 30.1903 94.603C30.9527 95.6553 31.3504 96.8651 31.3835 98.2322H27.6797ZM40.3209 91.5455H44.9818L53.0855 111.332H53.3838L61.4875 91.5455H66.1484V117H62.4942V98.5803H62.2581L54.751 116.963H51.7183L44.2112 98.5678H43.9751V117H40.3209V91.5455ZM77.8823 117H73.8056L82.9657 91.5455H87.4029L96.563 117H92.4863L85.29 96.169H85.0911L77.8823 117ZM78.5659 107.032H91.7903V110.263H78.5659V107.032ZM104.239 117V91.5455H113.312C115.284 91.5455 116.921 91.8852 118.222 92.5646C119.531 93.2441 120.508 94.1845 121.155 95.386C121.801 96.5792 122.124 97.9588 122.124 99.5249C122.124 101.083 121.797 102.454 121.142 103.639C120.496 104.815 119.518 105.731 118.209 106.386C116.908 107.04 115.272 107.368 113.3 107.368H106.426V104.061H112.952C114.195 104.061 115.205 103.883 115.984 103.527C116.771 103.171 117.347 102.653 117.712 101.973C118.076 101.294 118.259 100.478 118.259 99.5249C118.259 98.5637 118.072 97.7309 117.699 97.0266C117.335 96.3223 116.759 95.7837 115.972 95.4109C115.193 95.0297 114.17 94.8391 112.902 94.8391H108.079V117H104.239ZM116.805 105.516L123.094 117H118.719L112.554 105.516H116.805ZM129.542 94.8516V91.5455H149.242V94.8516H141.3V117H137.472V94.8516H129.542ZM157.595 117V91.5455H173.554V94.8516H161.436V102.607H172.721V105.901H161.436V113.694H173.703V117H157.595ZM182.684 117V91.5455H191.757C193.729 91.5455 195.366 91.8852 196.667 92.5646C197.976 93.2441 198.954 94.1845 199.6 95.386C200.246 96.5792 200.57 97.9588 200.57 99.5249C200.57 101.083 200.242 102.454 199.588 103.639C198.941 104.815 197.964 105.731 196.654 106.386C195.353 107.04 193.717 107.368 191.745 107.368H184.872V104.061H191.397C192.64 104.061 193.651 103.883 194.43 103.527C195.217 103.171 195.793 102.653 196.157 101.973C196.522 101.294 196.704 100.478 196.704 99.5249C196.704 98.5637 196.518 97.7309 196.145 97.0266C195.78 96.3223 195.204 95.7837 194.417 95.4109C193.638 95.0297 192.615 94.8391 191.347 94.8391H186.525V117H182.684ZM195.25 105.516L201.539 117H197.164L190.999 105.516H195.25ZM222.506 117V91.5455H231.827C233.634 91.5455 235.129 91.8437 236.314 92.4403C237.499 93.0286 238.386 93.8282 238.974 94.8391C239.562 95.8417 239.856 96.9728 239.856 98.2322C239.856 99.2928 239.662 100.188 239.272 100.917C238.883 101.638 238.361 102.218 237.706 102.657C237.06 103.088 236.347 103.403 235.568 103.602V103.85C236.414 103.892 237.238 104.165 238.042 104.67C238.854 105.168 239.525 105.876 240.055 106.796C240.586 107.716 240.851 108.834 240.851 110.152C240.851 111.453 240.544 112.621 239.931 113.657C239.326 114.684 238.39 115.5 237.122 116.105C235.854 116.702 234.234 117 232.262 117H222.506ZM226.346 113.706H231.889C233.729 113.706 235.046 113.35 235.842 112.637C236.637 111.925 237.035 111.034 237.035 109.965C237.035 109.161 236.832 108.424 236.426 107.753C236.02 107.082 235.44 106.547 234.686 106.15C233.94 105.752 233.054 105.553 232.026 105.553H226.346V113.706ZM226.346 102.558H231.492C232.353 102.558 233.128 102.392 233.816 102.06C234.512 101.729 235.063 101.265 235.469 100.668C235.883 100.063 236.09 99.3509 236.09 98.5305C236.09 97.4782 235.722 96.5958 234.984 95.8832C234.247 95.1706 233.116 94.8143 231.591 94.8143H226.346V102.558ZM249.406 117V91.5455H265.365V94.8516H253.246V102.607H264.532V105.901H253.246V113.694H265.514V117H249.406ZM273.239 94.8516V91.5455H292.939V94.8516H284.997V117H281.169V94.8516H273.239ZM315.176 98.2322C315.043 97.0556 314.496 96.1442 313.535 95.4979C312.574 94.8433 311.364 94.516 309.906 94.516C308.862 94.516 307.959 94.6817 307.196 95.0131C306.434 95.3363 305.842 95.7837 305.419 96.3555C305.005 96.9189 304.798 97.5611 304.798 98.282C304.798 98.8868 304.938 99.4089 305.22 99.848C305.51 100.287 305.887 100.656 306.351 100.954C306.824 101.244 307.329 101.489 307.868 101.688C308.406 101.878 308.924 102.036 309.421 102.16L311.907 102.806C312.719 103.005 313.552 103.274 314.405 103.614C315.259 103.954 316.05 104.401 316.779 104.956C317.508 105.511 318.097 106.199 318.544 107.02C319 107.84 319.228 108.822 319.228 109.965C319.228 111.407 318.855 112.687 318.109 113.806C317.372 114.924 316.299 115.807 314.89 116.453C313.49 117.099 311.795 117.423 309.806 117.423C307.901 117.423 306.252 117.12 304.86 116.515C303.468 115.91 302.378 115.053 301.591 113.942C300.804 112.824 300.369 111.498 300.286 109.965H304.139C304.213 110.885 304.512 111.651 305.034 112.265C305.564 112.869 306.239 113.321 307.06 113.619C307.888 113.909 308.796 114.054 309.782 114.054C310.867 114.054 311.832 113.884 312.678 113.545C313.531 113.197 314.202 112.716 314.691 112.103C315.18 111.482 315.424 110.757 315.424 109.928C315.424 109.174 315.209 108.557 314.778 108.076C314.355 107.595 313.78 107.198 313.05 106.883C312.33 106.568 311.513 106.29 310.602 106.05L307.594 105.23C305.556 104.675 303.94 103.858 302.747 102.781C301.562 101.704 300.969 100.279 300.969 98.5057C300.969 97.0391 301.367 95.7589 302.163 94.6651C302.958 93.5714 304.035 92.7221 305.394 92.1172C306.753 91.504 308.286 91.1974 309.993 91.1974C311.716 91.1974 313.237 91.4999 314.554 92.1048C315.88 92.7096 316.924 93.5424 317.686 94.603C318.449 95.6553 318.846 96.8651 318.88 98.2322H315.176ZM341.08 117V91.5455H356.865V94.8516H344.92V102.607H355.733V105.901H344.92V117H341.08ZM364.559 117H360.482L369.642 91.5455H374.08L383.24 117H379.163L371.967 96.169H371.768L364.559 117ZM365.243 107.032H378.467V110.263H365.243V107.032ZM404.594 98.2322C404.461 97.0556 403.914 96.1442 402.953 95.4979C401.992 94.8433 400.782 94.516 399.324 94.516C398.28 94.516 397.377 94.6817 396.614 95.0131C395.852 95.3363 395.26 95.7837 394.837 96.3555C394.423 96.9189 394.216 97.5611 394.216 98.282C394.216 98.8868 394.356 99.4089 394.638 99.848C394.928 100.287 395.305 100.656 395.769 100.954C396.241 101.244 396.747 101.489 397.286 101.688C397.824 101.878 398.342 102.036 398.839 102.16L401.325 102.806C402.137 103.005 402.97 103.274 403.823 103.614C404.677 103.954 405.468 104.401 406.197 104.956C406.926 105.511 407.515 106.199 407.962 107.02C408.418 107.84 408.646 108.822 408.646 109.965C408.646 111.407 408.273 112.687 407.527 113.806C406.79 114.924 405.717 115.807 404.308 116.453C402.908 117.099 401.213 117.423 399.224 117.423C397.319 117.423 395.67 117.12 394.278 116.515C392.886 115.91 391.796 115.053 391.009 113.942C390.222 112.824 389.787 111.498 389.704 109.965H393.557C393.631 110.885 393.93 111.651 394.452 112.265C394.982 112.869 395.657 113.321 396.478 113.619C397.306 113.909 398.214 114.054 399.2 114.054C400.285 114.054 401.25 113.884 402.096 113.545C402.949 113.197 403.62 112.716 404.109 112.103C404.598 111.482 404.842 110.757 404.842 109.928C404.842 109.174 404.627 108.557 404.196 108.076C403.773 107.595 403.198 107.198 402.468 106.883C401.748 106.568 400.931 106.29 400.02 106.05L397.012 105.23C394.974 104.675 393.358 103.858 392.165 102.781C390.98 101.704 390.387 100.279 390.387 98.5057C390.387 97.0391 390.785 95.7589 391.581 94.6651C392.376 93.5714 393.453 92.7221 394.812 92.1172C396.171 91.504 397.704 91.1974 399.411 91.1974C401.134 91.1974 402.655 91.4999 403.972 92.1048C405.298 92.7096 406.342 93.5424 407.104 94.603C407.867 95.6553 408.264 96.8651 408.298 98.2322H404.594ZM415.98 94.8516V91.5455H435.68V94.8516H427.737V117H423.909V94.8516H415.98ZM444.033 117V91.5455H459.992V94.8516H447.873V102.607H459.159V105.901H447.873V113.694H460.141V117H444.033ZM469.122 117V91.5455H478.195C480.167 91.5455 481.803 91.8852 483.104 92.5646C484.414 93.2441 485.391 94.1845 486.038 95.386C486.684 96.5792 487.007 97.9588 487.007 99.5249C487.007 101.083 486.68 102.454 486.025 103.639C485.379 104.815 484.401 105.731 483.092 106.386C481.791 107.04 480.155 107.368 478.182 107.368H471.309V104.061H477.834C479.077 104.061 480.088 103.883 480.867 103.527C481.654 103.171 482.23 102.653 482.595 101.973C482.959 101.294 483.142 100.478 483.142 99.5249C483.142 98.5637 482.955 97.7309 482.582 97.0266C482.218 96.3223 481.642 95.7837 480.855 95.4109C480.076 95.0297 479.052 94.8391 477.785 94.8391H472.962V117H469.122ZM481.687 105.516L487.976 117H483.601L477.437 105.516H481.687Z" fill="#FFC730"/>
<defs>
<clipPath id="clip0_1_4">
<rect width="502" height="125" fill="white"/>
</clipPath>
</defs>
</svg>
