<svg width="502" height="125" viewBox="0 0 502 125" fill="none" xmlns="http://www.w3.org/2000/svg">
<g clip-path="url(#clip0_1_4)">
<path d="M330.235 35.8634C330.235 43.9081 330.235 51.9017 330.235 59.885C330.235 66.1795 330.255 72.474 330.265 78.7685C330.265 78.8197 330.265 78.8811 330.265 78.9323C330.315 80.6211 330.315 80.6518 328.601 80.662C321.974 80.6825 315.347 80.6825 308.72 80.6825C307.504 80.6825 307.494 80.6415 307.494 79.3826C307.484 68.8713 307.454 58.3599 307.454 47.8486C307.454 37.89 307.504 27.9211 307.514 17.9624C307.514 12.3843 307.504 6.79604 307.504 1.21796C307.504 0.133054 307.584 0.0511742 308.65 0.0511742C317.31 0.0511742 325.96 0.0511742 334.62 0.0921142C334.929 0.0921142 335.368 0.481044 335.527 0.798329C336.803 3.35708 338.028 5.9363 339.274 8.50528C340.978 12.0261 342.712 15.547 344.406 19.078C346.14 22.7012 347.864 26.3449 349.558 29.9885C350.724 32.4859 351.84 35.0139 352.996 37.5113C353.206 37.9616 353.505 38.3812 353.943 38.7906C353.943 37.6034 353.943 36.4161 353.943 35.2289C353.943 25.8638 353.943 16.509 353.923 7.14403C353.923 5.15844 353.844 3.17285 353.814 1.18726C353.804 0.133054 353.834 0.0921141 354.9 0.102349C357.87 0.122819 360.829 0.194464 363.799 0.194464C367.616 0.194464 371.443 0.143289 375.259 0.122819C376.365 0.122819 376.485 0.173994 376.495 1.31008C376.545 4.87186 376.545 8.4234 376.545 11.9852C376.545 34.5431 376.545 57.0908 376.565 79.6487C376.565 80.4266 376.336 80.6415 375.618 80.6415C368.274 80.6415 360.919 80.6722 353.574 80.6927C353.285 80.6927 352.987 80.6518 352.698 80.6415C352.01 80.6415 351.671 80.3857 351.472 79.6078C351.233 78.6559 350.655 77.786 350.216 76.8751C347.804 71.9111 345.393 66.9369 342.981 61.9729C340.141 56.1287 337.281 50.2845 334.451 44.4301C333.693 42.8642 333.046 41.2573 332.348 39.6708C331.89 38.6371 331.431 37.5931 330.923 36.5799C330.774 36.2933 330.445 36.0988 330.225 35.8737L330.235 35.8634Z" fill="#FFC730"/>
<path d="M70.5056 40.3567C70.5056 52.7512 70.5056 65.1561 70.5056 77.5506C70.5056 78.2876 70.5255 79.0347 70.5953 79.7614C70.6651 80.396 70.4159 80.6211 69.8379 80.5904C69.5988 80.5802 69.3596 80.6007 69.1204 80.6007C62.2542 80.6211 55.388 80.6314 48.5218 80.6928C47.7644 80.6928 47.5851 80.4778 47.595 79.7205C47.6449 70.5192 47.6648 61.3282 47.7046 52.1269C47.7046 51.4207 47.4256 51.2569 46.7878 51.2569C42.114 51.2569 37.4402 51.2365 32.7664 51.1853C31.9891 51.1853 31.9692 51.5947 31.9692 52.1679C31.9692 57.3979 31.9692 62.628 31.9692 67.8479C31.9692 71.6553 31.9692 75.4525 31.9692 79.2599C31.9692 80.5802 31.9692 80.5904 30.6438 80.5904C25.382 80.5904 20.1203 80.5904 14.8485 80.5904C13.3836 80.5904 11.9087 80.6621 10.4438 80.6416C9.30773 80.6314 9.23797 80.5188 9.2579 79.526C9.35756 73.1598 9.50704 66.7937 9.52697 60.4275C9.56683 41.9533 9.5469 23.4792 9.52697 4.99476C9.52697 3.66421 9.38746 2.32343 9.27784 0.992878C9.21804 0.235489 9.51701 -0.020386 10.2445 -0.0101511C17.2203 0.0307889 24.1961 0.0614939 31.162 0.0512589C31.8994 0.0512589 31.9791 0.368544 31.9791 0.982643C31.9692 6.13085 31.9692 11.279 31.9791 16.417C31.9791 20.3882 32.009 24.3594 31.9791 28.3203C31.9791 29.0777 32.1884 29.3131 32.9358 29.3029C37.6096 29.2517 42.2834 29.2312 46.9572 29.221C47.5352 29.221 47.615 28.8935 47.6249 28.4431C47.6548 26.7441 47.7046 25.0554 47.7146 23.3563C47.7246 17.0925 47.7246 10.8185 47.7146 4.55466C47.7146 3.32646 47.6847 2.09826 47.6747 0.870059C47.6747 0.276429 47.884 0.0307889 48.5318 0.0307889C55.5375 0.0614939 62.5332 0.0614939 69.539 0.0307889C70.3362 0.0307889 70.5156 0.296899 70.5156 1.06452C70.4957 14.1448 70.5056 27.2354 70.5056 40.3157H70.5255L70.5056 40.3567Z" fill="#FFC730"/>
<path d="M385.733 40.4282C385.733 28.4942 385.733 16.5602 385.733 4.62618C385.733 3.44915 385.683 2.27213 385.693 1.0951C385.693 0.0101931 385.743 0.051133 386.779 0.061368C390.785 0.102308 394.792 0.112543 398.808 0.112543C411.713 0.112543 424.628 0.112543 437.533 0.112543C438.44 0.112543 439.357 0.133013 440.254 0.020428C440.922 -0.061452 441.081 0.112543 441.081 0.777818C441.061 5.5678 441.081 10.3578 441.081 15.1478C441.081 17.1743 441.101 19.2008 441.151 21.2171C441.171 21.8824 440.812 21.9233 440.344 21.9233C438.42 21.9233 436.497 21.9643 434.574 21.9643C426.502 21.9643 418.43 21.9643 410.358 21.9643C408.335 21.9643 408.325 21.9643 408.315 24.001C408.315 25.5874 408.345 27.1739 408.325 28.7603C408.325 29.2618 408.534 29.3335 408.963 29.3335C415.46 29.3232 421.947 29.3232 428.445 29.3232C429.501 29.3232 429.491 29.3232 429.491 30.3877C429.491 36.9585 429.491 43.5294 429.491 50.1003C429.491 51.1852 429.501 51.1954 428.445 51.1954C422.117 51.2159 415.779 51.2363 409.451 51.2671C408.315 51.2671 408.315 51.2978 408.325 52.4441C408.325 54.3273 408.355 56.2208 408.325 58.104C408.325 58.5851 408.464 58.7386 408.903 58.7284C409.919 58.7079 410.936 58.7079 411.952 58.7079C421.409 58.7079 430.877 58.7079 440.334 58.6977C440.892 58.6977 441.061 58.8512 441.061 59.4346C441.041 66.0054 441.041 72.5763 441.041 79.1472C441.041 80.621 441.041 80.621 439.517 80.621C426.312 80.621 413.118 80.6108 399.914 80.621C395.669 80.621 391.413 80.6517 387.168 80.6722C386.899 80.6722 386.63 80.621 386.371 80.6517C385.813 80.7029 385.703 80.4368 385.713 79.925C385.733 77.4584 385.733 75.002 385.733 72.5354C385.733 61.8296 385.733 51.1238 385.733 40.4282Z" fill="#FFC730"/>
<path d="M460.544 80.6722C455.87 80.6722 451.196 80.6722 446.512 80.6722C444.579 80.6722 444.569 80.6825 444.569 78.7071C444.569 72.5252 444.559 66.333 444.559 60.1511C444.559 58.7796 444.559 58.7591 445.944 58.7591C450.698 58.7591 455.461 58.7591 460.215 58.7591C461.012 58.7591 461.819 58.6977 462.607 58.5953C463.982 58.4316 464.889 57.3671 464.988 55.9445C465.168 53.5495 464.59 51.2876 463.802 49.0666C463.195 47.3676 462.736 45.5969 461.989 43.9695C461.421 42.7311 461.112 41.4313 460.633 40.1826C460.105 38.7906 459.388 37.4703 458.83 36.0784C458.292 34.7273 457.853 33.3251 457.385 31.9434C456.896 30.4696 456.358 29.0162 455.96 27.5219C455.262 24.8608 454.535 22.1997 454.056 19.4874C453.737 17.6758 453.678 15.7824 453.777 13.9401C453.887 12.0261 454.445 10.1633 455.252 8.39269C456.408 5.86465 458.491 4.31917 460.753 2.99885C462.308 2.09817 464.012 1.62736 465.766 1.32031C467.171 1.06444 468.546 0.562924 469.961 0.409399C472.054 0.194464 474.166 0.133054 476.279 0.122819C484.461 0.0818789 492.632 0.0921139 500.814 0.0921139C501.97 0.0921139 501.98 0.092114 501.98 1.26914C501.98 7.72742 501.97 14.1857 501.96 20.644C501.96 21.9131 501.96 21.9234 500.685 21.9234C495.423 21.9234 490.151 21.9234 484.889 21.9643C484.132 21.9643 483.345 22.2304 482.617 22.4965C481.78 22.8036 481.531 23.6121 481.471 24.4207C481.322 26.3142 481.521 28.1769 482.139 29.9783C482.607 31.3396 482.956 32.7417 483.484 34.0825C484.451 36.5594 485.537 38.9953 486.524 41.4722C487.112 42.9256 487.63 44.4096 488.138 45.8937C488.985 48.3399 489.852 50.7656 490.629 53.2322C491.925 57.3569 492.902 61.5533 492.782 65.9338C492.662 70.7545 490.57 74.4494 486.663 77.1002C483.933 78.9528 480.913 80.0172 477.664 80.1809C471.964 80.4675 466.254 80.6108 460.544 80.8155C460.544 80.7643 460.544 80.7132 460.544 80.662V80.6722Z" fill="#FFC730"/>
<path d="M187.58 0.0716442C196.957 0.0716442 206.335 0.0818792 215.712 0.0511742C216.549 0.0511742 216.749 0.337754 216.749 1.13608C216.729 7.56366 216.739 14.0015 216.749 20.4291C216.749 21.9029 216.769 21.9234 215.284 21.9336C210.181 21.9643 205.079 21.9848 199.977 22.0155C198.602 22.0155 198.851 22.1178 198.861 23.2334C198.891 27.5526 198.861 31.882 198.851 36.2114C198.851 38.893 198.881 41.5746 198.881 44.2561C198.871 49.3736 198.811 54.4911 198.811 59.6086C198.811 66.3637 198.851 73.129 198.901 79.8841C198.901 80.5494 198.582 80.6006 198.113 80.6006C195.652 80.6006 193.2 80.6108 190.739 80.6211C186.543 80.6415 182.348 80.662 178.153 80.6825C177.963 80.6825 177.774 80.6825 177.594 80.6825C176.01 80.6825 176.02 80.6825 176.09 79.096C176.139 77.786 176.149 76.4657 176.149 75.1556C176.149 59.0355 176.149 42.9153 176.149 26.7952C176.149 25.3726 176.05 23.9499 176.05 22.5272C176.05 21.9643 175.711 22.0052 175.352 22.0052C172.253 21.9848 169.154 21.9643 166.054 21.9541C163.812 21.9541 161.57 21.9745 159.318 21.9541C158.102 21.9541 158.122 21.9336 158.291 20.7566C158.381 20.1322 158.361 19.4977 158.361 18.8733C158.361 13.0394 158.341 7.21567 158.331 1.38172C158.331 0.0818792 158.331 0.0716442 159.607 0.0716442C168.346 0.0716442 177.086 0.0818792 185.816 0.0921142C186.404 0.0921142 186.992 0.0921142 187.58 0.0921142C187.58 0.0818792 187.58 0.0614092 187.58 0.0511742V0.0716442Z" fill="#FFC730"/>
<path d="M271.011 58.7796C271.021 59.0969 271.05 59.363 271.05 59.6291C271.05 63.6821 271.041 67.725 271.031 71.778C271.031 74.5108 270.991 77.2538 271.031 79.9865C271.031 80.5801 270.752 80.6108 270.353 80.6108C267.842 80.6313 265.33 80.6518 262.819 80.662C258.095 80.662 253.362 80.662 248.638 80.662C242.978 80.662 237.307 80.662 231.647 80.662C228.657 80.662 225.668 80.6825 222.668 80.6825C221.403 80.6825 221.393 80.6722 221.393 79.3724C221.393 53.9487 221.393 28.5147 221.393 3.09097C221.393 2.32334 221.393 1.55572 221.393 0.788094C221.393 0.296814 221.552 0.0716438 222.1 0.0716438C229.156 0.0921138 236.211 0.102349 243.267 0.0716438C243.974 0.0716438 244.174 0.307049 244.174 1.0235C244.164 18.8119 244.174 36.6003 244.174 54.3888C244.174 55.5965 244.094 56.794 244.114 58.0017C244.114 58.2269 244.373 58.5954 244.572 58.6465C245.031 58.7693 245.519 58.7591 246.007 58.7591C254.099 58.7591 262.201 58.7591 270.293 58.7591C270.522 58.7591 270.761 58.7796 271.05 58.8001L271.011 58.7796Z" fill="#FFC730"/>
<path d="M275.595 80.7132C275.595 77.4994 275.595 74.4391 275.595 71.3686C275.595 48.1352 275.595 24.8915 275.595 1.65807C275.595 0.020469 275.595 0.061409 277.149 0.071644C283.139 0.102349 289.118 0.092114 295.107 0.092114C296.173 0.092114 297.24 0.092114 298.456 0.092114C298.456 0.532219 298.456 0.982559 298.456 1.4329C298.436 8.79186 298.396 16.1508 298.396 23.52C298.396 30.1932 298.446 36.8767 298.446 43.5499C298.446 53.4267 298.416 63.3035 298.406 73.1905C298.406 75.4115 298.376 77.6222 298.446 79.8432C298.466 80.6108 298.177 80.7029 297.569 80.7029C295.914 80.6825 294.26 80.7029 292.596 80.7029C287.274 80.7029 281.963 80.7029 276.641 80.7029H275.595V80.7132Z" fill="#FFC730"/>
<path d="M115.44 79.6692C136.679 79.6692 153.897 61.9859 153.897 40.1724C153.897 18.3589 136.679 0.67551 115.44 0.67551C94.2008 0.67551 76.9832 18.3589 76.9832 40.1724C76.9832 61.9859 94.2008 79.6692 115.44 79.6692Z" fill="#FFC730"/>
<path d="M130.328 26.5496C131.604 32.2914 123.273 35.9453 123.273 35.9453C130.328 23.1516 116.357 9.57996 116.357 9.57996C116.357 33.6015 93.6454 35.6894 93.6454 54.9926C93.6454 64.0813 99.4752 69.1272 106.74 71.0002C106.72 70.9797 97.8309 65.3095 100.113 57.1932C100.113 57.1932 102.206 64.8285 104.597 64.0915C106.979 63.3546 102.266 59.6393 103.242 56.2106C104.219 52.7819 106.501 52.004 107.747 51.0214C108.982 50.0389 109.75 48.1864 108.514 46.1291C108.514 46.1291 114.423 51.5127 110.607 55.0336C106.79 58.5544 107.079 60.2227 108.982 61.2974C110.886 62.3721 117.373 61.195 119.466 53.1708C119.466 53.1708 122.615 62.3721 119.466 65.4119C119.466 65.4119 120.991 66.9778 124.04 64.4293C124.04 64.4293 123.333 69.6287 119.306 71.3379C123.641 70.5601 127.658 68.8815 130.528 66.4865C141.141 57.6128 130.328 26.5496 130.328 26.5496Z" fill="#25431E"/>
<g opacity="0.1">
<path d="M135.162 53.8975C135.142 53.9794 131.803 66.681 119.296 71.3379C123.631 70.5601 127.648 68.8815 130.518 66.4865C133.717 63.8152 134.962 59.1378 135.162 53.8975Z" fill="#25431E"/>
</g>
<g opacity="0.1">
<path d="M94.5622 48.6367C93.9743 50.5506 93.6354 52.6386 93.6354 54.9926C93.6354 63.9278 99.256 68.9532 106.351 70.8978C98.1299 67.0904 94.5822 48.7288 94.5622 48.6367Z" fill="#25431E"/>
</g>
</g>
<path d="M40.6797 98.2322C40.5471 97.0556 40.0002 96.1442 39.0391 95.4979C38.0779 94.8433 36.8681 94.516 35.4098 94.516C34.3658 94.516 33.4626 94.6817 32.7003 95.0131C31.938 95.3363 31.3455 95.7837 30.9229 96.3555C30.5086 96.9189 30.3015 97.5611 30.3015 98.282C30.3015 98.8868 30.4424 99.4089 30.7241 99.848C31.0141 100.287 31.3911 100.656 31.8551 100.954C32.3274 101.244 32.8329 101.489 33.3714 101.688C33.91 101.878 34.4279 102.036 34.9251 102.16L37.4109 102.806C38.2229 103.005 39.0556 103.274 39.9091 103.614C40.7625 103.954 41.5539 104.401 42.283 104.956C43.0122 105.511 43.6005 106.199 44.0479 107.02C44.5037 107.84 44.7315 108.822 44.7315 109.965C44.7315 111.407 44.3587 112.687 43.6129 113.806C42.8755 114.924 41.8024 115.807 40.3938 116.453C38.9935 117.099 37.299 117.423 35.3104 117.423C33.4046 117.423 31.7557 117.12 30.3636 116.515C28.9716 115.91 27.882 115.053 27.0948 113.942C26.3076 112.824 25.8726 111.498 25.7898 109.965H29.6428C29.7173 110.885 30.0156 111.651 30.5376 112.265C31.0679 112.869 31.7433 113.321 32.5636 113.619C33.3922 113.909 34.2995 114.054 35.2855 114.054C36.371 114.054 37.3363 113.884 38.1815 113.545C39.0349 113.197 39.7061 112.716 40.195 112.103C40.6838 111.482 40.9283 110.757 40.9283 109.928C40.9283 109.174 40.7128 108.557 40.282 108.076C39.8594 107.595 39.2835 107.198 38.5543 106.883C37.8335 106.568 37.0173 106.29 36.1058 106.05L33.098 105.23C31.0597 104.675 29.4439 103.858 28.2507 102.781C27.0658 101.704 26.4734 100.279 26.4734 98.5057C26.4734 97.0391 26.8711 95.7589 27.6665 94.6651C28.462 93.5714 29.5392 92.7221 30.8981 92.1172C32.257 91.504 33.7899 91.1974 35.4968 91.1974C37.2203 91.1974 38.7408 91.4999 40.0582 92.1048C41.384 92.7096 42.428 93.5424 43.1903 94.603C43.9527 95.6553 44.3504 96.8651 44.3835 98.2322H40.6797ZM51.0709 91.5455H55.7318L63.8355 111.332H64.1338L72.2375 91.5455H76.8984V117H73.2442V98.5803H73.0081L65.501 116.963H62.4683L54.9612 98.5678H54.7251V117H51.0709V91.5455ZM86.3823 117H82.3056L91.4657 91.5455H95.9029L105.063 117H100.986L93.79 96.169H93.5911L86.3823 117ZM87.0659 107.032H100.29V110.263H87.0659V107.032ZM110.489 117V91.5455H119.562C121.534 91.5455 123.171 91.8852 124.472 92.5646C125.781 93.2441 126.758 94.1845 127.405 95.386C128.051 96.5792 128.374 97.9588 128.374 99.5249C128.374 101.083 128.047 102.454 127.392 103.639C126.746 104.815 125.768 105.731 124.459 106.386C123.158 107.04 121.522 107.368 119.55 107.368H112.676V104.061H119.202C120.445 104.061 121.455 103.883 122.234 103.527C123.021 103.171 123.597 102.653 123.962 101.973C124.326 101.294 124.509 100.478 124.509 99.5249C124.509 98.5637 124.322 97.7309 123.949 97.0266C123.585 96.3223 123.009 95.7837 122.222 95.4109C121.443 95.0297 120.42 94.8391 119.152 94.8391H114.329V117H110.489ZM123.055 105.516L129.344 117H124.969L118.804 105.516H123.055ZM133.542 94.8516V91.5455H153.242V94.8516H145.3V117H141.472V94.8516H133.542ZM159.345 117V91.5455H175.304V94.8516H163.186V102.607H174.471V105.901H163.186V113.694H175.453V117H159.345ZM182.184 117V91.5455H191.257C193.229 91.5455 194.866 91.8852 196.167 92.5646C197.476 93.2441 198.454 94.1845 199.1 95.386C199.746 96.5792 200.07 97.9588 200.07 99.5249C200.07 101.083 199.742 102.454 199.088 103.639C198.441 104.815 197.464 105.731 196.154 106.386C194.853 107.04 193.217 107.368 191.245 107.368H184.372V104.061H190.897C192.14 104.061 193.151 103.883 193.93 103.527C194.717 103.171 195.293 102.653 195.657 101.973C196.022 101.294 196.204 100.478 196.204 99.5249C196.204 98.5637 196.018 97.7309 195.645 97.0266C195.28 96.3223 194.704 95.7837 193.917 95.4109C193.138 95.0297 192.115 94.8391 190.847 94.8391H186.025V117H182.184ZM194.75 105.516L201.039 117H196.664L190.499 105.516H194.75ZM217.506 117V91.5455H226.827C228.634 91.5455 230.129 91.8437 231.314 92.4403C232.499 93.0286 233.386 93.8282 233.974 94.8391C234.562 95.8417 234.856 96.9728 234.856 98.2322C234.856 99.2928 234.662 100.188 234.272 100.917C233.883 101.638 233.361 102.218 232.706 102.657C232.06 103.088 231.347 103.403 230.568 103.602V103.85C231.414 103.892 232.238 104.165 233.042 104.67C233.854 105.168 234.525 105.876 235.055 106.796C235.586 107.716 235.851 108.834 235.851 110.152C235.851 111.453 235.544 112.621 234.931 113.657C234.326 114.684 233.39 115.5 232.122 116.105C230.854 116.702 229.234 117 227.262 117H217.506ZM221.346 113.706H226.889C228.729 113.706 230.046 113.35 230.842 112.637C231.637 111.925 232.035 111.034 232.035 109.965C232.035 109.161 231.832 108.424 231.426 107.753C231.02 107.082 230.44 106.547 229.686 106.15C228.94 105.752 228.054 105.553 227.026 105.553H221.346V113.706ZM221.346 102.558H226.492C227.353 102.558 228.128 102.392 228.816 102.06C229.512 101.729 230.063 101.265 230.469 100.668C230.883 100.063 231.09 99.3509 231.09 98.5305C231.09 97.4782 230.722 96.5958 229.984 95.8832C229.247 95.1706 228.116 94.8143 226.591 94.8143H221.346V102.558ZM242.156 117V91.5455H258.115V94.8516H245.996V102.607H257.282V105.901H245.996V113.694H258.264V117H242.156ZM263.739 94.8516V91.5455H283.439V94.8516H275.497V117H271.669V94.8516H263.739ZM303.426 98.2322C303.293 97.0556 302.746 96.1442 301.785 95.4979C300.824 94.8433 299.614 94.516 298.156 94.516C297.112 94.516 296.209 94.6817 295.446 95.0131C294.684 95.3363 294.092 95.7837 293.669 96.3555C293.255 96.9189 293.048 97.5611 293.048 98.282C293.048 98.8868 293.188 99.4089 293.47 99.848C293.76 100.287 294.137 100.656 294.601 100.954C295.074 101.244 295.579 101.489 296.118 101.688C296.656 101.878 297.174 102.036 297.671 102.16L300.157 102.806C300.969 103.005 301.802 103.274 302.655 103.614C303.509 103.954 304.3 104.401 305.029 104.956C305.758 105.511 306.347 106.199 306.794 107.02C307.25 107.84 307.478 108.822 307.478 109.965C307.478 111.407 307.105 112.687 306.359 113.806C305.622 114.924 304.549 115.807 303.14 116.453C301.74 117.099 300.045 117.423 298.056 117.423C296.151 117.423 294.502 117.12 293.11 116.515C291.718 115.91 290.628 115.053 289.841 113.942C289.054 112.824 288.619 111.498 288.536 109.965H292.389C292.463 110.885 292.762 111.651 293.284 112.265C293.814 112.869 294.489 113.321 295.31 113.619C296.138 113.909 297.046 114.054 298.032 114.054C299.117 114.054 300.082 113.884 300.928 113.545C301.781 113.197 302.452 112.716 302.941 112.103C303.43 111.482 303.674 110.757 303.674 109.928C303.674 109.174 303.459 108.557 303.028 108.076C302.605 107.595 302.03 107.198 301.3 106.883C300.58 106.568 299.763 106.29 298.852 106.05L295.844 105.23C293.806 104.675 292.19 103.858 290.997 102.781C289.812 101.704 289.219 100.279 289.219 98.5057C289.219 97.0391 289.617 95.7589 290.413 94.6651C291.208 93.5714 292.285 92.7221 293.644 92.1172C295.003 91.504 296.536 91.1974 298.243 91.1974C299.966 91.1974 301.487 91.4999 302.804 92.1048C304.13 92.7096 305.174 93.5424 305.936 94.603C306.699 95.6553 307.096 96.8651 307.13 98.2322H303.426ZM318.354 113.52L318.167 114.875C318.043 115.869 317.832 116.905 317.533 117.982C317.243 119.067 316.941 120.074 316.626 121.002C316.319 121.93 316.067 122.668 315.868 123.214H313.233C313.341 122.701 313.49 122.005 313.68 121.126C313.871 120.256 314.057 119.283 314.24 118.206C314.422 117.128 314.559 116.031 314.65 114.912L314.774 113.52H318.354ZM336.253 117V91.5455H352.037V94.8516H340.093V102.607H350.906V105.901H340.093V117H336.253ZM357.482 117H353.405L362.565 91.5455H367.002L376.163 117H372.086L364.89 96.169H364.691L357.482 117ZM358.165 107.032H371.39V110.263H358.165V107.032ZM395.267 98.2322C395.134 97.0556 394.587 96.1442 393.626 95.4979C392.665 94.8433 391.455 94.516 389.997 94.516C388.953 94.516 388.05 94.6817 387.287 95.0131C386.525 95.3363 385.932 95.7837 385.51 96.3555C385.096 96.9189 384.888 97.5611 384.888 98.282C384.888 98.8868 385.029 99.4089 385.311 99.848C385.601 100.287 385.978 100.656 386.442 100.954C386.914 101.244 387.42 101.489 387.958 101.688C388.497 101.878 389.015 102.036 389.512 102.16L391.998 102.806C392.81 103.005 393.643 103.274 394.496 103.614C395.349 103.954 396.141 104.401 396.87 104.956C397.599 105.511 398.187 106.199 398.635 107.02C399.091 107.84 399.318 108.822 399.318 109.965C399.318 111.407 398.946 112.687 398.2 113.806C397.462 114.924 396.389 115.807 394.981 116.453C393.58 117.099 391.886 117.423 389.897 117.423C387.992 117.423 386.343 117.12 384.951 116.515C383.559 115.91 382.469 115.053 381.682 113.942C380.895 112.824 380.46 111.498 380.377 109.965H384.23C384.304 110.885 384.603 111.651 385.125 112.265C385.655 112.869 386.33 113.321 387.15 113.619C387.979 113.909 388.886 114.054 389.872 114.054C390.958 114.054 391.923 113.884 392.768 113.545C393.622 113.197 394.293 112.716 394.782 112.103C395.271 111.482 395.515 110.757 395.515 109.928C395.515 109.174 395.3 108.557 394.869 108.076C394.446 107.595 393.87 107.198 393.141 106.883C392.42 106.568 391.604 106.29 390.693 106.05L387.685 105.23C385.647 104.675 384.031 103.858 382.838 102.781C381.653 101.704 381.06 100.279 381.06 98.5057C381.06 97.0391 381.458 95.7589 382.253 94.6651C383.049 93.5714 384.126 92.7221 385.485 92.1172C386.844 91.504 388.377 91.1974 390.084 91.1974C391.807 91.1974 393.328 91.4999 394.645 92.1048C395.971 92.7096 397.015 93.5424 397.777 94.603C398.54 95.6553 398.937 96.8651 398.97 98.2322H395.267ZM404.403 94.8516V91.5455H424.102V94.8516H416.16V117H412.332V94.8516H404.403ZM430.206 117V91.5455H446.165V94.8516H434.046V102.607H445.332V105.901H434.046V113.694H446.314V117H430.206ZM453.045 117V91.5455H462.118C464.09 91.5455 465.726 91.8852 467.027 92.5646C468.336 93.2441 469.314 94.1845 469.96 95.386C470.607 96.5792 470.93 97.9588 470.93 99.5249C470.93 101.083 470.603 102.454 469.948 103.639C469.302 104.815 468.324 105.731 467.015 106.386C465.714 107.04 464.077 107.368 462.105 107.368H455.232V104.061H461.757C463 104.061 464.011 103.883 464.79 103.527C465.577 103.171 466.153 102.653 466.518 101.973C466.882 101.294 467.064 100.478 467.064 99.5249C467.064 98.5637 466.878 97.7309 466.505 97.0266C466.141 96.3223 465.565 95.7837 464.778 95.4109C463.999 95.0297 462.975 94.8391 461.708 94.8391H456.885V117H453.045ZM465.61 105.516L471.899 117H467.524L461.36 105.516H465.61Z" fill="#FFC730"/>
<defs>
<clipPath id="clip0_1_4">
<rect width="502" height="125" fill="white"/>
</clipPath>
</defs>
</svg>
