<svg width="502" height="122" viewBox="0 0 502 122" fill="none" xmlns="http://www.w3.org/2000/svg">
<g clip-path="url(#clip0_301_7908)">
<path d="M330.235 35.0035C330.235 42.8552 330.235 50.6569 330.235 58.4486C330.235 64.592 330.255 70.7355 330.265 76.8789C330.265 76.9289 330.265 76.9888 330.265 77.0387C330.315 78.687 330.315 78.717 328.601 78.7269C321.974 78.7469 315.347 78.7469 308.72 78.7469C307.504 78.7469 307.494 78.707 307.494 77.4783C307.484 67.2192 307.454 56.9601 307.454 46.7011C307.454 36.9814 307.504 27.2518 307.514 17.5322C307.514 12.088 307.504 6.63377 307.504 1.18957C307.504 0.130696 307.584 0.0507812 308.65 0.0507812C317.31 0.0507812 325.96 0.0507813 334.62 0.0907387C334.929 0.0907387 335.367 0.470334 335.527 0.780004C336.802 3.27734 338.028 5.79466 339.274 8.30199C340.978 11.7383 342.712 15.1747 344.406 18.621C346.14 22.1572 347.864 25.7134 349.558 29.2696C350.724 31.7071 351.84 34.1744 352.996 36.6118C353.206 37.0514 353.505 37.4609 353.943 37.8605C353.943 36.7017 353.943 35.543 353.943 34.3842C353.943 25.2439 353.943 16.1137 353.923 6.9734C353.923 5.03547 353.843 3.09754 353.813 1.1596C353.803 0.130696 353.833 0.0907387 354.9 0.100728C357.869 0.120707 360.829 0.190632 363.799 0.190632C367.616 0.190632 371.442 0.140685 375.259 0.120707C376.365 0.120707 376.485 0.170654 376.495 1.27947C376.545 4.75577 376.545 8.22207 376.545 11.6984C376.545 33.7149 376.545 55.7215 376.565 77.738C376.565 78.4972 376.335 78.707 375.618 78.707C368.273 78.707 360.919 78.7369 353.574 78.7569C353.285 78.7569 352.986 78.717 352.697 78.707C352.01 78.707 351.671 78.4572 351.472 77.698C351.232 76.769 350.654 75.9199 350.216 75.0309C347.804 70.1861 345.393 65.3312 342.981 60.4864C340.141 54.7825 337.281 49.0785 334.451 43.3646C333.693 41.8363 333.045 40.2679 332.348 38.7196C331.889 37.7107 331.431 36.6917 330.923 35.7028C330.773 35.4231 330.444 35.2333 330.225 35.0135L330.235 35.0035Z" fill="#FFC730"/>
<path d="M70.5052 39.3866C70.5052 51.4837 70.5052 63.5908 70.5052 75.6879C70.5052 76.4071 70.5251 77.1364 70.5948 77.8456C70.6646 78.4649 70.4155 78.6847 69.8375 78.6547C69.5983 78.6448 69.3591 78.6647 69.12 78.6647C62.2538 78.6847 55.3876 78.6947 48.5214 78.7546C47.764 78.7546 47.5846 78.5449 47.5946 77.8056C47.6444 68.8252 47.6643 59.8548 47.7042 50.8743C47.7042 50.1851 47.4252 50.0253 46.7874 50.0253C42.1136 50.0253 37.4398 50.0053 32.766 49.9553C31.9887 49.9553 31.9687 50.3549 31.9687 50.9143C31.9687 56.0189 31.9687 61.1234 31.9687 66.218C31.9687 69.934 31.9687 73.6401 31.9687 77.3561C31.9687 78.6448 31.9687 78.6547 30.6433 78.6547C25.3816 78.6547 20.1198 78.6547 14.8481 78.6547C13.3831 78.6547 11.9083 78.7247 10.4433 78.7047C9.30727 78.6947 9.23752 78.5848 9.25745 77.6158C9.3571 71.4025 9.50658 65.1891 9.52651 58.9757C9.56638 40.9449 9.54644 22.9141 9.52651 4.87336C9.52651 3.57475 9.387 2.26614 9.27738 0.967525C9.21758 0.228312 9.51655 -0.0214216 10.244 -0.0114322C17.2198 0.0285252 24.1957 0.0584933 31.1615 0.0485039C31.899 0.0485039 31.9787 0.358174 31.9787 0.957535C31.9687 5.98218 31.9687 11.0068 31.9787 16.0215C31.9787 19.8974 32.0086 23.7732 31.9787 27.6391C31.9787 28.3783 32.188 28.6081 32.9354 28.5981C37.6092 28.5481 42.283 28.5282 46.9568 28.5182C47.5348 28.5182 47.6145 28.1985 47.6245 27.759C47.6544 26.1007 47.7042 24.4525 47.7142 22.7943C47.7241 16.6808 47.7241 10.5573 47.7142 4.44382C47.7142 3.2451 47.6843 2.04638 47.6743 0.847652C47.6743 0.26827 47.8836 0.0285252 48.5313 0.0285252C55.537 0.0584933 62.5328 0.0584933 69.5385 0.0285252C70.3357 0.0285252 70.5151 0.288248 70.5151 1.03745C70.4952 13.8038 70.5052 26.5802 70.5052 39.3466H70.5251L70.5052 39.3866Z" fill="#FFC730"/>
<path d="M385.733 39.4563C385.733 27.8087 385.733 16.1611 385.733 4.51354C385.733 3.36476 385.683 2.21599 385.693 1.06721C385.693 0.00834006 385.743 0.0482974 386.779 0.0582867C390.785 0.0982441 394.791 0.108234 398.807 0.108234C411.713 0.108234 424.628 0.108234 437.533 0.108234C438.44 0.108234 439.357 0.128212 440.254 0.0183293C440.921 -0.0615855 441.081 0.108234 441.081 0.757542C441.061 5.43256 441.081 10.1076 441.081 14.7826C441.081 16.7605 441.101 18.7384 441.15 20.7063C441.17 21.3556 440.812 21.3956 440.343 21.3956C438.42 21.3956 436.497 21.4355 434.573 21.4355C426.501 21.4355 418.429 21.4355 410.357 21.4355C408.334 21.4355 408.324 21.4355 408.314 23.4234C408.314 24.9717 408.344 26.5201 408.324 28.0684C408.324 28.5579 408.534 28.6278 408.962 28.6278C415.46 28.6179 421.947 28.6179 428.445 28.6179C429.501 28.6179 429.491 28.6179 429.491 29.6567C429.491 36.0699 429.491 42.4831 429.491 48.8963C429.491 49.9551 429.501 49.9651 428.445 49.9651C422.116 49.9851 415.778 50.0051 409.45 50.035C408.314 50.035 408.314 50.065 408.324 51.1838C408.324 53.0219 408.354 54.8699 408.324 56.7079C408.324 57.1774 408.464 57.3273 408.902 57.3173C409.919 57.2973 410.935 57.2973 411.952 57.2973C421.409 57.2973 430.876 57.2973 440.333 57.2873C440.891 57.2873 441.061 57.4371 441.061 58.0065C441.041 64.4197 441.041 70.8329 441.041 77.246C441.041 78.6845 441.041 78.6845 439.516 78.6845C426.312 78.6845 413.118 78.6745 399.913 78.6845C395.668 78.6845 391.413 78.7145 387.168 78.7345C386.899 78.7345 386.629 78.6845 386.37 78.7145C385.812 78.7644 385.703 78.5047 385.713 78.0052C385.733 75.5978 385.733 73.2004 385.733 70.7929C385.733 60.3441 385.733 49.8952 385.733 39.4563Z" fill="#FFC730"/>
<path d="M460.544 78.7372C455.87 78.7372 451.197 78.7372 446.513 78.7372C444.579 78.7372 444.57 78.7471 444.57 76.8192C444.57 70.7856 444.56 64.7421 444.56 58.7085C444.56 57.3699 444.56 57.3499 445.945 57.3499C450.698 57.3499 455.462 57.3499 460.215 57.3499C461.013 57.3499 461.82 57.29 462.607 57.1901C463.982 57.0303 464.889 55.9914 464.989 54.6029C465.168 52.2654 464.59 50.0577 463.803 47.89C463.195 46.2318 462.737 44.5036 461.989 42.9153C461.421 41.7066 461.112 40.438 460.634 39.2193C460.106 37.8607 459.388 36.5721 458.83 35.2135C458.292 33.8949 457.853 32.5264 457.385 31.1778C456.897 29.7394 456.359 28.3209 455.96 26.8624C455.262 24.2652 454.535 21.668 454.057 19.0208C453.738 17.2527 453.678 15.4046 453.778 13.6066C453.887 11.7385 454.445 9.92048 455.252 8.19232C456.408 5.72495 458.491 4.21656 460.753 2.92793C462.308 2.04887 464.012 1.58936 465.766 1.28968C467.171 1.03994 468.546 0.550464 469.962 0.400624C472.054 0.190847 474.167 0.130911 476.28 0.120922C484.461 0.0809643 492.633 0.0909537 500.815 0.0909537C501.971 0.0909537 501.981 0.0909537 501.981 1.23973C501.981 7.54301 501.971 13.8463 501.961 20.1496C501.961 21.3883 501.961 21.3983 500.685 21.3983C495.423 21.3983 490.152 21.3982 484.89 21.4382C484.132 21.4382 483.345 21.6979 482.618 21.9577C481.781 22.2573 481.531 23.0465 481.472 23.8357C481.322 25.6837 481.521 27.5017 482.139 29.2599C482.608 30.5885 482.956 31.957 483.485 33.2656C484.451 35.683 485.538 38.0605 486.524 40.4779C487.112 41.8964 487.63 43.3449 488.139 44.7933C488.986 47.1808 489.853 49.5483 490.63 51.9557C491.925 55.9814 492.902 60.077 492.782 64.3525C492.663 69.0575 490.57 72.6636 486.664 75.2509C483.933 77.0589 480.914 78.0978 477.665 78.2577C471.965 78.5374 466.254 78.6772 460.544 78.877C460.544 78.8271 460.544 78.7771 460.544 78.7272V78.7372Z" fill="#FFC730"/>
<path d="M187.58 0.07076C196.957 0.07076 206.335 0.0807493 215.712 0.0507812C216.549 0.0507812 216.749 0.330483 216.749 1.10965C216.729 7.38297 216.739 13.6663 216.749 19.9396C216.749 21.3781 216.769 21.398 215.284 21.408C210.181 21.438 205.079 21.458 199.977 21.4879C198.602 21.4879 198.851 21.5878 198.861 22.6767C198.891 26.8922 198.861 31.1177 198.851 35.3432C198.851 37.9604 198.881 40.5776 198.881 43.1948C198.871 48.1895 198.811 53.1842 198.811 58.1788C198.811 64.7718 198.851 71.3748 198.901 77.9678C198.901 78.6171 198.582 78.667 198.113 78.667C195.652 78.667 193.2 78.677 190.739 78.687C186.543 78.707 182.348 78.7269 178.152 78.7469C177.963 78.7469 177.774 78.7469 177.594 78.7469C176.01 78.7469 176.02 78.7469 176.09 77.1986C176.139 75.9199 176.149 74.6313 176.149 73.3527C176.149 57.6194 176.149 41.8862 176.149 26.153C176.149 24.7644 176.05 23.3759 176.05 21.9874C176.05 21.438 175.711 21.478 175.352 21.478C172.253 21.458 169.154 21.438 166.054 21.428C163.812 21.428 161.57 21.448 159.318 21.428C158.102 21.428 158.122 21.408 158.291 20.2592C158.381 19.6499 158.361 19.0306 158.361 18.4212C158.361 12.7273 158.341 7.04333 158.331 1.3494C158.331 0.0807494 158.331 0.07076 159.607 0.07076C168.346 0.07076 177.086 0.0807493 185.816 0.0907387C186.404 0.0907387 186.992 0.0907387 187.58 0.0907387C187.58 0.0807493 187.58 0.0607706 187.58 0.0507812V0.07076Z" fill="#FFC730"/>
<path d="M271.011 57.3693C271.021 57.6789 271.05 57.9386 271.05 58.1984C271.05 62.1542 271.04 66.1 271.031 70.0557C271.031 72.7229 270.991 75.4 271.031 78.0672C271.031 78.6466 270.751 78.6766 270.353 78.6766C267.842 78.6965 265.33 78.7165 262.819 78.7265C258.095 78.7265 253.362 78.7265 248.638 78.7265C242.978 78.7265 237.307 78.7265 231.647 78.7265C228.657 78.7265 225.668 78.7465 222.668 78.7465C221.403 78.7465 221.393 78.7365 221.393 77.4678C221.393 52.6543 221.393 27.8307 221.393 3.01717C221.393 2.26797 221.393 1.51877 221.393 0.769567C221.393 0.290078 221.552 0.0703125 222.1 0.0703125C229.156 0.0902912 236.211 0.100281 243.267 0.0703125C243.974 0.0703125 244.174 0.300068 244.174 0.999323C244.164 18.3608 244.174 35.7223 244.174 53.0838C244.174 54.2626 244.094 55.4313 244.114 56.6101C244.114 56.8298 244.373 57.1894 244.572 57.2394C245.031 57.3593 245.519 57.3493 246.007 57.3493C254.099 57.3493 262.201 57.3493 270.293 57.3493C270.522 57.3493 270.761 57.3693 271.05 57.3892L271.011 57.3693Z" fill="#FFC730"/>
<path d="M275.595 78.7748C275.595 75.6381 275.595 72.6513 275.595 69.6545C275.595 46.9787 275.595 24.2928 275.595 1.61699C275.595 0.0186898 275.595 0.0586472 277.149 0.0686366C283.139 0.0986047 289.118 0.0886153 295.107 0.0886153C296.173 0.0886153 297.24 0.0886153 298.455 0.0886153C298.455 0.518158 298.455 0.957689 298.455 1.39722C298.436 8.57957 298.396 15.7619 298.396 22.9543C298.396 29.4673 298.446 35.9904 298.446 42.5034C298.446 52.1431 298.416 61.7829 298.406 71.4326C298.406 73.6003 298.376 75.758 298.446 77.9257C298.465 78.6749 298.176 78.7648 297.569 78.7648C295.914 78.7448 294.26 78.7648 292.596 78.7648C287.274 78.7648 281.963 78.7648 276.641 78.7648H275.595V78.7748Z" fill="#FFC730"/>
<path d="M115.44 77.758C136.679 77.758 153.897 60.4991 153.897 39.2091C153.897 17.9191 136.679 0.660156 115.44 0.660156C94.201 0.660156 76.9834 17.9191 76.9834 39.2091C76.9834 60.4991 94.201 77.758 115.44 77.758Z" fill="#FFC730"/>
<path d="M20 120.678V96.9727H27.5465C28.9953 96.9727 30.2516 97.1197 31.3061 97.4047C32.3606 97.6896 33.2225 98.1032 33.901 98.6271C34.5796 99.1602 35.0747 99.8036 35.4048 100.576C35.7349 101.348 35.8908 102.203 35.8908 103.168C35.8908 103.756 35.7991 104.317 35.6157 104.859C35.4324 105.401 35.1573 105.898 34.7905 106.366C34.4237 106.826 33.9561 107.24 33.4059 107.607C32.8465 107.975 32.1955 108.269 31.4528 108.499C33.1766 108.839 34.4879 109.464 35.3682 110.365C36.2484 111.265 36.6886 112.46 36.6886 113.94C36.6886 114.942 36.5052 115.861 36.1384 116.689C35.7716 117.516 35.2306 118.223 34.5246 118.821C33.8185 119.418 32.9474 119.878 31.9204 120.2C30.8934 120.521 29.7197 120.687 28.3993 120.687H20V120.678ZM23.2002 107.589H27.4273C28.326 107.589 29.1145 107.488 29.7747 107.295C30.4349 107.093 30.9851 106.817 31.4161 106.468C31.8471 106.118 32.168 105.686 32.3789 105.181C32.5898 104.675 32.6907 104.133 32.6907 103.535C32.6907 102.147 32.2689 101.127 31.4344 100.475C30.6 99.822 29.2979 99.5003 27.5374 99.5003H23.2002V107.589ZM23.2002 109.868V118.122H28.3168C29.2337 118.122 30.0131 118.021 30.6642 117.81C31.3152 117.598 31.8562 117.304 32.278 116.927C32.6998 116.551 33.0116 116.091 33.2133 115.567C33.415 115.043 33.5067 114.464 33.5067 113.839C33.5067 112.617 33.0758 111.652 32.2138 110.935C31.3519 110.227 30.0407 109.868 28.2984 109.868H23.2002Z" fill="#FFC730"/>
<path d="M58.4112 96.9727V99.583H47.0593V107.46H56.2564V109.979H47.0593V118.067H58.4112V120.678H43.8408V96.9727H58.4112Z" fill="#FFC730"/>
<path d="M81.6012 96.9727V99.6658H73.963V120.678H70.7628V99.6658H63.0879V96.9727H81.6104H81.6012Z" fill="#FFC730"/>
<path d="M103.553 96.9727V99.6658H95.9151V120.678H92.715V99.6658H85.04V96.9727H103.563H103.553Z" fill="#FFC730"/>
<path d="M113.19 120.678H109.99V96.9727H113.19V120.678Z" fill="#FFC730"/>
<path d="M124.285 97.083C124.423 97.1565 124.579 97.3036 124.753 97.5241L138.452 115.392C138.415 115.108 138.397 114.823 138.388 114.556C138.379 114.29 138.37 114.023 138.37 113.766V96.9727H141.175V120.678H139.562C139.305 120.678 139.094 120.632 138.929 120.549C138.755 120.457 138.59 120.31 138.425 120.099L124.744 102.249C124.762 102.524 124.78 102.791 124.789 103.057C124.799 103.324 124.808 103.563 124.808 103.784V120.678H122.002V96.9727H123.652C123.937 96.9727 124.148 97.0094 124.285 97.083Z" fill="#FFC730"/>
<path d="M159.982 118.344C160.624 118.344 161.201 118.317 161.742 118.252C162.274 118.188 162.779 118.105 163.255 117.976C163.732 117.857 164.172 117.71 164.594 117.535C165.016 117.361 165.429 117.168 165.85 116.947V111.717H162.183C161.972 111.717 161.807 111.653 161.678 111.533C161.55 111.414 161.486 111.267 161.486 111.083V109.263H168.748V118.363C168.152 118.795 167.538 119.171 166.896 119.484C166.254 119.806 165.566 120.072 164.833 120.284C164.099 120.495 163.32 120.66 162.485 120.762C161.651 120.863 160.743 120.918 159.762 120.918C158.047 120.918 156.47 120.624 155.04 120.035C153.609 119.447 152.38 118.62 151.344 117.554C150.308 116.487 149.501 115.21 148.923 113.721C148.346 112.232 148.062 110.596 148.062 108.803C148.062 107.011 148.346 105.347 148.914 103.858C149.483 102.369 150.29 101.092 151.344 100.025C152.399 98.9592 153.664 98.1411 155.159 97.5529C156.653 96.9646 158.322 96.6797 160.165 96.6797C161.101 96.6797 161.972 96.7532 162.769 96.8819C163.576 97.0198 164.319 97.222 165.007 97.4793C165.695 97.7367 166.327 98.0492 166.914 98.4261C167.501 98.7937 168.042 99.2165 168.546 99.6761L167.639 101.128C167.455 101.423 167.208 101.579 166.914 101.579C166.74 101.579 166.547 101.514 166.336 101.395C166.061 101.239 165.75 101.055 165.41 100.834C165.071 100.614 164.649 100.402 164.163 100.2C163.677 99.9978 163.1 99.8232 162.43 99.6761C161.761 99.5291 160.972 99.4647 160.064 99.4647C158.735 99.4647 157.524 99.6853 156.452 100.117C155.37 100.549 154.453 101.174 153.692 101.983C152.931 102.792 152.353 103.776 151.94 104.924C151.537 106.073 151.326 107.369 151.326 108.803C151.326 110.237 151.537 111.644 151.959 112.82C152.38 113.997 152.976 114.989 153.747 115.807C154.517 116.625 155.434 117.25 156.488 117.673C157.543 118.105 158.707 118.317 159.991 118.317L159.982 118.344Z" fill="#FFC730"/>
<path d="M188.784 120.678H185.584V96.9727H188.784V120.678Z" fill="#FFC730"/>
<path d="M209.709 100.678C209.608 100.843 209.507 100.972 209.397 101.055C209.287 101.137 209.14 101.174 208.966 101.174C208.782 101.174 208.562 101.082 208.315 100.889C208.067 100.696 207.755 100.494 207.37 100.273C206.985 100.053 206.536 99.8413 206.004 99.6575C205.472 99.4737 204.821 99.3726 204.06 99.3726C203.345 99.3726 202.712 99.4737 202.162 99.6667C201.612 99.8597 201.153 100.126 200.787 100.448C200.42 100.779 200.135 101.165 199.952 101.615C199.769 102.066 199.668 102.544 199.668 103.068C199.668 103.729 199.833 104.281 200.154 104.713C200.475 105.145 200.906 105.522 201.438 105.825C201.969 106.128 202.575 106.404 203.253 106.625C203.932 106.845 204.619 107.084 205.335 107.323C206.041 107.562 206.738 107.838 207.416 108.141C208.095 108.445 208.7 108.831 209.232 109.29C209.764 109.75 210.194 110.32 210.515 110.991C210.836 111.662 211.001 112.489 211.001 113.472C211.001 114.511 210.827 115.485 210.47 116.395C210.121 117.305 209.598 118.096 208.929 118.767C208.251 119.438 207.425 119.971 206.435 120.357C205.445 120.743 204.335 120.936 203.079 120.936C201.548 120.936 200.154 120.66 198.898 120.099C197.641 119.539 196.559 118.794 195.67 117.838L196.596 116.313C196.688 116.193 196.789 116.092 196.917 116.009C197.045 115.927 197.183 115.89 197.339 115.89C197.568 115.89 197.834 116.009 198.127 116.267C198.421 116.515 198.797 116.791 199.237 117.085C199.686 117.379 200.218 117.655 200.851 117.903C201.483 118.151 202.254 118.28 203.171 118.28C203.932 118.28 204.61 118.178 205.197 117.967C205.784 117.756 206.297 117.462 206.71 117.085C207.123 116.708 207.434 116.248 207.655 115.715C207.875 115.182 207.985 114.594 207.985 113.941C207.985 113.224 207.82 112.636 207.499 112.176C207.178 111.717 206.747 111.331 206.224 111.027C205.701 110.724 205.096 110.458 204.418 110.237C203.739 110.026 203.051 109.805 202.336 109.575C201.621 109.345 200.933 109.088 200.255 108.794C199.576 108.5 198.971 108.114 198.448 107.636C197.916 107.158 197.495 106.57 197.174 105.862C196.853 105.154 196.688 104.272 196.688 103.224C196.688 102.387 196.853 101.579 197.174 100.788C197.495 100.007 197.971 99.3082 198.586 98.7016C199.2 98.095 199.961 97.6078 200.869 97.2493C201.777 96.8817 202.822 96.707 203.996 96.707C205.316 96.707 206.518 96.9184 207.609 97.3321C208.7 97.7549 209.653 98.3615 210.46 99.152L209.681 100.678H209.709Z" fill="#FFC730"/>
<path d="M245.874 120.68H243.398C243.114 120.68 242.884 120.607 242.701 120.469C242.527 120.322 242.389 120.147 242.307 119.926L240.097 114.2H229.488L227.278 119.926C227.205 120.129 227.067 120.303 226.884 120.46C226.7 120.616 226.462 120.689 226.187 120.689H223.711L233.165 96.9844H236.42L245.874 120.689V120.68ZM230.377 111.875H239.207L235.494 102.233C235.255 101.635 235.017 100.891 234.788 99.9992C234.669 100.45 234.549 100.863 234.43 101.249C234.311 101.635 234.201 101.966 234.091 102.251L230.377 111.884V111.875Z" fill="#FFC730"/>
<path d="M276.289 96.9727V99.6658H268.65V120.678H265.45V99.6658H257.775V96.9727H276.298H276.289Z" fill="#FFC730"/>
<path d="M296.709 96.9727V99.583H285.357V107.46H294.554V109.979H285.357V118.067H296.709V120.678H282.139V96.9727H296.709Z" fill="#FFC730"/>
<path d="M323.246 120.68H320.77C320.486 120.68 320.257 120.607 320.073 120.469C319.899 120.322 319.761 120.147 319.679 119.926L317.469 114.2H306.86L304.65 119.926C304.577 120.129 304.439 120.303 304.256 120.46C304.072 120.616 303.834 120.689 303.559 120.689H301.083L310.537 96.9844H313.792L323.246 120.689V120.68ZM307.749 111.875H316.58L312.866 102.233C312.627 101.635 312.389 100.891 312.16 99.9992C312.041 100.45 311.921 100.863 311.802 101.249C311.683 101.635 311.573 101.966 311.463 102.251L307.749 111.884V111.875Z" fill="#FFC730"/>
<path d="M340.751 112.948C340.87 113.242 340.98 113.536 341.09 113.83C341.2 113.517 341.319 113.223 341.438 112.948C341.557 112.663 341.695 112.378 341.851 112.093L349.856 97.515C350.003 97.2576 350.149 97.1105 350.305 97.0554C350.461 97.0002 350.681 96.9727 350.965 96.9727H353.322V120.678H350.516V103.26C350.516 103.03 350.516 102.782 350.534 102.515C350.544 102.249 350.562 101.982 350.58 101.706L342.474 116.532C342.199 117.029 341.814 117.277 341.319 117.277H340.861C340.365 117.277 339.98 117.029 339.705 116.532L331.416 101.66C331.453 101.945 331.471 102.23 331.489 102.506C331.508 102.782 331.517 103.039 331.517 103.269V120.687H328.711V96.9818H331.067C331.352 96.9818 331.572 97.0094 331.728 97.0646C331.884 97.1197 332.03 97.276 332.177 97.5241L340.347 112.12C340.503 112.387 340.64 112.663 340.751 112.957V112.948Z" fill="#FFC730"/>
<path d="M382.518 100.678C382.417 100.843 382.316 100.972 382.206 101.055C382.096 101.137 381.95 101.174 381.775 101.174C381.583 101.174 381.372 101.082 381.124 100.889C380.877 100.705 380.565 100.494 380.18 100.273C379.795 100.053 379.345 99.8413 378.814 99.6575C378.282 99.4737 377.631 99.3726 376.87 99.3726C376.154 99.3726 375.522 99.4737 374.972 99.6667C374.421 99.8597 373.963 100.126 373.596 100.448C373.229 100.779 372.945 101.165 372.762 101.615C372.578 102.066 372.477 102.544 372.477 103.068C372.477 103.729 372.642 104.281 372.963 104.713C373.284 105.145 373.715 105.522 374.247 105.825C374.779 106.128 375.384 106.404 376.063 106.625C376.741 106.854 377.429 107.084 378.144 107.323C378.85 107.562 379.547 107.838 380.226 108.141C380.904 108.445 381.509 108.831 382.041 109.29C382.573 109.75 383.004 110.32 383.325 110.991C383.646 111.662 383.811 112.489 383.811 113.472C383.811 114.511 383.637 115.485 383.279 116.395C382.922 117.305 382.417 118.096 381.739 118.767C381.06 119.438 380.235 119.971 379.245 120.357C378.263 120.743 377.145 120.936 375.888 120.936C374.357 120.936 372.963 120.66 371.707 120.099C370.451 119.539 369.369 118.794 368.479 117.838L369.406 116.313C369.497 116.193 369.598 116.092 369.727 116.009C369.855 115.927 369.992 115.89 370.148 115.89C370.378 115.89 370.643 116.009 370.937 116.267C371.23 116.515 371.606 116.791 372.046 117.085C372.496 117.379 373.028 117.655 373.66 117.903C374.293 118.151 375.063 118.28 375.98 118.28C376.741 118.28 377.42 118.178 378.007 117.967C378.603 117.756 379.107 117.462 379.52 117.085C379.932 116.708 380.244 116.248 380.473 115.715C380.702 115.182 380.803 114.594 380.803 113.941C380.803 113.224 380.638 112.636 380.317 112.176C379.996 111.717 379.565 111.331 379.034 111.027C378.502 110.724 377.906 110.458 377.227 110.237C376.549 110.026 375.861 109.805 375.146 109.575C374.44 109.345 373.743 109.088 373.064 108.794C372.386 108.5 371.79 108.114 371.258 107.636C370.726 107.158 370.304 106.57 369.974 105.862C369.653 105.154 369.488 104.272 369.488 103.224C369.488 102.387 369.653 101.579 369.974 100.788C370.295 100.007 370.772 99.3082 371.386 98.7016C372.001 98.095 372.762 97.6078 373.669 97.2493C374.577 96.8817 375.623 96.707 376.796 96.707C378.117 96.707 379.318 96.9184 380.409 97.3321C381.5 97.7549 382.454 98.3615 383.261 99.152L382.481 100.678H382.518Z" fill="#FFC730"/>
<path d="M393.889 111.808V120.678H390.707V96.9727H397.685C399.18 96.9727 400.482 97.1473 401.591 97.4966C402.701 97.8459 403.618 98.3422 404.342 98.9764C405.067 99.6106 405.608 100.392 405.965 101.293C406.323 102.193 406.497 103.205 406.497 104.317C406.497 105.429 406.304 106.431 405.919 107.341C405.534 108.251 404.975 109.041 404.232 109.703C403.489 110.365 402.563 110.879 401.472 111.247C400.372 111.615 399.116 111.799 397.694 111.799H393.898L393.889 111.808ZM393.889 109.262H397.685C398.602 109.262 399.409 109.142 400.106 108.894C400.803 108.655 401.39 108.315 401.866 107.874C402.343 107.442 402.701 106.918 402.939 106.311C403.178 105.705 403.306 105.034 403.306 104.307C403.306 102.8 402.838 101.614 401.912 100.769C400.986 99.9231 399.574 99.4911 397.694 99.4911H393.898V109.253L393.889 109.262Z" fill="#FFC730"/>
<path d="M434.987 108.832C434.987 110.606 434.702 112.242 434.143 113.722C433.584 115.202 432.786 116.479 431.768 117.555C430.741 118.621 429.513 119.457 428.082 120.046C426.642 120.634 425.056 120.928 423.323 120.928C421.59 120.928 420.004 120.634 418.573 120.046C417.143 119.457 415.914 118.63 414.896 117.555C413.878 116.479 413.081 115.211 412.521 113.722C411.962 112.242 411.678 110.606 411.678 108.832C411.678 107.058 411.962 105.431 412.521 103.942C413.081 102.462 413.878 101.175 414.896 100.1C415.923 99.0247 417.143 98.1882 418.573 97.5908C420.004 96.9933 421.59 96.6992 423.323 96.6992C425.056 96.6992 426.652 96.9933 428.082 97.5908C429.522 98.1882 430.75 99.0247 431.768 100.1C432.795 101.175 433.584 102.453 434.143 103.942C434.702 105.431 434.987 107.058 434.987 108.832ZM431.704 108.832C431.704 107.38 431.502 106.065 431.108 104.907C430.714 103.749 430.154 102.766 429.421 101.966C428.696 101.166 427.816 100.55 426.78 100.118C425.744 99.6865 424.588 99.4751 423.314 99.4751C422.039 99.4751 420.902 99.6865 419.866 100.118C418.83 100.55 417.95 101.166 417.216 101.966C416.483 102.766 415.923 103.749 415.529 104.907C415.135 106.065 414.933 107.371 414.933 108.832C414.933 110.294 415.135 111.59 415.529 112.748C415.923 113.897 416.492 114.88 417.216 115.68C417.941 116.479 418.83 117.095 419.866 117.518C420.902 117.941 422.048 118.152 423.314 118.152C424.579 118.152 425.744 117.941 426.78 117.518C427.816 117.095 428.696 116.479 429.421 115.68C430.145 114.88 430.705 113.906 431.108 112.748C431.502 111.599 431.704 110.294 431.704 108.832Z" fill="#FFC730"/>
<path d="M445.348 110.788V120.678H442.166V96.9727H448.851C450.345 96.9727 451.638 97.1289 452.729 97.4322C453.821 97.7356 454.719 98.1767 455.425 98.7466C456.131 99.3165 456.663 100.015 457.002 100.824C457.342 101.633 457.516 102.543 457.516 103.545C457.516 104.381 457.387 105.162 457.122 105.898C456.856 106.633 456.471 107.276 455.975 107.855C455.48 108.435 454.866 108.931 454.141 109.335C453.417 109.74 452.601 110.052 451.693 110.264C452.087 110.493 452.445 110.833 452.748 111.275L459.643 120.687H456.801C456.214 120.687 455.792 120.457 455.517 120.007L449.373 111.532C449.19 111.265 448.979 111.072 448.759 110.962C448.539 110.852 448.209 110.788 447.769 110.788H445.339H445.348ZM445.348 108.453H448.695C449.63 108.453 450.455 108.343 451.161 108.113C451.867 107.883 452.463 107.57 452.94 107.157C453.417 106.743 453.784 106.247 454.022 105.677C454.261 105.107 454.389 104.473 454.389 103.774C454.389 102.359 453.921 101.302 452.995 100.585C452.069 99.868 450.685 99.5095 448.841 99.5095H445.339V108.462L445.348 108.453Z" fill="#FFC730"/>
<path d="M480.825 96.9727V99.6658H473.187V120.678H469.986V99.6658H462.312V96.9727H480.834H480.825Z" fill="#FFC730"/>
<path d="M130.328 25.9139C131.604 31.5179 123.273 35.0841 123.273 35.0841C130.328 22.5974 116.357 9.35156 116.357 9.35156C116.357 32.7966 93.6455 34.8344 93.6455 53.6743C93.6455 62.5449 99.4753 67.4696 106.74 69.2977C106.72 69.2777 97.831 63.7436 100.113 55.822C100.113 55.822 102.206 63.2741 104.598 62.5549C106.979 61.8356 102.266 58.2095 103.242 54.8631C104.219 51.5166 106.501 50.7574 107.747 49.7985C108.982 48.8395 109.75 47.0314 108.514 45.0236C108.514 45.0236 114.423 50.278 110.607 53.7143C106.79 57.1506 107.079 58.7789 108.982 59.8278C110.886 60.8767 117.373 59.7279 119.466 51.8962C119.466 51.8962 122.615 60.8767 119.466 63.8435C119.466 63.8435 120.991 65.3719 124.04 62.8845C124.04 62.8845 123.333 67.9591 119.307 69.6273C123.642 68.8681 127.658 67.2299 130.528 64.8924C141.141 56.2316 130.328 25.9139 130.328 25.9139Z" fill="#25431E"/>
<g opacity="0.1">
<path d="M135.162 52.6055C135.142 52.6854 131.804 65.0822 119.297 69.6273C123.632 68.8681 127.648 67.2299 130.518 64.8924C133.717 62.2852 134.963 57.72 135.162 52.6055Z" fill="#25431E"/>
</g>
<g opacity="0.1">
<path d="M94.5625 47.4727C93.9746 49.3407 93.6357 51.3785 93.6357 53.676C93.6357 62.3968 99.2563 67.3015 106.352 69.1995C98.1302 65.4835 94.5825 47.5626 94.5625 47.4727Z" fill="#25431E"/>
</g>
</g>
<defs>
<clipPath id="clip0_301_7908">
<rect width="502" height="122" fill="white"/>
</clipPath>
</defs>
</svg>
