<?xml version="1.0" encoding="UTF-8" standalone="no"?>
<svg
   xmlns:dc="http://purl.org/dc/elements/1.1/"
   xmlns:cc="http://creativecommons.org/ns#"
   xmlns:rdf="http://www.w3.org/1999/02/22-rdf-syntax-ns#"
   xmlns:svg="http://www.w3.org/2000/svg"
   xmlns="http://www.w3.org/2000/svg"
   xmlns:sodipodi="http://sodipodi.sourceforge.net/DTD/sodipodi-0.dtd"
   xmlns:inkscape="http://www.inkscape.org/namespaces/inkscape"
   version="1.1"
   id="svg190581"
   width="82.83223"
   height="128.54094"
   viewBox="0 0 82.83223 128.54094"
   sodipodi:docname="caesars_emblem.svg"
   inkscape:version="1.0.2 (e86c870879, 2021-01-15, custom)">
  <metadata
     id="metadata190587">
    <rdf:RDF>
      <cc:Work
         rdf:about="">
        <dc:format>image/svg+xml</dc:format>
        <dc:type
           rdf:resource="http://purl.org/dc/dcmitype/StillImage" />
        <dc:title></dc:title>
      </cc:Work>
    </rdf:RDF>
  </metadata>
  <defs
     id="defs190585" />
  <sodipodi:namedview
     pagecolor="#ffffff"
     bordercolor="#666666"
     borderopacity="1"
     objecttolerance="10"
     gridtolerance="10"
     guidetolerance="10"
     inkscape:pageopacity="0"
     inkscape:pageshadow="2"
     inkscape:window-width="3440"
     inkscape:window-height="1351"
     id="namedview190583"
     showgrid="false"
     showguides="true"
     inkscape:guide-bbox="true"
     inkscape:zoom="5.6568543"
     inkscape:cx="79.606217"
     inkscape:cy="58.404302"
     inkscape:window-x="-9"
     inkscape:window-y="-9"
     inkscape:window-maximized="1"
     inkscape:current-layer="layer4" />
  <g
     inkscape:groupmode="layer"
     inkscape:label="Image"
     id="g190589"
     style="display:inline;opacity:0.71246"
     transform="translate(-132.04297,-107.69922)" />
  <g
     inkscape:groupmode="layer"
     id="layer4"
     inkscape:label="trace"
     style="display:inline"
     transform="translate(-132.04297,-107.69922)">
    <path
       id="path191211"
       style="color:#000000;font-style:normal;font-variant:normal;font-weight:normal;font-stretch:normal;font-size:medium;line-height:normal;font-family:sans-serif;font-variant-ligatures:normal;font-variant-position:normal;font-variant-caps:normal;font-variant-numeric:normal;font-variant-alternates:normal;font-variant-east-asian:normal;font-feature-settings:normal;font-variation-settings:normal;text-indent:0;text-align:start;text-decoration:none;text-decoration-line:none;text-decoration-style:solid;text-decoration-color:#000000;letter-spacing:normal;word-spacing:normal;text-transform:none;writing-mode:lr-tb;direction:ltr;text-orientation:mixed;dominant-baseline:auto;baseline-shift:baseline;text-anchor:start;white-space:normal;shape-padding:0;shape-margin:0;inline-size:0;clip-rule:nonzero;display:inline;overflow:visible;visibility:visible;opacity:1;isolation:auto;mix-blend-mode:normal;color-interpolation:sRGB;color-interpolation-filters:linearRGB;solid-color:#000000;solid-opacity:1;vector-effect:none;fill:#25431e;fill-opacity:1;fill-rule:nonzero;stroke:none;stroke-linecap:butt;stroke-linejoin:miter;stroke-miterlimit:4;stroke-dasharray:none;stroke-dashoffset:0;stroke-opacity:1;color-rendering:auto;image-rendering:auto;shape-rendering:auto;text-rendering:auto;enable-background:accumulate;stop-color:#000000;stop-opacity:1"
       d="M 0 0 L 0.0078125 0.515625 C 0.0078125 0.515625 0.10854688 3.8840075 0.62304688 8.9921875 L 82.193359 8.9921875 C 82.706349 3.8840375 82.806641 0.515625 82.806641 0.515625 L 82.832031 0.01171875 L 0 0 z M 0.93945312 11.933594 C 1.2086231 14.171734 1.5616094 16.660272 2.0058594 19.294922 A 8.4026079 8.4026079 0 0 1 5.6855469 18.445312 A 8.4026079 8.4026079 0 0 1 14.087891 26.847656 A 8.4026079 8.4026079 0 0 1 5.6972656 35.25 C 5.7354656 35.37582 5.7678606 35.501113 5.8066406 35.626953 C 6.3953806 37.539653 7.0554913 39.449837 7.7695312 41.341797 L 75.064453 41.341797 C 75.776763 39.449747 76.436158 37.539733 77.023438 35.626953 C 77.062138 35.501073 77.094642 35.37586 77.132812 35.25 A 8.4026079 8.4026079 0 0 1 68.765625 26.847656 A 8.4026079 8.4026079 0 0 1 77.167969 18.445312 A 8.4026079 8.4026079 0 0 1 80.816406 19.279297 C 81.258036 16.650517 81.609083 14.167274 81.876953 11.933594 L 0.93945312 11.933594 z M 23.519531 18.445312 A 8.4026079 8.4026079 0 0 1 23.556641 18.445312 A 8.4026079 8.4026079 0 0 1 31.958984 26.847656 A 8.4026079 8.4026079 0 0 1 23.556641 35.25 A 8.4026079 8.4026079 0 0 1 15.154297 26.847656 A 8.4026079 8.4026079 0 0 1 23.519531 18.445312 z M 41.390625 18.445312 A 8.4026079 8.4026079 0 0 1 41.427734 18.445312 A 8.4026079 8.4026079 0 0 1 49.830078 26.847656 A 8.4026079 8.4026079 0 0 1 41.427734 35.25 A 8.4026079 8.4026079 0 0 1 33.025391 26.847656 A 8.4026079 8.4026079 0 0 1 41.390625 18.445312 z M 59.261719 18.445312 A 8.4026079 8.4026079 0 0 1 59.298828 18.445312 A 8.4026079 8.4026079 0 0 1 67.701172 26.847656 A 8.4026079 8.4026079 0 0 1 59.298828 35.25 A 8.4026079 8.4026079 0 0 1 50.896484 26.847656 A 8.4026079 8.4026079 0 0 1 59.261719 18.445312 z M 5.6816406 21.542969 A 5.3041463 5.3041463 0 0 0 0.38085938 26.847656 A 5.3041463 5.3041463 0 0 0 5.6855469 32.152344 A 5.3041463 5.3041463 0 0 0 10.990234 26.847656 A 5.3041463 5.3041463 0 0 0 5.6855469 21.542969 A 5.3041463 5.3041463 0 0 0 5.6816406 21.542969 z M 23.552734 21.542969 A 5.3041463 5.3041463 0 0 0 18.251953 26.847656 A 5.3041463 5.3041463 0 0 0 23.556641 32.152344 A 5.3041463 5.3041463 0 0 0 28.861328 26.847656 A 5.3041463 5.3041463 0 0 0 23.556641 21.542969 A 5.3041463 5.3041463 0 0 0 23.552734 21.542969 z M 41.423828 21.542969 A 5.3041463 5.3041463 0 0 0 36.123047 26.847656 A 5.3041463 5.3041463 0 0 0 41.427734 32.152344 A 5.3041463 5.3041463 0 0 0 46.732422 26.847656 A 5.3041463 5.3041463 0 0 0 41.427734 21.542969 A 5.3041463 5.3041463 0 0 0 41.423828 21.542969 z M 59.294922 21.542969 A 5.3041463 5.3041463 0 0 0 53.994141 26.847656 A 5.3041463 5.3041463 0 0 0 59.298828 32.152344 A 5.3041463 5.3041463 0 0 0 64.601562 26.847656 A 5.3041463 5.3041463 0 0 0 59.298828 21.542969 A 5.3041463 5.3041463 0 0 0 59.294922 21.542969 z M 77.164062 21.542969 A 5.3041463 5.3041463 0 0 0 71.865234 26.847656 A 5.3041463 5.3041463 0 0 0 77.167969 32.152344 A 5.3041463 5.3041463 0 0 0 82.472656 26.847656 A 5.3041463 5.3041463 0 0 0 77.167969 21.542969 A 5.3041463 5.3041463 0 0 0 77.164062 21.542969 z M 8.9472656 44.283203 C 11.356496 50.004503 14.402411 55.417319 18.300781 59.855469 C 23.923151 66.256319 31.326378 70.649788 40.923828 70.955078 C 41.104908 70.955078 41.279424 70.944306 41.458984 70.941406 C 41.639084 70.944406 41.814464 70.955078 41.996094 70.955078 C 51.568174 70.648878 58.953087 66.255539 64.560547 59.855469 C 68.449067 55.417289 71.487365 50.004593 73.890625 44.283203 L 8.9472656 44.283203 z M 49.564453 71.796875 L 48.847656 71.998047 C 41.378946 73.999257 33.503896 72.041016 33.503906 72.041016 L 32.951172 71.910156 C 34.750862 76.302046 35.601239 80.025519 35.880859 81.855469 C 36.154869 83.648649 36.138672 84.869141 36.138672 84.869141 L 36.646484 84.869141 L 45.882812 84.869141 L 46.330078 84.873047 C 46.967438 80.169687 47.782843 76.790323 48.382812 75.039062 C 48.982783 73.287802 49.564453 71.796875 49.564453 71.796875 z M 41.349609 86.753906 A 8.4812498 5.03125 0 0 0 32.957031 91.785156 A 8.4812498 5.03125 0 0 0 41.4375 96.816406 A 8.4812498 5.03125 0 0 0 49.919922 91.785156 A 8.4812498 5.03125 0 0 0 41.4375 86.753906 A 8.4812498 5.03125 0 0 0 41.349609 86.753906 z M 36.582031 97.748047 C 36.582031 97.748047 36.702279 99.195224 36.443359 100.33398 C 36.184459 101.47274 35.640188 103.11674 34.486328 105.10352 C 32.178598 109.0771 27.434957 114.42918 17.654297 119.80078 L 17.894531 120.73828 L 64.707031 120.73828 L 64.923828 119.78906 C 64.923828 119.78906 60.220097 117.51097 55.529297 113.69727 C 50.838487 109.88358 46.243468 103.76691 46.273438 97.787109 L 45.552734 98.130859 C 45.552734 98.130859 41.374977 100.10812 37.398438 98.134766 L 36.582031 97.748047 z M 9.3105469 123.0957 L 9.3105469 123.10742 A 1.6875024 2.7176001 0 0 0 9.2851562 123.10547 A 1.6875024 2.7176001 0 0 0 7.5976562 125.82227 A 1.6875024 2.7176001 0 0 0 9.2851562 128.54102 A 1.6875024 2.7176001 0 0 0 9.3105469 128.53906 L 9.3105469 128.54102 L 73.498047 128.54102 L 73.498047 128.53516 A 1.6875024 2.7176001 0 0 0 73.523438 128.53711 A 1.6875024 2.7176001 0 0 0 75.210938 125.81836 A 1.6875024 2.7176001 0 0 0 73.523438 123.10156 A 1.6875024 2.7176001 0 0 0 73.498047 123.10156 L 73.498047 123.0957 L 9.3105469 123.0957 z "
       transform="translate(132.04297,107.69922)" />
  </g>
</svg>
