<svg width="40" height="40" viewBox="0 0 40 40" fill="none" xmlns="http://www.w3.org/2000/svg">
<circle cx="20" cy="20" r="20" fill="white"/>
<path fill-rule="evenodd" clip-rule="evenodd" d="M12.8541 16C11.8301 16 11 16.8301 11 17.8541V22.8571C11 24.8619 11 25.8643 11.4598 26.5961C11.6996 26.9777 12.0223 27.3004 12.4039 27.5402C13.1357 28 14.1381 28 16.1429 28H23.8571C25.8619 28 26.8643 28 27.5961 27.5402C27.9777 27.3004 28.3004 26.9777 28.5402 26.5961C29 25.8643 29 24.8619 29 22.8571V17.8541C29 16.8301 28.1699 16 27.1459 16C26.4436 16 25.8016 15.6032 25.4875 14.9751L24.6667 13.3333L24.6666 13.3333C24.5567 13.1134 24.5017 13.0035 24.4394 12.9078C24.1141 12.4088 23.5833 12.0808 22.9915 12.013C22.8781 12 22.7552 12 22.5093 12H17.4907C17.2448 12 17.1219 12 17.0085 12.013C16.4167 12.0808 15.8859 12.4088 15.5606 12.9078C15.4983 13.0035 15.4433 13.1134 15.3333 13.3333L14.5125 14.9751C14.1984 15.6032 13.5564 16 12.8541 16ZM22 21C22 22.1046 21.1046 23 20 23C18.8954 23 18 22.1046 18 21C18 19.8954 18.8954 19 20 19C21.1046 19 22 19.8954 22 21ZM24 21C24 23.2091 22.2091 25 20 25C17.7909 25 16 23.2091 16 21C16 18.7909 17.7909 17 20 17C22.2091 17 24 18.7909 24 21Z" fill="#2F475F"/>
</svg>
