<svg width="147" height="35" viewBox="0 0 147 35" fill="none" xmlns="http://www.w3.org/2000/svg">
<rect width="147" height="35" fill="#FFC730"/>
<path d="M21.8192 22.14C20.7926 22.14 19.9106 21.9347 19.1732 21.524C18.4452 21.104 17.8852 20.516 17.4932 19.76C17.1012 18.9947 16.9052 18.094 16.9052 17.058C16.9052 16.022 17.1012 15.126 17.4932 14.37C17.8852 13.614 18.4452 13.0307 19.1732 12.62C19.9106 12.2 20.7926 11.99 21.8192 11.99C22.4819 11.99 23.1072 12.0927 23.6952 12.298C24.2926 12.5033 24.7826 12.7973 25.1652 13.18L24.5772 14.608C24.1572 14.2533 23.7279 13.9967 23.2892 13.838C22.8506 13.67 22.3792 13.586 21.8752 13.586C20.8766 13.586 20.1159 13.8893 19.5932 14.496C19.0706 15.0933 18.8092 15.9473 18.8092 17.058C18.8092 18.1687 19.0706 19.0273 19.5932 19.634C20.1159 20.2407 20.8766 20.544 21.8752 20.544C22.3792 20.544 22.8506 20.4647 23.2892 20.306C23.7279 20.138 24.1572 19.8767 24.5772 19.522L25.1652 20.95C24.7826 21.3233 24.2926 21.6173 23.6952 21.832C23.1072 22.0373 22.4819 22.14 21.8192 22.14ZM32.085 22.14C31.133 22.14 30.2977 21.93 29.579 21.51C28.8697 21.09 28.319 20.502 27.927 19.746C27.535 18.9807 27.339 18.0847 27.339 17.058C27.339 16.022 27.535 15.126 27.927 14.37C28.319 13.614 28.8697 13.0307 29.579 12.62C30.2884 12.2 31.1237 11.99 32.085 11.99C33.0464 11.99 33.8817 12.2 34.591 12.62C35.3004 13.0307 35.851 13.614 36.243 14.37C36.635 15.126 36.831 16.0173 36.831 17.044C36.831 18.08 36.635 18.9807 36.243 19.746C35.851 20.502 35.3004 21.09 34.591 21.51C33.8817 21.93 33.0464 22.14 32.085 22.14ZM32.085 20.6C32.9904 20.6 33.695 20.2873 34.199 19.662C34.703 19.0367 34.955 18.1687 34.955 17.058C34.955 15.938 34.703 15.07 34.199 14.454C33.7044 13.838 32.9997 13.53 32.085 13.53C31.1797 13.53 30.475 13.838 29.971 14.454C29.467 15.07 29.215 15.938 29.215 17.058C29.215 18.1687 29.467 19.0367 29.971 19.662C30.475 20.2873 31.1797 20.6 32.085 20.6ZM39.9412 22V12.13H41.4392L44.9392 18.584L48.4252 12.13H49.8952V22H48.2712V15.35L45.4432 20.502H44.3932L41.5652 15.378V22H39.9412ZM53.3275 22V12.13H55.1195V22H53.3275ZM58.525 22V12.13H59.869L65.175 19.018V12.13H66.841V22H65.511L60.191 15.084V22H58.525ZM75.0037 22.14C73.9117 22.14 72.9877 21.9347 72.2317 21.524C71.485 21.1133 70.9157 20.53 70.5237 19.774C70.1317 19.018 69.9357 18.122 69.9357 17.086C69.9357 16.0407 70.1364 15.14 70.5377 14.384C70.939 13.6187 71.5177 13.0307 72.2737 12.62C73.0297 12.2 73.935 11.99 74.9897 11.99C75.6804 11.99 76.329 12.0927 76.9357 12.298C77.5424 12.494 78.0464 12.7693 78.4477 13.124L77.8457 14.524C77.407 14.1787 76.959 13.9313 76.5017 13.782C76.0444 13.6327 75.5404 13.558 74.9897 13.558C73.9444 13.558 73.151 13.8613 72.6097 14.468C72.0777 15.0747 71.8117 15.9473 71.8117 17.086C71.8117 18.234 72.087 19.1067 72.6377 19.704C73.1884 20.3013 74.005 20.6 75.0877 20.6C75.3957 20.6 75.7084 20.5767 76.0257 20.53C76.3524 20.474 76.6744 20.3947 76.9917 20.292V17.996H74.7237V16.666H78.4897V21.412C78.0324 21.636 77.491 21.8133 76.8657 21.944C76.2404 22.0747 75.6197 22.14 75.0037 22.14ZM90.2617 22.14C89.4871 22.14 88.7684 22.042 88.1057 21.846C87.4431 21.6407 86.8831 21.3653 86.4257 21.02L86.9717 19.606C87.4291 19.9327 87.9284 20.1847 88.4697 20.362C89.0204 20.5393 89.6177 20.628 90.2617 20.628C90.9991 20.628 91.5357 20.5067 91.8717 20.264C92.2077 20.012 92.3757 19.69 92.3757 19.298C92.3757 18.9713 92.2544 18.7147 92.0117 18.528C91.7784 18.3413 91.3724 18.1873 90.7937 18.066L89.2537 17.744C87.4991 17.3707 86.6217 16.47 86.6217 15.042C86.6217 14.426 86.7851 13.8893 87.1117 13.432C87.4384 12.9747 87.8911 12.62 88.4697 12.368C89.0484 12.116 89.7157 11.99 90.4717 11.99C91.1437 11.99 91.7737 12.0927 92.3617 12.298C92.9497 12.494 93.4397 12.774 93.8317 13.138L93.2857 14.482C92.5111 13.8287 91.5684 13.502 90.4577 13.502C89.8137 13.502 89.3097 13.6373 88.9457 13.908C88.5817 14.1787 88.3997 14.5333 88.3997 14.972C88.3997 15.308 88.5117 15.5787 88.7357 15.784C88.9597 15.98 89.3424 16.134 89.8837 16.246L91.4097 16.568C92.3337 16.764 93.0197 17.072 93.4677 17.492C93.9251 17.912 94.1537 18.472 94.1537 19.172C94.1537 19.76 93.9951 20.278 93.6777 20.726C93.3604 21.174 92.9077 21.524 92.3197 21.776C91.7411 22.0187 91.0551 22.14 90.2617 22.14ZM101.376 22.14C100.424 22.14 99.5884 21.93 98.8697 21.51C98.1604 21.09 97.6097 20.502 97.2177 19.746C96.8257 18.9807 96.6297 18.0847 96.6297 17.058C96.6297 16.022 96.8257 15.126 97.2177 14.37C97.6097 13.614 98.1604 13.0307 98.8697 12.62C99.5791 12.2 100.414 11.99 101.376 11.99C102.337 11.99 103.172 12.2 103.882 12.62C104.591 13.0307 105.142 13.614 105.534 14.37C105.926 15.126 106.122 16.0173 106.122 17.044C106.122 18.08 105.926 18.9807 105.534 19.746C105.142 20.502 104.591 21.09 103.882 21.51C103.172 21.93 102.337 22.14 101.376 22.14ZM101.376 20.6C102.281 20.6 102.986 20.2873 103.49 19.662C103.994 19.0367 104.246 18.1687 104.246 17.058C104.246 15.938 103.994 15.07 103.49 14.454C102.995 13.838 102.29 13.53 101.376 13.53C100.47 13.53 99.7657 13.838 99.2617 14.454C98.7577 15.07 98.5057 15.938 98.5057 17.058C98.5057 18.1687 98.7577 19.0367 99.2617 19.662C99.7657 20.2873 100.47 20.6 101.376 20.6ZM113.628 22.14C112.676 22.14 111.841 21.93 111.122 21.51C110.413 21.09 109.862 20.502 109.47 19.746C109.078 18.9807 108.882 18.0847 108.882 17.058C108.882 16.022 109.078 15.126 109.47 14.37C109.862 13.614 110.413 13.0307 111.122 12.62C111.831 12.2 112.667 11.99 113.628 11.99C114.589 11.99 115.425 12.2 116.134 12.62C116.843 13.0307 117.394 13.614 117.786 14.37C118.178 15.126 118.374 16.0173 118.374 17.044C118.374 18.08 118.178 18.9807 117.786 19.746C117.394 20.502 116.843 21.09 116.134 21.51C115.425 21.93 114.589 22.14 113.628 22.14ZM113.628 20.6C114.533 20.6 115.238 20.2873 115.742 19.662C116.246 19.0367 116.498 18.1687 116.498 17.058C116.498 15.938 116.246 15.07 115.742 14.454C115.247 13.838 114.543 13.53 113.628 13.53C112.723 13.53 112.018 13.838 111.514 14.454C111.01 15.07 110.758 15.938 110.758 17.058C110.758 18.1687 111.01 19.0367 111.514 19.662C112.018 20.2873 112.723 20.6 113.628 20.6ZM121.456 22V12.13H122.8L128.106 19.018V12.13H129.772V22H128.442L123.122 15.084V22H121.456Z" fill="#212121"/>
</svg>
