<svg width="12" height="3" viewBox="0 0 12 3" fill="none" xmlns="http://www.w3.org/2000/svg">
<path d="M1.36293 2.625C1.01823 2.625 0.722775 2.50379 0.476562 2.26136C0.23035 2.01894 0.109138 1.72348 0.112926 1.375C0.109138 1.03409 0.23035 0.742424 0.476562 0.5C0.722775 0.257576 1.01823 0.136364 1.36293 0.136364C1.69626 0.136364 1.98603 0.257576 2.23224 0.5C2.48224 0.742424 2.60914 1.03409 2.61293 1.375C2.60914 1.60606 2.54853 1.81629 2.43111 2.00568C2.31747 2.19508 2.16596 2.34659 1.97656 2.46023C1.79096 2.57008 1.58641 2.625 1.36293 2.625ZM6.00355 2.625C5.65885 2.625 5.3634 2.50379 5.11719 2.26136C4.87098 2.01894 4.74976 1.72348 4.75355 1.375C4.74976 1.03409 4.87098 0.742424 5.11719 0.5C5.3634 0.257576 5.65885 0.136364 6.00355 0.136364C6.33688 0.136364 6.62666 0.257576 6.87287 0.5C7.12287 0.742424 7.24976 1.03409 7.25355 1.375C7.24976 1.60606 7.18916 1.81629 7.07173 2.00568C6.9581 2.19508 6.80658 2.34659 6.61719 2.46023C6.43158 2.57008 6.22704 2.625 6.00355 2.625ZM10.6442 2.625C10.2995 2.625 10.004 2.50379 9.75781 2.26136C9.5116 2.01894 9.39039 1.72348 9.39418 1.375C9.39039 1.03409 9.5116 0.742424 9.75781 0.5C10.004 0.257576 10.2995 0.136364 10.6442 0.136364C10.9775 0.136364 11.2673 0.257576 11.5135 0.5C11.7635 0.742424 11.8904 1.03409 11.8942 1.375C11.8904 1.60606 11.8298 1.81629 11.7124 2.00568C11.5987 2.19508 11.4472 2.34659 11.2578 2.46023C11.0722 2.57008 10.8677 2.625 10.6442 2.625Z" fill="#212121"/>
</svg>
