<?xml version="1.0" encoding="UTF-8" standalone="no"?>
<svg
   xmlns:dc="http://purl.org/dc/elements/1.1/"
   xmlns:cc="http://creativecommons.org/ns#"
   xmlns:rdf="http://www.w3.org/1999/02/22-rdf-syntax-ns#"
   xmlns:svg="http://www.w3.org/2000/svg"
   xmlns="http://www.w3.org/2000/svg"
   xmlns:sodipodi="http://sodipodi.sourceforge.net/DTD/sodipodi-0.dtd"
   xmlns:inkscape="http://www.inkscape.org/namespaces/inkscape"
   version="1.1"
   id="svg1398"
   width="315"
   height="319.0108"
   viewBox="0 0 314.99999 319.01081"
   sodipodi:docname="draft_kings_emblem.svg"
   inkscape:version="1.0.2 (e86c870879, 2021-01-15, custom)">
  <metadata
     id="metadata1404">
    <rdf:RDF>
      <cc:Work
         rdf:about="">
        <dc:format>image/svg+xml</dc:format>
        <dc:type
           rdf:resource="http://purl.org/dc/dcmitype/StillImage" />
        <dc:title></dc:title>
      </cc:Work>
    </rdf:RDF>
  </metadata>
  <defs
     id="defs1402" />
  <sodipodi:namedview
     pagecolor="#ffffff"
     bordercolor="#666666"
     borderopacity="1"
     objecttolerance="10"
     gridtolerance="10"
     guidetolerance="10"
     inkscape:pageopacity="0"
     inkscape:pageshadow="2"
     inkscape:window-width="3440"
     inkscape:window-height="1351"
     id="namedview1400"
     showgrid="false"
     inkscape:zoom="3.0982369"
     inkscape:cx="260.47676"
     inkscape:cy="155.46928"
     inkscape:window-x="-9"
     inkscape:window-y="-9"
     inkscape:window-maximized="1"
     inkscape:current-layer="g1406" />
  <g
     inkscape:groupmode="layer"
     inkscape:label="Image"
     id="g1406"
     transform="translate(-1.3333334,-1.3403531)">
    <g
       id="g2554"
       transform="matrix(0.15087052,0,0,0.15087052,1.1321727,1.1381333)">
      <path
         style="fill:#000000;stroke-width:1.33333"
         d="m 741.34649,1361.9881 c 3.68999,-3.3395 3.02307,-8.7273 -1.34648,-10.8781 -1.83333,-0.9024 -8.43333,-4.0278 -14.66667,-6.9452 -24.73517,-11.577 -42.06737,-31.9258 -50.51361,-59.3053 -3.49941,-11.3437 -3.53936,-16.9188 -0.1986,-27.7191 12.81064,-41.4152 86.7963,-96.3841 199.37888,-148.132 154.59129,-71.0568 375.64749,-131.00888 561.33339,-152.23779 136.9246,-15.65418 244.3926,-11.80876 301.1364,10.77531 37.2514,14.82613 48.9834,32.09412 47.1816,69.44478 -1.0492,21.7511 -6.342,34.96 -22.4064,55.9192 -3.618,4.7206 -6.5783,9.4129 -6.5783,10.4275 0,2.5954 5.2845,5.9959 9.3179,5.9959 3.7854,0 16.6565,-7.1523 28.7282,-15.9641 25.7456,-18.7929 50.0027,-52.9533 56.6818,-79.8227 1.3964,-5.6172 7.6704,-39.31318 13.9424,-74.87985 27.6596,-156.85078 40.8842,-222.14121 60.63,-299.33333 38.4462,-150.29791 91.1662,-299.38349 155.2242,-438.95446 4.1115,-8.95828 7.4755,-16.54594 7.4755,-16.86146 0,-1.35352 -25.7229,5.12182 -37.3333,9.39808 -45.2423,16.6633 -86.1468,51.70117 -108.7352,93.14021 -12.4484,22.83683 -20.3356,47.36946 -23.4254,72.8627 -1.0349,8.53899 -2.1504,13.0816 -3.2122,13.0816 -0.8947,0 -7.2566,-3.27885 -14.1375,-7.28634 -32.7632,-19.08143 -68.6707,-28.69794 -107.1564,-28.69794 -24.0763,0 -50.0296,4.13868 -68.2405,10.88207 l -6.9072,2.55768 2.6062,7.57513 c 4.3375,12.60718 12.7115,28.74536 22.7883,43.91763 11.2368,16.91855 34.9193,41.284 50.5015,51.95755 13.67,9.36378 35.6393,20.75104 48.585,25.18289 15.6716,5.36503 15.5908,5.17443 7.2919,17.17917 -31.8399,46.05809 -90.1328,98.48384 -131.2112,118.00475 -23.836,11.32718 -42.7269,15.15973 -75.414,15.2998 -23.4735,0.10066 -32.5671,-1.30446 -53.3333,-8.24054 -30.5572,-10.20628 -63.615,-35.26878 -80.9595,-61.3787 -3.0617,-4.60911 -5.9264,-8.37795 -6.366,-8.3752 -0.4395,0.003 -3.0211,3.30012 -5.7368,7.3275 -21.5991,32.03086 -57.8687,56.25423 -97.9755,65.43486 -23.1928,5.30894 -53.4882,4.85058 -77.1236,-1.16684 -15.8691,-4.04019 -23.1751,-7.46463 -41.8386,-19.61044 -66.5318,-43.29734 -117.871,-102.50232 -149.6369,-172.56303 -6.956,-15.34173 -19.0298,-48.40004 -19.0298,-52.10394 0,-1.02063 2.1253,-2.11438 5,-2.57311 37.1915,-5.93493 60.7737,-14.22333 88.7045,-31.17683 28.1841,-17.10729 52.7185,-42.6627 70.3846,-73.31383 l 5.6681,-9.83439 -3.2119,-2.52015 c -5.2403,-4.11161 -25.4763,-15.32605 -34.669,-19.21297 -32.1407,-13.58999 -60.1201,-18.87911 -92.543,-17.49399 -22.5194,0.96206 -36.4272,3.3313 -56.376,9.60388 -8.2735,2.60147 -15.5364,4.42483 -16.1398,4.05192 -0.6034,-0.37292 -1.4267,-6.84645 -1.8297,-14.38564 -3.5918,-67.19777 -51.1322,-155.289498 -105.34128,-195.195926 -8.2666,-6.08552 -40.98115,-23.1783474 -44.36185,-23.1783474 -2.09798,0 -10.5255,10.9497624 -18.38681,23.8897454 -23.38777,38.497044 -31.50015,101.095388 -21.00855,162.110248 4.7014,27.34139 12.65304,53.23423 22.16383,72.17175 3.2672,6.50555 5.94183,12.47444 5.9436,13.26423 10e-4,0.78978 -4.81059,2.17289 -10.69416,3.07356 -19.36599,2.9646 -38.4158,9.12461 -57.96927,18.74516 -29.6082,14.5676 -52.25546,32.22298 -70.72278,55.13415 -8.79535,10.91179 -24.61055,36.02328 -24.61055,39.07679 0,4.55445 35.92787,22.94336 58,29.68605 23.98721,7.32772 34.64861,8.78712 64,8.76071 29.94035,-0.0269 42.04445,-1.92573 68.3239,-10.71811 7.72185,-2.58352 14.49372,-4.20913 15.04856,-3.61246 1.37294,1.47641 4.60601,16.57437 7.51305,35.08484 3.36948,21.45501 3.44804,85.77214 0.13147,107.66499 -6.97575,46.04775 -21.31644,90.40898 -41.91799,129.66834 -12.45026,23.72581 -18.61878,32.61868 -30.57935,44.0848 -18.11903,17.36999 -36.12453,28.50773 -58.86499,36.41233 -19.17389,6.66485 -33.8462,9.15052 -54.32136,9.2027 -26.45289,0.0675 -53.14624,-6.1691 -74.66313,-17.44398 l -9.5802,-5.02004 -1.50724,12.71542 c -4.38467,36.98986 -19.05167,67.09012 -45.62082,93.62507 -21.62892,21.60109 -45.1114,34.79723 -75.77085,42.57993 -12.51219,3.17615 -17.90757,3.84376 -31.06372,3.84376 -41.89512,0 -97.52035,-11.19369 -140.46067,-28.26546 -19.81153,-7.87648 -43.33333,-19.332 -43.33333,-21.1041 0,-0.85521 3.57569,-5.45716 7.94598,-10.22657 16.63691,-18.15624 32.46911,-45.47839 40.7691,-70.35652 8.36526,-25.07379 11.57068,-56.29294 8.76641,-85.38068 -2.40539,-24.95025 -2.32245,-24.6792 -7.28516,-23.8115 -16.48867,2.8829 -31.11529,7.94152 -49.52967,17.12982 -30.79205,15.36444 -57.18345,35.68952 -88.62888,68.25667 -13.05856,13.52437 -19.13716,18.95005 -20.372,18.1838 -0.968,-0.60067 -8.9388,-6.82412 -17.71289,-13.8299 -41.83176,-33.40103 -75.27383,-53.08807 -108.58851,-63.92505 -22.213395,-7.22581 -31.283934,-8.6754 -54.031056,-8.63485 -16.399139,0.0292 -22.040488,0.57492 -31.333333,3.03087 C 20.63497,691.7939 5.1290735,697.40679 5.6078029,698.73467 5.8235113,699.33299 17.4,708.36934 31.333334,718.81543 166.91084,820.46055 288.47875,931.52617 412.0771,1066.6666 c 42.99244,47.0073 111.09608,131.0288 193.48436,238.7076 7.03091,9.1892 15.40586,18.8558 18.611,21.4814 19.07356,15.6249 46.19962,28.6078 70.9762,33.9702 22.64562,4.9011 41.54113,5.3766 46.19783,1.1623 z"
         id="path2548" />
      <path
         style="fill:#25431e;fill-opacity:0.960784;stroke:none;stroke-width:1.33333"
         d="m 713.33334,1367.0912 c -20.94016,-2.1631 -47.12498,-10.6658 -67.33333,-21.8643 C 625.89749,1334.087 618.796,1327.3271 595.6334,1297.2825 512.23393,1189.104 449.6057,1112.2061 407.26894,1066 286.04342,933.69504 169.83383,827.3828 34.333334,724.82658 16.183334,711.08939 1.3333334,699.02726 1.3333334,698.02184 c 0,-3.69918 31.4091396,-13.7461 51.4776156,-16.46628 11.969675,-1.62242 36.866614,0.14286 51.699611,3.66568 40.70496,9.66742 83.89096,33.56182 131.48944,72.75187 5.5,4.5284 10.68606,8.63288 11.52458,9.12104 0.89369,0.52029 9.72162,-7.44499 21.33333,-19.2487 20.49116,-20.82994 44.62315,-41.29549 61.87507,-52.47417 23.09516,-14.96492 55.57825,-28.30236 74.76969,-30.70017 8.94232,-1.11728 8.27859,-2.52577 10.60518,22.50517 2.2654,24.37258 0.93356,53.71932 -3.24443,71.49037 -7.8316,33.31163 -23.3386,64.03538 -44.75217,88.66667 -7.15176,8.22643 -7.85718,9.52317 -5.94802,10.93405 1.19134,0.88039 10.94198,5.46191 21.66808,10.18116 40.71819,17.9151 80.72607,28.57587 126.1687,33.6198 42.72855,4.74267 71.19173,-0.74946 104,-20.06737 44.03911,-25.93079 70.94476,-69.22897 76.01897,-122.33431 0.4962,-5.19321 1.48638,-9 2.34095,-9 0.81455,0 6.91679,2.66848 13.56053,5.92996 54.82587,26.91452 119.02129,21.2421 167.65574,-14.81437 12.99541,-9.6345 25.84916,-22.74781 32.52127,-33.178 4.21186,-6.5842 20.54926,-37.92328 24.2953,-46.60425 11.96873,-27.73603 20.54589,-55.03328 26.18442,-83.33333 5.58456,-28.02911 6.6854,-40.36695 6.72163,-75.33333 0.0349,-33.73666 -0.7329,-42.74534 -6.15594,-72.22406 l -2.73936,-14.89072 -8.80773,3.31522 c -4.84426,1.82337 -16.33504,5.20772 -25.53508,7.52076 -16.33534,4.10697 -17.44607,4.20602 -47.39403,4.22684 -33.16561,0.0231 -43.41489,-1.38564 -68,-9.34615 -20.18957,-6.53727 -58,-26.48656 -58,-30.6016 0,-2.55284 14.22207,-26.36371 22.18167,-37.13699 10.1199,-13.69724 31.73768,-34.23358 47.1438,-44.78545 24.86189,-17.02822 59.95506,-31.40909 85.3412,-34.97205 l 10,-1.40349 -6.25288,-12.67318 c -23.72184,-48.07874 -32.4647,-122.51301 -21.03843,-179.115329 5.396,-26.730168 15.52908,-50.578026 29.49339,-69.411694 7.60176,-10.252487 7.92165,-10.501934 13.45904,-10.4949598 4.24002,0.00535 9.37544,1.8895777 20.33888,7.4625479 18.73691,9.5243989 28.95027,16.8294189 44.48532,31.8177289 46.38383,44.751373 81.52193,116.098226 86.73263,176.108066 0.6764,7.78988 1.4291,14.35696 1.6726,14.59351 0.2435,0.23655 7.4501,-1.58723 16.0145,-4.05283 42.9422,-12.36256 92.1349,-11.30757 131.5713,2.82164 25.1149,8.99814 54.8582,25.76415 54.856,30.92182 0,5.94322 -21.2035,36.95838 -36.2822,53.07761 -31.1285,33.27638 -78.438,57.12694 -126.6414,63.84474 l -6.258,0.87214 5.3086,15.39546 c 29.577,85.77648 87.9934,158.90657 166.5407,208.48809 8.4333,5.3234 19.5333,11.13508 24.6666,12.91486 47.78,16.56576 104.2887,8.42646 146,-21.02932 12.9591,-9.15147 30.0023,-26.66918 38.1887,-39.2518 3.5629,-5.47634 7.078,-9.95698 7.8113,-9.95698 0.7334,0 4.3275,4.64226 7.9868,10.31612 3.6595,5.67386 12.3595,16.09747 19.3334,23.16358 25.1292,25.46137 54.1484,39.88801 92.6798,46.07496 23.82,3.82474 61.0327,-0.58615 84.7856,-10.04984 41.9367,-16.70848 96.892,-63.46631 135.3879,-115.19248 5.4165,-7.27811 9.5368,-13.73679 9.1563,-14.35263 -0.3807,-0.61584 -4.7355,-2.45164 -9.6776,-4.07956 -43.2075,-14.23268 -87.4352,-51.70822 -110.9459,-94.00777 -7.3789,-13.276 -16.0396,-33.69968 -16.0396,-37.82492 0,-2.14275 2.3547,-3.3776 12.8525,-6.74039 40.6643,-13.0259 91.9494,-12.73296 132.3499,0.756 16.1104,5.37892 31.7985,12.54494 44.2924,20.23183 l 8.8281,5.43152 0.903,-8.88043 c 7.6418,-75.16026 62.0858,-144.23361 134.1074,-170.14283 10.3627,-3.7279 34.9122,-10.06618 39,-10.0692 3.9203,-0.003 2.7658,5.37086 -4.4714,20.81252 -17.6832,37.72949 -45.287,103.00024 -62.8103,148.51909 -37.5771,97.6104 -69.4219,198.11774 -94.8407,299.33333 -19.8474,79.03081 -30.706,133.41985 -62.8216,314.66666 -4.8078,27.13333 -9.7594,52.61058 -11.0036,56.61618 -3.0892,9.9458 -12.3626,27.8091 -19.9958,38.5174 -17.794,24.9625 -53.564,53.4405 -67.21,53.5089 -5.9296,0.03 -11.8466,-4.2776 -11.8466,-8.6238 0,-1.7351 3.6382,-8.0279 8.1927,-14.1706 18.534,-24.9968 24.9984,-50.6479 19.0856,-75.7326 -5.474,-23.22304 -20.4044,-35.79363 -56.1453,-47.27118 -32.234,-10.35138 -64.6998,-14.18673 -127.7996,-15.09761 -55.6455,-0.80328 -87.0423,0.80523 -150,7.68476 -203.4004,22.22599 -439.4933,88.22653 -600.66672,167.91843 -67.32067,33.2865 -112.29767,63.0833 -142.09078,94.1335 -15.80209,16.4689 -25.42772,32.6545 -27.23516,45.7962 -1.95752,14.2329 8.92138,38.7169 24.4326,54.9879 11.46802,12.0298 17.96964,16.4592 34.00374,23.1657 13.38675,5.5992 15.73189,8.3716 12.88844,15.2363 -2.47624,5.9781 -7.47892,8.0349 -18.93263,7.7838 -5.35308,-0.1173 -11.83288,-0.4304 -14.39955,-0.6954 z"
         id="path2546" />
      <path
         style="fill:#000000;stroke-width:1.33333"
         d="m 1184,2111.4361 c 155.6975,-14.2543 287.1259,-61.5753 392.6667,-141.3808 31.102,-23.5179 68.4484,-59.0005 92.6807,-88.0553 82.853,-99.342 129.0564,-220.9842 138.7648,-365.3334 1.9732,-29.3389 0.9092,-91.241 -2.074,-120.6666 -12.1808,-120.1464 -51.7906,-210.9889 -121.5291,-278.7197 -26.6392,-25.8723 -54.2836,-45.4709 -87.8441,-62.2773 -40.802,-20.4327 -88.8427,-34.3333 -127.9983,-37.0363 -12.7893,-0.8829 -35.0041,1.9284 -96,12.149 -152.9758,25.6328 -296.6324,66.1403 -440.66669,124.2567 l -19.33333,7.8008 v 316.5801 c 0,287.1437 -0.19857,317.0956 -2.13564,322.1255 -5.59995,14.5412 -15.58431,26.4122 -28.25041,33.5888 -8.4364,4.78 -25.4986,10.2549 -36.04338,11.5654 l -7.76277,0.965 6.42944,4.6161 c 20.59048,14.7837 58.55084,28.4956 97.04008,35.0525 38.45287,6.5508 49.57899,7.337 102.7227,7.259 39.4311,-0.057 54.9539,-0.588 70,-2.3907 41.943,-5.0253 76.3016,-12.3927 106.6667,-22.8723 13.6974,-4.7273 43.499,-18.4222 48.541,-22.3064 2.355,-1.8142 2.027,-2.0258 -4.4789,-2.8888 -10.0872,-1.3381 -18.0462,-4.3284 -27.6289,-10.3804 -15.5728,-9.8352 -25.7953,-25.326 -28.4334,-43.087 -0.938,-6.3156 -1.2699,-114.9532 -1.0264,-336 l 0.3599,-326.6667 22,-0.396 c 77.7853,-1.4001 145.3108,20.9073 189.0261,62.4456 67.2751,63.9249 98.9311,171.7453 99.4176,338.6171 0.124,42.5838 -0.8062,57.2116 -5.832,91.6866 -13.3573,91.6295 -49.5621,168.2804 -106.4228,225.3131 -67.6044,67.8089 -158.6524,107.0753 -279.5222,120.5499 -24.8412,2.7693 -113.8516,2.3562 -142.00005,-0.6588 -136.1607,-14.5852 -224.4238,-60.717 -245.32884,-128.2242 -4.50664,-14.5529 -5.18264,-38.0934 -1.51086,-52.6124 1.56884,-6.2034 4.79958,-14.5193 7.1794,-18.4797 14.90683,-24.8071 47.76376,-36.5869 90.1619,-32.3248 8.34256,0.8387 15.47064,1.2225 15.84018,0.8529 1.21426,-1.2142 -2.44837,-34.5038 -5.2024,-47.2845 -7.98086,-37.0373 -23.69102,-67.3365 -48.30742,-93.1677 -28.49539,-29.9015 -67.1313,-50.8039 -105.36923,-57.0058 -44.0991,-7.1525 -105.07106,7.7308 -143.09491,34.9295 -52.21106,37.3468 -79.0345,97.4091 -79.0345,176.9717 0,88.5832 43.72116,168.166 128.00001,232.9899 63.11192,48.5432 152.88956,87.2341 251.98253,108.5953 56.19623,12.1142 129.12186,21.3291 187.35079,23.6739 29.9169,1.2047 123.5627,-0.3147 146,-2.3688 z"
         id="path2544" />
      <path
         style="fill:#25431e;fill-opacity:0.960784;stroke:none;stroke-width:1.33333"
         d="m 1006,2115.1036 c -57.71337,-4.8495 -79.48292,-7.4994 -118.69189,-14.4472 -124.37722,-22.0399 -226.18783,-64.2278 -301.97477,-125.1311 -5.5,-4.4199 -19.0632,-17.0712 -30.14044,-28.114 -44.70921,-44.5705 -72.19175,-93.4543 -83.29088,-148.1509 -3.66813,-18.0767 -5.13076,-66.5427 -2.62757,-87.0678 6.36404,-52.1824 24.4729,-92.6204 55.35487,-123.61 35.27108,-35.394 82.53622,-54.4468 139.37069,-56.1809 19.08188,-0.5823 23.84932,-0.2889 35.94223,2.2116 62.35409,12.8929 115.42636,57.2719 139.24616,116.4373 8.97224,22.286 15.47828,55.5015 15.47828,79.0219 v 8.8444 l -7,-1.1252 c -3.85,-0.6188 -16.9,-1.124 -29,-1.1228 -19.31272,0 -23.22149,0.3829 -32,3.1185 -13.50628,4.209 -22.20655,9.3919 -30.51903,18.1811 -22.95956,24.2764 -23.08512,68.8143 -0.29416,104.3433 7.99567,12.4646 26.87555,31.2102 41.47986,41.1847 44.42394,30.3412 110.28428,50.2728 194,58.7108 32.47955,3.2737 108.06065,3.2825 136.66665,0.016 88.6667,-10.1255 159.2548,-33.5444 218.6667,-72.5472 95.0267,-62.3829 150.0924,-158.4867 165.9793,-289.676 7.3959,-61.0737 3.1727,-162.8352 -9.4901,-228.6667 -23.7943,-123.7025 -76.2375,-195.6486 -164.5941,-225.8045 -28.0454,-9.5718 -58.6388,-14.3774 -100.2284,-15.7438 l -26.3334,-0.8652 0.016,329.8734 c 0.013,270.9217 0.3341,331.0649 1.7966,336.5401 6.6124,24.754 30.7029,44.2396 55.5409,44.9242 6.6678,0.1837 7.98,0.6086 7.98,2.5838 0,7.5436 -43.8399,27.1908 -84.2731,37.7676 -97.9164,25.6138 -232.87724,22.985 -310.15319,-6.0412 -22.11087,-8.3053 -49.57376,-24.2358 -49.57376,-28.7565 0,-0.9815 3.02056,-1.9633 7.66666,-2.4924 37.63147,-4.2845 63.053,-23.2344 67.95119,-50.6523 0.69436,-3.8866 0.80148,-136.7693 0.25689,-318.6666 -0.70054,-233.9923 -0.55164,-312.3993 0.59559,-313.5969 1.88255,-1.9653 50.01907,-20.9845 89.52967,-35.3741 140.63405,-51.2183 270.38485,-83.6507 426.00005,-106.4824 33.8978,-4.9735 48.3817,-4.8223 77.3333,0.8073 32.9708,6.411 58.8203,14.9361 88.9619,29.3394 121.7634,58.1852 195.9736,171.3184 215.5725,328.64 3.6251,29.0989 5.1635,56.9524 5.1916,94 0.1027,134.4923 -33.8596,256.3056 -99.9091,358.3484 -19.5133,30.1472 -53.2484,71.1767 -78.6461,95.6516 -111.9996,107.9304 -261.5331,171.4883 -443.8375,188.6493 -16.5779,1.5606 -38.8689,1.9592 -100,1.7886 -43.2666,-0.1214 -81.0667,-0.4212 -84,-0.6676 z"
         id="path1971" />
    </g>
  </g>
</svg>
