<svg width="28" height="28" viewBox="0 0 28 28" fill="none" xmlns="http://www.w3.org/2000/svg">
<path d="M13.9426 27.952C21.6429 27.952 27.8852 21.6948 27.8852 13.976C27.8852 6.25728 21.6429 0 13.9426 0C6.24231 0 0 6.25728 0 13.976C0 21.6948 6.24231 27.952 13.9426 27.952Z" fill="#FFC730"/>
<path d="M19.3404 9.15414C19.8028 11.1859 16.7824 12.4788 16.7824 12.4788C19.3404 7.95175 14.2749 3.14941 14.2749 3.14941C14.2749 11.6495 6.04089 12.3883 6.04089 19.2188C6.04089 22.4348 8.1545 24.2203 10.7884 24.8831C10.7812 24.8758 7.55836 22.8694 8.38573 19.9974C8.38573 19.9974 9.14446 22.6992 10.0116 22.4384C10.8751 22.1777 9.16614 20.863 9.52022 19.6497C9.87429 18.4365 10.7017 18.1612 11.1533 17.8136C11.6013 17.4659 11.8795 16.8104 11.4315 16.0824C11.4315 16.0824 13.574 17.9874 12.1902 19.2332C10.8064 20.4791 10.9112 21.0694 11.6013 21.4497C12.2914 21.83 14.6435 21.4135 15.4022 18.5741C15.4022 18.5741 16.5439 21.83 15.4022 22.9056C15.4022 22.9056 15.955 23.4597 17.0606 22.5579C17.0606 22.5579 16.804 24.3977 15.3444 25.0026C16.916 24.7273 18.3721 24.1334 19.4126 23.2859C23.2605 20.1459 19.3404 9.15414 19.3404 9.15414Z" fill="#25431E"/>
<g opacity="0.1">
<path d="M21.0921 18.8301C21.0849 18.8591 19.8745 23.3535 15.3402 25.0014C16.9119 24.7262 18.3679 24.1322 19.4085 23.2847C20.5682 22.3395 21.0199 20.6844 21.0921 18.8301Z" fill="#25431E"/>
</g>
<g opacity="0.1">
<path d="M6.37287 16.9697C6.15971 17.647 6.03687 18.3858 6.03687 19.2188C6.03687 22.3805 8.0746 24.1587 10.6471 24.8469C7.66633 23.4996 6.3801 17.0023 6.37287 16.9697Z" fill="#25431E"/>
</g>
</svg>
