<svg width="19" height="19" viewBox="0 0 19 19" fill="none" xmlns="http://www.w3.org/2000/svg">
<path d="M10.1726 8.31239V11.8057H15.1327C14.671 14.0256 12.7385 15.301 10.1726 15.301C7.18376 15.2608 4.78249 12.88 4.78249 9.9568C4.78249 7.03368 7.18376 4.65282 10.1726 4.6126C11.4149 4.61114 12.6189 5.03276 13.578 5.80503L16.2692 3.17317C13.1822 0.519104 8.67372 0.177738 5.20573 2.33547C1.73773 4.4932 0.143618 8.63146 1.29382 12.4906C2.44404 16.3498 6.06215 19.0023 10.1726 18.9998C14.7963 18.9998 19.0008 15.711 19.0008 9.95629C18.9937 9.40222 18.9242 8.8506 18.7938 8.31138L10.1726 8.31239Z" fill="url(#paint0_radial_340_7986)"/>
<defs>
<radialGradient id="paint0_radial_340_7986" cx="0" cy="0" r="1" gradientUnits="userSpaceOnUse" gradientTransform="translate(5.85817 18.572) rotate(27.3031) scale(9.9679)">
<stop stop-color="#25431E"/>
<stop offset="0.969925" stop-color="#25431E"/>
</radialGradient>
</defs>
</svg>
