<?xml version="1.0" standalone="no"?>
<!DOCTYPE svg PUBLIC "-//W3C//DTD SVG 20010904//EN"
 "http://www.w3.org/TR/2001/REC-SVG-20010904/DTD/svg10.dtd">
<svg version="1.0" xmlns="http://www.w3.org/2000/svg"
 width="392.000000pt" height="512.000000pt" viewBox="0 0 392.000000 512.000000"
 preserveAspectRatio="xMidYMid meet">

<g transform="translate(0.000000,512.000000) scale(0.100000,-0.100000)"
fill="#000000" stroke="none">
<path d="M1816 5110 c-537 -61 -990 -387 -1225 -880 -124 -261 -161 -454 -161
-862 l0 -228 235 0 235 0 0 249 c0 275 10 365 60 513 121 360 408 630 766 720
72 18 117 22 234 22 117 0 162 -4 234 -22 358 -90 645 -360 766 -720 50 -148
60 -238 60 -513 l0 -249 235 0 235 0 0 228 c0 408 -37 601 -161 862 -185 388
-511 679 -908 810 -190 63 -426 90 -605 70z"/>
<path d="M1846 2324 c-267 -65 -431 -342 -358 -605 33 -119 112 -226 211 -284
28 -16 51 -35 51 -40 0 -8 -187 -503 -255 -677 -7 -17 19 -18 465 -18 374 0
471 3 467 13 -30 79 -237 682 -237 690 0 7 20 25 45 40 95 61 179 185 204 305
73 349 -247 660 -593 576z"/>
</g>
</svg>
