<svg width="493" height="79" viewBox="0 0 493 79" fill="none" xmlns="http://www.w3.org/2000/svg">
<path d="M321.235 35.0028C321.235 42.8544 321.235 50.6561 321.235 58.4478C321.235 64.5913 321.255 70.7347 321.265 76.8782C321.265 76.9281 321.265 76.9881 321.265 77.038C321.315 78.6863 321.315 78.7162 319.601 78.7262C312.974 78.7462 306.347 78.7462 299.72 78.7462C298.504 78.7462 298.494 78.7062 298.494 77.4775C298.484 67.2185 298.454 56.9594 298.454 46.7003C298.454 36.9807 298.504 27.2511 298.514 17.5314C298.514 12.0872 298.504 6.63303 298.504 1.18884C298.504 0.129964 298.584 0.0500488 299.65 0.0500488C308.31 0.0500488 316.96 0.0500488 325.62 0.0900063C325.929 0.0900063 326.368 0.469602 326.527 0.779272C327.803 3.27661 329.028 5.79393 330.274 8.30126C331.978 11.7376 333.712 15.1739 335.406 18.6203C337.14 22.1565 338.864 25.7127 340.558 29.2689C341.724 31.7063 342.841 34.1737 343.997 36.6111C344.206 37.0506 344.505 37.4602 344.943 37.8598C344.943 36.701 344.943 35.5422 344.943 34.3835C344.943 25.2432 344.943 16.1129 344.923 6.97267C344.923 5.03474 344.844 3.0968 344.814 1.15887C344.804 0.129964 344.834 0.0900063 345.9 0.0999956C348.87 0.119974 351.829 0.1899 354.799 0.1899C358.616 0.1899 362.443 0.139953 366.259 0.119974C367.365 0.119974 367.485 0.169921 367.495 1.27874C367.545 4.75504 367.545 8.22134 367.545 11.6976C367.545 33.7142 367.545 55.7207 367.565 77.7373C367.565 78.4965 367.336 78.7062 366.618 78.7062C359.274 78.7062 351.919 78.7362 344.574 78.7562C344.285 78.7562 343.987 78.7162 343.698 78.7062C343.01 78.7062 342.671 78.4565 342.472 77.6973C342.233 76.7683 341.655 75.9192 341.216 75.0302C338.804 70.1853 336.393 65.3305 333.981 60.4857C331.141 54.7817 328.281 49.0778 325.451 43.3639C324.693 41.8355 324.046 40.2672 323.348 38.7188C322.89 37.7099 322.431 36.691 321.923 35.7021C321.774 35.4224 321.445 35.2326 321.225 35.0128L321.235 35.0028Z" fill="#FFC730"/>
<path d="M61.5056 39.3881C61.5056 51.4852 61.5056 63.5923 61.5056 75.6894C61.5056 76.4086 61.5256 77.1378 61.5953 77.8471C61.6651 78.4664 61.416 78.6862 60.838 78.6562C60.5988 78.6462 60.3596 78.6662 60.1204 78.6662C53.2542 78.6862 46.388 78.6962 39.5218 78.7561C38.7645 78.7561 38.5851 78.5463 38.5951 77.8071C38.6449 68.8267 38.6648 59.8562 38.7047 50.8758C38.7047 50.1865 38.4256 50.0267 37.7879 50.0267C33.1141 50.0267 28.4403 50.0067 23.7665 49.9568C22.9891 49.9568 22.9692 50.3564 22.9692 50.9158C22.9692 56.0203 22.9692 61.1249 22.9692 66.2195C22.9692 69.9355 22.9692 73.6416 22.9692 77.3576C22.9692 78.6462 22.9692 78.6562 21.6438 78.6562C16.382 78.6562 11.1203 78.6562 5.84856 78.6562C4.38363 78.6562 2.90875 78.7261 1.44382 78.7062C0.307761 78.6962 0.238004 78.5863 0.257934 77.6173C0.357589 71.4039 0.507071 65.1906 0.527002 58.9772C0.566864 40.9464 0.546933 22.9156 0.527002 4.87483C0.527002 3.57621 0.387486 2.26761 0.277866 0.96899C0.218073 0.229777 0.517036 -0.0199567 1.24451 -0.00996737C8.22034 0.0299901 15.1962 0.0599581 22.162 0.0499688C22.8995 0.0499688 22.9792 0.359639 22.9792 0.959C22.9692 5.98365 22.9692 11.0083 22.9792 16.0229C22.9792 19.8988 23.0091 23.7747 22.9792 27.6406C22.9792 28.3798 23.1885 28.6095 23.9359 28.5995C28.6097 28.5496 33.2835 28.5296 37.9573 28.5196C38.5353 28.5196 38.615 28.2 38.625 27.7604C38.6548 26.1022 38.7047 24.454 38.7146 22.7957C38.7246 16.6822 38.7246 10.5588 38.7146 4.44529C38.7146 3.24656 38.6847 2.04784 38.6748 0.849117C38.6748 0.269735 38.8841 0.0299901 39.5318 0.0299901C46.5375 0.0599581 53.5333 0.0599581 60.539 0.0299901C61.3362 0.0299901 61.5156 0.289713 61.5156 1.03891C61.4957 13.8053 61.5056 26.5817 61.5056 39.3481H61.5256L61.5056 39.3881Z" fill="#FFC730"/>
<path d="M376.733 39.458C376.733 27.8104 376.733 16.1628 376.733 4.51525C376.733 3.36647 376.683 2.2177 376.693 1.06892C376.693 0.010049 376.743 0.0500064 377.779 0.0599957C381.786 0.0999531 385.792 0.109942 389.808 0.109942C402.713 0.109942 415.628 0.109942 428.534 0.109942C429.44 0.109942 430.357 0.129921 431.254 0.0200383C431.922 -0.0598766 432.081 0.109943 432.081 0.759251C432.061 5.43427 432.081 10.1093 432.081 14.7843C432.081 16.7622 432.101 18.7401 432.151 20.708C432.171 21.3573 431.812 21.3973 431.344 21.3973C429.42 21.3973 427.497 21.4372 425.574 21.4372C417.502 21.4372 409.43 21.4372 401.358 21.4372C399.335 21.4372 399.325 21.4372 399.315 23.4251C399.315 24.9735 399.345 26.5218 399.325 28.0702C399.325 28.5596 399.534 28.6296 399.963 28.6296C406.46 28.6196 412.948 28.6196 419.445 28.6196C420.501 28.6196 420.491 28.6196 420.491 29.6585C420.491 36.0716 420.491 42.4848 420.491 48.898C420.491 49.9568 420.501 49.9668 419.445 49.9668C413.117 49.9868 406.779 50.0068 400.451 50.0367C399.315 50.0367 399.315 50.0667 399.325 51.1855C399.325 53.0236 399.355 54.8716 399.325 56.7096C399.325 57.1791 399.464 57.329 399.903 57.319C400.919 57.299 401.936 57.299 402.952 57.299C412.409 57.299 421.877 57.299 431.334 57.289C431.892 57.289 432.061 57.4389 432.061 58.0083C432.041 64.4214 432.041 70.8346 432.041 77.2478C432.041 78.6862 432.041 78.6862 430.517 78.6862C417.312 78.6862 404.118 78.6762 390.914 78.6862C386.669 78.6862 382.413 78.7162 378.168 78.7362C377.899 78.7362 377.63 78.6862 377.371 78.7162C376.813 78.7661 376.703 78.5064 376.713 78.0069C376.733 75.5995 376.733 73.2021 376.733 70.7946C376.733 60.3458 376.733 49.8969 376.733 39.458Z" fill="#FFC730"/>
<path d="M451.544 78.7362C446.87 78.7362 442.196 78.7362 437.512 78.7362C435.579 78.7362 435.569 78.7462 435.569 76.8182C435.569 70.7846 435.559 64.7411 435.559 58.7075C435.559 57.3689 435.559 57.349 436.944 57.349C441.698 57.349 446.461 57.349 451.215 57.349C452.012 57.349 452.819 57.289 453.607 57.1891C454.982 57.0293 455.889 55.9904 455.988 54.6019C456.168 52.2644 455.59 50.0567 454.802 47.889C454.194 46.2308 453.736 44.5027 452.989 42.9143C452.421 41.7056 452.112 40.437 451.633 39.2183C451.105 37.8597 450.388 36.5711 449.83 35.2126C449.291 33.894 448.853 32.5254 448.385 31.1769C447.896 29.7384 447.358 28.3199 446.96 26.8615C446.262 24.2642 445.535 21.667 445.056 19.0198C444.737 17.2517 444.677 15.4037 444.777 13.6056C444.887 11.7376 445.445 9.9195 446.252 8.19134C447.408 5.72397 449.491 4.21558 451.753 2.92695C453.308 2.04789 455.012 1.58838 456.766 1.2887C458.171 1.03897 459.546 0.549488 460.961 0.399647C463.054 0.189871 465.166 0.129935 467.279 0.119945C475.461 0.0799878 483.632 0.0899771 491.814 0.0899771C492.97 0.0899771 492.98 0.0899772 492.98 1.23875C492.98 7.54204 492.97 13.8453 492.96 20.1486C492.96 21.3873 492.96 21.3973 491.685 21.3973C486.423 21.3973 481.151 21.3973 475.889 21.4372C475.132 21.4372 474.345 21.697 473.617 21.9567C472.78 22.2564 472.531 23.0455 472.471 23.8347C472.322 25.6827 472.521 27.5008 473.139 29.2589C473.607 30.5875 473.956 31.956 474.484 33.2646C475.451 35.682 476.537 38.0595 477.524 40.4769C478.112 41.8954 478.63 43.3439 479.138 44.7923C479.985 47.1798 480.852 49.5473 481.629 51.9547C482.925 55.9804 483.902 60.0761 483.782 64.3515C483.662 69.0565 481.57 72.6626 477.663 75.2499C474.933 77.058 471.913 78.0969 468.664 78.2567C462.964 78.5364 457.254 78.6762 451.544 78.876C451.544 78.8261 451.544 78.7761 451.544 78.7262V78.7362Z" fill="#FFC730"/>
<path d="M178.58 0.0700275C187.957 0.0700275 197.335 0.0800169 206.712 0.0500488C207.549 0.0500488 207.749 0.329751 207.749 1.10892C207.729 7.38224 207.739 13.6655 207.749 19.9389C207.749 21.3773 207.769 21.3973 206.284 21.4073C201.181 21.4373 196.079 21.4572 190.977 21.4872C189.602 21.4872 189.851 21.5871 189.861 22.6759C189.891 26.8914 189.861 31.1169 189.851 35.3424C189.851 37.9597 189.881 40.5769 189.881 43.1941C189.871 48.1888 189.811 53.1834 189.811 58.1781C189.811 64.7711 189.851 71.374 189.901 77.967C189.901 78.6163 189.582 78.6663 189.113 78.6663C186.652 78.6663 184.2 78.6763 181.739 78.6863C177.543 78.7062 173.348 78.7262 169.152 78.7462C168.963 78.7462 168.774 78.7462 168.594 78.7462C167.01 78.7462 167.02 78.7462 167.09 77.1978C167.139 75.9192 167.149 74.6306 167.149 73.3519C167.149 57.6187 167.149 41.8855 167.149 26.1522C167.149 24.7637 167.05 23.3752 167.05 21.9867C167.05 21.4373 166.711 21.4772 166.352 21.4772C163.253 21.4572 160.154 21.4373 157.054 21.4273C154.812 21.4273 152.57 21.4473 150.318 21.4273C149.102 21.4273 149.122 21.4073 149.291 20.2585C149.381 19.6492 149.361 19.0298 149.361 18.4205C149.361 12.7265 149.341 7.0426 149.331 1.34867C149.331 0.080017 149.331 0.0700275 150.607 0.0700275C159.346 0.0700275 168.086 0.0800169 176.816 0.0900063C177.404 0.0900063 177.992 0.0900063 178.58 0.0900063C178.58 0.0800169 178.58 0.0600382 178.58 0.0500488V0.0700275Z" fill="#FFC730"/>
<path d="M262.011 57.3688C262.021 57.6784 262.05 57.9382 262.05 58.1979C262.05 62.1537 262.04 66.0995 262.031 70.0552C262.031 72.7224 261.991 75.3996 262.031 78.0667C262.031 78.6461 261.751 78.6761 261.353 78.6761C258.842 78.696 256.33 78.716 253.819 78.726C249.095 78.726 244.362 78.726 239.638 78.726C233.978 78.726 228.307 78.726 222.647 78.726C219.657 78.726 216.668 78.746 213.668 78.746C212.403 78.746 212.393 78.736 212.393 77.4674C212.393 52.6538 212.393 27.8302 212.393 3.01668C212.393 2.26748 212.393 1.51828 212.393 0.769079C212.393 0.28959 212.552 0.0698242 213.1 0.0698242C220.156 0.0898029 227.211 0.0997923 234.267 0.0698242C234.974 0.0698242 235.174 0.299579 235.174 0.998834C235.164 18.3603 235.174 35.7218 235.174 53.0833C235.174 54.2621 235.094 55.4308 235.114 56.6096C235.114 56.8293 235.373 57.189 235.572 57.2389C236.031 57.3588 236.519 57.3488 237.007 57.3488C245.099 57.3488 253.201 57.3488 261.293 57.3488C261.522 57.3488 261.761 57.3688 262.05 57.3887L262.011 57.3688Z" fill="#FFC730"/>
<path d="M266.595 78.776C266.595 75.6393 266.595 72.6525 266.595 69.6557C266.595 46.9799 266.595 24.294 266.595 1.61821C266.595 0.0199105 266.595 0.0598679 268.149 0.0698573C274.139 0.0998254 280.118 0.089836 286.107 0.089836C287.173 0.089836 288.24 0.089836 289.455 0.089836C289.455 0.519378 289.455 0.95891 289.455 1.39844C289.436 8.58079 289.396 15.7631 289.396 22.9555C289.396 29.4685 289.446 35.9916 289.446 42.5046C289.446 52.1444 289.416 61.7841 289.406 71.4338C289.406 73.6015 289.376 75.7592 289.446 77.9269C289.465 78.6761 289.176 78.766 288.569 78.766C286.914 78.746 285.26 78.766 283.596 78.766C278.274 78.766 272.963 78.766 267.641 78.766H266.595V78.776Z" fill="#FFC730"/>
<path d="M106.44 77.757C127.679 77.757 144.897 60.4981 144.897 39.2081C144.897 17.9181 127.679 0.65918 106.44 0.65918C85.2008 0.65918 67.9832 17.9181 67.9832 39.2081C67.9832 60.4981 85.2008 77.757 106.44 77.757Z" fill="#FFC730"/>
<path d="M121.328 25.9125C122.604 31.5165 114.273 35.0827 114.273 35.0827C121.328 22.596 107.357 9.3501 107.357 9.3501C107.357 32.7951 84.6455 34.8329 84.6455 53.6729C84.6455 62.5434 90.4753 67.4682 97.7401 69.2962C97.7202 69.2762 88.831 63.7421 91.1131 55.8206C91.1131 55.8206 93.2058 63.2726 95.5975 62.5534C97.9793 61.8342 93.2656 58.208 94.2422 54.8616C95.2189 51.5152 97.501 50.756 98.7466 49.797C99.9824 48.838 100.75 47.0299 99.514 45.0221C99.514 45.0221 105.423 50.2765 101.607 53.7128C97.7899 57.1492 98.0789 58.7774 99.9823 59.8263C101.886 60.8752 108.373 59.7264 110.466 51.8948C110.466 51.8948 113.615 60.8752 110.466 63.842C110.466 63.842 111.991 65.3704 115.04 62.8831C115.04 62.8831 114.333 67.9576 110.307 69.6259C114.642 68.8667 118.658 67.2284 121.528 64.8909C132.141 56.2301 121.328 25.9125 121.328 25.9125Z" fill="#25431E"/>
</svg>
