<?xml version="1.0" encoding="UTF-8" standalone="no"?>
<svg
   xmlns:dc="http://purl.org/dc/elements/1.1/"
   xmlns:cc="http://creativecommons.org/ns#"
   xmlns:rdf="http://www.w3.org/1999/02/22-rdf-syntax-ns#"
   xmlns:svg="http://www.w3.org/2000/svg"
   xmlns="http://www.w3.org/2000/svg"
   xmlns:sodipodi="http://sodipodi.sourceforge.net/DTD/sodipodi-0.dtd"
   xmlns:inkscape="http://www.inkscape.org/namespaces/inkscape"
   version="1.1"
   id="svg833"
   width="315.58487"
   height="314.11417"
   viewBox="0 0 315.58487 314.11417"
   sodipodi:docname="mgm_emblem.svg"
   inkscape:version="1.0.2 (e86c870879, 2021-01-15, custom)">
  <metadata
     id="metadata839">
    <rdf:RDF>
      <cc:Work
         rdf:about="">
        <dc:format>image/svg+xml</dc:format>
        <dc:type
           rdf:resource="http://purl.org/dc/dcmitype/StillImage" />
        <dc:title></dc:title>
      </cc:Work>
    </rdf:RDF>
  </metadata>
  <defs
     id="defs837" />
  <sodipodi:namedview
     pagecolor="#ffffff"
     bordercolor="#666666"
     borderopacity="1"
     objecttolerance="10"
     gridtolerance="10"
     guidetolerance="10"
     inkscape:pageopacity="0"
     inkscape:pageshadow="2"
     inkscape:window-width="2145"
     inkscape:window-height="1341"
     id="namedview835"
     showgrid="false"
     inkscape:zoom="1.3702381"
     inkscape:cx="337.43746"
     inkscape:cy="102.45267"
     inkscape:window-x="1285"
     inkscape:window-y="0"
     inkscape:window-maximized="0"
     inkscape:current-layer="layer1" />
  <g
     inkscape:groupmode="layer"
     id="layer1"
     inkscape:label="background"
     style="display:inline;opacity:1"
     transform="translate(-132.20757,-52.942914)" />
  <g
     inkscape:groupmode="layer"
     inkscape:label="circle"
     id="g841"
     style="display:none"
     transform="translate(-132.20757,-52.942914)" />
  <g
     inkscape:groupmode="layer"
     id="layer2"
     inkscape:label="drawing"
     style="display:inline"
     transform="translate(-132.20757,-52.942914)">
    <path
       id="path845"
       style="display:inline;fill:#25431e;fill-opacity:0.96;fill-rule:evenodd;stroke:#1e4dfc;stroke-width:0.11417;stroke-linecap:round;stroke-linejoin:round"
       d="m 289.73535,52.999999 c 7.65,9.4809 18.46394,17.1136 26.96094,26 12.451,13.0223 22.8933,28.821111 30.7793,45.000001 38.663,79.32601 19.08276,191.183 -57.74024,242 v 1 h 26.28516 A 159.46133,159.46133 0 0 0 447.73535,222.01367 V 197.77148 A 159.46133,159.46133 0 0 0 317.25293,52.999999 Z m -39.79297,2.220703 a 159.46133,159.46133 0 0 0 -25.70898,8.837891 l 4.50195,19.941406 c 16.764,-5.34221 27.09,-14.5105 46,-11 C 268.59463,66.737869 259.24,59.350157 249.94238,55.220702 Z M 214.08301,68.984374 A 159.46133,159.46133 0 0 0 176.7041,96.414062 c 0.66172,3.07795 1.02215,6.276438 1.03125,9.585938 8.447,-2.01189 25.85633,0.74306 32.48633,-4.85742 5.78383,-4.885527 6.7473,-20.12896 3.86133,-32.158206 z m 50.86914,13.248047 c -8.42444,-0.08936 -16.96211,2.136167 -25.2168,7.466797 -5.726,3.6978 -11.474,7.797785 -14,14.300782 10.69,7.0734 36.499,18.6594 30,34 3.745,1.40521 8.48746,1.57901 11.81446,3.85742 2.71699,1.8606 3.77445,5.42466 6.56445,7.10156 4.015,2.4137 15.29605,2.32804 11.49805,10.99805 C 280.7303,171.10203 259.92935,166 250.73535,166 v 1 c 14.665,3.362 32.826,17.983 39,-3 13.753,5.4 7.28122,17.123 13.69922,27 4.891,7.526 10.76406,13.53 14.28906,22 13.358,32.093 7.13772,67.567 -4.98828,99 16.973,-11.957 25.54405,-34.592 30.37305,-54 12.216,-49.091 7.41011,-111.42361 -28.46289,-150 C 301.46682,93.827323 283.48591,82.429011 264.95215,82.232421 Z M 237.73535,126 c 3.566,6.8542 9.652,10.2547 17,12 -4.408,-6.28089 -8.955,-11.7611 -17,-12 z m -56.93945,16.93945 c -1.32301,0.0103 -2.67468,0.14954 -4.06055,0.44922 -12.129,2.6229 -19.351,14.71533 -32,16.61133 v 1 c 7.012,1.603 15.761,4.70609 23,3.12109 7.202,-1.576 12.55,-7.53187 20,-8.79687 14.636,-2.48701 24.701,0.16578 38,5.67578 -4.244,-7.675 -11.38,-6.6073 -19,-9.0293 -8.79462,-2.79433 -16.67837,-9.10371 -25.93945,-9.03125 z m -17.01563,12.57031 c 1.25116,-0.0496 2.58308,0.11699 3.95508,0.49024 -3.335,4.581 -6.416,5.934 -12,6 1.2585,-4.25175 4.29145,-6.34137 8.04492,-6.49024 z M 145.73535,182 c 0,25.702 4.42,51.812 18,74 h 1 c 0,-29.568 6.345,-49.604 34,-65 v -1 c -19.866,2.513 -34.527,-0.319 -53,-8 z m 71,14 c -9.188,9.194 -18.857,19.943 -24.125,32 -13.474,30.837 -2.92292,65.737 -6.04492,98 -0.18799,1.9434 -0.47355,3.80797 -0.83984,5.61328 a 159.46133,159.46133 0 0 0 44.25,26.51562 c 5.25131,-7.97129 8.11804,-19.43241 7.45898,-26.1289 -3.134,-31.861 -37.45169,-49.78 -42.55469,-81 -2.218,-13.569 3.49138,-26.858 10.85938,-38 3.301,-4.993 10.22809,-11.067 10.99609,-17 z m 69.01563,1.17578 c -13.94775,0.55101 -26.84844,17.8621 -39.01563,21.75195 -4.693,1.5 -10.496,-0.56112 -15,-1.95312 -4.259,-1.317 -9.545,-2.07561 -12,-5.97461 -9.205,4.386 -10.26392,14.939 -11.16992,24 -0.526,5.262 -2.54973,11.809 -1.17773,17 3.264,12.357 23.94765,27.33808 36.34765,28.33008 9.473,0.758 19.163,-1.88144 28,-5.02344 3.81,-1.355 9.91856,-5.19416 13.97656,-3.32617 8.625,3.97101 -1.16656,12.47998 -4.97656,15.83398 -11.227,9.881 -24.573,12.18555 -39,12.18555 5.645,16.713 6.43769,31.163 0.30469,48 -1.57172,4.31462 -3.85055,8.32221 -5.77539,12.47265 a 159.46133,159.46133 0 0 0 13.22656,3.97461 c 7.74338,-2.55643 14.79262,-6.81397 22.24414,-11.78125 35.881,-23.919 49.37092,-61.65301 45.16992,-103.66601 -1.613,-16.137 -5.36154,-37.0476 -19.18554,-47.6836 -4.07641,-3.13644 -8.06337,-4.2949 -11.96875,-4.14062 z m -4.69141,5.14648 c 2.38014,-0.0121 4.37881,0.83035 5.64844,2.9043 2.492,4.07 0.11734,9.65344 -0.97266,13.77344 -2.246,-1.528 -3.09097,-4.61286 -5.41797,-5.88086 -4.771,-2.597 -13.3415,3.58266 -16.1875,6.97266 -1.718,2.04699 -3.48223,12.51232 -6.24023,11.98632 -4.661,-0.89 -2.49886,-11.43322 -1.13086,-14.07422 2.42968,-4.69141 15.80027,-15.63829 24.30078,-15.68164 z m -148.79492,38.29883 a 159.46133,159.46133 0 0 0 45.55273,83.83399 c 0.4804,-23.72677 -15.5683,-45.07786 -29.73437,-63.45508 -5.13034,-6.65511 -10.0766,-14.11746 -15.81836,-20.37891 z M 282.73535,251 c 9.317,19.36 -19.616,24.023 -33,26 -2.146,-5.887 -2.777,-11.23 0,-17 h 2 c 6.442,11.481 24.685,-3.43 31,-9 z" />
  </g>
</svg>
