<svg width="91" height="91" viewBox="0 0 91 91" fill="none" xmlns="http://www.w3.org/2000/svg">
<path fill-rule="evenodd" clip-rule="evenodd" d="M17.6931 75.6855C25.0572 82.4767 34.8957 86.625 45.7031 86.625C56.5105 86.625 66.349 82.4767 73.7132 75.6855C72.7285 74.614 71.7951 73.4945 70.9171 72.331L68.2732 74.2519L66.1608 71.3445L68.868 69.3776C67.084 66.5737 65.6024 63.5585 64.4692 60.378L61.1265 61.4641L60.016 58.0463L63.4003 56.9466C62.554 53.7862 62.0438 50.4884 61.9103 47.0938H58.2812V43.5H61.9103C62.0438 40.1054 62.554 36.8076 63.4003 33.6471L60.016 32.5475L61.1265 29.1296L64.4692 30.2157C65.6024 27.0353 67.084 24.0201 68.868 21.2161L66.1608 19.2492L68.2732 16.3418L70.9171 18.2628C71.7951 17.0992 72.7285 15.9798 73.7132 14.9083C66.349 8.11707 56.5105 3.96875 45.7031 3.96875C34.8957 3.96875 25.0572 8.11707 17.6931 14.9083C18.6778 15.9798 19.6111 17.0992 20.4892 18.2628L23.1331 16.3418L25.2455 19.2492L22.5383 21.2161C24.3222 24.0201 25.8038 27.0353 26.9371 30.2157L30.2798 29.1296L31.3903 32.5475L28.0059 33.6471C28.8522 36.8076 29.3624 40.1054 29.496 43.5H33.125V47.0938H29.496C29.3624 50.4884 28.8522 53.7862 28.0059 56.9466L31.3903 58.0463L30.2798 61.4641L26.9371 60.378C25.8038 63.5585 24.3222 66.5737 22.5383 69.3776L25.2455 71.3445L23.1331 74.2519L20.4892 72.331C19.6111 73.4945 18.6778 74.614 17.6931 75.6855ZM15.1562 73.1344C8.45892 65.7894 4.375 56.0201 4.375 45.2969C4.375 34.5737 8.45892 24.8044 15.1562 17.4594C16.0078 18.3933 16.8171 19.3664 17.5811 20.3756L14.4109 22.6789L16.5232 25.5863L19.6245 23.3331C21.1944 25.8306 22.5044 28.5079 23.5168 31.3271L20.0262 32.4612L21.1367 35.8791L24.5821 34.7596C25.3203 37.5675 25.7705 40.4921 25.8991 43.5H22.3438V47.0938H25.8991C25.7705 50.1016 25.3203 53.0263 24.5821 55.8341L21.1367 54.7147L20.0262 58.1325L23.5168 59.2667C22.5044 62.0859 21.1944 64.7632 19.6245 67.2606L16.5232 65.0074L14.4109 67.9148L17.5811 70.2181C16.8171 71.2274 16.0078 72.2005 15.1562 73.1344ZM76.25 73.1344C82.9473 65.7894 87.0312 56.0201 87.0312 45.2969C87.0312 34.5737 82.9473 24.8044 76.25 17.4594C75.3985 18.3933 74.5892 19.3664 73.8252 20.3756L76.9954 22.6789L74.883 25.5863L71.7818 23.3331C70.2119 25.8306 68.9018 28.5079 67.8894 31.3271L71.3801 32.4612L70.2695 35.8791L66.8242 34.7596C66.086 37.5675 65.6358 40.4921 65.5071 43.5H69.0625V47.0938H65.5071C65.6358 50.1016 66.086 53.0263 66.8242 55.8341L70.2695 54.7147L71.3801 58.1325L67.8894 59.2667C68.9018 62.0859 70.2119 64.7632 71.7818 67.2606L74.883 65.0074L76.9954 67.9148L73.8252 70.2181C74.5892 71.2274 75.3985 72.2005 76.25 73.1344ZM45.7031 90.2188C70.5128 90.2188 90.625 70.1065 90.625 45.2969C90.625 20.4872 70.5128 0.375 45.7031 0.375C20.8935 0.375 0.78125 20.4872 0.78125 45.2969C0.78125 70.1065 20.8935 90.2188 45.7031 90.2188Z" fill="white"/>
</svg>
