<svg width="115" height="115" viewBox="0 0 115 115" fill="none" xmlns="http://www.w3.org/2000/svg">
<path d="M13.2964 111.406H50.3121C56.7808 111.406 62.8902 107.453 65.7652 101.703L108.89 9.70312C109.968 6.82812 107.812 3.59375 104.937 3.59375H99.9058C98.1089 3.59375 96.6714 4.67188 95.9527 6.10938L59.2964 85.8906C58.2183 88.4062 55.7027 89.8438 53.1871 89.8438H19.7652C14.3746 89.8438 9.70269 93.0781 8.26519 98.1094L6.82769 102.062C5.03082 106.734 8.26519 111.406 13.2964 111.406Z" stroke="white" stroke-width="3.5" stroke-miterlimit="10" stroke-linecap="round" stroke-linejoin="round"/>
<path d="M17.9688 53.9062C10.0625 53.9062 3.59375 57.1406 3.59375 61.0938V68.2812C3.59375 72.2344 10.0625 75.4688 17.9688 75.4688C25.875 75.4688 32.3438 72.2344 32.3438 68.2812V61.0938C32.3438 57.1406 25.875 53.9062 17.9688 53.9062Z" stroke="white" stroke-width="3" stroke-miterlimit="10" stroke-linecap="round" stroke-linejoin="round"/>
<path d="M83.7344 32.3438H98.1094" stroke="white" stroke-width="3" stroke-miterlimit="10" stroke-linecap="round" stroke-linejoin="round"/>
</svg>
