<?xml version="1.0" encoding="UTF-8"?>
<svg version="1.1" viewBox="0 0 1600 1600" xmlns="http://www.w3.org/2000/svg">
<path transform="translate(794 275)" d="m0 0c5.15-0.0902 10.3-0.0505 15.4 0.0503 1.04 0.0179 2.09 0.0358 3.17 0.0542 14.8 0.282 29.4 1.02 44.1 2.45 0.686 0.0657 1.37 0.131 2.08 0.199 11.4 1.11 11.4 1.11 12.6 2.3 2.16 0.209 4.33 0.368 6.5 0.5 6.39 0.389 6.39 0.389 7.5 1.5 1.7 0.186 3.41 0.323 5.12 0.438 4.54 0.368 8.51 1.27 12.9 2.56 2.21 0.295 4.42 0.505 6.64 0.715 3.85 0.466 7.59 1.37 11.4 2.29v2c1.2-0.0412 2.39-0.0825 3.62-0.125 3.83-0.132 6.77 0.875 10.4 2.12 2.12 0.502 4.25 0.981 6.38 1.44 4.27 0.966 8.28 2.04 12.3 3.68 3.25 1.26 6.55 2.35 9.86 3.45 1.86 0.621 1.86 0.621 3.75 1.25 2.41 0.775 4.84 1.51 7.28 2.18 3.22 0.948 6.2 2.1 9.28 3.44 3.43 1.46 6.81 2.84 10.4 3.94 5.88 1.87 11.5 4.5 17.1 7 2.87 1.28 5.75 2.48 8.67 3.62v2h4v2l2.5 0.188c3.82 0.888 6.11 2.33 9.33 4.47 3.53 2.19 7.33 3.75 11.2 5.34v2l2.17 0.328c3.08 0.731 5.33 1.86 8.08 3.42 0.95 0.534 1.9 1.07 2.88 1.62 0.947 0.539 1.89 1.08 2.87 1.63 1.73 0.96 3.46 1.92 5.19 2.88 1.27 0.708 2.54 1.42 3.81 2.12v2h3v2h4v2l2.38 0.938c2.62 1.06 2.62 1.06 4.62 2.06v2c0.88 0.17 0.88 0.17 1.78 0.344 2.4 0.707 3.82 1.64 5.79 3.16 2.27 1.74 3.66 2.57 6.44 3.5v2h2v2c0.701 0.268 1.4 0.536 2.12 0.812 3.04 1.26 5.95 2.69 8.88 4.19v2c0.99 0.33 1.98 0.66 3 1v2c0.887 0.227 1.77 0.454 2.69 0.688 3.78 1.5 5.7 3.24 8.31 6.31v2l5 2v2l1.69 0.812c2.52 1.3 4.95 2.61 7.31 4.19v2h2v2l2.38 0.938c2.62 1.06 2.62 1.06 4.62 2.06v2h2v2h2c1.62 1.38 1.62 1.38 3 3v2h2v2l1.62 0.688c3.2 1.77 5.67 3.85 8.38 6.31v2h2v2h2c1.73 1.68 1.73 1.68 3.62 3.88 0.632 0.719 1.26 1.44 1.91 2.18 1.46 1.95 1.46 1.95 1.46 3.95h2v2h2v2h2c1.62 1.38 1.62 1.38 3 3v2h2c1.29 1.46 1.29 1.46 2.62 3.38 0.669 0.94 0.669 0.94 1.35 1.9 1.02 1.73 1.02 1.73 1.02 3.73h2v2h2v3h2c3 3.46 3 3.46 3 6h2l2 5h2c3 3.46 3 3.46 3 6h2v3h2c2.3 2.56 3 3.48 3 7h2v2h2c3 4.38 3 4.38 3 7h2v3h2c1.29 1.64 1.29 1.64 2.62 3.81 0.669 1.06 0.669 1.06 1.35 2.14 1.02 2.04 1.02 2.04 1.02 5.04h2v2h2l1 5h2l2 6h2v3h2c3 5.62 3 5.62 3 9h2v3h2c3 5.62 3 5.62 3 9h2v4h2c0.508 1.1 1.02 2.2 1.54 3.33 0.694 1.49 1.39 2.99 2.09 4.48 0.36 0.773 0.721 1.55 1.09 2.34 2.52 5.36 5.24 10.5 8.25 15.6 1.03 2.2 1.03 2.2 1.03 6.2h2c0.65 1.73 1.3 3.46 1.94 5.19 0.36 0.963 0.719 1.93 1.09 2.92 0.884 2.63 1.5 5.16 1.97 7.89h2c1.92 5.64 3.71 11.3 5.35 17 0.478 1.95 0.478 1.95 1.65 2.97 0.0406 1.67 0.0427 3.33 0 5h2c0.242 0.86 0.485 1.72 0.734 2.61 2.04 7.21 4.17 14.4 6.39 21.6 0.694 2.25 1.36 4.51 2 6.78 0.841 3.09 0.841 3.09 2 6.12 0.93 3.12 1.03 5.7 0.875 8.94h2v7h2c0.111 0.694 0.221 1.39 0.335 2.1 0.513 3.22 1.03 6.43 1.54 9.65 0.261 1.64 0.261 1.64 0.527 3.31 0.352 2.2 0.706 4.41 1.06 6.61 0.365 2.27 0.725 4.53 1.08 6.8 0.174 1.09 0.347 2.17 0.526 3.29 0.232 1.47 0.232 1.47 0.469 2.98 0.236 2.22 0.236 2.22 1.46 3.26 0.21 2.14 0.368 4.29 0.5 6.44 0.141 4.44 0.141 4.44 1.5 8.56 5.54 42 4.28 85.4 0.754 128-0.0605 0.737-0.121 1.47-0.183 2.23-0.449 5.01-0.449 5.01-1.57 7.25-0.182 1.83-0.322 3.66-0.438 5.5-0.353 4.6-0.981 8.96-1.96 13.5-0.986 4.97-1.71 9.98-2.46 15-0.826 5.4-1.89 10.7-3.14 16h-2c0.0561 1.53 0.0561 1.53 0.113 3.09-0.113 3.89-0.768 6.84-1.93 10.5-2.03 6.74-3.68 13.5-5.19 20.4h-2c-0.126 1.01-0.253 2.02-0.383 3.06-0.593 3.78-1.44 7.32-2.49 11-0.491 1.75-0.491 1.75-0.992 3.54-1.13 3.4-1.13 3.4-2.58 6.27-1.59 3.2-2.67 6.35-3.76 9.74-1.35 4.07-2.95 8.04-4.54 12-0.346 0.864-0.691 1.73-1.05 2.62-2.7 6.67-5.64 13.2-8.76 19.7-1.25 2.66-2.39 5.32-3.45 8.07h-2l-0.25 1.94c-1.05 4.27-2.89 8.09-4.75 12.1h-2v4h-2l-0.375 1.69c-0.685 2.53-1.62 4.89-2.62 7.31h-2v4h-2v3h-2v4h-2l-1 5h-2v3h-2l-0.25 1.56c-1.07 3.48-2.89 6.31-4.75 9.44h-2v3h-2c-0.268 0.722-0.536 1.44-0.812 2.19-1.19 2.81-2.46 5.3-4.19 7.81h-2c-0.268 0.722-0.536 1.44-0.812 2.19-1.19 2.81-2.46 5.3-4.19 7.81h-2v2h-2l-0.375 1.81c-0.625 2.19-0.625 2.19-2.62 5.19h-2v2h-2l-0.375 1.81c-0.625 2.19-0.625 2.19-2.62 5.19h-2v3h-2c-0.227 0.516-0.454 1.03-0.688 1.56-1.79 3.33-3.81 6.58-6.31 9.44h-2l-0.812 1.69c-1.3 2.52-2.61 4.95-4.19 7.31h-2v2h-2v2c-1.38 1.62-1.38 1.62-3 3h-2v2h-2v2h-2l-1 3h-2v2h-2v2h-2v2c-1.38 1.62-1.38 1.62-3 3h-2v2h-2v2h-2l-1 3h-2v2h-2v2h-2v2c-4.47 4-4.47 4-7 4l-1 3c-3.44 3-3.44 3-6 3v2h-2v2h-3v2l-4 1v2h-2v2h-3v2c-3.46 3-3.46 3-6 3v2h-3v2h-2v2c-4.38 3-4.38 3-7 3v2c-2.12 1.73-2.12 1.73-4.88 3.62-0.905 0.632-1.81 1.26-2.74 1.91-2.38 1.46-2.38 1.46-4.38 1.46v2c-7.43 4.43-7.43 4.43-11 5v2h-2v2c-1.25 0.651-2.5 1.3-3.75 1.94-1.04 0.539-1.04 0.539-2.11 1.09-2.04 0.928-3.95 1.5-6.14 1.97v2c-1.46 0.838-2.91 1.67-4.38 2.5-0.812 0.464-1.62 0.928-2.46 1.41-2.16 1.09-2.16 1.09-4.16 1.09v2h-4v2c-1.62 0.838-3.25 1.67-4.88 2.5-0.905 0.464-1.81 0.928-2.74 1.41-2.38 1.09-2.38 1.09-4.38 1.09v2c-1.58 0.649-3.17 1.29-4.75 1.94-0.882 0.36-1.76 0.719-2.67 1.09-2.19 0.826-4.3 1.47-6.58 1.97v2c-0.99 0.412-1.98 0.825-3 1.25-3.48 1.47-6.79 3.18-10.1 4.98-1.89 0.77-1.89 0.77-5.89 0.77v2c-0.782 0.277-1.56 0.554-2.37 0.84-1.01 0.362-2.02 0.724-3.07 1.1-1.51 0.539-1.51 0.539-3.06 1.09-2.41 0.741-2.41 0.741-3.5 1.97-1.67 0.0406-3.33 0.0427-5 0v2h-5v2c-9.41 3.44-9.41 3.44-14 3v2c-0.69 0.182-1.38 0.364-2.09 0.551-4.61 1.23-9.16 2.5-13.7 4.07-3.76 1.29-7.3 1.95-11.2 2.38v2c-0.686 0.177-1.37 0.353-2.08 0.535-3.1 0.799-6.2 1.6-9.3 2.4-1.08 0.278-2.16 0.556-3.27 0.842-1.03 0.267-2.06 0.535-3.12 0.811-0.953 0.246-1.91 0.492-2.89 0.746-2.33 0.585-2.33 0.585-4.34 1.66-2.33 0.0402-4.67 0.0432-7 0v2c-9.81 1.93-19.6 3.61-29.5 5-0.815 0.117-1.63 0.234-2.47 0.354-0.726 0.101-1.45 0.203-2.2 0.307-1.9 0.273-1.9 0.273-3.81 1.34-3.08 0.315-6.16 0.511-9.25 0.719-2.71 0.113-2.71 0.113-4.75 1.28-2.84 0.302-5.66 0.548-8.5 0.754-0.882 0.0654-1.76 0.131-2.67 0.198-41 2.96-83 4.53-124-0.952l-1-1c-2.16-0.209-4.33-0.368-6.5-0.5-6.39-0.389-6.39-0.389-7.5-1.5-1.44-0.262-2.89-0.468-4.35-0.648-1.36-0.175-1.36-0.175-2.75-0.354-0.977-0.123-1.95-0.246-2.96-0.372-9.39-1.22-18.7-2.75-27.9-4.62v-2h-7v-2l-3.19 0.125c-3.65-0.12-5.54-0.697-8.81-2.12-1.99-0.376-3.99-0.72-6-1v-2l-2.38 0.25c-4.15-0.286-7.03-1.54-10.8-3.16-4.8-1.86-9.8-2.95-14.8-4.09v-2c-0.722 0.04-1.44 0.0799-2.19 0.121-3.06-0.132-5.02-0.833-7.81-2.06-3.34-1.45-6.41-2.45-10-3.06v-2h-5v-2c-0.705-0.122-1.41-0.245-2.14-0.371-3.02-0.663-5.78-1.61-8.68-2.69-0.976-0.362-1.95-0.724-2.96-1.1-0.736-0.277-1.47-0.554-2.23-0.84v-2h-4v-2l-2.19-0.375c-2.77-0.615-5.21-1.51-7.81-2.62v-2h-4v-2c-0.828-0.184-0.828-0.184-1.67-0.371-2.62-0.709-5.06-1.67-7.58-2.69-0.892-0.362-1.78-0.724-2.7-1.1-0.675-0.277-1.35-0.554-2.05-0.84v-2l-1.81-0.438c-1.75-0.45-3.47-0.991-5.19-1.56v-2c-2.97-0.99-5.94-1.98-9-3v-2c-0.701-0.268-1.4-0.536-2.12-0.812-3.04-1.26-5.95-2.69-8.88-4.19v-2h-3v-2c-0.701-0.268-1.4-0.536-2.12-0.812-3.04-1.26-5.95-2.69-8.88-4.19v-2l-2.38-0.938c-2.62-1.06-2.62-1.06-4.62-2.06v-2h-3v-2c-1.98-0.66-3.96-1.32-6-2v-2l-4-1v-2h-3v-2l-2.38-0.938c-2.62-1.06-2.62-1.06-4.62-2.06v-2l-2.25-0.812c-2.64-1.14-4.61-2.28-6.75-4.19v-2l-5-2v-2h-2v-2l-4-1v-2h-3v-2h-2v-2l-1.69-0.812c-4.86-2.5-8.63-5.08-12.3-9.19v-2h-2v-2h-2v-2c-0.99-0.33-1.98-0.66-3-1v-2h-2v-2h-2v-2l-1.94-0.812c-2.06-1.19-2.06-1.19-3.06-4.19h-2v-2h-2v-2c-0.99-0.33-1.98-0.66-3-1v-2h-2v-2h-2v-2h-2c-1.62-1.38-1.62-1.38-3-3v-2h-2v-2h-2c-3-4.38-3-4.38-3-7h-2v-2h-2v-3h-2c-3-3.46-3-3.46-3-6h-2c-1.62-1.86-1.62-1.86-3.44-4.31-2.06-2.76-4.12-5.26-6.56-7.69-0.309-0.639-0.619-1.28-0.938-1.94-1.01-2.23-1.01-2.23-3.19-4.12-1.88-1.94-1.88-1.94-1.88-4.94h-2c-3-4.38-3-4.38-3-7h-2v-3h-2c-1.73-2.34-1.73-2.34-3.62-5.38-0.632-0.998-1.26-2-1.91-3.02-1.46-2.6-1.46-2.6-1.46-4.6h-2c-0.838-1.46-1.67-2.91-2.5-4.38-0.464-0.812-0.928-1.62-1.41-2.46-1.09-2.16-1.09-2.16-1.09-4.16h-2v-3h-2c-3-5.62-3-5.62-3-9h-2c-1.17-2.29-2.34-4.58-3.5-6.88-0.334-0.651-0.668-1.3-1.01-1.97-2.49-4.93-2.49-4.93-2.49-7.15h-2c-0.649-1.58-1.29-3.17-1.94-4.75-0.539-1.32-0.539-1.32-1.09-2.67-0.826-2.19-1.47-4.3-1.97-6.58h-2v-4h-2c-0.649-1.58-1.29-3.17-1.94-4.75-0.539-1.32-0.539-1.32-1.09-2.67-0.826-2.19-1.47-4.3-1.97-6.58h-2c-0.255-0.818-0.255-0.818-0.516-1.65-1.34-4.17-2.8-8.14-4.67-12.1-1.49-3.23-2.28-5.64-1.81-9.25h-2c-0.277-0.855-0.554-1.71-0.84-2.59-0.362-1.1-0.724-2.21-1.1-3.35-0.36-1.1-0.719-2.2-1.09-3.34-0.711-2.6-0.711-2.6-1.97-3.72-0.0408-2-0.0425-4 0-6h-2l-0.812-2.94c-0.823-2.92-1.79-5.77-2.81-8.62-1.22-3.59-1.67-6.61-1.38-10.4h-2v-7h-2c-0.277-1.28-0.554-2.55-0.84-3.87-0.366-1.67-0.732-3.34-1.1-5.01-0.182-0.842-0.365-1.68-0.553-2.55-0.177-0.806-0.354-1.61-0.537-2.44-0.244-1.12-0.244-1.12-0.492-2.25-0.428-1.95-0.428-1.95-1.48-3.88-0.0402-2.33-0.0432-4.67 0-7h-2c-2.21-10.7-3.75-21.3-5-32.1-0.117-0.996-0.234-1.99-0.354-3.02-0.101-0.893-0.203-1.79-0.307-2.71-0.235-2.22-0.235-2.22-1.34-4.18-0.315-3.08-0.511-6.16-0.719-9.25-0.113-2.71-0.113-2.71-1.28-4.75-0.21-1.59-0.368-3.18-0.5-4.78-0.0825-0.991-0.165-1.98-0.25-3-0.0825-1.04-0.165-2.08-0.25-3.16-0.124-1.46-0.124-1.46-0.25-2.96-1.29-15.9-1.95-31.7-1.94-47.6-3.93e-4 -0.823-7.86e-4 -1.65-0.00119-2.49 0.0325-57.7 0.0325-57.7 4.19-66 0.228-1.87 0.41-3.75 0.562-5.62 0.0838-1 0.168-2.01 0.254-3.04 0.0909-1.16 0.0909-1.16 0.184-2.34h2c-0.0348-0.574-0.0696-1.15-0.105-1.74-0.306-9.6 1.45-18.8 3.11-28.3 0.213-1.21 0.425-2.42 0.645-3.67 0.44-2.45 0.889-4.89 1.36-7.33h2c0.102-0.909 0.204-1.82 0.309-2.75 0.786-5.5 2.32-10.8 3.75-16.2 0.282-1.07 0.563-2.13 0.854-3.23 0.691-2.61 1.39-5.22 2.08-7.83h2l-0.25-2.38c0.292-4.23 1.58-7.31 3.28-11.2 0.98-2.48 1.53-4.84 1.97-7.46h2c-0.0374-0.728-0.0748-1.46-0.113-2.21 0.12-2.96 0.736-4.78 1.93-7.48 2.12-5.01 3.72-10.1 5.19-15.3h2c0.122-0.695 0.245-1.39 0.371-2.11 0.687-3.16 1.65-6.14 2.69-9.21 0.362-1.07 0.724-2.14 1.1-3.24 0.416-1.21 0.416-1.21 0.84-2.45h2c0.133-0.561 0.266-1.12 0.402-1.7 2.35-9.03 6.41-17 10.9-25.1 1.77-3.08 1.77-3.08 2.71-6.19h2v-4h2c0.122-0.572 0.245-1.14 0.371-1.73 0.657-2.37 1.57-4.34 2.69-6.52 0.543-1.06 0.543-1.06 1.1-2.14 0.277-0.531 0.554-1.06 0.84-1.61h2c0.122-0.572 0.245-1.14 0.371-1.73 0.657-2.37 1.57-4.34 2.69-6.52 0.362-0.706 0.724-1.41 1.1-2.14 0.416-0.797 0.416-0.797 0.84-1.61h2c0.268-0.887 0.536-1.77 0.812-2.69 1.11-3.1 2.29-5.62 4.19-8.31h2l0.25-1.56c1.07-3.48 2.89-6.31 4.75-9.44h2v-3h2l0.812-1.69c1.3-2.52 2.61-4.95 4.19-7.31h2l0.438-1.88c0.562-2.12 0.562-2.12 1.56-4.12h2l0.938-2.38c1.06-2.62 1.06-2.62 2.06-4.62h2v-2h2c0.278-0.99 0.278-0.99 0.562-2 1.76-3.67 4.14-6.25 6.88-9.23 1.63-1.7 1.63-1.7 2.56-3.77h2v-2h2l0.25-1.69c0.989-3.05 2.6-4.96 4.75-7.31h2v-2h2v-2h2l1-3h2v-2h2v-2h2c0.268-0.639 0.536-1.28 0.812-1.94 1.19-2.06 1.19-2.06 4.19-3.06v-2h2c0.268-0.639 0.536-1.28 0.812-1.94 1.19-2.06 1.19-2.06 4.19-3.06v-2h2c0.268-0.639 0.536-1.28 0.812-1.94 1.19-2.06 1.19-2.06 4.19-3.06v-2h2v-2h2v-2c1.38-1.62 1.38-1.62 3-3h2v-2h2v-2c1.69-1.23 3.39-2.45 5.12-3.62 2.14-1.49 2.14-1.49 4.7-4.19l2.19-2.19h2v-2l5-2v-2l4-1v-2l5-2v-2h2v-2c4.38-3 4.38-3 7-3v-2c2.08-1.47 2.08-1.47 4.81-3.06 0.893-0.527 1.79-1.05 2.71-1.6 2.48-1.34 2.48-1.34 5.48-2.34v-2h3v-2l4-1v-2h3v-2c1.64-1.29 1.64-1.29 3.81-2.62 0.708-0.446 1.42-0.892 2.14-1.35 2.04-1.02 2.04-1.02 5.04-1.02v-2h3v-2c1.75-0.985 3.5-1.96 5.25-2.94 0.975-0.545 1.95-1.09 2.95-1.65 2.33-1.18 4.25-1.93 6.8-2.41v-2c5.62-3 5.62-3 9-3v-2h3v-2c1.47-0.619 1.47-0.619 2.96-1.25 4.25-1.82 8.42-3.78 12.6-5.75 0.729-0.343 1.46-0.686 2.21-1.04 0.716-0.338 1.43-0.675 2.17-1.02 1.04-0.489 1.04-0.489 2.1-0.988 1.77-0.856 3.51-1.77 5.24-2.7 2.72-1.25 2.72-1.25 6.72-1.25v-2c1.91-0.842 3.83-1.67 5.75-2.5 1.07-0.464 2.13-0.928 3.23-1.41 3.02-1.09 3.02-1.09 7.02-1.09v-2h5v-2c2.06-0.649 4.12-1.29 6.19-1.94 1.15-0.36 2.3-0.719 3.48-1.09 2.78-0.81 5.49-1.46 8.33-1.97v-2c2.21-0.65 4.42-1.29 6.62-1.94 1.23-0.36 2.46-0.719 3.73-1.09 3.22-0.858 6.36-1.49 9.65-1.97v-2h7v-2c0.617-0.11 1.23-0.219 1.87-0.332 5.2-0.973 10.1-2.26 15-4.02 2.09-0.652 2.09-0.652 5.65-1.15 3.5-0.361 3.5-0.361 6.75-1.9 6.12-2.36 12.6-2.9 19.1-3.73 2.53-0.333 5.06-0.669 7.59-1.01 1.11-0.143 2.22-0.286 3.37-0.434 2.63-0.291 2.63-0.291 4.67-1.43 3.08-0.315 6.16-0.511 9.25-0.719 2.71-0.113 2.71-0.113 4.75-1.28 4.73-0.657 9.49-1.06 14.2-1.5 1.07-0.1 1.07-0.1 2.15-0.203 16-1.49 32.1-2.03 48.2-2.35zm13.4 51.1c-1.79 0.133-3.59 0.223-5.39 0.281-1.53 0.0561-1.53 0.0561-3.09 0.113-2.15 0.0707-4.3 0.141-6.45 0.211-1.02 0.0374-2.03 0.0748-3.08 0.113-0.933 0.0303-1.87 0.0606-2.83 0.0918-2.14-0.0457-2.14-0.0457-3.16 1.19-1.95 0.355-3.91 0.658-5.88 0.938-12.5 1.8-12.5 1.8-24.6 5.2-5.44 1.84-11 3.31-16.5 4.86v2h-5v2c-0.715 0.122-1.43 0.245-2.17 0.371-2.88 0.64-5.42 1.56-8.14 2.69-0.883 0.362-1.77 0.724-2.68 1.1-0.996 0.416-0.996 0.416-2.01 0.84v2c-0.714 0.107-1.43 0.214-2.16 0.324-3.12 0.743-5.42 1.91-8.21 3.49-0.953 0.535-1.91 1.07-2.89 1.62-1.36 0.775-1.36 0.775-2.74 1.57-1.12 0.636-1.12 0.636-2.27 1.29-1.58 0.898-3.16 1.81-4.73 2.71v2l-5 1v2h-2v2l-1.81 0.375c-2.45 0.58-2.45 0.58-5.19 2.62v2h-2v2l-1.94 0.812c-2.39 1.07-2.39 1.07-3.06 4.19h-2c-1.36 1.49-1.36 1.49-2.62 3.38-0.446 0.626-0.892 1.25-1.35 1.9-1.19 1.68-1.19 1.68-1.02 3.73h-2l-2 6h-2c-2.42 4.23-3.35 7.12-3 12h-2c-0.0606 0.592-0.121 1.18-0.184 1.79-0.722 6.81-0.722 6.81-1.44 9.83-0.519 3.29 0.0703 6.1 0.625 9.38 0.058 1.02 0.058 1.02 0.117 2.05 0.251 3.91 0.733 5.77 3.26 8.82 3.6 3.26 3.6 3.26 8.11 3.88 1.34-0.313 1.34-0.313 2.71-0.633 1.35-0.306 1.35-0.306 2.73-0.617 0.687-0.168 1.37-0.335 2.08-0.508v-2l2.38-0.25c4.8-0.994 9.12-2.84 13.6-4.75v-2c0.566-0.129 1.13-0.258 1.71-0.391 6.23-1.66 12.1-4.52 18-7.23 4.07-1.88 7.97-3.31 12.3-4.38v-2h5v-2c0.722 0.04 1.44 0.0799 2.19 0.121 3.06-0.132 5.02-0.833 7.81-2.06 3.34-1.45 6.41-2.45 10-3.06v-2c0.931-0.103 1.86-0.206 2.82-0.312 5.15-0.736 10.1-2.24 15.1-3.69 1.44-0.41 1.44-0.41 2.91-0.828 4.44-0.956 4.44-0.956 8.21-3.17l3.12-0.438c3.03-0.44 5.72-1.07 8.64-1.96 4.39-1.19 8.87-2.02 13.3-2.92 2.79-0.385 2.79-0.385 3.91-1.68 2.58-0.322 5.16-0.513 7.75-0.719 2.22-0.0433 2.22-0.0433 3.25-1.28 2.03-0.358 4.07-0.66 6.12-0.938 1.25-0.173 2.49-0.345 3.78-0.523 1.33-0.18 2.65-0.36 3.98-0.539 2.58-0.352 5.16-0.706 7.74-1.06 1.15-0.156 2.3-0.312 3.49-0.473 2.95-0.394 2.95-0.394 5.9-1.46 3.24-0.258 6.48-0.442 9.73-0.605 3.43 0.0987 3.43 0.0987 6.27-1.39 1.58-0.158 3.16-0.249 4.75-0.312 1.02-0.0413 2.03-0.0827 3.08-0.125 1.12-0.0387 2.24-0.0775 3.39-0.117 1.16-0.042 2.32-0.0841 3.52-0.127 12.3-0.41 24.7-0.469 37-0.448 3.76 0.00537 7.51 7.77e-6 11.3-0.00635 12.3-0.0038 24.5 0.139 36.8 0.582 1.68 0.0581 1.68 0.0581 3.39 0.117 1.02 0.0413 2.03 0.0827 3.08 0.125 0.896 0.0359 1.79 0.0717 2.72 0.109 2.03 0.203 2.03 0.203 3.03 1.2 1.68 0.164 3.37 0.28 5.06 0.375 4.96 0.369 9.76 1.09 14.6 2.06 6.64 1.33 13.3 2.23 20 2.92 5.22 0.549 5.22 0.549 6.32 1.65 2.33 0.0409 4.67 0.0424 7 0v2c11.6 3.89 11.6 3.89 23 3v-2h-2l-1-3c-3.01-1.23-3.01-1.23-6-2v-2c-1.43-0.841-2.87-1.67-4.31-2.5-0.801-0.464-1.6-0.928-2.43-1.41-2.29-1.31-2.29-1.31-5.26-1.09v-2c-1.46-0.838-2.91-1.67-4.38-2.5-0.812-0.464-1.62-0.928-2.46-1.41-2.06-1.24-2.06-1.24-4.16-1.09v-2h-4v-2c-1.15-0.531-2.29-1.06-3.47-1.61-1.53-0.713-3.06-1.43-4.59-2.14-0.752-0.348-1.5-0.696-2.28-1.05-3.6-1.68-7.07-3.4-10.5-5.46-3.17-2.05-3.17-2.05-7.19-1.73v-2h-5v-2c-2.06-0.844-4.12-1.67-6.19-2.5-1.72-0.696-1.72-0.696-3.48-1.41-3.05-1-5.16-1.33-8.33-1.09v-2c-5.42-1.84-10.8-3.58-16.3-5.16-2.18-0.693-4.29-1.45-6.42-2.27-4.23-1.61-8.52-2.97-12.9-4.26-0.724-0.225-1.45-0.45-2.2-0.682-4.18-1.25-7.76-1.89-12.2-1.63v-2c-0.853-0.0735-0.853-0.0735-1.72-0.148-0.772-0.0748-1.54-0.15-2.34-0.227-1.13-0.104-1.13-0.104-2.29-0.211-2.65-0.414-2.65-0.414-5.82-1.36-4.66-1.29-9.3-1.96-14.1-2.62-1.78-0.249-3.55-0.5-5.33-0.754-0.778-0.108-1.56-0.215-2.36-0.326-2.07-0.357-2.07-0.357-5.07-1.36-1.35-0.133-2.7-0.223-4.05-0.281-0.78-0.0374-1.56-0.0748-2.36-0.113-1.22-0.0522-1.22-0.0522-2.46-0.105-1.6-0.0694-3.2-0.142-4.8-0.219-0.709-0.0303-1.42-0.0606-2.15-0.0918-2.17-0.189-2.17-0.189-4.39-0.699-3.9-0.687-7.72-0.633-11.7-0.624-0.849-9.57e-4 -1.7-0.00191-2.57-0.0029-1.79-6.79e-4 -3.58 0.00115-5.37 0.00534-2.74 0.00536-5.47 4.08e-5 -8.21-0.00635-1.74 6.61e-4 -3.48 0.00194-5.22 0.00391-1.23-0.00304-1.23-0.00304-2.47-0.00613-3.6 0.0149-6.8 0.224-10.3 1.14zm-169 26c-5.23 2.16-10.6 3.62-16.1 5v2c-0.7 0.125-1.4 0.25-2.12 0.379-3.07 0.662-5.97 1.56-8.94 2.56-1.02 0.339-2.04 0.678-3.1 1.03-2.4 0.873-4.6 1.83-6.84 3.04v2l-2.12-0.188c-3.53 0.23-5.81 1.48-8.88 3.19v2h-3v2h-4v2l-2.25 0.375c-2.55 0.58-4.48 1.36-6.75 2.62v2h-4v2l-2 0.188c-3.54 0.96-6.02 2.6-9.04 4.66-2 1.18-3.7 1.71-5.96 2.16v2c-0.701 0.268-1.4 0.536-2.12 0.812-3.04 1.26-5.95 2.69-8.88 4.19v2c-0.566 0.106-1.13 0.212-1.72 0.321-4.5 1.34-8.2 4.47-12 7.12-1.33 0.898-1.33 0.898-2.69 1.81-0.839 0.576-1.68 1.15-2.54 1.74-0.771 0.528-1.54 1.06-2.33 1.6-0.832 0.695-0.832 0.695-1.68 1.4v2h-2v2l-3 1v2h-2v3h-2c-4.12 9.25-7.23 17.3-3.94 27.2 1.78 4.37 3.81 8.58 5.94 12.8h2l1 4h2v2c1.69 1.48 1.69 1.48 3.81 2.94 2.09 1.49 4.01 2.88 5.81 4.71 1.69 1.66 3.07 1.95 5.38 2.35v2c3.48 3.64 3.48 3.64 8 5v2c1.94 1.82 1.94 1.82 4.38 3.62 0.812 0.632 1.62 1.26 2.46 1.91 2.01 1.65 2.01 1.65 4.16 1.46v2h2v2c3.22 2.32 3.22 2.32 7 3v2h2v2c3.38 0.845 5.67 1.11 9 0v-2h3v-2l4-1v-2l5-2v-2l2.38-0.938c2.55-0.991 2.55-0.991 4.62-2.06v-2h2v-2l1.81-0.375c2.45-0.58 2.45-0.58 5.19-2.62v-2c0.715-0.258 1.43-0.516 2.17-0.781 3-1.29 5.47-2.85 8.14-4.72 0.883-0.608 1.77-1.22 2.68-1.84 0.996-0.82 0.996-0.82 2.01-1.66v-2h3v-2l2.38-0.938c2.55-0.991 2.55-0.991 4.62-2.06v-2h2v-2h3v-2h2v-2h2v-3h-2l-0.312-3.19c-0.681-3.77-1.72-5.62-3.69-8.81-0.688-3.31-0.688-3.31-1-6h-2l0.0625-3.75c0.0119-3.79-0.248-7.48-0.625-11.2-0.4-4.4-0.32-8.33 0.305-12.7 0.493-4.42 0.333-8.87 0.258-13.3h2c0.268-0.866 0.536-1.73 0.812-2.62 1.16-3.29 2.63-6.26 4.19-9.38v-2h2c1.46-2.65 2-3.89 2-7h2c1.45-1.85 1.45-1.85 2.88-4.19 1.75-2.72 3.46-5.23 5.5-7.75 1.83-1.89 1.83-1.89 1.62-4.06h2v-2h2v-2l1.94-0.812c2.39-1.07 2.39-1.07 3.06-4.19h2c0.591-1.95 0.591-1.95 1-4-1.03-1.25-1.03-1.25-3.27-1.14-6.16 0.317-12 2.8-17.7 5.14zm228 61c-0.721 0.0825-1.44 0.165-2.19 0.25-3.42 0.162-3.42 0.162-6.25 1.75-1.62 0.188-3.25 0.325-4.88 0.438-4.71 0.392-9.27 1.07-13.9 1.96-4.08 0.763-8.18 1.43-12.3 2.1-10.7 0.768-10.7 0.768-19.9 4.5-2.41 0.499-4.82 0.95-7.25 1.38-9.58 1.74-19.1 3.56-28.3 6.81-3.16 1.05-6.36 1.93-9.57 2.82-4.83 1.36-9.29 2.95-13.9 5-2.37 0.892-4.74 1.77-7.12 2.62-1.18 0.425-2.36 0.851-3.57 1.29-2.78 0.913-5.43 1.6-8.3 2.09v2c-1.47 0.153-1.47 0.153-2.97 0.309-4.41 0.629-8.34 2.13-12.5 3.75-1.1 0.422-1.1 0.422-2.22 0.854-1.78 0.688-3.57 1.39-5.35 2.08v2l-2.69 0.375c-3.02 0.569-5.52 1.39-8.31 2.62v2h-4v2h-3v4h2l1 3c2.82 2.28 2.82 2.28 6 2v2c4.9 2.24 9.77 3.89 15 5.35 2.04 0.648 2.04 0.648 3.04 1.65 1.67 0.0406 3.33 0.0427 5 0v2c1.92 0.506 3.83 1 5.75 1.5 1.07 0.278 2.13 0.557 3.23 0.844 3.15 0.798 3.15 0.798 7.02 0.656v2c0.969 0.103 1.94 0.206 2.94 0.312 2.91 0.407 5.49 1.13 8.25 2.12 4.69 1.66 9.39 2.42 14.3 3.13 2.5 0.43 2.5 0.43 4.5 1.43 1.87 0.0703 3.75 0.0843 5.62 0.0625 1-0.00902 2.01-0.018 3.04-0.0273 0.771-0.0116 1.54-0.0232 2.34-0.0352v2c0.699 0.0606 1.4 0.121 2.12 0.184 1.37 0.126 1.37 0.126 2.76 0.254 1.36 0.122 1.36 0.122 2.74 0.246 2.38 0.316 2.38 0.316 4.38 1.32 2.33 0.353 4.66 0.657 7 0.938 0.698 0.085 1.4 0.17 2.11 0.258 3.96 0.477 7.92 0.92 11.9 1.34 0.815 0.0877 1.63 0.175 2.47 0.266 1.59 0.17 3.18 0.336 4.77 0.498 5.55 0.588 5.55 0.588 7.77 1.7 1.66 0.202 3.33 0.364 5 0.5 4.78 0.389 4.78 0.389 7 1.5 2.51 0.353 5.01 0.662 7.53 0.938 0.745 0.085 1.49 0.17 2.26 0.258 2.38 0.272 4.77 0.539 7.15 0.805 2.38 0.266 4.76 0.534 7.14 0.805 1.48 0.169 2.96 0.335 4.45 0.498 2.98 0.339 5.62 0.747 8.47 1.7 3.12 0.305 6.25 0.508 9.38 0.719 2.62 0.281 2.62 0.281 3.62 1.28 1.98 0.209 3.96 0.368 5.94 0.5 5.84 0.39 5.84 0.39 8.06 1.5 2.22 0.35 4.45 0.655 6.69 0.938 0.658 0.085 1.32 0.17 1.99 0.258 2.11 0.272 4.21 0.539 6.32 0.805 2.77 0.35 5.54 0.705 8.31 1.06 1.23 0.156 2.47 0.312 3.74 0.473 2.95 0.465 2.95 0.465 4.95 1.46 1.6 0.158 3.21 0.276 4.81 0.375 5.4 0.443 10.4 1.57 15.7 2.86 5.12 1.12 10.3 1.72 15.5 2.33 3.02 0.43 3.02 0.43 5.02 1.43 2.59 0.31 5.18 0.51 7.79 0.719 2.21 0.281 2.21 0.281 3.21 1.28 1.49 0.207 3 0.367 4.5 0.5 4.39 0.389 4.39 0.389 5.5 1.5 1.57 0.357 3.16 0.66 4.75 0.938 1.47 0.259 1.47 0.259 2.98 0.523 4.56 0.752 9.14 1.42 13.7 2.07 2.55 0.465 2.55 0.465 3.55 1.46 1.16 0.165 2.31 0.33 3.5 0.5 3.5 0.5 3.5 0.5 4.5 1.5l3.25 0.438c3.75 0.562 3.75 0.562 6.03 1.51 4.46 1.73 9.14 2.33 13.8 3.18 3.44 0.778 6.45 1.8 9.71 3.08 5.07 1.87 10.4 3.14 15.6 4.55 4.85 1.34 9.15 2.85 13.6 5.25 5.04 2.04 9.49 3.42 15 3v2c1.15 0.364 2.3 0.727 3.48 1.1 8.54 2.75 16.7 5.67 24.8 9.6 4.21 2.02 6.97 3.3 11.7 3.3v2c1.58 0.843 3.16 1.67 4.75 2.5l2.67 1.41c2.73 1.35 2.73 1.35 6.58 1.09v2h3v2c4.26 2.36 4.26 2.36 9 3v2h4v2c2.64 1.83 2.64 1.83 5.88 3.62 1.09 0.632 2.18 1.26 3.3 1.91 2.59 1.61 2.59 1.61 4.82 1.46v2h4v2c2.56 2.3 3.48 3 7 3v2c1.49 1.36 1.49 1.36 3.38 2.62 0.626 0.446 1.25 0.892 1.9 1.35 1.68 1.19 1.68 1.19 3.73 1.02v2h3v2c2.64 2.4 2.64 2.4 6 3v2h3v2h2v2c2.64 2.4 2.64 2.4 6 3v2c3.48 3.64 3.48 3.64 8 5v2h2v2h2v2c2.02 1.81 2.02 1.81 4.5 3.62 0.835 0.632 1.67 1.26 2.53 1.91 0.65 0.482 1.3 0.964 1.97 1.46l2-2c-0.267-1.98-0.267-1.98-1-4l-1-3h-2c-0.184-1.03-0.184-1.03-0.371-2.07-0.713-3.32-1.68-6.5-2.69-9.74-0.362-1.16-0.724-2.32-1.1-3.52-0.277-0.88-0.554-1.76-0.84-2.67h-2c-0.125-0.7-0.25-1.4-0.379-2.12-0.662-3.07-1.56-5.97-2.56-8.94-0.339-1.02-0.678-2.04-1.03-3.1-0.873-2.4-1.83-4.6-3.04-6.84h-2l-0.375-2.69c-0.569-3.02-1.39-5.52-2.62-8.31h-2v-4h-2c-0.102-0.531-0.204-1.06-0.309-1.61-0.894-3.09-2.29-5.78-3.75-8.64-0.548-1.08-1.1-2.16-1.66-3.27-0.422-0.82-0.843-1.64-1.28-2.48h-2l-0.25-2.06c-0.973-3.81-2.71-6.58-4.75-9.94h-2v-4h-2l-1-5h-2v-3h-2v-3h-2v-3h-2l-0.938-2.38c-0.991-2.55-0.991-2.55-2.06-4.62h-2v-3h-2l-1-4h-2l-2-5h-2l-3-6h-2l-2-5h-2v-2c-1.33-1.67-1.33-1.67-3-3h-2v-2h-2v-2h-2c-0.402-0.959-0.402-0.959-0.812-1.94-1.07-2.39-1.07-2.39-4.19-3.06v-2h-2v-2h-2l-1-3h-2v-2h-2v-2c-1.49-1.36-1.49-1.36-3.38-2.62-0.626-0.446-1.25-0.892-1.9-1.35-1.68-1.19-1.68-1.19-3.73-1.02v-2h-2v-2l-5-2v-2c-3.22-2.32-3.22-2.32-7-3v-2c-3.22-2.32-3.22-2.32-7-3v-2h-3v-2c-5.2-3.24-5.2-3.24-11-5v-2h-4v-2c-3.37-2.43-4.73-3-9-3v-2h-3v-2h-4v-2c-11.9-5.36-11.9-5.36-23.9-10.5-0.719-0.299-1.44-0.598-2.18-0.906-2.24-0.788-2.24-0.788-5.95-0.594v-2c-3.65-0.961-7.29-1.92-10.9-2.88-1.02-0.269-2.04-0.539-3.1-0.816-4.7-1.23-9.4-2.43-14.2-3.44-3.81-0.867-3.81-0.867-4.81-1.87-2.52-0.519-5.03-0.994-7.56-1.44-8.8-1.58-8.8-1.58-12.8-2.69-3.89-0.939-7.64-1.33-11.6-1.63-2-0.246-2-0.246-3-1.25-19-3.65-38.3-3.16-57.6-3.13-3.59 0.00569-7.17 0.00232-10.8-0.00344-26.7-0.0576-26.7-0.0576-53.2 2.13zm-413 65v2l-1.56 0.25c-3.48 1.07-6.31 2.89-9.44 4.75v2h-3c-3.05 3.04-3.05 3.04-4 7h-2l-0.25 1.88c-0.993 2.81-2.15 2.82-4.75 4.12-2.34 3.21-2.34 3.21-3 7h-2v3h-2v2h-2c-2.32 3.22-2.32 3.22-3 7h-2c-1.36 1.45-1.36 1.45-2.62 3.31-0.669 0.922-0.669 0.922-1.35 1.86-1.27 1.91-1.27 1.91-1.02 4.82h-2l-2 6h-2l-1 5h-2v2h-2c-0.528 1.11-0.528 1.11-1.07 2.24-3.12 6.41-6.49 12.4-10.5 18.3-1.46 2.54-2.02 4.59-2.42 7.47h-2v4h-2c-2.36 4.26-2.36 4.26-3 9h-2c-1.46 2.65-2 3.89-2 7h-2l-1.5 3.25c-0.278 0.603-0.557 1.21-0.844 1.83-0.872 2.21-0.872 2.21-0.656 5.92h-2c-0.842 1.91-1.67 3.83-2.5 5.75l-1.41 3.23c-1.32 3.11-1.32 3.11-1.09 7.02h-2c-1.18 2.51-2.35 5.03-3.5 7.56-0.334 0.704-0.668 1.41-1.01 2.13-2.12 4.7-2.87 8.15-2.49 13.3 3.13 1.04 3.99 0.934 7 0v-2h2v-2h2c1.67-1.33 1.67-1.33 3-3v-2h2v-2l1.94-0.812c2.39-1.07 2.39-1.07 3.06-4.19 1.75-1 1.75-1 4-2 2.71-1.43 2.71-1.43 5-3v-2h4v-2c2.97-0.99 5.94-1.98 9-3v-2c0.648-0.115 1.3-0.229 1.96-0.348 3.14-0.675 6.18-1.53 9.27-2.42 27.4-7.91 27.4-7.91 34.8-4.24 1.79 0.157 3.58 0.276 5.38 0.375 9.11 0.7 17.3 2.91 25.6 6.62h3v-2h3v-2l1.69-0.625c3.28-1.95 5.02-4.32 7.31-7.38v-2h2v-2h2c2.32-3.22 2.32-3.22 3-7h2c1.92-2.88 3.5-5.89 5-9h2l2-5h2c2.4-2.64 2.4-2.64 3-6h2v-2h2v-3h2v-2h2c1.67-1.33 1.67-1.33 3-3v-2h2c3.64-3.48 3.64-3.48 5-8h2c3.64-3.48 3.64-3.48 5-8h2v-2h2c1.42-2.12 1.42-2.12 2-5-1.27-2.51-2.45-4.42-4.12-6.62-0.405-0.572-0.81-1.14-1.23-1.73-2.23-3.08-4.38-5.66-7.65-7.64h-2v-2h-2v-2h-3v-2h-2v-2c-1.33-1.67-1.33-1.67-3-3h-2v-2c-1.94-1.82-1.94-1.82-4.38-3.62-0.812-0.632-1.62-1.26-2.46-1.91-2.01-1.65-2.01-1.65-4.16-1.46v-2c-1.49-1.36-1.49-1.36-3.38-2.62-0.626-0.446-1.25-0.892-1.9-1.35-1.68-1.19-1.68-1.19-3.73-1.02v-2h-3v-2c-12.7-7.85-23-12.6-38-7zm194 9v2l-1.56 0.25c-3.48 1.07-6.31 2.89-9.44 4.75v2h-3v2l-4 1v2h-3v2c-0.708 0.246-1.42 0.492-2.14 0.746-3.22 1.41-5.73 3.2-8.54 5.32-5.16 3.86-5.16 3.86-7.31 4.94v2l-4 1v2h-2v2l-3 1v2h-2v2h-2c-0.928 3.63-1.27 5.41 0.312 8.88l1.69 2.12h2v2h2v2c1.33 1.67 1.33 1.67 3 3h2v2h2v2c1.49 1.36 1.49 1.36 3.38 2.62 0.94 0.669 0.94 0.669 1.9 1.35 1.68 1.19 1.68 1.19 3.73 1.02 0.268 0.639 0.536 1.28 0.812 1.94 1.07 2.39 1.07 2.39 4.19 3.06v2h2v2c1.49 1.36 1.49 1.36 3.38 2.62 0.626 0.446 1.25 0.892 1.9 1.35 1.68 1.19 1.68 1.19 3.73 1.02v2l5 2v2c1.69 1.7 1.69 1.7 3.81 3.44 4.04 3.41 4.04 3.41 5.82 5.29 1.3 1.51 1.3 1.51 3.36 1.28v2h2l1 3c3.06 3.03 3.06 3.03 7 4v2h2v2c1.68 1.78 1.68 1.78 3.81 3.56 0.708 0.62 1.42 1.24 2.14 1.88 2.06 1.74 2.06 1.74 5.04 2.56v2l5 2v2h2c0.402 0.959 0.402 0.959 0.812 1.94 1.07 2.39 1.07 2.39 4.19 3.06v2h2v2h2l1 3h2v2h3c0.248 0.598 0.495 1.2 0.75 1.81 1.43 2.5 2.82 3.67 5.25 5.19h2v2h2v2c3.48 3.64 3.48 3.64 8 5v2h2v2c1.69 1.7 1.69 1.7 3.81 3.44 4.04 3.41 4.04 3.41 5.82 5.29 1.3 1.51 1.3 1.51 3.36 1.28v2h2c0.402 0.959 0.402 0.959 0.812 1.94 1.07 2.39 1.07 2.39 4.19 3.06v2h2v2l2.38 0.75c3.03 1.44 3.3 2.31 4.62 5.25 0.99 0.33 1.98 0.66 3 1v2h2v2h2v2c1.33 1.67 1.33 1.67 3 3h2v2h2v2c1.33 1.67 1.33 1.67 3 3h2v2h2v2c1.69 1.7 1.69 1.7 3.81 3.44 4.04 3.41 4.04 3.41 5.82 5.29 1.3 1.51 1.3 1.51 3.36 1.28v2h2l1 3h2v2h2v2h2v2c1.71 1.81 1.71 1.81 3.88 3.62 0.719 0.632 1.44 1.26 2.18 1.91 1.81 1.66 1.81 1.66 3.95 1.46v2h2c0.268 0.598 0.536 1.2 0.812 1.81 1.19 2.19 2.28 3.6 4.19 5.19h2v2h2c0.402 0.959 0.402 0.959 0.812 1.94 1.07 2.39 1.07 2.39 4.19 3.06v2h2v2h2l1 3h2v2h2v2h2c0.268 0.639 0.536 1.28 0.812 1.94 1.07 2.39 1.07 2.39 4.19 3.06v2h2c0.268 0.639 0.536 1.28 0.812 1.94 1.07 2.39 1.07 2.39 4.19 3.06v2h2v2h2c0.268 0.639 0.536 1.28 0.812 1.94 1.07 2.39 1.07 2.39 4.19 3.06v2h2c0.268 0.639 0.536 1.28 0.812 1.94 1.07 2.39 1.07 2.39 4.19 3.06v2h2v2h2c0.268 0.639 0.536 1.28 0.812 1.94 1.07 2.39 1.07 2.39 4.19 3.06v2h2c0.268 0.598 0.536 1.2 0.812 1.81 1.19 2.19 2.28 3.6 4.19 5.19h2v2h2c0.268 0.598 0.536 1.2 0.812 1.81 1.19 2.19 2.28 3.6 4.19 5.19h2v3h2v2h2v2h3v3h2v2h2v2c1.33 1.67 1.33 1.67 3 3h2l0.812 1.75c1.22 2.31 2.49 4.27 4.19 6.25h2v2c2.33 2.67 2.33 2.67 5 5h2v2h2v2c1.33 1.67 1.33 1.67 3 3h2v2h2v2c1.33 1.67 1.33 1.67 3 3h2v2h2v2h2c0.227 0.536 0.454 1.07 0.688 1.62 1.77 3.2 3.85 5.67 6.31 8.38h2v2h2c0.268 0.639 0.536 1.28 0.812 1.94 1.07 2.39 1.07 2.39 4.19 3.06v2h2c0.268 0.598 0.536 1.2 0.812 1.81 1.19 2.19 2.28 3.6 4.19 5.19h2l3 6h2v2h2l0.812 1.75c1.22 2.31 2.49 4.27 4.19 6.25h2v2h2c0.236 0.554 0.472 1.11 0.715 1.68 1.6 2.88 3.6 5.03 5.85 7.45 4.34 4.68 4.34 4.68 5.44 6.88h2v2h2c0.268 0.639 0.536 1.28 0.812 1.94 1.07 2.39 1.07 2.39 4.19 3.06v2h2c0.236 0.554 0.472 1.11 0.715 1.68 1.6 2.88 3.6 5.03 5.85 7.45 4.34 4.68 4.34 4.68 5.44 6.88h2v2h2v2h2l1 3h2v2h2l2 5h2v2h2l1 3h2l3 6h2v2h2v3h2v2h2l3 6h2v3h2l1 3h2v2h2v2h2l0.938 2.38c0.991 2.55 0.991 2.55 2.06 4.62h2v2h2v2h2l1 3h2v2h2l0.688 2.12c2.12 4.65 5.43 7.99 9 11.6 2.31 2.31 2.31 2.31 4.31 5.31h2v2h2l3 6h2v3h2v2h2c0.227 0.516 0.454 1.03 0.688 1.56 2.44 4.53 5.42 9.02 9.31 12.4h2v2h2l0.25 1.69c0.989 3.05 2.6 4.96 4.75 7.31h2v2h2v3h2l3 6h2v3h2c0.268 0.639 0.536 1.28 0.812 1.94 1.07 2.39 1.07 2.39 4.19 3.06v2h2c0.268 0.598 0.536 1.2 0.812 1.81 1.97 3.63 4.32 5.71 8.19 7.19 2.67 0.168 2.67 0.168 5 0v2h4v2c6.03 2.7 12 2.34 18.2 0.258 1.63-0.693 3.22-1.47 4.8-2.26v-2l2.25-0.375c2.55-0.58 4.48-1.36 6.75-2.62v-2l5-2v-2h2c2.32-3.22 2.32-3.22 3-7h2c3.92-6.8 3.92-6.8 7-14h2c0.375-0.701 0.75-1.4 1.14-2.12 2.37-4.39 4.72-8.75 7.43-12.9 5.32-7.95 5.32-7.95 7.44-16.9h2v-4h2c0.843-1.58 1.67-3.16 2.5-4.75l1.41-2.67c1.35-2.73 1.35-2.73 1.09-6.58h2c0.84-1.77 1.67-3.54 2.5-5.31 0.464-0.986 0.928-1.97 1.41-2.99 1.28-2.68 1.28-2.68 1.09-5.7h2c0.986-2.54 1.96-5.08 2.94-7.62 0.278-0.713 0.556-1.43 0.842-2.16 1.55-4.07 2.68-7.87 3.22-12.2h2c0.375-1.16 0.75-2.32 1.14-3.52 2.64-8.1 5.4-16 8.76-23.9 3.47-8.03 3.47-8.03 4.1-16.6h2l0.312-2.94c0.529-3.76 1.67-7.14 2.93-10.7 1.02-3.16 1.69-6.35 2.33-9.6 0.43-1.75 0.43-1.75 1.43-2.75 0.225-1.87 0.447-3.73 0.621-5.6 0.379-2.4 0.379-2.4 1.32-5.62 1.17-4.17 1.92-8.32 2.62-12.6 1.31-7.93 1.31-7.93 2.44-10.2 0.14-1.48 0.225-2.97 0.281-4.46 0.0374-0.882 0.0748-1.76 0.113-2.67 0.0522-1.39 0.0522-1.39 0.105-2.8 0.0689-1.82 0.142-3.64 0.219-5.46 0.0454-1.21 0.0454-1.21 0.0918-2.45 0.189-2.14 0.189-2.14 1.19-5.14 0.242-2.49 0.428-4.95 0.562-7.44 0.0626-1.16 0.0626-1.16 0.126-2.34 2.94-28.2 2.94-28.2-1.69-55.2-0.317-3.63-0.512-7.27-0.719-10.9 0.063-2.96 0.063-2.96-1.28-4.09-0.325-2.04-0.609-4.08-0.875-6.12-0.751-5.12-1.98-9.15-4.12-13.9-0.807-3-1.52-6.02-2.24-9.04-0.977-3.79-2.3-7.33-3.76-11h-2v-5h-2c-0.153-1.03-0.153-1.03-0.309-2.07-0.829-3.51-2.21-6.48-3.75-9.74-0.822-1.74-0.822-1.74-1.66-3.52-0.422-0.88-0.843-1.76-1.28-2.67h-2v-3h-2c-0.206-0.643-0.412-1.29-0.625-1.95-1.95-4.32-4.63-8.01-7.38-11.9-0.547-0.788-1.09-1.58-1.66-2.39-0.526-0.744-1.05-1.49-1.59-2.26-0.48-0.68-0.959-1.36-1.45-2.06-0.642-0.733-0.642-0.733-1.3-1.48h-2c-0.268-0.639-0.536-1.28-0.812-1.94-1.07-2.39-1.07-2.39-4.19-3.06v-3h-2c-0.227-0.557-0.454-1.11-0.688-1.69-2.93-5.17-8.15-9.1-12.5-13.1-0.533-0.502-1.07-1-1.62-1.52-2.66-2.79-2.66-2.79-6.2-3.67v-2c-1.49-1.36-1.49-1.36-3.38-2.62-0.626-0.446-1.25-0.892-1.9-1.35-1.68-1.19-1.68-1.19-3.73-1.02v-2h-3v-2c-1.98-0.66-3.96-1.32-6-2v-2c-2.56-2.3-3.48-3-7-3v-2c-1.68-1.37-1.68-1.37-3.81-2.62-0.708-0.446-1.42-0.892-2.14-1.35-2.11-1.25-2.11-1.25-5.04-1.02v-2h-3v-2c-4.26-2.36-4.26-2.36-9-3v-2h-4v-2c-2.1-1.17-4.2-2.34-6.31-3.5-0.595-0.334-1.19-0.668-1.8-1.01-2.84-1.56-4.59-2.49-7.88-2.49v-2c-0.932-0.364-1.86-0.727-2.82-1.1-6.29-2.47-12.5-5-18.6-7.9-10.5-4.92-21.4-8.8-32.5-12-2.36-0.738-4.61-1.55-6.91-2.45-4.15-1.58-8.32-2.58-12.7-3.51-4.28-0.92-8.4-1.9-12.5-3.5-4.2-1.64-8.43-2.6-12.8-3.5-4.89-1.02-9.72-2.12-14.5-3.46-5.74-1.59-11.5-2.91-17.3-4.16-0.98-0.217-1.96-0.433-2.97-0.656-4.32-0.938-8.59-1.8-13-2.3-3.36-0.414-3.36-0.414-4.36-1.41-1.49-0.207-3-0.367-4.5-0.5-4.39-0.389-4.39-0.389-5.5-1.5-2.64-0.549-5.28-1.04-7.94-1.5-0.77-0.135-1.54-0.269-2.33-0.408-4.97-0.849-9.91-1.52-14.9-1.88-1.79-0.211-1.79-0.211-3.79-1.21-3.11-0.314-6.23-0.511-9.35-0.719-2.65-0.281-2.65-0.281-3.65-1.28-2.18-0.359-4.37-0.66-6.55-0.938-0.657-0.085-1.31-0.17-1.99-0.258-2.11-0.272-4.22-0.539-6.33-0.805-2.1-0.266-4.2-0.534-6.31-0.805-1.91-0.247-3.83-0.489-5.74-0.73-3.08-0.465-3.08-0.465-6.08-1.46-3.65-0.309-7.29-0.51-10.9-0.719-3.05-0.281-3.05-0.281-4.05-1.28-1.81-0.209-3.62-0.368-5.44-0.5-5.34-0.39-5.34-0.39-7.56-1.5-2.3-0.351-4.6-0.656-6.91-0.938-0.681-0.085-1.36-0.17-2.06-0.258-2.18-0.272-4.35-0.539-6.53-0.805-2.87-0.35-5.73-0.705-8.59-1.06-1.28-0.156-2.55-0.312-3.87-0.473-3.04-0.465-3.04-0.465-5.04-1.46-2.85-0.313-5.7-0.51-8.57-0.719-2.43-0.281-2.43-0.281-3.43-1.28-1.62-0.188-3.25-0.325-4.88-0.438-4.64-0.385-9.1-1.07-13.7-1.96-5.79-1.02-11.6-1.77-17.5-2.55-1.33-0.183-1.33-0.183-2.69-0.37-0.805-0.108-1.61-0.215-2.44-0.326-1.87-0.357-1.87-0.357-2.87-1.36-1.49-0.207-3-0.367-4.5-0.5-4.39-0.389-4.39-0.389-5.5-1.5-1.91-0.375-3.83-0.7-5.75-1-6-0.945-6-0.945-8.84-1.56-2.47-0.452-4.72-0.541-7.22-0.504-0.79 0.00902-1.58 0.018-2.39 0.0273-0.592 0.0116-1.18 0.0232-1.79 0.0352v-2c-0.946-0.159-1.89-0.317-2.87-0.48-15.8-2.74-30.7-6.82-45.3-13.5-3.31-1.48-5.12-2.02-8.86-2.02v-2c-1.58-0.649-3.17-1.29-4.75-1.94-0.882-0.36-1.76-0.719-2.67-1.09-2.19-0.826-4.3-1.47-6.58-1.97v-2h-4v-2c-1.62-0.838-3.25-1.67-4.88-2.5-0.905-0.464-1.81-0.928-2.74-1.41-2.25-1.23-2.25-1.23-4.38-1.09v-2c-4.77-1.22-7.09-1.1-11 2zm-86.6 70.3c-1.61 1.89-3.27 3.11-5.32 4.51-4.61 3.31-8.07 7.42-11.1 12.2v2h-2v2l-1.94 0.812c-2.39 1.07-2.39 1.07-3.06 4.19h-2v2h-2c-3.64 3.48-3.64 3.48-5 8h-2v2h-2c-2.4 2.64-2.4 2.64-3 6h-2l-2 5h-2c-2.32 3.22-2.32 3.22-3 7h-2c-0.838 1.46-1.67 2.91-2.5 4.38-0.464 0.812-0.928 1.62-1.41 2.46-1.24 2.06-1.24 2.06-1.09 4.16h-2c-1.29 5.76-0.66 8.78 2 14l1.69 3.44c0.433 0.846 0.866 1.69 1.31 2.56h2v3h2v4h2l0.375 2.19c0.615 2.77 1.51 5.21 2.62 7.81h2c0.122 0.684 0.245 1.37 0.371 2.07 0.713 3.32 1.68 6.5 2.69 9.74 0.362 1.16 0.724 2.32 1.1 3.52 0.277 0.88 0.554 1.76 0.84 2.67h2c-0.0928 0.99-0.0928 0.99-0.188 2 0.2 3.21 1.14 5.66 2.32 8.62 2.5 6.87 4.04 14.1 4.86 21.4h2l-0.125 2.94c-0.00323 2.88 0.355 5.4 1.04 8.2 1.33 5.75 2.17 11.5 3.03 17.4 0.123 0.81 0.246 1.62 0.373 2.46 0.108 0.728 0.215 1.46 0.326 2.21 0.29 1.92 0.29 1.92 1.36 3.83 0.308 2.33 0.509 4.66 0.719 7 0.0766 1.99 0.0766 1.99 1.28 3 0.21 1.95 0.368 3.91 0.5 5.88 0.223 3.31 0.448 5.97 1.5 9.12 0.192 1.6 0.342 3.2 0.465 4.81 0.0768 0.974 0.154 1.95 0.233 2.95 0.0792 1.05 0.158 2.1 0.24 3.18 0.085 1.08 0.17 2.16 0.258 3.27 0.364 4.62 0.72 9.25 1.08 13.9 0.261 3.37 0.526 6.74 0.792 10.1 0.0792 1.05 0.158 2.1 0.24 3.19 0.0768 0.971 0.154 1.94 0.233 2.94 0.0658 0.857 0.132 1.71 0.199 2.6 0.156 2.14 0.156 2.14 1.27 4.08 0.208 2.65 0.374 5.28 0.5 7.94 0.228 5.61 0.228 5.61 1.5 11.1 0.193 1.71 0.342 3.42 0.465 5.14 0.0768 1.04 0.154 2.08 0.233 3.16 0.0792 1.12 0.158 2.24 0.24 3.39 0.174 2.35 0.348 4.7 0.523 7.05 0.0886 1.2 0.177 2.4 0.269 3.64 0.424 5.69 0.872 11.4 1.33 17.1 0.0792 1.02 0.158 2.03 0.24 3.08 0.0768 0.941 0.154 1.88 0.233 2.85 0.0658 0.824 0.132 1.65 0.199 2.5 0.217 2.31 0.217 2.31 1.27 5.13 0.259 3.43 0.442 6.85 0.605 10.3 0.135 3.99 0.135 3.99 1.39 7.72 0.186 2.57 0.327 5.12 0.438 7.69 0.384 7.44 1.15 14.8 2.24 22.1 0.374 2.57 0.727 5.14 1.08 7.72 0.267 1.93 0.534 3.85 0.801 5.78 0.127 0.927 0.254 1.85 0.384 2.81 0.122 0.864 0.244 1.73 0.37 2.62 0.108 0.774 0.215 1.55 0.326 2.34 0.28 1.99 0.28 1.99 1.36 3.92 0.182 1.83 0.322 3.66 0.438 5.5 0.54 7.05 1.82 13.7 3.62 20.6 0.718 2.76 1.12 5.41 1.38 8.25 0.322 3.29 0.943 6.27 1.88 9.44 1.87 6.43 3.01 13 4.15 19.5 0.907 5.03 2.11 9.74 3.81 14.6 1.13 3.33 1.96 6.72 2.79 10.1 0.169 0.688 0.338 1.38 0.513 2.08 1.21 4.96 2.36 9.93 3.42 14.9h2v7h2c0.122 1 0.245 2 0.371 3.04 0.559 3.91 1.57 7.61 2.69 11.4 0.543 1.85 0.543 1.85 1.1 3.75 0.277 0.929 0.554 1.86 0.84 2.82h2l-0.25 1.94c0.308 3.78 1.64 6.49 3.28 9.88 0.916 2.06 1.5 3.99 1.97 6.18h2v4h2v5h2l1 7h2v4h2l0.312 2.19c0.751 3.07 2.04 5.13 3.69 7.81 0.688 2.31 0.688 2.31 1 4h2v3h2l0.25 1.56c1.07 3.48 2.89 6.31 4.75 9.44h2v4h2v3h2l1 4h2l2 5h2l1 4h2l2 5h2c0.268 0.598 0.536 1.2 0.812 1.81 1.19 2.19 2.28 3.6 4.19 5.19h2c0.0503 0.54 0.101 1.08 0.152 1.64 1.25 3.5 3.79 5.66 6.41 8.18 0.54 0.528 1.08 1.06 1.64 1.6 6.59 7.61 6.59 7.61 14.8 11.6v2h2v2h2v2c3.22 2.32 3.22 2.32 7 3v2c1.45 1.36 1.45 1.36 3.31 2.62 0.615 0.446 1.23 0.892 1.86 1.35 1.91 1.27 1.91 1.27 4.82 1.02v2c1.98 0.66 3.96 1.32 6 2v2l5 1v2h4v2l3.25 1.38c2.05 0.874 4.02 1.77 6 2.81 1.88 1.02 1.88 1.02 4.75 0.812v2h5v2c2.2 0.845 4.41 1.68 6.62 2.5 1.23 0.464 2.46 0.928 3.73 1.41 3.46 1.04 6.07 1.31 9.65 1.09v2c10.1 2.92 19.7 5.51 30.2 5.86 2.79 0.141 2.79 0.141 4.63 0.632 2.5 0.591 4.84 0.705 7.41 0.79 1.53 0.0561 1.53 0.0561 3.09 0.113 1.59 0.0522 1.59 0.0522 3.22 0.105 6.1 0.205 12.1 0.44 18.2 1.09 3.88 0.379 7.29 0.305 11.1-0.305 5.33-0.736 10.8-0.701 16.1-0.895 4.75-0.189 9.27-0.581 14-1.39 2-0.109 4.01-0.215 6.01-0.291 10.2-0.383 20-1.8 30-3.71 1.66-0.317 1.66-0.317 3.35-0.641 2.22-0.438 4.43-0.895 6.65-1.36v-2c1.2 0.0412 2.39 0.0825 3.62 0.125 3.87-0.00675 6.73-0.766 10.4-2.12 2.67-0.732 5.34-1.43 8.02-2.12 3-0.886 5.88-1.95 8.8-3.07 3.86-1.44 7.77-2.71 11.7-4 0.822-0.273 1.64-0.545 2.49-0.826 2-0.664 4-1.33 6.01-1.99v-2l2 0.25c3.38-0.281 5.62-1.47 8.58-3.05 3.89-1.93 7.95-3.37 12-4.9 5.19-1.98 10.3-4.14 15.4-6.3v-2h4v-2l2.5-0.25c4.27-0.914 7.69-2.67 11.5-4.75v-2l2.25-0.375c2.55-0.58 4.48-1.36 6.75-2.62v-2h4v-2c0.572-0.122 1.14-0.245 1.73-0.371 2.37-0.657 4.34-1.57 6.52-2.69 0.706-0.362 1.41-0.724 2.14-1.1 0.531-0.277 1.06-0.554 1.61-0.84v-2h4v-2l2.06-0.25c3.81-0.973 6.58-2.71 9.94-4.75v-2l2.38-0.938c2.55-0.991 2.55-0.991 4.62-2.06v-2h2v-2h4v-2h3v-2l2.38-0.938c2.55-0.991 2.55-0.991 4.62-2.06v-2l2.38-0.938c2.55-0.991 2.55-0.991 4.62-2.06v-2h2v-2l1.81-0.375c2.45-0.58 2.45-0.58 5.19-2.62v-2h2v-2h3v-2h2v-2h2v-2h2l2-5h2l1-5h2c3.68-8.41 4.43-16.2 4.5-25.3 0.018-1.03 0.0361-2.05 0.0547-3.11-0.0517-6.63-1.13-10.9-4.55-16.6h-2c-0.104-0.726-0.209-1.45-0.316-2.2-0.747-3.06-1.86-5.02-3.62-7.61-0.525-0.79-1.05-1.58-1.59-2.39-0.486-0.592-0.972-1.18-1.47-1.79h-2c-0.309-0.784-0.619-1.57-0.938-2.38-0.991-2.55-0.991-2.55-2.06-4.62h-2v-2h-2c-0.236-0.554-0.472-1.11-0.715-1.68-1.6-2.88-3.6-5.03-5.85-7.45-4.34-4.68-4.34-4.68-5.44-6.88h-2v-2h-2v-3h-2l-3-6h-2l-0.812-2.31c-1.14-2.58-2-3.96-4.19-5.69h-2l-3-6h-2l-2-5h-2v-2h-2l-1-3h-2v-2h-2v-2h-2c-0.248-0.552-0.495-1.1-0.75-1.67-1.49-2.78-3.29-5.11-5.25-7.58l-2.12-2.7c-0.928-1.01-0.928-1.01-1.88-2.05h-2v-2h-2l-2-5h-2l-1-4h-2v-2h-2l-2-5h-2c-0.248-0.552-0.495-1.1-0.75-1.67-1.49-2.78-3.29-5.11-5.25-7.58l-2.12-2.7c-0.619-0.675-1.24-1.35-1.88-2.05h-2v-2h-2c-0.268-0.639-0.536-1.28-0.812-1.94-1.07-2.39-1.07-2.39-4.19-3.06-1.12-1.94-1.12-1.94-2-4l-1-2h-2l-2-5h-2v-2c-1.33-1.67-1.33-1.67-3-3h-2v-2h-2v-2h-2l-0.812-1.75c-1.22-2.31-2.49-4.27-4.19-6.25h-2l-3-6h-2v-2h-2v-2h-2l-0.812-1.75c-1.22-2.31-2.49-4.27-4.19-6.25h-2v-2h-2l-3-6h-2v-2h-2l-1-3h-2v-2h-2v-2h-2v-3h-2v-2c-1.33-1.67-1.33-1.67-3-3h-2v-2h-2v-2h-2l-1-3h-2v-2h-2v-2h-2c-0.268-0.639-0.536-1.28-0.812-1.94-1.07-2.39-1.07-2.39-4.19-3.06v-2h-2c-0.257-0.585-0.513-1.17-0.777-1.77-1.33-2.42-2.79-3.96-4.79-5.85-3.34-3.18-3.34-3.18-4.44-5.38h-2c-0.227-0.536-0.454-1.07-0.688-1.62-1.77-3.2-3.85-5.67-6.31-8.38h-2v-2h-2v-2h-2l-1-3h-2v-2h-2v-2h-2v-2h-2l-1-3h-2v-2h-2v-2h-2c-0.268-0.639-0.536-1.28-0.812-1.94-1.07-2.39-1.07-2.39-4.19-3.06v-2h-2c-0.268-0.598-0.536-1.2-0.812-1.81-1.19-2.19-2.28-3.6-4.19-5.19h-2c-0.26-0.589-0.521-1.18-0.789-1.79-1.29-2.35-2.65-3.82-4.59-5.65-2.79-2.71-5.21-5.51-7.62-8.56-1.65-1.68-3.32-3.34-5-5-1.92-1.89-3.83-3.79-5.75-5.69-0.494-0.485-0.987-0.971-1.5-1.47-3.64-3.62-3.64-3.62-4.75-5.84h-2v-2c-2.33-2.67-2.33-2.67-5-5h-2v-2c-2.33-2.67-2.33-2.67-5-5h-2v-2h-2v-2c-2.33-2.67-2.33-2.67-5-5h-2v-2c-2.33-2.67-2.33-2.67-5-5h-2v-2h-2v-2c-2.33-2.67-2.33-2.67-5-5h-2v-2c-1.45-1.5-1.45-1.5-3.38-3.06-12.4-10.5-12.4-10.5-17.6-16-1.78-2.17-1.78-2.17-4-1.94-0.268-0.598-0.536-1.2-0.812-1.81-1.19-2.19-2.28-3.6-4.19-5.19h-2v-2h-2c-0.402-0.959-0.402-0.959-0.812-1.94-1.07-2.39-1.07-2.39-4.19-3.06v-2h-2v-2h-2v-2c-1.33-1.67-1.33-1.67-3-3h-2v-2h-2v-2c-2.33-2.67-2.33-2.67-5-5h-2v-2c-1.98-1.69-3.98-3.35-6-5l-1-2h-3v-2h-2v-2h-2v-2c-2.33-2.67-2.33-2.67-5-5h-2v-2c-0.619-0.0825-1.24-0.165-1.88-0.25-2.12-0.75-2.12-0.75-3.19-2.62-0.309-0.701-0.619-1.4-0.938-2.12-1.42-1.75-1.42-1.75-3-3h-2v-2h-2c-0.402-0.959-0.402-0.959-0.812-1.94-1.07-2.39-1.07-2.39-4.19-3.06v-2h-2v-2h-2v-2l-5-2v-3h-3v-2h-2v-2c-1.68-1.78-1.68-1.78-3.81-3.56-1.06-0.93-1.06-0.93-2.14-1.88-2.06-1.74-2.06-1.74-5.04-2.56-1.19-2.06-1.19-2.06-2-4h-3v-2h-2v-2h-2l-1-3h-2v-2h-2v-2c-3.88-3.93-3.88-3.93-9-5v-2h-2c-0.402-0.959-0.402-0.959-0.812-1.94-1.07-2.39-1.07-2.39-4.19-3.06v-2h-2v-2h-2v-2c-1.71-1.81-1.71-1.81-3.88-3.62-0.719-0.632-1.44-1.26-2.18-1.91-1.81-1.66-1.81-1.66-3.95-1.46v-2l-4-1v-2h-2c-0.402-0.959-0.402-0.959-0.812-1.94-1.07-2.39-1.07-2.39-4.19-3.06v-2h-2v-2c-1.49-1.36-1.49-1.36-3.38-2.62-0.626-0.446-1.25-0.892-1.9-1.35-1.68-1.19-1.68-1.19-3.73-1.02v-2h-2v-2c-0.804-0.268-1.61-0.536-2.44-0.812-0.846-0.392-1.69-0.784-2.56-1.19l-1-3h-2v-2l-4-1v-2l-5-2v-2h-2v-2h-2v-2c-3.22-2.32-3.22-2.32-7-3v-2h-2l-1-3c-2.13-1.45-3.92-1.98-6.44-2.5-3.28 0.64-4.19 2.2-6.12 4.8zm-150 78.7c-1.66 0.681-3.33 1.35-5 2v2c-0.552 0.104-1.1 0.209-1.67 0.316-2.82 0.829-5.05 2.11-7.58 3.62-1.34 0.787-1.34 0.787-2.7 1.59-0.675 0.486-1.35 0.972-2.05 1.47v2l-1.69 0.812c-2.52 1.3-4.95 2.61-7.31 4.19v2h-2c-1.71 1.65-1.71 1.65-3.44 3.75-0.597 0.696-1.19 1.39-1.81 2.11-3.43 3.64-3.43 3.64-4.75 8.14h-2v2h-2c-2.32 3.22-2.32 3.22-3 7h-2c-0.398 0.736-0.797 1.47-1.21 2.23-0.53 0.976-1.06 1.95-1.61 2.96-0.522 0.963-1.04 1.93-1.58 2.92-1.05 1.89-2.15 3.75-3.3 5.57-1.54 2.32-1.54 2.32-1.3 5.32h-2c-1.32 2.73-2.63 5.46-3.94 8.19-0.373 0.769-0.746 1.54-1.13 2.33-1.81 3.8-3.4 7.25-3.93 11.5h-2c-2.6 6.81-2.6 6.81-3 14h-2c-2.15 8.31-4.25 16.6-5.61 25.1-0.395 1.94-0.395 1.94-1.39 2.94-0.208 1.66-0.367 3.33-0.5 5-0.389 4.89-0.389 4.89-1.5 6-1.53 7.55-2.14 15.4-3 23-0.126 1.1-0.252 2.19-0.382 3.32-2.85 26-1.08 52.9 3.38 78.7l1 1c0.288 2.38 0.448 4.77 0.621 7.16 0.455 3.4 1.43 6.54 2.38 9.84 0.735 3.51 1.33 7.04 1.94 10.6 0.369 3.51 0.369 3.51 2.06 6.43l0.375 3.06c0.546 3.44 1.44 6.26 2.73 9.47 1.96 5.38 3.37 11 4.9 16.5h2c0.122 0.684 0.245 1.37 0.371 2.07 0.713 3.32 1.68 6.5 2.69 9.74 0.362 1.16 0.724 2.32 1.1 3.52 0.277 0.88 0.554 1.76 0.84 2.67h2v5h2l0.25 2.38c1.74 8.4 5.85 16.1 9.48 23.8 1.27 2.79 1.27 2.79 2.27 5.79h2v4h2c0.0761 0.654 0.152 1.31 0.23 1.98 1.06 4.15 3.03 7.6 5.08 11.3 0.789 1.45 1.58 2.91 2.36 4.36 0.385 0.71 0.77 1.42 1.17 2.15 1.79 3.36 3.47 6.76 5.16 10.2h2v4h2l1 5h2l0.438 1.88c0.494 2.16 0.494 2.16 1.56 4.12h2l1 3c2.02 0.733 2.02 0.733 4 1 0.44-8.79-1.24-16.7-4.54-24.8-1.63-4.28-2.14-8.38-2.52-12.9-0.154-1.58-0.31-3.15-0.469-4.73-0.0761-0.765-0.152-1.53-0.23-2.32-0.315-8.13-0.315-8.13-3.24-15.2-0.324-2.84-0.513-5.68-0.719-8.53-0.0151-2.41-0.0151-2.41-1.28-3.47-0.146-1.87-0.227-3.74-0.281-5.62-0.0374-1.17-0.0748-2.33-0.113-3.53-0.0348-1.23-0.0696-2.46-0.105-3.73-0.0699-2.39-0.143-4.79-0.219-7.18-0.0303-1.07-0.0606-2.13-0.0918-3.23-0.152-2.99-0.4-5.92-0.699-8.9-0.558-5.94-0.635-11.8-0.624-17.8-9.57e-4 -1.1-0.00191-2.2-0.0029-3.33-6.76e-4 -2.31 0.00114-4.61 0.00534-6.92 0.00538-3.52 2.36e-5 -7.04-0.00635-10.6 6.6e-4 -2.25 0.00194-4.5 0.00391-6.75-0.00202-1.04-0.00405-2.09-0.00613-3.17 0.0167-5.21 0.319-10.1 1.14-15.3 0.128-2.23 0.221-4.47 0.281-6.7 0.0374-1.23 0.0748-2.45 0.113-3.72 0.0707-2.57 0.141-5.14 0.211-7.7 0.0374-1.22 0.0748-2.44 0.113-3.7 0.0303-1.11 0.0606-2.23 0.0918-3.37 0.189-2.8 0.189-2.8 1.19-5.8 0.302-2.86 0.508-5.73 0.719-8.6 0.281-2.4 0.281-2.4 1.28-3.4 0.551-2.44 1.05-4.86 1.5-7.31 0.135-0.717 0.269-1.43 0.408-2.17 0.983-5.44 1.57-10.8 1.88-16.4 0.211-2.16 0.211-2.16 1.21-3.16 0.0715-1.35 0.084-2.71 0.0625-4.06l-0.0625-3.94h2l0.812-3.81c0.8-3.65 1.76-7.22 2.81-10.8 1.21-4.32 1.67-7.91 1.38-12.4h2v-7h2c0.277-1.22 0.554-2.43 0.84-3.68 0.366-1.58 0.732-3.17 1.1-4.75 0.182-0.802 0.365-1.6 0.553-2.43 1.4-6.02 1.4-6.02 2.51-7.13 0.0406-1.67 0.0427-3.33 0-5h2c0.65-2.21 1.29-4.42 1.94-6.62 0.36-1.23 0.719-2.46 1.09-3.73 0.858-3.22 1.49-6.36 1.97-9.65h2c0.254-0.641 0.508-1.28 0.77-1.94 0.516-1.3 0.516-1.3 1.04-2.62 0.362-0.911 0.724-1.82 1.1-2.76 0.9-2.21 1.85-4.38 2.84-6.55 1.5-3.18 1.5-3.18 1.25-7.12h2c0.65-1.73 1.3-3.46 1.94-5.19 0.36-0.963 0.719-1.93 1.09-2.92 0.884-2.63 1.5-5.16 1.97-7.89h2c0.193-0.543 0.387-1.09 0.586-1.64 0.26-0.715 0.521-1.43 0.789-2.17 0.383-1.06 0.383-1.06 0.773-2.14 0.852-2.04 0.852-2.04 2.85-5.04v-3h2l1.25-3.62c1.09-2.94 2.15-4.97 3.94-7.62 2.18-2.76 2.18-2.76 1.81-6.75h2c5.56-9.2 5.56-9.2 6.31-19.3-2.88-3.71-6.89-4.84-11.3-5.69-12.5-1.23-23.7-0.712-35 5zm72 23-2 4h-2c-5.72 8.32-12.4 18.9-14 29h-2v3h-2c-0.65 1.73-1.3 3.46-1.94 5.19-0.36 0.963-0.719 1.93-1.09 2.92-0.884 2.63-1.5 5.16-1.97 7.89h-2c-0.841 2.25-1.67 4.5-2.5 6.75-0.238 0.634-0.477 1.27-0.723 1.92-1.23 3.36-1.78 5.7-1.78 9.33h-2c-0.248 0.887-0.495 1.77-0.75 2.69-1.04 3.63-2.11 7.26-3.19 10.9-0.478 1.61-0.478 1.61-0.965 3.25-1.12 3.23-2.54 6.14-4.1 9.18-0.726 2.32-1.38 4.65-2 7-0.26 0.873-0.521 1.75-0.789 2.64-1.55 5.3-2.58 9.83-2.21 15.4h-2c-0.795 2.81-1.59 5.62-2.38 8.44-0.333 1.17-0.333 1.17-0.672 2.37-3.23 11.4-3.23 11.4-3.95 23.2h-2c-0.116 0.802-0.232 1.6-0.351 2.43-0.526 3.63-1.06 7.25-1.59 10.9-0.182 1.26-0.365 2.53-0.553 3.83-0.177 1.21-0.354 2.42-0.537 3.66-0.244 1.67-0.244 1.67-0.492 3.38-0.481 2.82-0.481 2.82-1.48 5.82-0.0685 1.89-0.0848 3.79-0.0625 5.69 0.00902 0.994 0.018 1.99 0.0273 3.01 0.0174 1.14 0.0174 1.14 0.0352 2.3h-2c-1.23 7.44-2.16 14.8-2.56 22.3-0.0418 0.776-0.0837 1.55-0.127 2.35-0.432 8.67-0.46 17.3-0.448 26-6.77e-4 1.73-0.00165 3.46-0.0029 5.19-0.00146 3.59 6.19e-4 7.18 0.00534 10.8 0.0057 4.56 0.0024 9.11-0.00357 13.7-0.00365 3.56-0.00245 7.12 1.28e-4 10.7 6.57e-4 1.68-1.16e-4 3.36-0.00248 5.03-0.223 21.7-0.223 21.7 3.14 43l1 1c0.186 1.68 0.324 3.37 0.438 5.06 0.331 3.98 0.886 7.65 1.96 11.5 0.675 2.74 1.17 5.5 1.66 8.28 1.12 6.35 2.52 12.2 4.94 18.1 0.338 1.43 0.649 2.87 0.938 4.31 1.11 5.43 3.07 10.5 5.06 15.7h2c-0.0606 0.7-0.121 1.4-0.184 2.12 0.229 3.59 1.43 5.79 3.12 8.94 3.38 6.34 3.38 6.34 4.06 9.94h2l0.25 2.5c0.914 4.27 2.67 7.69 4.75 11.5h2v4h2l0.375 2.25c0.58 2.55 1.36 4.48 2.62 6.75h2l0.438 1.81c0.45 1.75 0.991 3.47 1.56 5.19h2c0.309 0.784 0.619 1.57 0.938 2.38 0.991 2.55 0.991 2.55 2.06 4.62h2l0.25 1.56c1.07 3.48 2.89 6.31 4.75 9.44h2l2 5h2l1 4h2v3h2v2h2c0.268 0.639 0.536 1.28 0.812 1.94 1.07 2.39 1.07 2.39 4.19 3.06v2h2c0.259 0.574 0.518 1.15 0.785 1.74 1.32 2.45 2.82 4.35 4.65 6.45 0.597 0.695 1.19 1.39 1.81 2.11 1.74 1.95 1.74 1.95 4.75 2.71v2c1.68 1.78 1.68 1.78 3.81 3.56 0.708 0.62 1.42 1.24 2.14 1.88 2.06 1.74 2.06 1.74 5.04 2.56 0.702 1.32 1.37 2.65 2 4 1.42 1.75 1.42 1.75 3 3h2v2h2v2h3v2c2.64 2.4 2.64 2.4 6 3v2h3v2c3.22 2.32 3.22 2.32 7 3v2h4v2h2v2c1.43 0.841 2.87 1.67 4.31 2.5 0.801 0.464 1.6 0.928 2.43 1.41 2.29 1.31 2.29 1.31 5.26 1.09v2c1.68 1.37 1.68 1.37 3.81 2.62 0.708 0.446 1.42 0.892 2.14 1.35 2.11 1.25 2.11 1.25 5.04 1.02v2h3v2c4.26 2.36 4.26 2.36 9 3v2h4v2c1.58 0.843 3.16 1.67 4.75 2.5l2.67 1.41c2.73 1.35 2.73 1.35 6.58 1.09v2c1.72 0.845 3.45 1.68 5.19 2.5 0.963 0.464 1.93 0.928 2.92 1.41 2.88 1.09 4.85 1.32 7.89 1.09v2h5v2c0.929 0.254 1.86 0.508 2.82 0.77 11.3 3.15 11.3 3.15 15.2 4.98 3.23 1.35 5.53 1.5 9 1.25v2c6.81 2.6 6.81 2.6 14 3v2h5c-0.526-3.79-1.38-6.17-4-9h-2v-2h-2v-2h-2v-2c-1.33-1.67-1.33-1.67-3-3h-2v-2c-1.98-1.69-3.98-3.35-6-5l-1-2h-2v-2h-2v-2c-1.33-1.67-1.33-1.67-3-3h-2v-2h-2l-2-5h-2l-3-6h-2l-0.75-1.69c-1.24-2.45-1.24-2.45-3.31-4.88-1.94-2.44-1.94-2.44-2.94-5.44h-2c-1.21-2.33-2.17-4.5-3-7h-2v-3h-2c-0.227-0.804-0.454-1.61-0.688-2.44-1.65-4.48-3.92-8.45-6.31-12.6h-2l-0.375-2.25c-0.58-2.55-1.36-4.48-2.62-6.75h-2v-3h-2c-0.102-0.684-0.204-1.37-0.309-2.07-0.829-3.51-2.21-6.48-3.75-9.74-0.822-1.74-0.822-1.74-1.66-3.52-0.422-0.88-0.843-1.76-1.28-2.67h-2l-0.375-3.19c-0.536-3.27-1.26-5.82-2.62-8.81h-2v-4h-2l0.25-1.94c-0.308-3.78-1.64-6.49-3.28-9.88-0.916-2.06-1.5-3.99-1.97-6.18h-2c-0.184-1.5-0.184-1.5-0.371-3.04-0.559-3.91-1.57-7.61-2.69-11.4-0.362-1.24-0.724-2.47-1.1-3.75-0.277-0.929-0.554-1.86-0.84-2.82h-2v-7h-2l0.188-2.81c0-6.88-2.58-13.5-4.81-19.9-1.29-3.76-1.95-7.3-2.38-11.2h-2c0.0374-1 0.0748-2 0.113-3.04-0.117-4.1-0.845-7.45-1.93-11.4-2.15-8.13-3.72-16.3-5.19-24.6-0.173-0.883-0.345-1.77-0.523-2.68-1.47-7.58-2.44-15.2-3.42-22.9-0.122-0.93-0.244-1.86-0.369-2.82-0.108-0.841-0.215-1.68-0.326-2.55-0.264-2.13-0.264-2.13-1.36-4.07-0.314-3.11-0.511-6.23-0.719-9.35 0.00823-2.57 0.00823-2.57-1.28-3.65-0.363-2.99-0.668-5.96-0.938-8.96-0.085-0.902-0.17-1.8-0.258-2.73-0.273-2.89-0.539-5.79-0.805-8.68-0.266-2.89-0.533-5.77-0.805-8.66-0.169-1.8-0.335-3.6-0.498-5.4-0.0768-0.817-0.154-1.63-0.233-2.48-0.0987-1.08-0.0987-1.08-0.199-2.18-0.236-2.13-0.236-2.13-1.27-4.91-0.308-3.35-0.509-6.71-0.719-10.1-0.0972-2.87-0.0972-2.87-1.28-4.93-0.198-1.51-0.345-3.03-0.465-4.55-0.115-1.42-0.115-1.42-0.233-2.86-0.0792-1.02-0.158-2.05-0.24-3.1-0.085-1.05-0.17-2.1-0.258-3.18-0.272-3.37-0.539-6.74-0.805-10.1-0.266-3.36-0.534-6.72-0.805-10.1-0.169-2.09-0.335-4.18-0.498-6.28-0.115-1.43-0.115-1.43-0.233-2.89-0.0987-1.25-0.0987-1.25-0.199-2.53-0.277-2.51-0.766-4.93-1.27-7.41-0.247-3.27-0.439-6.54-0.605-9.82 0.0889-3.38 0.0889-3.38-1.39-6.18-0.211-2.27-0.369-4.54-0.5-6.81-0.196-4.58-0.196-4.58-0.989-9.07-0.6-2.48-0.795-4.87-0.976-7.41-0.115-1.55-0.115-1.55-0.233-3.13-0.0792-1.1-0.158-2.19-0.24-3.32 0.13-16 0.13-16-4.06-30.2-0.324-2.84-0.513-5.68-0.719-8.53-0.0151-2.41-0.0151-2.41-1.28-3.47-0.211-2.48-0.376-4.95-0.5-7.44-0.0771-4.93-0.0771-4.93-1.5-9.56-0.347-2.52-0.656-5.03-0.938-7.56-0.483-9.93-0.483-9.93-4.06-18.4-0.235-1.94-0.468-3.89-0.691-5.83-0.45-3.16-1.38-6.11-2.31-9.17-0.481-1.83-0.96-3.67-1.44-5.5-0.875-3.24-1.82-6.31-3.19-9.38-1.22-2.77-1.92-5.15-2.38-8.12h-2l-1-7h-2v-4h-2v-3h-2l-0.812-2.44-1.19-2.56c-0.99-0.33-1.98-0.66-3-1z"/>
<path transform="translate(42,1508)" d="m0 0-1 7h3l-1 21h-2l-2 7h-2l-1 4c-8.12 0.624-8.12 0.624-11.6-1.81-1.44-2.19-1.44-2.19-1.44-5.19 3.46-0.495 3.46-0.495 7-1 0-3.33-0.358-6.63-0.688-9.94-0.0802-1.09-0.0802-1.09-0.162-2.21-0.205-2.42-0.205-2.42-1.15-5.85-2.42-2.06-2.42-2.06-5-3 0-2.19 0-2.19 1-5 5.35-5.17 10.9-5.66 18-5z" fill="#A9B1B5"/>
<path transform="translate(25,1286)" d="m0 0c13.6-0.369 13.6-0.369 20 2v1h-5l2 5-2 1c0.99 0.33 1.98 0.66 3 1v2c-5.42 3.08-5.42 3.08-8.38 2.69l-1.62-0.688v-2l-4-2 2.5 2.88c2.5 2.88 2.5 2.88 2.5 5.12h5l3 9c-2.71 1.35-4.92 1.21-7.94 1.25-1.06 0.0258-2.12 0.0516-3.21 0.0781-2.85-0.328-2.85-0.328-4.73-1.69-1.12-1.64-1.12-1.64-1.12-4.14 1.3-3.25 2.92-4 6-5.5-0.99-0.33-1.98-0.66-3-1-1.12-5.62-1.12-5.62 0-9-0.951-1.7-1.95-3.36-3-5v-2z" fill="#9FA6AA"/>
<path transform="translate(37.1 1322)" d="m0 0c1.28 0.195 2.56 0.389 3.88 0.59 0.987 0.156 1.97 0.312 2.99 0.473l-1 2c-0.99-0.33-1.98-0.66-3-1 0.205 0.543 0.41 1.09 0.621 1.64 0.269 0.715 0.539 1.43 0.816 2.17 0.4 1.06 0.4 1.06 0.809 2.14 0.616 1.67 1.19 3.35 1.75 5.04-5.38 0.917-10.5 1.11-16 1-1.96-3.55-2.06-5.06-1-9l0.438-2.75 0.562-2.25c3.11-1.55 5.74-0.585 9.12-0.0625z" fill="#A2A9AD"/>
<path transform="translate(38,1548)" d="m0 0 5 1c0.0271 1.6 0.0464 3.21 0.0625 4.81 0.0116 0.893 0.0232 1.79 0.0352 2.71-0.0977 2.48-0.0977 2.48-1.1 5.48-0.222 1.89-0.406 3.79-0.562 5.69-0.0838 0.994-0.168 1.99-0.254 3.01-0.0606 0.759-0.121 1.52-0.184 2.3-0.746-0.307-1.49-0.614-2.26-0.93-3.19-1.25-6.43-2.16-9.74-3.07l2-1 0.438-2.88c0.562-3.12 0.562-3.12 2.12-4.56 1.83-1.63 1.83-1.63 1.44-5 0-3.81 0.427-4.88 3-7.56zm-1 15v3h2l-1-3h-1z" fill="#A8B0B4"/>
<path transform="translate(33,1410)" d="m0 0 10 2c-2.47 8.64-2.47 8.64-4.89 10.3-4.26 1.48-7.9 1.28-12-0.582-2.12-1.69-2.12-1.69-3.12-4.69l2-3 5 1c0.99-1.65 1.98-3.3 3-5z" fill="#A7AFB3"/>
<path transform="translate(39,1488)" d="m0 0c0 3 0 3-1 5l1.25 1.19c2.08 2.15 3.9 4.46 5.75 6.81-2.3 1.15-4.08 1.31-6.62 1.56-0.817 0.0838-1.63 0.168-2.48 0.254-0.626 0.0606-1.25 0.121-1.9 0.184-0.427-0.915-0.427-0.915-0.863-1.85-1.12-2.33-1.12-2.33-3.32-4.59-1.81-2.56-1.81-2.56-1.75-5.25 2.22-5.48 6.02-4.24 10.9-3.31z" fill="#A8B0B4"/>
<path transform="translate(37,1340)" d="m0 0c2.88 1.62 2.88 1.62 5 4l1 6h-16l-1-7c3.51-3.37 6.24-3.58 11-3z" fill="#AAB2B6"/>
<path transform="translate(39,1304)" d="m0 0 3 9c-2.71 1.35-4.92 1.21-7.94 1.25-1.06 0.0258-2.12 0.0516-3.21 0.0781-2.85-0.328-2.85-0.328-4.72-1.69-1.12-1.64-1.12-1.64-1.19-4.14 1.06-2.5 1.06-2.5 3.69-4.38 3.92-1.31 6.38-1 10.4-0.125z" fill="#AAB2B6"/>
<path transform="translate(27,1269)" d="m0 0c3.23 1.21 4.01 2.01 6 5 3.58 0.25 3.58 0.25 7 0v4c-1.88 1.88-4.93 1.22-7.44 1.25-1.17 0.0258-2.35 0.0516-3.56 0.0781-0.991-0.108-1.98-0.217-3-0.328-2-3-2-3-1.75-6.12l0.75-2.88 2-1z" fill="#AAB2B6"/>
<path transform="translate(28,1368)" d="m0 0c5.97 1.11 8.99 2.17 13 7l2 3h-14l-2-4 2-3-2-1 1-2zm2 4-1 2h3v-2h-2z" fill="#A2AAAE"/>
<path transform="translate(28,1356)" d="m0 0c3.9 0.347 7.58 1.05 11 3 0.812 2.62 0.812 2.62 1 5-3.98 1.33-7.85 1.07-12 1l-2-7 2-2z" fill="#AAB2B6"/>
<path transform="translate(34,1560)" d="m0 0c3.01 0.389 4.4 1.26 7 3 0.293 2.38 0.293 2.38 0.188 5.12-0.0271 0.91-0.0541 1.82-0.082 2.76-0.0348 0.699-0.0696 1.4-0.105 2.12-0.681-0.289-1.36-0.578-2.06-0.875-3.27-1.25-6.57-2.2-9.94-3.12l2-1c0.34-2 0.673-4 1-6l2-2zm3 3v3h2l-1-3h-1z" fill="#8A9094"/>
<path transform="translate(31,1431)" d="m0 0c4.46 0.99 4.46 0.99 9 2l1 5-5 1v2l-5 1c-1.05-3.98-0.841-6.98 0-11z" fill="#AAB2B6"/>
<path transform="translate(40,1258)" d="m0 0v2h3v2c0.99 0.33 1.98 0.66 3 1v3h-2l-1-2h-11v-2h2v-3c3-1 3-1 6-1z" fill="#9FA6AA"/>
<path transform="translate(30,1446)" d="m0 0c2.06 0.438 2.06 0.438 4 1v2h2l-1 3v-2l-3 3c-0.99-0.33-1.98-0.66-3-1-0.0427-1.67-0.0406-3.33 0-5l1-1z" fill="#676C6E"/>
<path transform="translate(45,1408)" d="m0 0h2l1 14-4-1v-4h2l-1-9z" fill="#7F8588"/>
<path transform="translate(45,1395)" d="m0 0 1 3c-1.87 1.87-4.92 1.47-7.44 1.69-1.76 0.16-1.76 0.16-3.56 0.324-3-0.0117-3-0.0117-5-2.01 4.76-0.953 9.17-1.08 14-1l1-2z" fill="#949B9F"/>
<path transform="translate(44,1426)" d="m0 0h4v4c-2.31-0.33-4.62-0.66-7-1 0.99-0.33 1.98-0.66 3-1v-2z" fill="#7C8285"/>
<path transform="translate(37,1474)" d="m0 0v1l-12 1v-1c4.05-0.982 7.84-1.08 12-1z" fill="#82888C"/>
<path transform="translate(45,1291)" d="m0 0h1v7l-2-2c0.375-2.62 0.375-2.62 1-5z"/>
<path transform="translate(29,1457)" d="m0 0 5 1-2 1v2c-0.99-0.33-1.98-0.66-3-1v-3z" fill="#222324"/>
<path transform="translate(45,1468)" d="m0 0h1v8c-2-3-2-3-1.62-5.69l0.625-2.31z" fill="#AAB2B6"/>
<path transform="translate(26,1259)" d="m0 0c2.97 0.495 2.97 0.495 6 1v2c-2.44-0.375-2.44-0.375-5-1l-1-2z" fill="#AAB2B6"/>
<path transform="translate(25,1227)" d="m0 0h3v3h-3v-3z" fill="#4B4F50"/>
<path transform="translate(42,1510)" d="m0 0h3l1 3-2 2v-4l-2-1z" fill="#AAB2B6"/>
<path transform="translate(45,1494)" d="m0 0h1v5l-2-1 1-4z" fill="#151616"/>
<path transform="translate(25,1470)" d="m0 0h2v4h-2v-4z" fill="#3F4244"/>
<path transform="translate(44,1489)" d="m0 0h2l-1 5c-1-3.88-1-3.88-1-5z" fill="#AAB2B6"/>
<path transform="translate(45,1458)" d="m0 0h1v7h-1v-7z" fill="#AAB2B6"/>
<path transform="translate(39,1248)" d="m0 0 4 1-4 1v-2z" fill="#91989C"/>
<path transform="translate(28,1241)" d="m0 0 2 2-3 3 1-5z" fill="#797F82"/>
<path transform="translate(39,1468)" d="m0 0 2 1-1 3-1-4z" fill="#717679"/>
<path transform="translate(44,1276)" d="m0 0h2l-1 4-1-4z" fill="#AAB2B6"/>
<path transform="translate(32,1464)" d="m0 0 2 2-4-1 2-1z"/>
<path transform="translate(45,1431)" d="m0 0h1v5h-1v-5z"/>
<path transform="translate(32,1315)" d="m0 0h5v1h-5v-1z"/>
<path transform="translate(32,1268)" d="m0 0 1 2 2 1h-3v-3z" fill="#444748"/>
<path transform="translate(24,1563)" d="m0 0v3z" fill="#AAB2B6"/>
<path transform="translate(45,1448)" d="m0 0 1 4z" fill="#7F8588"/>
<path transform="translate(36,1441)" d="m0 0 1 2c-0.99-0.33-1.98-0.66-3-1l2-1z" fill="#2A2C2D"/>
<path transform="translate(34,1394)" d="m0 0h2v2h-2v-2z"/>
<path transform="translate(25,1566)" d="m0 0 2 2h-2v-2z" fill="#383B3C"/>
<path transform="translate(38,1458)" d="m0 0c3 1 3 1 3 1z"/>
<path transform="translate(36,1439)" d="m0 0c3 1 3 1 3 1z"/>
<path transform="translate(35,1409)" d="m0 0c3 1 3 1 3 1z" fill="#AAB2B6"/>
<path transform="translate(37,1369)" d="m0 0h2l-1 2-1-2z"/>
<path transform="translate(29,1366)" d="m0 0c3 1 3 1 3 1z"/>
<path transform="translate(38,1232)" d="m0 0c3 1 3 1 3 1z" fill="#717679"/>
<path transform="translate(35,1231)" d="m0 0c3 1 3 1 3 1z" fill="#717679"/>
<path transform="translate(32,1548)" d="m0 0 2 1z"/>
<path transform="translate(42,1547)" d="m0 0 2 1z"/>
<path transform="translate(37,1503)" d="m0 0 2 1z"/>
<path transform="translate(39,1494)" d="m0 0 2 1z"/>
<path transform="translate(32,1472)" d="m0 0 2 1z"/>
<path transform="translate(39,1440)" d="m0 0 2 1z" fill="#AAB2B6"/>
<path transform="translate(32,1429)" d="m0 0 2 1z"/>
<path transform="translate(32,1265)" d="m0 0 2 1z"/>
</svg>
