<svg width="115" height="115" viewBox="0 0 115 115" fill="none" xmlns="http://www.w3.org/2000/svg">
<path d="M51.7501 77.2625L56.0626 62.5282C56.7814 59.2938 59.6564 57.1376 62.8907 57.1376H100.625C100.625 29.4657 76.9064 7.54381 48.5157 10.7782C27.3126 13.2938 10.0626 30.5438 7.54699 51.7469C6.10949 63.2469 8.98449 73.6688 14.7345 82.6532H44.922C48.1564 82.6532 51.0314 80.4969 51.7501 77.2625Z" stroke="white" stroke-width="4" stroke-miterlimit="10" stroke-linecap="round" stroke-linejoin="round"/>
<path d="M32.3438 71.875C38.2981 71.875 43.125 67.0481 43.125 61.0938C43.125 55.1394 38.2981 50.3125 32.3438 50.3125C26.3894 50.3125 21.5625 55.1394 21.5625 61.0938C21.5625 67.0481 26.3894 71.875 32.3438 71.875Z" stroke="white" stroke-width="4" stroke-miterlimit="10" stroke-linecap="round" stroke-linejoin="round"/>
<path d="M53.9062 75.4688H107.812V92C107.812 98.8281 102.422 104.219 95.5938 104.219H64.6875V75.4688" stroke="white" stroke-width="4" stroke-miterlimit="10" stroke-linecap="round" stroke-linejoin="round"/>
<path d="M64.6875 89.8438H107.812" stroke="white" stroke-width="4" stroke-miterlimit="10" stroke-linecap="round" stroke-linejoin="round"/>
</svg>
