<?xml version="1.0" standalone="no"?>
<!DOCTYPE svg PUBLIC "-//W3C//DTD SVG 20010904//EN"
 "http://www.w3.org/TR/2001/REC-SVG-20010904/DTD/svg10.dtd">
<svg version="1.0" xmlns="http://www.w3.org/2000/svg"
 width="1200.000000pt" height="1200.000000pt" viewBox="0 0 1200.000000 1200.000000"
 preserveAspectRatio="xMidYMid meet">

<g transform="translate(0.000000,1200.000000) scale(0.100000,-0.100000)"
fill="#000000" stroke="none">
<path d="M5590 10460 c-236 -25 -311 -36 -475 -70 -344 -71 -536 -131 -905
-285 -211 -88 -476 -232 -695 -378 -1068 -714 -1787 -1854 -1959 -3107 -36
-262 -46 -395 -46 -635 1 -766 179 -1470 547 -2157 342 -637 885 -1220 1521
-1632 184 -120 520 -297 672 -356 19 -7 58 -23 86 -36 94 -41 418 -146 574
-184 169 -42 441 -92 615 -112 71 -8 240 -13 475 -13 363 0 511 9 685 40 44 8
130 24 190 35 647 118 1346 436 1886 857 234 182 496 435 696 669 220 259 477
661 613 959 23 50 49 108 60 130 161 350 291 836 350 1315 17 138 24 656 11
826 -72 935 -433 1821 -1039 2549 -105 126 -468 485 -582 576 -196 156 -375
283 -530 376 -455 273 -889 445 -1415 557 -411 89 -938 118 -1335 76z m610
-270 c329 -19 602 -61 885 -135 183 -49 438 -136 575 -198 30 -13 76 -34 101
-45 l46 -20 7 -117 c14 -230 46 -569 81 -842 34 -273 95 -685 115 -773 5 -25
19 -99 31 -165 50 -287 148 -700 246 -1030 35 -119 124 -391 142 -436 5 -13
31 -77 56 -142 l47 -118 -28 -22 c-16 -12 -71 -58 -124 -102 -153 -128 -479
-385 -487 -385 -5 0 -46 75 -92 168 -170 343 -384 712 -639 1107 -260 402
-685 970 -1026 1369 -310 365 -454 522 -856 939 -110 115 -541 525 -648 617
-40 35 -71 68 -69 74 2 5 55 27 118 47 345 113 656 175 999 199 85 6 173 12
195 14 85 6 156 5 325 -4z m-1928 -387 c2 -5 34 -35 73 -68 247 -212 837 -791
1127 -1105 196 -214 501 -567 666 -773 507 -630 923 -1246 1254 -1857 148
-273 262 -506 255 -523 -7 -19 -309 -240 -596 -438 -105 -72 -137 -89 -143
-78 -177 305 -281 443 -493 653 -182 181 -410 359 -665 520 -175 111 -199 125
-345 204 -810 436 -1955 795 -3172 994 -112 18 -203 37 -203 42 0 23 112 291
185 441 136 279 246 460 429 701 161 212 208 266 371 429 337 337 669 580
1074 787 149 76 176 86 183 71z m3972 -252 c279 -175 494 -348 746 -601 392
-392 713 -873 915 -1370 l46 -114 -103 -101 c-96 -95 -262 -254 -423 -406
-205 -194 -661 -594 -677 -594 -15 0 -94 221 -182 505 -87 284 -184 693 -251
1060 -18 102 -36 196 -39 210 -38 160 -176 1322 -176 1481 0 17 18 9 144 -70z
m1854 -2563 c41 -172 65 -307 98 -553 22 -164 26 -693 6 -857 -19 -155 -59
-411 -78 -487 -27 -115 -17 -105 -98 -98 -151 13 -340 89 -496 198 -210 147
-454 458 -624 798 l-45 89 262 229 c144 127 296 261 337 299 135 125 413 387
500 471 47 46 87 83 91 83 3 0 24 -78 47 -172z m-7853 52 c892 -149 1720 -381
2430 -680 147 -62 573 -274 688 -341 400 -236 734 -509 972 -794 116 -139 305
-441 290 -465 -7 -11 -344 -216 -550 -335 -328 -189 -867 -450 -1160 -563
-670 -257 -1196 -364 -1719 -349 -223 6 -411 31 -573 75 l-102 27 -59 90
c-221 340 -386 706 -511 1135 -96 327 -155 748 -160 1135 -3 242 38 617 95
880 54 249 49 237 87 230 18 -2 140 -23 272 -45z m6450 -1217 c21 -43 61 -114
87 -158 26 -44 56 -96 67 -115 51 -93 215 -296 340 -420 147 -146 273 -238
423 -310 93 -44 264 -96 351 -106 31 -4 57 -10 57 -15 0 -16 -82 -236 -136
-362 -158 -374 -374 -729 -638 -1047 -148 -179 -373 -406 -521 -526 l-90 -73
-6 36 c-3 19 -7 85 -8 147 -5 362 -98 967 -212 1381 -78 283 -205 668 -269
815 -82 190 -131 323 -122 329 24 14 405 316 512 405 63 52 117 96 120 96 3 0
23 -35 45 -77z m-912 -625 c267 -659 390 -1072 481 -1618 56 -332 76 -573 76
-901 l0 -207 -62 -40 c-177 -113 -455 -258 -656 -341 -365 -153 -806 -263
-1197 -301 -176 -16 -195 -18 -195 -13 0 2 20 30 43 61 70 92 243 353 334 506
90 150 250 468 303 601 124 313 180 533 216 858 15 136 16 181 6 310 -13 181
-44 371 -78 473 -13 41 -24 81 -24 88 0 8 35 38 78 67 191 130 506 353 607
430 55 43 61 45 68 27z m-1020 -830 c35 -163 47 -267 47 -418 0 -474 -184
-1032 -514 -1565 -83 -133 -268 -405 -313 -460 -5 -5 -30 -39 -57 -75 -27 -36
-52 -69 -56 -73 -11 -13 -313 12 -511 43 -853 134 -1632 518 -2255 1110 -129
123 -304 310 -304 325 0 4 21 5 48 1 306 -44 703 -33 1062 29 751 130 1635
495 2595 1072 105 63 194 119 200 124 23 23 33 2 58 -113z"/>
</g>
</svg>
