<svg width="83" height="84" viewBox="0 0 83 84" fill="none" xmlns="http://www.w3.org/2000/svg">
<path d="M66.8693 16.1843C46.1353 -4.54871 19.6001 -0.464585 9.15563 2.25439C5.80845 3.12487 3.18459 5.74423 2.30506 9.09031C-0.447844 19.5689 -4.61003 46.1825 16.1307 66.9245C29.0146 79.8085 44.1386 83.1093 56.2516 83.1082C63.6296 83.1082 69.8905 81.8834 73.8444 80.8556C77.1915 79.984 79.8154 77.3658 80.6949 74.0197C83.4478 63.5388 87.61 36.9253 66.8693 16.1843ZM5.58885 9.95173C6.15596 7.79308 7.85049 6.10193 10.0091 5.54048C13.7638 4.56359 19.7133 3.39767 26.719 3.39767C26.7597 3.39767 26.8016 3.39994 26.8424 3.39994L3.40079 26.8417C3.40645 19.7636 4.59387 13.7415 5.58885 9.95173ZM18.5316 64.5225C8.06782 54.0586 4.36295 41.9659 3.57285 31.4726L31.4607 3.58445C41.9313 4.39719 54.0047 8.12135 64.4684 18.5841C74.9322 29.0479 78.637 41.1407 79.4271 51.6351L51.5404 79.5221C41.0687 78.7105 28.9953 74.9864 18.5316 64.5225ZM77.4111 73.156C76.844 75.3146 75.1495 77.0047 72.9897 77.5661C69.2147 78.5487 63.2153 79.7168 56.1599 79.7044L79.5981 56.266C79.5935 63.3453 78.4061 69.3662 77.4111 73.156Z" fill="white"/>
<path d="M59.7018 46.116C59.0385 45.4527 57.9643 45.4527 57.301 46.116L52.8818 50.5352L47.7496 45.4029L52.2434 40.909C52.9067 40.2468 52.9067 39.1714 52.2434 38.5081C51.5801 37.8448 50.5059 37.8448 49.8425 38.5081L45.3487 43.002L40.2164 37.8697L44.7091 33.3758C45.3725 32.7125 45.3725 31.6371 44.7091 30.9749C44.0458 30.3116 42.9716 30.3116 42.3083 30.9749L37.8156 35.4688L32.6833 30.3365L37.1771 25.8437C37.8405 25.1815 37.8405 24.1061 37.1771 23.4428C36.5138 22.7795 35.4396 22.7795 34.7763 23.4428L30.2824 27.9356L26.2957 23.9488C25.6324 23.2855 24.5582 23.2855 23.8948 23.9488C23.2315 24.611 23.2315 25.6875 23.8948 26.3497L27.8816 30.3365L23.5383 34.6798C22.8749 35.342 22.8749 36.4174 23.5383 37.0807C23.8699 37.4124 24.3046 37.5776 24.7393 37.5776C25.1739 37.5776 25.6086 37.4124 25.9403 37.0807L30.2836 32.7374L35.4158 37.8697L31.0725 42.213C30.4092 42.8763 30.4092 43.9517 31.0725 44.6139C31.4042 44.9456 31.8389 45.1108 32.2735 45.1108C32.7082 45.1108 33.1429 44.9456 33.4745 44.6139L37.8178 40.2706L42.9501 45.4029L38.6068 49.7462C37.9435 50.4096 37.9435 51.4838 38.6068 52.1471C38.9385 52.4788 39.3731 52.644 39.8078 52.644C40.2425 52.644 40.6771 52.4788 41.0088 52.1471L45.3521 47.8038L50.4844 52.9361L46.0652 57.3553C45.4019 58.0186 45.4019 59.0928 46.0652 59.7562C46.3969 60.0878 46.8316 60.2531 47.2662 60.2531C47.7009 60.2531 48.1356 60.0878 48.4672 59.7562L52.8864 55.337L57.2432 59.6939C57.5749 60.0256 58.0096 60.1908 58.4442 60.1908C58.8789 60.1908 59.3136 60.0256 59.6452 59.6939C60.3086 59.0306 60.3086 57.9563 59.6452 57.293L55.2884 52.9361L59.7075 48.5169C60.3652 47.8536 60.3652 46.7782 59.7018 46.116Z" fill="white"/>
</svg>
