<svg width="349" height="329" viewBox="0 0 349 329" fill="none" xmlns="http://www.w3.org/2000/svg">
<g opacity="0.1" clip-path="url(#clip0_14_532)">
<path d="M187.326 13.2032C170.001 13.0391 65.0588 11.4144 61.9744 40.6685C59.0213 68.6917 99.684 58.4261 100.078 70.8663C100.496 83.9301 92.7442 87.7048 71.0962 86.876C61.7201 86.5149 32.1152 89.8383 31.6394 108.531C31.1637 127.118 64.2221 124.771 62.5897 140.198C61.6381 157.726 36.5367 161.542 26.6438 166.178C15.8977 171.799 -3.8799 181.072 0.664607 200.971C6.64465 224.046 44.6249 219.894 58.9311 222.741C68.4877 224.292 98.8637 226.976 94.5406 247.425C92.2684 259.717 67.331 260.431 72.097 276.195C76.9204 290.933 120.405 293.846 129.215 294.33C165.784 296.308 246.076 299.541 281.842 284.45C294.991 278.96 306.598 272.346 305.253 252.619C304.597 235.001 295.106 232.424 311.102 218.811C321.216 210.047 340.576 210.753 339.427 185.183C338.812 171.389 303.531 165.661 304.318 151.219C305.548 128.529 348.853 147.797 349.008 107.67C349.107 82.6253 270.324 96.6328 271.128 71.8592C270.07 61.8069 287.403 57.5398 286.665 46.4044C287.075 28.5811 266.666 15.3942 187.334 13.2032H187.326Z" fill="#7C8E78"/>
<path d="M118.584 194.89C118.502 194.94 118.395 194.972 118.272 194.972H57.9548C57.6841 194.972 57.4216 194.784 57.3559 194.521C56.6997 191.649 60.0137 189.401 62.2532 190.5C62.5649 189.04 64.0086 188.038 65.518 188.219C64.6895 185.601 65.8379 182.951 68.586 181.671C71.1125 180.497 73.475 181.465 74.9762 183.377C75.8375 178.938 79.6683 175.098 84.3359 174.769C86.8706 174.597 89.553 175.311 91.53 176.977C93.4987 178.626 94.1385 180.44 94.6307 182.664C96.1073 180.546 98.4862 179.545 101.234 180.399C103.941 181.236 104.286 184.001 104.163 186.488C106.345 184.674 108.97 183.796 111.816 185.511C114.179 186.931 114.695 189.22 114.786 191.706C116.73 190.549 118.74 191.698 118.895 194.357C118.912 194.628 118.772 194.808 118.592 194.89H118.584Z" fill="#EAF9F3"/>
<path d="M286.837 69.8487C286.837 81.4108 318.205 83.5444 319.83 69.8487C321.462 56.1448 286.837 52.485 286.837 69.8487Z" fill="#7C8E78"/>
<path d="M33.5835 247.745C33.5835 259.315 72.4005 261.547 73.8114 247.745C75.5504 230.726 33.5835 227.493 33.5835 247.745Z" fill="#7C8E78"/>
<path d="M259.824 312.99C259.824 326.711 305.86 329.361 307.533 312.99C309.592 292.812 259.824 288.972 259.824 312.99Z" fill="#7C8E78"/>
<path d="M30.3022 70.6613C30.3022 78.2107 51.6959 79.6714 52.4752 70.6613C53.4349 59.5505 30.3022 57.4416 30.3022 70.6613Z" fill="#7C8E78"/>
<path d="M152.913 205.156C153.553 201.948 148.804 198.993 145.145 200.175C145.744 197.976 145.063 195.974 141.815 194.989C140.461 194.579 138.837 194.587 137.41 194.973C139.969 189.868 137.59 184.059 129.682 182.861C121.085 181.556 111.545 185.774 109.839 192.568C102.85 185.692 88.0352 193.93 92.4075 201.841C89.7087 201.414 86.9196 202.94 86.7556 205.213C84.0239 204.286 81.8665 207.076 83.5564 209.472C83.6794 209.645 83.9337 209.76 84.1798 209.76H157.154C157.343 209.76 157.491 209.71 157.597 209.645C157.712 209.579 157.802 209.481 157.852 209.341C158.68 206.978 155.62 204.729 152.913 205.164V205.156Z" fill="white"/>
<path d="M153.668 259.602C153.955 258.183 151.847 256.878 150.231 257.403C150.494 256.427 150.198 255.549 148.763 255.114C148.164 254.933 147.45 254.933 146.819 255.106C147.951 252.849 146.893 250.281 143.398 249.747C139.6 249.165 135.375 251.036 134.621 254.039C131.528 250.994 124.982 254.638 126.91 258.142C125.712 257.953 124.482 258.626 124.408 259.635C123.202 259.225 122.242 260.456 122.997 261.523C123.054 261.597 123.161 261.646 123.276 261.646H155.547C155.629 261.646 155.695 261.629 155.744 261.597C155.793 261.564 155.834 261.523 155.859 261.457C156.228 260.415 154.874 259.414 153.677 259.611L153.668 259.602Z" fill="white"/>
<path d="M283.933 127.988C283.999 128.029 284.072 128.054 284.171 128.054H329.042C329.239 128.054 329.444 127.914 329.485 127.717C329.977 125.584 327.508 123.91 325.842 124.722C325.605 123.639 324.53 122.892 323.414 123.032C324.03 121.087 323.176 119.109 321.134 118.165C319.255 117.296 317.5 118.01 316.384 119.437C315.744 116.13 312.89 113.275 309.42 113.037C307.533 112.905 305.54 113.439 304.071 114.678C302.603 115.909 302.127 117.255 301.766 118.904C300.667 117.328 298.895 116.59 296.853 117.222C294.835 117.845 294.581 119.905 294.679 121.751C293.055 120.406 291.102 119.749 288.986 121.021C287.231 122.08 286.845 123.778 286.771 125.625C285.327 124.763 283.834 125.625 283.711 127.594C283.703 127.799 283.802 127.93 283.941 127.996L283.933 127.988Z" fill="white"/>
<path d="M166.982 47.3888C167.023 47.4135 167.08 47.4299 167.137 47.4299H197.456C197.587 47.4299 197.727 47.3396 197.76 47.2001C198.096 45.7559 196.422 44.6234 195.299 45.1814C195.143 44.4511 194.413 43.9423 193.658 44.0326C194.076 42.7197 193.502 41.3821 192.116 40.742C190.844 40.1512 189.663 40.6354 188.908 41.6037C188.474 39.3717 186.546 37.4433 184.2 37.2791C182.928 37.1889 181.575 37.5499 180.582 38.3869C179.59 39.2157 179.27 40.1266 179.024 41.2426C178.285 40.1758 177.088 39.6753 175.71 40.102C174.348 40.5205 174.176 41.9155 174.241 43.1628C173.142 42.2519 171.83 41.8088 170.394 42.6704C169.205 43.3843 168.95 44.5332 168.901 45.7805C167.925 45.1979 166.916 45.7805 166.834 47.1098C166.834 47.2493 166.891 47.3396 166.99 47.3806L166.982 47.3888Z" fill="white"/>
</g>
<path d="M129.423 120.818V147H124.642L113.251 130.521H113.059V147H107.524V120.818H112.382L123.683 137.284H123.913V120.818H129.423ZM142.766 147.384C140.78 147.384 139.063 146.962 137.614 146.118C136.174 145.266 135.062 144.081 134.278 142.564C133.493 141.038 133.101 139.27 133.101 137.259C133.101 135.23 133.493 133.457 134.278 131.94C135.062 130.415 136.174 129.23 137.614 128.386C139.063 127.534 140.78 127.108 142.766 127.108C144.752 127.108 146.465 127.534 147.905 128.386C149.354 129.23 150.471 130.415 151.255 131.94C152.039 133.457 152.431 135.23 152.431 137.259C152.431 139.27 152.039 141.038 151.255 142.564C150.471 144.081 149.354 145.266 147.905 146.118C146.465 146.962 144.752 147.384 142.766 147.384ZM142.792 143.165C143.695 143.165 144.449 142.909 145.055 142.398C145.66 141.878 146.116 141.17 146.422 140.276C146.738 139.381 146.895 138.362 146.895 137.22C146.895 136.078 146.738 135.06 146.422 134.165C146.116 133.27 145.66 132.562 145.055 132.043C144.449 131.523 143.695 131.263 142.792 131.263C141.88 131.263 141.113 131.523 140.491 132.043C139.877 132.562 139.412 133.27 139.097 134.165C138.79 135.06 138.637 136.078 138.637 137.22C138.637 138.362 138.79 139.381 139.097 140.276C139.412 141.17 139.877 141.878 140.491 142.398C141.113 142.909 141.88 143.165 142.792 143.165ZM181.767 129.281C181.588 128.659 181.337 128.109 181.013 127.632C180.689 127.146 180.293 126.737 179.824 126.405C179.364 126.064 178.835 125.804 178.239 125.625C177.651 125.446 176.999 125.357 176.283 125.357C174.945 125.357 173.769 125.689 172.754 126.354C171.749 127.018 170.965 127.986 170.402 129.256C169.84 130.517 169.558 132.06 169.558 133.884C169.558 135.707 169.835 137.259 170.389 138.537C170.943 139.815 171.727 140.791 172.742 141.464C173.756 142.129 174.953 142.462 176.334 142.462C177.587 142.462 178.656 142.24 179.543 141.797C180.438 141.345 181.119 140.71 181.588 139.892C182.066 139.074 182.304 138.107 182.304 136.99L183.429 137.156H176.679V132.989H187.635V136.287C187.635 138.588 187.149 140.565 186.178 142.219C185.206 143.864 183.868 145.134 182.164 146.028C180.459 146.915 178.507 147.358 176.308 147.358C173.854 147.358 171.698 146.817 169.84 145.734C167.982 144.643 166.533 143.097 165.493 141.094C164.462 139.082 163.946 136.696 163.946 133.935C163.946 131.812 164.253 129.92 164.867 128.259C165.489 126.588 166.358 125.173 167.475 124.014C168.591 122.855 169.891 121.973 171.374 121.368C172.857 120.763 174.463 120.46 176.193 120.46C177.676 120.46 179.057 120.678 180.335 121.112C181.614 121.538 182.747 122.143 183.736 122.928C184.733 123.712 185.547 124.645 186.178 125.727C186.808 126.801 187.213 127.986 187.392 129.281H181.767ZM197.29 147.371C196.037 147.371 194.921 147.153 193.941 146.719C192.961 146.276 192.185 145.624 191.614 144.763C191.052 143.893 190.77 142.811 190.77 141.516C190.77 140.425 190.971 139.509 191.371 138.767C191.772 138.026 192.317 137.429 193.008 136.977C193.698 136.526 194.482 136.185 195.36 135.955C196.246 135.724 197.175 135.562 198.147 135.469C199.289 135.349 200.209 135.239 200.908 135.136C201.607 135.026 202.114 134.864 202.43 134.651C202.745 134.437 202.903 134.122 202.903 133.705V133.628C202.903 132.818 202.647 132.192 202.135 131.749C201.633 131.305 200.917 131.084 199.988 131.084C199.008 131.084 198.228 131.301 197.648 131.736C197.069 132.162 196.685 132.699 196.498 133.347L191.461 132.938C191.716 131.744 192.219 130.713 192.969 129.844C193.719 128.966 194.687 128.293 195.871 127.824C197.064 127.347 198.445 127.108 200.013 127.108C201.104 127.108 202.148 127.236 203.145 127.491C204.151 127.747 205.042 128.143 205.817 128.68C206.601 129.217 207.219 129.908 207.671 130.751C208.123 131.587 208.349 132.588 208.349 133.756V147H203.184V144.277H203.03C202.715 144.891 202.293 145.432 201.765 145.901C201.236 146.361 200.601 146.723 199.86 146.987C199.118 147.243 198.262 147.371 197.29 147.371ZM198.85 143.612C199.651 143.612 200.358 143.455 200.972 143.139C201.586 142.815 202.067 142.381 202.417 141.835C202.766 141.29 202.941 140.672 202.941 139.982V137.898C202.77 138.009 202.536 138.111 202.238 138.205C201.948 138.29 201.62 138.371 201.253 138.447C200.887 138.516 200.52 138.58 200.154 138.639C199.787 138.69 199.455 138.737 199.157 138.78C198.518 138.874 197.959 139.023 197.482 139.227C197.005 139.432 196.634 139.709 196.37 140.058C196.106 140.399 195.974 140.825 195.974 141.337C195.974 142.078 196.242 142.645 196.779 143.037C197.324 143.42 198.015 143.612 198.85 143.612ZM212.574 147V127.364H217.764V130.828H217.994C218.403 129.678 219.085 128.77 220.04 128.105C220.994 127.44 222.136 127.108 223.466 127.108C224.812 127.108 225.959 127.445 226.905 128.118C227.851 128.783 228.481 129.686 228.797 130.828H229.001C229.402 129.703 230.126 128.804 231.175 128.131C232.231 127.449 233.48 127.108 234.92 127.108C236.753 127.108 238.24 127.692 239.382 128.859C240.532 130.018 241.108 131.663 241.108 133.794V147H235.675V134.868C235.675 133.777 235.385 132.959 234.805 132.413C234.226 131.868 233.501 131.595 232.632 131.595C231.643 131.595 230.872 131.911 230.318 132.541C229.764 133.163 229.487 133.986 229.487 135.009V147H224.207V134.753C224.207 133.79 223.93 133.023 223.376 132.452C222.831 131.881 222.111 131.595 221.216 131.595C220.611 131.595 220.065 131.749 219.579 132.055C219.102 132.354 218.723 132.776 218.442 133.321C218.16 133.858 218.02 134.489 218.02 135.213V147H212.574ZM254.358 147.384C252.339 147.384 250.6 146.974 249.143 146.156C247.694 145.33 246.577 144.162 245.793 142.653C245.009 141.136 244.617 139.342 244.617 137.271C244.617 135.251 245.009 133.479 245.793 131.953C246.577 130.428 247.681 129.239 249.104 128.386C250.536 127.534 252.215 127.108 254.141 127.108C255.437 127.108 256.643 127.317 257.759 127.734C258.884 128.143 259.864 128.761 260.699 129.588C261.543 130.415 262.199 131.455 262.668 132.707C263.137 133.952 263.371 135.409 263.371 137.08V138.575H246.79V135.2H258.245C258.245 134.416 258.074 133.722 257.733 133.116C257.393 132.511 256.92 132.038 256.314 131.697C255.718 131.348 255.023 131.173 254.231 131.173C253.404 131.173 252.671 131.365 252.032 131.749C251.401 132.124 250.907 132.631 250.549 133.27C250.191 133.901 250.008 134.604 249.999 135.379V138.588C249.999 139.56 250.178 140.399 250.536 141.107C250.903 141.814 251.418 142.359 252.083 142.743C252.748 143.126 253.536 143.318 254.448 143.318C255.053 143.318 255.607 143.233 256.11 143.062C256.613 142.892 257.043 142.636 257.401 142.295C257.759 141.955 258.032 141.537 258.219 141.043L263.256 141.375C263.001 142.585 262.476 143.642 261.684 144.545C260.9 145.44 259.885 146.139 258.641 146.642C257.405 147.136 255.978 147.384 254.358 147.384Z" fill="#212121"/>
<path d="M60.8352 170H59.4261C59.3428 169.595 59.197 169.239 58.9886 168.932C58.7841 168.625 58.5341 168.367 58.2386 168.159C57.947 167.947 57.6231 167.788 57.267 167.682C56.911 167.576 56.5398 167.523 56.1534 167.523C55.4489 167.523 54.8106 167.701 54.2386 168.057C53.6705 168.413 53.2178 168.938 52.8807 169.631C52.5473 170.324 52.3807 171.174 52.3807 172.182C52.3807 173.189 52.5473 174.04 52.8807 174.733C53.2178 175.426 53.6705 175.951 54.2386 176.307C54.8106 176.663 55.4489 176.841 56.1534 176.841C56.5398 176.841 56.911 176.788 57.267 176.682C57.6231 176.576 57.947 176.419 58.2386 176.21C58.5341 175.998 58.7841 175.739 58.9886 175.432C59.197 175.121 59.3428 174.765 59.4261 174.364H60.8352C60.7292 174.958 60.536 175.491 60.2557 175.96C59.9754 176.43 59.6269 176.83 59.2102 177.159C58.7936 177.485 58.3258 177.733 57.8068 177.903C57.2917 178.074 56.7405 178.159 56.1534 178.159C55.161 178.159 54.2784 177.917 53.5057 177.432C52.733 176.947 52.125 176.258 51.6818 175.364C51.2386 174.47 51.017 173.409 51.017 172.182C51.017 170.955 51.2386 169.894 51.6818 169C52.125 168.106 52.733 167.417 53.5057 166.932C54.2784 166.447 55.161 166.205 56.1534 166.205C56.7405 166.205 57.2917 166.29 57.8068 166.46C58.3258 166.631 58.7936 166.881 59.2102 167.21C59.6269 167.536 59.9754 167.934 60.2557 168.403C60.536 168.869 60.7292 169.402 60.8352 170ZM68.4304 174.432V169.273H69.7713V178H68.4304V176.523H68.3395C68.1349 176.966 67.8168 177.343 67.3849 177.653C66.9531 177.96 66.4077 178.114 65.7486 178.114C65.2031 178.114 64.7183 177.994 64.294 177.756C63.8698 177.513 63.5365 177.15 63.294 176.665C63.0516 176.176 62.9304 175.561 62.9304 174.818V169.273H64.2713V174.727C64.2713 175.364 64.4493 175.871 64.8054 176.25C65.1652 176.629 65.6236 176.818 66.1804 176.818C66.5137 176.818 66.8527 176.733 67.1974 176.562C67.5459 176.392 67.8376 176.131 68.0724 175.778C68.3111 175.426 68.4304 174.977 68.4304 174.432ZM72.2273 178V169.273H73.5227V170.591H73.6136C73.7727 170.159 74.0606 169.809 74.4773 169.54C74.8939 169.271 75.3636 169.136 75.8864 169.136C75.9848 169.136 76.108 169.138 76.2557 169.142C76.4034 169.146 76.5152 169.152 76.5909 169.159V170.523C76.5455 170.511 76.4413 170.494 76.2784 170.472C76.1193 170.445 75.9508 170.432 75.7727 170.432C75.3485 170.432 74.9697 170.521 74.6364 170.699C74.3068 170.873 74.0455 171.116 73.8523 171.426C73.6629 171.733 73.5682 172.083 73.5682 172.477V178H72.2273ZM78.1804 178V169.273H79.4759V170.591H79.5668C79.7259 170.159 80.0137 169.809 80.4304 169.54C80.8471 169.271 81.3168 169.136 81.8395 169.136C81.938 169.136 82.0611 169.138 82.2088 169.142C82.3565 169.146 82.4683 169.152 82.544 169.159V170.523C82.4986 170.511 82.3944 170.494 82.2315 170.472C82.0724 170.445 81.9039 170.432 81.7259 170.432C81.3016 170.432 80.9228 170.521 80.5895 170.699C80.2599 170.873 79.9986 171.116 79.8054 171.426C79.616 171.733 79.5213 172.083 79.5213 172.477V178H78.1804ZM87.527 178.182C86.6861 178.182 85.9607 177.996 85.3509 177.625C84.7448 177.25 84.277 176.727 83.9474 176.057C83.6217 175.383 83.4588 174.598 83.4588 173.705C83.4588 172.811 83.6217 172.023 83.9474 171.341C84.277 170.655 84.7353 170.121 85.3224 169.739C85.9134 169.352 86.6027 169.159 87.3906 169.159C87.8452 169.159 88.294 169.235 88.7372 169.386C89.1804 169.538 89.5838 169.784 89.9474 170.125C90.3111 170.462 90.6009 170.909 90.8168 171.466C91.0327 172.023 91.1406 172.708 91.1406 173.523V174.091H84.4134V172.932H89.777C89.777 172.439 89.6785 172 89.4815 171.614C89.2884 171.227 89.0118 170.922 88.652 170.699C88.2959 170.475 87.8755 170.364 87.3906 170.364C86.8565 170.364 86.3944 170.496 86.0043 170.761C85.6179 171.023 85.3205 171.364 85.1122 171.784C84.9039 172.205 84.7997 172.655 84.7997 173.136V173.909C84.7997 174.568 84.9134 175.127 85.1406 175.585C85.3717 176.04 85.6918 176.386 86.1009 176.625C86.5099 176.86 86.9853 176.977 87.527 176.977C87.8793 176.977 88.1974 176.928 88.4815 176.83C88.7694 176.727 89.0175 176.576 89.2259 176.375C89.4342 176.17 89.5952 175.917 89.7088 175.614L91.0043 175.977C90.8679 176.417 90.6387 176.803 90.3168 177.136C89.9948 177.466 89.5971 177.723 89.1236 177.909C88.6501 178.091 88.1179 178.182 87.527 178.182ZM94.5213 172.75V178H93.1804V169.273H94.4759V170.636H94.5895C94.794 170.193 95.1046 169.837 95.5213 169.568C95.938 169.295 96.4759 169.159 97.1349 169.159C97.7259 169.159 98.2429 169.28 98.6861 169.523C99.1293 169.761 99.474 170.125 99.7202 170.614C99.9664 171.098 100.089 171.712 100.089 172.455V178H98.7486V172.545C98.7486 171.86 98.5705 171.326 98.2145 170.943C97.8584 170.557 97.3698 170.364 96.7486 170.364C96.3205 170.364 95.938 170.456 95.6009 170.642C95.2675 170.828 95.0043 171.098 94.8111 171.455C94.6179 171.811 94.5213 172.242 94.5213 172.75ZM106.335 169.273V170.409H101.812V169.273H106.335ZM103.131 167.182H104.472V175.5C104.472 175.879 104.527 176.163 104.636 176.352C104.75 176.538 104.894 176.663 105.068 176.727C105.246 176.788 105.434 176.818 105.631 176.818C105.778 176.818 105.9 176.811 105.994 176.795C106.089 176.777 106.165 176.761 106.222 176.75L106.494 177.955C106.403 177.989 106.277 178.023 106.114 178.057C105.951 178.095 105.744 178.114 105.494 178.114C105.116 178.114 104.744 178.032 104.381 177.869C104.021 177.706 103.722 177.458 103.483 177.125C103.248 176.792 103.131 176.371 103.131 175.864V167.182ZM109.881 166.364V178H108.54V166.364H109.881ZM113.2 181.273C112.973 181.273 112.77 181.254 112.592 181.216C112.414 181.182 112.291 181.148 112.223 181.114L112.564 179.932C112.89 180.015 113.178 180.045 113.428 180.023C113.678 180 113.899 179.888 114.092 179.688C114.289 179.491 114.469 179.17 114.632 178.727L114.882 178.045L111.655 169.273H113.109L115.518 176.227H115.609L118.018 169.273H119.473L115.768 179.273C115.602 179.723 115.395 180.097 115.149 180.392C114.903 180.691 114.617 180.913 114.291 181.057C113.969 181.201 113.606 181.273 113.2 181.273ZM129.538 169.273V170.409H125.016V169.273H129.538ZM126.334 167.182H127.675V175.5C127.675 175.879 127.73 176.163 127.839 176.352C127.953 176.538 128.097 176.663 128.271 176.727C128.449 176.788 128.637 176.818 128.834 176.818C128.982 176.818 129.103 176.811 129.197 176.795C129.292 176.777 129.368 176.761 129.425 176.75L129.697 177.955C129.607 177.989 129.48 178.023 129.317 178.057C129.154 178.095 128.947 178.114 128.697 178.114C128.319 178.114 127.947 178.032 127.584 177.869C127.224 177.706 126.925 177.458 126.686 177.125C126.451 176.792 126.334 176.371 126.334 175.864V167.182ZM133.084 172.75V178H131.743V166.364H133.084V170.636H133.197C133.402 170.186 133.709 169.828 134.118 169.562C134.531 169.294 135.08 169.159 135.766 169.159C136.36 169.159 136.881 169.278 137.328 169.517C137.775 169.752 138.122 170.114 138.368 170.602C138.618 171.087 138.743 171.705 138.743 172.455V178H137.402V172.545C137.402 171.852 137.222 171.316 136.862 170.938C136.506 170.555 136.012 170.364 135.379 170.364C134.94 170.364 134.546 170.456 134.197 170.642C133.853 170.828 133.58 171.098 133.379 171.455C133.182 171.811 133.084 172.242 133.084 172.75ZM144.855 178.182C144.014 178.182 143.289 177.996 142.679 177.625C142.073 177.25 141.605 176.727 141.276 176.057C140.95 175.383 140.787 174.598 140.787 173.705C140.787 172.811 140.95 172.023 141.276 171.341C141.605 170.655 142.063 170.121 142.651 169.739C143.241 169.352 143.931 169.159 144.719 169.159C145.173 169.159 145.622 169.235 146.065 169.386C146.509 169.538 146.912 169.784 147.276 170.125C147.639 170.462 147.929 170.909 148.145 171.466C148.361 172.023 148.469 172.708 148.469 173.523V174.091H141.741V172.932H147.105C147.105 172.439 147.007 172 146.81 171.614C146.616 171.227 146.34 170.922 145.98 170.699C145.624 170.475 145.204 170.364 144.719 170.364C144.185 170.364 143.723 170.496 143.332 170.761C142.946 171.023 142.649 171.364 142.44 171.784C142.232 172.205 142.128 172.655 142.128 173.136V173.909C142.128 174.568 142.241 175.127 142.469 175.585C142.7 176.04 143.02 176.386 143.429 176.625C143.838 176.86 144.313 176.977 144.855 176.977C145.207 176.977 145.526 176.928 145.81 176.83C146.098 176.727 146.346 176.576 146.554 176.375C146.762 176.17 146.923 175.917 147.037 175.614L148.332 175.977C148.196 176.417 147.967 176.803 147.645 177.136C147.323 177.466 146.925 177.723 146.452 177.909C145.978 178.091 145.446 178.182 144.855 178.182ZM150.509 178V169.273H151.804V170.591H151.895C152.054 170.159 152.342 169.809 152.759 169.54C153.175 169.271 153.645 169.136 154.168 169.136C154.266 169.136 154.389 169.138 154.537 169.142C154.685 169.146 154.796 169.152 154.872 169.159V170.523C154.827 170.511 154.723 170.494 154.56 170.472C154.401 170.445 154.232 170.432 154.054 170.432C153.63 170.432 153.251 170.521 152.918 170.699C152.588 170.873 152.327 171.116 152.134 171.426C151.944 171.733 151.849 172.083 151.849 172.477V178H150.509ZM159.855 178.182C159.014 178.182 158.289 177.996 157.679 177.625C157.073 177.25 156.605 176.727 156.276 176.057C155.95 175.383 155.787 174.598 155.787 173.705C155.787 172.811 155.95 172.023 156.276 171.341C156.605 170.655 157.063 170.121 157.651 169.739C158.241 169.352 158.931 169.159 159.719 169.159C160.173 169.159 160.622 169.235 161.065 169.386C161.509 169.538 161.912 169.784 162.276 170.125C162.639 170.462 162.929 170.909 163.145 171.466C163.361 172.023 163.469 172.708 163.469 173.523V174.091H156.741V172.932H162.105C162.105 172.439 162.007 172 161.81 171.614C161.616 171.227 161.34 170.922 160.98 170.699C160.624 170.475 160.204 170.364 159.719 170.364C159.185 170.364 158.723 170.496 158.332 170.761C157.946 171.023 157.649 171.364 157.44 171.784C157.232 172.205 157.128 172.655 157.128 173.136V173.909C157.128 174.568 157.241 175.127 157.469 175.585C157.7 176.04 158.02 176.386 158.429 176.625C158.838 176.86 159.313 176.977 159.855 176.977C160.207 176.977 160.526 176.928 160.81 176.83C161.098 176.727 161.346 176.576 161.554 176.375C161.762 176.17 161.923 175.917 162.037 175.614L163.332 175.977C163.196 176.417 162.967 176.803 162.645 177.136C162.323 177.466 161.925 177.723 161.452 177.909C160.978 178.091 160.446 178.182 159.855 178.182ZM170.009 178V169.273H171.349V178H170.009ZM170.69 167.818C170.429 167.818 170.204 167.729 170.014 167.551C169.829 167.373 169.736 167.159 169.736 166.909C169.736 166.659 169.829 166.445 170.014 166.267C170.204 166.089 170.429 166 170.69 166C170.952 166 171.175 166.089 171.361 166.267C171.55 166.445 171.645 166.659 171.645 166.909C171.645 167.159 171.55 167.373 171.361 167.551C171.175 167.729 170.952 167.818 170.69 167.818ZM179.987 171.227L178.783 171.568C178.707 171.367 178.595 171.172 178.447 170.983C178.304 170.79 178.107 170.631 177.857 170.506C177.607 170.381 177.286 170.318 176.896 170.318C176.362 170.318 175.917 170.441 175.561 170.688C175.209 170.93 175.033 171.239 175.033 171.614C175.033 171.947 175.154 172.21 175.396 172.403C175.639 172.597 176.018 172.758 176.533 172.886L177.828 173.205C178.608 173.394 179.19 173.684 179.572 174.074C179.955 174.46 180.146 174.958 180.146 175.568C180.146 176.068 180.002 176.515 179.714 176.909C179.43 177.303 179.033 177.614 178.521 177.841C178.01 178.068 177.415 178.182 176.737 178.182C175.847 178.182 175.11 177.989 174.527 177.602C173.944 177.216 173.574 176.652 173.419 175.909L174.692 175.591C174.813 176.061 175.042 176.413 175.379 176.648C175.72 176.883 176.165 177 176.714 177C177.339 177 177.836 176.867 178.203 176.602C178.574 176.333 178.76 176.011 178.76 175.636C178.76 175.333 178.654 175.08 178.442 174.875C178.23 174.667 177.904 174.511 177.464 174.409L176.01 174.068C175.211 173.879 174.624 173.585 174.249 173.188C173.877 172.786 173.692 172.284 173.692 171.682C173.692 171.189 173.83 170.754 174.107 170.375C174.387 169.996 174.768 169.699 175.249 169.483C175.733 169.267 176.283 169.159 176.896 169.159C177.76 169.159 178.438 169.348 178.93 169.727C179.427 170.106 179.779 170.606 179.987 171.227ZM188.006 172.75V178H186.665V169.273H187.96V170.636H188.074C188.278 170.193 188.589 169.837 189.006 169.568C189.422 169.295 189.96 169.159 190.619 169.159C191.21 169.159 191.727 169.28 192.17 169.523C192.614 169.761 192.958 170.125 193.205 170.614C193.451 171.098 193.574 171.712 193.574 172.455V178H192.233V172.545C192.233 171.86 192.055 171.326 191.699 170.943C191.343 170.557 190.854 170.364 190.233 170.364C189.805 170.364 189.422 170.456 189.085 170.642C188.752 170.828 188.489 171.098 188.295 171.455C188.102 171.811 188.006 172.242 188.006 172.75ZM199.57 178.182C198.782 178.182 198.09 177.994 197.496 177.619C196.905 177.244 196.443 176.72 196.109 176.045C195.78 175.371 195.615 174.583 195.615 173.682C195.615 172.773 195.78 171.979 196.109 171.301C196.443 170.623 196.905 170.097 197.496 169.722C198.09 169.347 198.782 169.159 199.57 169.159C200.357 169.159 201.047 169.347 201.638 169.722C202.232 170.097 202.695 170.623 203.024 171.301C203.357 171.979 203.524 172.773 203.524 173.682C203.524 174.583 203.357 175.371 203.024 176.045C202.695 176.72 202.232 177.244 201.638 177.619C201.047 177.994 200.357 178.182 199.57 178.182ZM199.57 176.977C200.168 176.977 200.661 176.824 201.047 176.517C201.433 176.21 201.719 175.807 201.905 175.307C202.09 174.807 202.183 174.265 202.183 173.682C202.183 173.098 202.09 172.555 201.905 172.051C201.719 171.547 201.433 171.14 201.047 170.83C200.661 170.519 200.168 170.364 199.57 170.364C198.971 170.364 198.479 170.519 198.092 170.83C197.706 171.14 197.42 171.547 197.234 172.051C197.049 172.555 196.956 173.098 196.956 173.682C196.956 174.265 197.049 174.807 197.234 175.307C197.42 175.807 197.706 176.21 198.092 176.517C198.479 176.824 198.971 176.977 199.57 176.977ZM213.616 178.182C212.829 178.182 212.137 177.994 211.543 177.619C210.952 177.244 210.49 176.72 210.156 176.045C209.827 175.371 209.662 174.583 209.662 173.682C209.662 172.773 209.827 171.979 210.156 171.301C210.49 170.623 210.952 170.097 211.543 169.722C212.137 169.347 212.829 169.159 213.616 169.159C214.404 169.159 215.094 169.347 215.685 169.722C216.279 170.097 216.741 170.623 217.071 171.301C217.404 171.979 217.571 172.773 217.571 173.682C217.571 174.583 217.404 175.371 217.071 176.045C216.741 176.72 216.279 177.244 215.685 177.619C215.094 177.994 214.404 178.182 213.616 178.182ZM213.616 176.977C214.215 176.977 214.707 176.824 215.094 176.517C215.48 176.21 215.766 175.807 215.952 175.307C216.137 174.807 216.23 174.265 216.23 173.682C216.23 173.098 216.137 172.555 215.952 172.051C215.766 171.547 215.48 171.14 215.094 170.83C214.707 170.519 214.215 170.364 213.616 170.364C213.018 170.364 212.526 170.519 212.139 170.83C211.753 171.14 211.467 171.547 211.281 172.051C211.096 172.555 211.003 173.098 211.003 173.682C211.003 174.265 211.096 174.807 211.281 175.307C211.467 175.807 211.753 176.21 212.139 176.517C212.526 176.824 213.018 176.977 213.616 176.977ZM220.959 172.75V178H219.618V169.273H220.913V170.636H221.027C221.232 170.193 221.542 169.837 221.959 169.568C222.375 169.295 222.913 169.159 223.572 169.159C224.163 169.159 224.68 169.28 225.124 169.523C225.567 169.761 225.911 170.125 226.158 170.614C226.404 171.098 226.527 171.712 226.527 172.455V178H225.186V172.545C225.186 171.86 225.008 171.326 224.652 170.943C224.296 170.557 223.807 170.364 223.186 170.364C222.758 170.364 222.375 170.456 222.038 170.642C221.705 170.828 221.442 171.098 221.249 171.455C221.055 171.811 220.959 172.242 220.959 172.75ZM237 181.455C236.352 181.455 235.795 181.371 235.33 181.205C234.864 181.042 234.475 180.826 234.165 180.557C233.858 180.292 233.614 180.008 233.432 179.705L234.5 178.955C234.621 179.114 234.775 179.295 234.96 179.5C235.146 179.708 235.4 179.888 235.722 180.04C236.047 180.195 236.473 180.273 237 180.273C237.705 180.273 238.286 180.102 238.744 179.761C239.203 179.42 239.432 178.886 239.432 178.159V176.386H239.318C239.22 176.545 239.08 176.742 238.898 176.977C238.72 177.208 238.462 177.415 238.125 177.597C237.792 177.775 237.341 177.864 236.773 177.864C236.068 177.864 235.436 177.697 234.875 177.364C234.318 177.03 233.877 176.545 233.551 175.909C233.229 175.273 233.068 174.5 233.068 173.591C233.068 172.697 233.225 171.919 233.54 171.256C233.854 170.589 234.292 170.074 234.852 169.71C235.413 169.343 236.061 169.159 236.795 169.159C237.364 169.159 237.814 169.254 238.148 169.443C238.485 169.629 238.742 169.841 238.92 170.08C239.102 170.314 239.242 170.508 239.341 170.659H239.477V169.273H240.773V178.25C240.773 179 240.602 179.61 240.261 180.08C239.924 180.553 239.47 180.9 238.898 181.119C238.33 181.343 237.697 181.455 237 181.455ZM236.955 176.659C237.492 176.659 237.947 176.536 238.318 176.29C238.689 176.044 238.972 175.689 239.165 175.227C239.358 174.765 239.455 174.212 239.455 173.568C239.455 172.939 239.36 172.384 239.17 171.903C238.981 171.422 238.701 171.045 238.33 170.773C237.958 170.5 237.5 170.364 236.955 170.364C236.386 170.364 235.913 170.508 235.534 170.795C235.159 171.083 234.877 171.47 234.688 171.955C234.502 172.439 234.409 172.977 234.409 173.568C234.409 174.174 234.504 174.71 234.693 175.176C234.886 175.638 235.17 176.002 235.545 176.267C235.924 176.528 236.394 176.659 236.955 176.659ZM246.773 178.182C245.985 178.182 245.294 177.994 244.699 177.619C244.108 177.244 243.646 176.72 243.312 176.045C242.983 175.371 242.818 174.583 242.818 173.682C242.818 172.773 242.983 171.979 243.312 171.301C243.646 170.623 244.108 170.097 244.699 169.722C245.294 169.347 245.985 169.159 246.773 169.159C247.561 169.159 248.25 169.347 248.841 169.722C249.436 170.097 249.898 170.623 250.227 171.301C250.561 171.979 250.727 172.773 250.727 173.682C250.727 174.583 250.561 175.371 250.227 176.045C249.898 176.72 249.436 177.244 248.841 177.619C248.25 177.994 247.561 178.182 246.773 178.182ZM246.773 176.977C247.371 176.977 247.864 176.824 248.25 176.517C248.636 176.21 248.922 175.807 249.108 175.307C249.294 174.807 249.386 174.265 249.386 173.682C249.386 173.098 249.294 172.555 249.108 172.051C248.922 171.547 248.636 171.14 248.25 170.83C247.864 170.519 247.371 170.364 246.773 170.364C246.174 170.364 245.682 170.519 245.295 170.83C244.909 171.14 244.623 171.547 244.438 172.051C244.252 172.555 244.159 173.098 244.159 173.682C244.159 174.265 244.252 174.807 244.438 175.307C244.623 175.807 244.909 176.21 245.295 176.517C245.682 176.824 246.174 176.977 246.773 176.977ZM252.774 178V169.273H254.115V178H252.774ZM253.456 167.818C253.195 167.818 252.969 167.729 252.78 167.551C252.594 167.373 252.501 167.159 252.501 166.909C252.501 166.659 252.594 166.445 252.78 166.267C252.969 166.089 253.195 166 253.456 166C253.717 166 253.941 166.089 254.126 166.267C254.316 166.445 254.411 166.659 254.411 166.909C254.411 167.159 254.316 167.373 254.126 167.551C253.941 167.729 253.717 167.818 253.456 167.818ZM257.912 172.75V178H256.571V169.273H257.866V170.636H257.98C258.185 170.193 258.495 169.837 258.912 169.568C259.329 169.295 259.866 169.159 260.526 169.159C261.116 169.159 261.634 169.28 262.077 169.523C262.52 169.761 262.865 170.125 263.111 170.614C263.357 171.098 263.48 171.712 263.48 172.455V178H262.139V172.545C262.139 171.86 261.961 171.326 261.605 170.943C261.249 170.557 260.76 170.364 260.139 170.364C259.711 170.364 259.329 170.456 258.991 170.642C258.658 170.828 258.395 171.098 258.202 171.455C258.009 171.811 257.912 172.242 257.912 172.75ZM269.453 181.455C268.805 181.455 268.249 181.371 267.783 181.205C267.317 181.042 266.929 180.826 266.618 180.557C266.311 180.292 266.067 180.008 265.885 179.705L266.953 178.955C267.074 179.114 267.228 179.295 267.413 179.5C267.599 179.708 267.853 179.888 268.175 180.04C268.5 180.195 268.927 180.273 269.453 180.273C270.158 180.273 270.739 180.102 271.197 179.761C271.656 179.42 271.885 178.886 271.885 178.159V176.386H271.771C271.673 176.545 271.533 176.742 271.351 176.977C271.173 177.208 270.915 177.415 270.578 177.597C270.245 177.775 269.794 177.864 269.226 177.864C268.521 177.864 267.889 177.697 267.328 177.364C266.771 177.03 266.33 176.545 266.004 175.909C265.682 175.273 265.521 174.5 265.521 173.591C265.521 172.697 265.679 171.919 265.993 171.256C266.307 170.589 266.745 170.074 267.305 169.71C267.866 169.343 268.514 169.159 269.249 169.159C269.817 169.159 270.268 169.254 270.601 169.443C270.938 169.629 271.196 169.841 271.374 170.08C271.555 170.314 271.696 170.508 271.794 170.659H271.93V169.273H273.226V178.25C273.226 179 273.055 179.61 272.714 180.08C272.377 180.553 271.923 180.9 271.351 181.119C270.783 181.343 270.15 181.455 269.453 181.455ZM269.408 176.659C269.946 176.659 270.4 176.536 270.771 176.29C271.143 176.044 271.425 175.689 271.618 175.227C271.811 174.765 271.908 174.212 271.908 173.568C271.908 172.939 271.813 172.384 271.624 171.903C271.434 171.422 271.154 171.045 270.783 170.773C270.411 170.5 269.953 170.364 269.408 170.364C268.839 170.364 268.366 170.508 267.987 170.795C267.612 171.083 267.33 171.47 267.141 171.955C266.955 172.439 266.862 172.977 266.862 173.568C266.862 174.174 266.957 174.71 267.146 175.176C267.339 175.638 267.624 176.002 267.999 176.267C268.377 176.528 268.847 176.659 269.408 176.659ZM283.703 181.455C283.055 181.455 282.499 181.371 282.033 181.205C281.567 181.042 281.179 180.826 280.868 180.557C280.561 180.292 280.317 180.008 280.135 179.705L281.203 178.955C281.324 179.114 281.478 179.295 281.663 179.5C281.849 179.708 282.103 179.888 282.425 180.04C282.75 180.195 283.177 180.273 283.703 180.273C284.408 180.273 284.989 180.102 285.447 179.761C285.906 179.42 286.135 178.886 286.135 178.159V176.386H286.021C285.923 176.545 285.783 176.742 285.601 176.977C285.423 177.208 285.165 177.415 284.828 177.597C284.495 177.775 284.044 177.864 283.476 177.864C282.771 177.864 282.139 177.697 281.578 177.364C281.021 177.03 280.58 176.545 280.254 175.909C279.932 175.273 279.771 174.5 279.771 173.591C279.771 172.697 279.929 171.919 280.243 171.256C280.557 170.589 280.995 170.074 281.555 169.71C282.116 169.343 282.764 169.159 283.499 169.159C284.067 169.159 284.518 169.254 284.851 169.443C285.188 169.629 285.446 169.841 285.624 170.08C285.805 170.314 285.946 170.508 286.044 170.659H286.18V169.273H287.476V178.25C287.476 179 287.305 179.61 286.964 180.08C286.627 180.553 286.173 180.9 285.601 181.119C285.033 181.343 284.4 181.455 283.703 181.455ZM283.658 176.659C284.196 176.659 284.65 176.536 285.021 176.29C285.393 176.044 285.675 175.689 285.868 175.227C286.061 174.765 286.158 174.212 286.158 173.568C286.158 172.939 286.063 172.384 285.874 171.903C285.684 171.422 285.404 171.045 285.033 170.773C284.661 170.5 284.203 170.364 283.658 170.364C283.089 170.364 282.616 170.508 282.237 170.795C281.862 171.083 281.58 171.47 281.391 171.955C281.205 172.439 281.112 172.977 281.112 173.568C281.112 174.174 281.207 174.71 281.396 175.176C281.589 175.638 281.874 176.002 282.249 176.267C282.627 176.528 283.097 176.659 283.658 176.659ZM292.499 178.205C291.946 178.205 291.444 178.1 290.993 177.892C290.542 177.68 290.184 177.375 289.919 176.977C289.654 176.576 289.521 176.091 289.521 175.523C289.521 175.023 289.62 174.617 289.817 174.307C290.014 173.992 290.277 173.746 290.607 173.568C290.936 173.39 291.3 173.258 291.697 173.17C292.099 173.08 292.502 173.008 292.908 172.955C293.438 172.886 293.868 172.835 294.197 172.801C294.531 172.763 294.773 172.701 294.925 172.614C295.08 172.527 295.158 172.375 295.158 172.159V172.114C295.158 171.553 295.004 171.117 294.697 170.807C294.394 170.496 293.934 170.341 293.317 170.341C292.677 170.341 292.175 170.481 291.811 170.761C291.447 171.042 291.192 171.341 291.044 171.659L289.771 171.205C289.999 170.674 290.302 170.261 290.68 169.966C291.063 169.667 291.48 169.458 291.93 169.341C292.385 169.22 292.832 169.159 293.271 169.159C293.552 169.159 293.874 169.193 294.237 169.261C294.605 169.326 294.959 169.46 295.3 169.665C295.644 169.869 295.93 170.178 296.158 170.591C296.385 171.004 296.499 171.557 296.499 172.25V178H295.158V176.818H295.089C294.999 177.008 294.847 177.21 294.635 177.426C294.423 177.642 294.141 177.826 293.788 177.977C293.436 178.129 293.006 178.205 292.499 178.205ZM292.703 177C293.233 177 293.68 176.896 294.044 176.688C294.411 176.479 294.688 176.21 294.874 175.881C295.063 175.551 295.158 175.205 295.158 174.841V173.614C295.101 173.682 294.976 173.744 294.783 173.801C294.593 173.854 294.374 173.902 294.124 173.943C293.877 173.981 293.637 174.015 293.402 174.045C293.171 174.072 292.983 174.095 292.839 174.114C292.491 174.159 292.165 174.233 291.862 174.335C291.563 174.434 291.321 174.583 291.135 174.784C290.953 174.981 290.862 175.25 290.862 175.591C290.862 176.057 291.035 176.409 291.379 176.648C291.728 176.883 292.169 177 292.703 177ZM298.946 178V169.273H300.241V170.636H300.355C300.537 170.17 300.83 169.809 301.236 169.551C301.641 169.29 302.128 169.159 302.696 169.159C303.272 169.159 303.751 169.29 304.134 169.551C304.52 169.809 304.821 170.17 305.037 170.636H305.128C305.351 170.186 305.687 169.828 306.134 169.562C306.58 169.294 307.116 169.159 307.741 169.159C308.522 169.159 309.16 169.403 309.656 169.892C310.152 170.377 310.401 171.133 310.401 172.159V178H309.06V172.159C309.06 171.515 308.884 171.055 308.531 170.778C308.179 170.502 307.764 170.364 307.287 170.364C306.673 170.364 306.198 170.549 305.861 170.92C305.524 171.288 305.355 171.754 305.355 172.318V178H303.991V172.023C303.991 171.527 303.83 171.127 303.509 170.824C303.187 170.517 302.772 170.364 302.264 170.364C301.916 170.364 301.59 170.456 301.287 170.642C300.988 170.828 300.745 171.085 300.56 171.415C300.378 171.741 300.287 172.117 300.287 172.545V178H298.946ZM316.511 178.182C315.67 178.182 314.945 177.996 314.335 177.625C313.729 177.25 313.261 176.727 312.932 176.057C312.606 175.383 312.443 174.598 312.443 173.705C312.443 172.811 312.606 172.023 312.932 171.341C313.261 170.655 313.72 170.121 314.307 169.739C314.898 169.352 315.587 169.159 316.375 169.159C316.83 169.159 317.278 169.235 317.722 169.386C318.165 169.538 318.568 169.784 318.932 170.125C319.295 170.462 319.585 170.909 319.801 171.466C320.017 172.023 320.125 172.708 320.125 173.523V174.091H313.398V172.932H318.761C318.761 172.439 318.663 172 318.466 171.614C318.273 171.227 317.996 170.922 317.636 170.699C317.28 170.475 316.86 170.364 316.375 170.364C315.841 170.364 315.379 170.496 314.989 170.761C314.602 171.023 314.305 171.364 314.097 171.784C313.888 172.205 313.784 172.655 313.784 173.136V173.909C313.784 174.568 313.898 175.127 314.125 175.585C314.356 176.04 314.676 176.386 315.085 176.625C315.494 176.86 315.97 176.977 316.511 176.977C316.864 176.977 317.182 176.928 317.466 176.83C317.754 176.727 318.002 176.576 318.21 176.375C318.419 176.17 318.58 175.917 318.693 175.614L319.989 175.977C319.852 176.417 319.623 176.803 319.301 177.136C318.979 177.466 318.581 177.723 318.108 177.909C317.634 178.091 317.102 178.182 316.511 178.182Z" fill="#646464"/>
<defs>
<clipPath id="clip0_14_532">
<rect width="349" height="329" fill="white"/>
</clipPath>
</defs>
</svg>
