<svg width="810" height="1080" viewBox="0 0 810 1080" fill="none" xmlns="http://www.w3.org/2000/svg">
<rect width="810" height="1080" fill="#1E1E1E"/>
<rect width="810" height="1080" fill="#25431E"/>
<g clip-path="url(#clip0_0_1)">
<path d="M484.235 512.863C484.235 520.908 484.235 528.902 484.235 536.885C484.235 543.179 484.255 549.474 484.265 555.769C484.265 555.82 484.265 555.881 484.265 555.932C484.315 557.621 484.315 557.652 482.601 557.662C475.974 557.682 469.347 557.682 462.72 557.682C461.504 557.682 461.494 557.642 461.494 556.383C461.484 545.871 461.454 535.36 461.454 524.849C461.454 514.89 461.504 504.921 461.514 494.962C461.514 489.384 461.504 483.796 461.504 478.218C461.504 477.133 461.584 477.051 462.65 477.051C471.31 477.051 479.96 477.051 488.62 477.092C488.929 477.092 489.368 477.481 489.527 477.798C490.803 480.357 492.028 482.936 493.274 485.505C494.978 489.026 496.712 492.547 498.406 496.078C500.14 499.701 501.864 503.345 503.558 506.989C504.724 509.486 505.84 512.014 506.996 514.511C507.206 514.962 507.505 515.381 507.943 515.791C507.943 514.603 507.943 513.416 507.943 512.229C507.943 502.864 507.943 493.509 507.923 484.144C507.923 482.158 507.844 480.173 507.814 478.187C507.804 477.133 507.834 477.092 508.9 477.102C511.87 477.123 514.829 477.194 517.799 477.194C521.616 477.194 525.443 477.143 529.259 477.123C530.365 477.123 530.485 477.174 530.495 478.31C530.545 481.872 530.545 485.423 530.545 488.985C530.545 511.543 530.545 534.091 530.565 556.649C530.565 557.427 530.336 557.642 529.618 557.642C522.274 557.642 514.919 557.672 507.574 557.693C507.285 557.693 506.987 557.652 506.698 557.642C506.01 557.642 505.671 557.386 505.472 556.608C505.233 555.656 504.655 554.786 504.216 553.875C501.804 548.911 499.393 543.937 496.981 538.973C494.141 533.129 491.281 527.285 488.451 521.43C487.693 519.864 487.046 518.257 486.348 516.671C485.89 515.637 485.431 514.593 484.923 513.58C484.774 513.293 484.445 513.099 484.225 512.874L484.235 512.863Z" fill="#FFC730"/>
<path d="M224.506 517.357C224.506 529.751 224.506 542.156 224.506 554.551C224.506 555.288 224.526 556.035 224.595 556.761C224.665 557.396 224.416 557.621 223.838 557.59C223.599 557.58 223.36 557.601 223.12 557.601C216.254 557.621 209.388 557.631 202.522 557.693C201.764 557.693 201.585 557.478 201.595 556.72C201.645 547.519 201.665 538.328 201.705 529.127C201.705 528.421 201.426 528.257 200.788 528.257C196.114 528.257 191.44 528.236 186.766 528.185C185.989 528.185 185.969 528.595 185.969 529.168C185.969 534.398 185.969 539.628 185.969 544.848C185.969 548.655 185.969 552.452 185.969 556.26C185.969 557.58 185.969 557.59 184.644 557.59C179.382 557.59 174.12 557.59 168.849 557.59C167.384 557.59 165.909 557.662 164.444 557.642C163.308 557.631 163.238 557.519 163.258 556.526C163.358 550.16 163.507 543.794 163.527 537.427C163.567 518.953 163.547 500.479 163.527 481.995C163.527 480.664 163.387 479.323 163.278 477.993C163.218 477.235 163.517 476.98 164.244 476.99C171.22 477.031 178.196 477.061 185.162 477.051C185.899 477.051 185.979 477.369 185.979 477.983C185.969 483.131 185.969 488.279 185.979 493.417C185.979 497.388 186.009 501.359 185.979 505.32C185.979 506.078 186.188 506.313 186.936 506.303C191.61 506.252 196.283 506.231 200.957 506.221C201.535 506.221 201.615 505.893 201.625 505.443C201.655 503.744 201.705 502.055 201.715 500.356C201.725 494.093 201.725 487.818 201.715 481.555C201.715 480.326 201.685 479.098 201.675 477.87C201.675 477.276 201.884 477.031 202.532 477.031C209.537 477.061 216.533 477.061 223.539 477.031C224.336 477.031 224.516 477.297 224.516 478.065C224.496 491.145 224.506 504.235 224.506 517.316H224.526L224.506 517.357Z" fill="#FFC730"/>
<path d="M539.733 517.428C539.733 505.494 539.733 493.56 539.733 481.626C539.733 480.449 539.683 479.272 539.693 478.095C539.693 477.01 539.743 477.051 540.779 477.061C544.785 477.102 548.792 477.113 552.808 477.113C565.713 477.113 578.628 477.113 591.533 477.113C592.44 477.113 593.357 477.133 594.254 477.02C594.922 476.939 595.081 477.113 595.081 477.778C595.061 482.568 595.081 487.358 595.081 492.148C595.081 494.174 595.101 496.201 595.151 498.217C595.171 498.882 594.812 498.923 594.344 498.923C592.42 498.923 590.497 498.964 588.574 498.964C580.502 498.964 572.43 498.964 564.358 498.964C562.335 498.964 562.325 498.964 562.315 501.001C562.315 502.587 562.345 504.174 562.325 505.76C562.325 506.262 562.534 506.333 562.963 506.333C569.46 506.323 575.947 506.323 582.445 506.323C583.501 506.323 583.491 506.323 583.491 507.388C583.491 513.959 583.491 520.529 583.491 527.1C583.491 528.185 583.501 528.195 582.445 528.195C576.117 528.216 569.779 528.236 563.451 528.267C562.315 528.267 562.315 528.298 562.325 529.444C562.325 531.327 562.355 533.221 562.325 535.104C562.325 535.585 562.464 535.739 562.903 535.728C563.919 535.708 564.936 535.708 565.952 535.708C575.409 535.708 584.877 535.708 594.334 535.698C594.892 535.698 595.061 535.851 595.061 536.435C595.041 543.005 595.041 549.576 595.041 556.147C595.041 557.621 595.041 557.621 593.517 557.621C580.312 557.621 567.118 557.611 553.914 557.621C549.669 557.621 545.413 557.652 541.168 557.672C540.899 557.672 540.63 557.621 540.371 557.652C539.813 557.703 539.703 557.437 539.713 556.925C539.733 554.458 539.733 552.002 539.733 549.535C539.733 538.83 539.733 528.124 539.733 517.428Z" fill="#FFC730"/>
<path d="M614.544 557.672C609.87 557.672 605.196 557.672 600.512 557.672C598.579 557.672 598.569 557.682 598.569 555.707C598.569 549.525 598.559 543.333 598.559 537.151C598.559 535.78 598.559 535.759 599.944 535.759C604.698 535.759 609.461 535.759 614.215 535.759C615.012 535.759 615.819 535.698 616.607 535.595C617.982 535.432 618.889 534.367 618.988 532.944C619.168 530.549 618.59 528.288 617.802 526.067C617.195 524.368 616.736 522.597 615.989 520.97C615.421 519.731 615.112 518.431 614.633 517.183C614.105 515.791 613.388 514.47 612.83 513.078C612.292 511.727 611.853 510.325 611.385 508.943C610.896 507.47 610.358 506.016 609.96 504.522C609.262 501.861 608.535 499.2 608.056 496.487C607.737 494.676 607.678 492.782 607.777 490.94C607.887 489.026 608.445 487.163 609.252 485.393C610.408 482.865 612.491 481.319 614.753 479.999C616.308 479.098 618.012 478.627 619.766 478.32C621.171 478.064 622.546 477.563 623.961 477.409C626.054 477.194 628.166 477.133 630.279 477.123C638.461 477.082 646.632 477.092 654.814 477.092C655.97 477.092 655.98 477.092 655.98 478.269C655.98 484.727 655.97 491.186 655.96 497.644C655.96 498.913 655.96 498.923 654.685 498.923C649.423 498.923 644.151 498.923 638.889 498.964C638.132 498.964 637.345 499.23 636.617 499.497C635.78 499.804 635.531 500.612 635.471 501.421C635.322 503.314 635.521 505.177 636.139 506.978C636.607 508.34 636.956 509.742 637.484 511.083C638.451 513.559 639.537 515.995 640.524 518.472C641.112 519.926 641.63 521.41 642.138 522.894C642.985 525.34 643.852 527.766 644.629 530.232C645.925 534.357 646.902 538.553 646.782 542.934C646.662 547.755 644.57 551.449 640.663 554.1C637.933 555.953 634.913 557.017 631.664 557.181C625.964 557.468 620.254 557.611 614.544 557.816C614.544 557.764 614.544 557.713 614.544 557.662V557.672Z" fill="#FFC730"/>
<path d="M341.58 477.072C350.957 477.072 360.335 477.082 369.712 477.051C370.549 477.051 370.749 477.338 370.749 478.136C370.729 484.564 370.739 491.001 370.749 497.429C370.749 498.903 370.769 498.923 369.284 498.934C364.181 498.964 359.079 498.985 353.977 499.015C352.602 499.015 352.851 499.118 352.861 500.233C352.891 504.553 352.861 508.882 352.851 513.211C352.851 515.893 352.881 518.575 352.881 521.256C352.871 526.374 352.811 531.491 352.811 536.609C352.811 543.364 352.851 550.129 352.901 556.884C352.901 557.549 352.582 557.601 352.113 557.601C349.652 557.601 347.2 557.611 344.739 557.621C340.543 557.642 336.348 557.662 332.153 557.682C331.963 557.682 331.774 557.682 331.594 557.682C330.01 557.682 330.02 557.682 330.09 556.096C330.139 554.786 330.149 553.466 330.149 552.156C330.149 536.035 330.149 519.915 330.149 503.795C330.149 502.373 330.05 500.95 330.05 499.527C330.05 498.964 329.711 499.005 329.352 499.005C326.253 498.985 323.154 498.964 320.054 498.954C317.812 498.954 315.57 498.975 313.318 498.954C312.102 498.954 312.122 498.934 312.291 497.757C312.381 497.132 312.361 496.498 312.361 495.873C312.361 490.039 312.341 484.216 312.331 478.382C312.331 477.082 312.331 477.072 313.607 477.072C322.346 477.072 331.086 477.082 339.816 477.092C340.404 477.092 340.992 477.092 341.58 477.092C341.58 477.082 341.58 477.061 341.58 477.051V477.072Z" fill="#FFC730"/>
<path d="M425.011 535.78C425.021 536.097 425.05 536.363 425.05 536.629C425.05 540.682 425.041 544.725 425.031 548.778C425.031 551.511 424.991 554.254 425.031 556.986C425.031 557.58 424.752 557.611 424.353 557.611C421.842 557.631 419.33 557.652 416.819 557.662C412.095 557.662 407.362 557.662 402.638 557.662C396.978 557.662 391.307 557.662 385.647 557.662C382.657 557.662 379.668 557.682 376.668 557.682C375.403 557.682 375.393 557.672 375.393 556.372C375.393 530.949 375.393 505.515 375.393 480.091C375.393 479.323 375.393 478.556 375.393 477.788C375.393 477.297 375.552 477.072 376.1 477.072C383.156 477.092 390.211 477.102 397.267 477.072C397.974 477.072 398.174 477.307 398.174 478.023C398.164 495.812 398.174 513.6 398.174 531.389C398.174 532.596 398.094 533.794 398.114 535.002C398.114 535.227 398.373 535.595 398.572 535.647C399.031 535.769 399.519 535.759 400.007 535.759C408.099 535.759 416.201 535.759 424.293 535.759C424.522 535.759 424.761 535.78 425.05 535.8L425.011 535.78Z" fill="#FFC730"/>
<path d="M429.595 557.713C429.595 554.499 429.595 551.439 429.595 548.369C429.595 525.135 429.595 501.892 429.595 478.658C429.595 477.02 429.595 477.061 431.149 477.072C437.139 477.102 443.118 477.092 449.107 477.092C450.173 477.092 451.24 477.092 452.456 477.092C452.456 477.532 452.456 477.983 452.456 478.433C452.436 485.792 452.396 493.151 452.396 500.52C452.396 507.193 452.446 513.877 452.446 520.55C452.446 530.427 452.416 540.303 452.406 550.19C452.406 552.411 452.376 554.622 452.446 556.843C452.466 557.611 452.177 557.703 451.569 557.703C449.914 557.682 448.26 557.703 446.596 557.703C441.274 557.703 435.963 557.703 430.641 557.703H429.595V557.713Z" fill="#FFC730"/>
<path d="M269.44 556.669C290.679 556.669 307.897 538.986 307.897 517.172C307.897 495.359 290.679 477.676 269.44 477.676C248.201 477.676 230.983 495.359 230.983 517.172C230.983 538.986 248.201 556.669 269.44 556.669Z" fill="#FFC730"/>
<path d="M284.328 503.55C285.604 509.291 277.273 512.945 277.273 512.945C284.328 500.152 270.357 486.58 270.357 486.58C270.357 510.601 247.645 512.689 247.645 531.993C247.645 541.081 253.475 546.127 260.74 548C260.72 547.98 251.831 542.31 254.113 534.193C254.113 534.193 256.206 541.828 258.597 541.092C260.979 540.355 256.266 536.639 257.242 533.211C258.219 529.782 260.501 529.004 261.747 528.021C262.982 527.039 263.75 525.186 262.514 523.129C262.514 523.129 268.423 528.513 264.607 532.034C260.79 535.554 261.079 537.223 262.982 538.297C264.886 539.372 271.373 538.195 273.466 530.171C273.466 530.171 276.615 539.372 273.466 542.412C273.466 542.412 274.991 543.978 278.04 541.429C278.04 541.429 277.333 546.629 273.306 548.338C277.641 547.56 281.658 545.882 284.528 543.487C295.141 534.613 284.328 503.55 284.328 503.55Z" fill="#25431E"/>
<g opacity="0.1">
<path d="M289.162 530.897C289.142 530.979 285.803 543.681 273.296 548.338C277.631 547.56 281.648 545.882 284.518 543.487C287.717 540.815 288.962 536.138 289.162 530.897Z" fill="#25431E"/>
</g>
<g opacity="0.1">
<path d="M248.562 525.637C247.974 527.551 247.635 529.639 247.635 531.993C247.635 540.928 253.256 545.953 260.351 547.898C252.13 544.09 248.582 525.729 248.562 525.637Z" fill="#25431E"/>
</g>
</g>
<path d="M181.68 575.232C181.547 574.056 181 573.144 180.039 572.498C179.078 571.843 177.868 571.516 176.41 571.516C175.366 571.516 174.463 571.682 173.7 572.013C172.938 572.336 172.346 572.784 171.923 573.355C171.509 573.919 171.301 574.561 171.301 575.282C171.301 575.887 171.442 576.409 171.724 576.848C172.014 577.287 172.391 577.656 172.855 577.954C173.327 578.244 173.833 578.489 174.371 578.688C174.91 578.878 175.428 579.036 175.925 579.16L178.411 579.806C179.223 580.005 180.056 580.274 180.909 580.614C181.763 580.954 182.554 581.401 183.283 581.956C184.012 582.511 184.6 583.199 185.048 584.02C185.504 584.84 185.732 585.822 185.732 586.965C185.732 588.407 185.359 589.687 184.613 590.806C183.875 591.924 182.802 592.807 181.394 593.453C179.993 594.099 178.299 594.423 176.31 594.423C174.405 594.423 172.756 594.12 171.364 593.515C169.972 592.91 168.882 592.053 168.095 590.942C167.308 589.824 166.873 588.498 166.79 586.965H170.643C170.717 587.885 171.016 588.651 171.538 589.265C172.068 589.869 172.743 590.321 173.564 590.619C174.392 590.909 175.299 591.054 176.286 591.054C177.371 591.054 178.336 590.884 179.181 590.545C180.035 590.197 180.706 589.716 181.195 589.103C181.684 588.482 181.928 587.757 181.928 586.928C181.928 586.174 181.713 585.557 181.282 585.076C180.859 584.595 180.283 584.198 179.554 583.883C178.833 583.568 178.017 583.29 177.106 583.05L174.098 582.23C172.06 581.675 170.444 580.858 169.251 579.781C168.066 578.704 167.473 577.279 167.473 575.506C167.473 574.039 167.871 572.759 168.667 571.665C169.462 570.571 170.539 569.722 171.898 569.117C173.257 568.504 174.79 568.197 176.497 568.197C178.22 568.197 179.741 568.5 181.058 569.105C182.384 569.71 183.428 570.542 184.19 571.603C184.953 572.655 185.35 573.865 185.384 575.232H181.68ZM194.321 568.545H198.982L207.085 588.332H207.384L215.487 568.545H220.148V594H216.494V575.58H216.258L208.751 593.963H205.718L198.211 575.568H197.975V594H194.321V568.545ZM231.882 594H227.806L236.966 568.545H241.403L250.563 594H246.486L239.29 573.169H239.091L231.882 594ZM232.566 584.032H245.79V587.263H232.566V584.032ZM258.239 594V568.545H267.312C269.284 568.545 270.921 568.885 272.222 569.565C273.531 570.244 274.508 571.185 275.155 572.386C275.801 573.579 276.124 574.959 276.124 576.525C276.124 578.083 275.797 579.454 275.142 580.639C274.496 581.815 273.518 582.731 272.209 583.386C270.908 584.04 269.272 584.368 267.3 584.368H260.426V581.061H266.952C268.195 581.061 269.205 580.883 269.984 580.527C270.771 580.171 271.347 579.653 271.712 578.973C272.076 578.294 272.259 577.478 272.259 576.525C272.259 575.564 272.072 574.731 271.699 574.027C271.335 573.322 270.759 572.784 269.972 572.411C269.193 572.03 268.17 571.839 266.902 571.839H262.079V594H258.239ZM270.805 582.516L277.094 594H272.719L266.554 582.516H270.805ZM283.542 571.852V568.545H303.242V571.852H295.3V594H291.472V571.852H283.542ZM311.595 594V568.545H327.554V571.852H315.436V579.607H326.721V582.901H315.436V590.694H327.703V594H311.595ZM336.684 594V568.545H345.757C347.729 568.545 349.366 568.885 350.667 569.565C351.976 570.244 352.954 571.185 353.6 572.386C354.246 573.579 354.57 574.959 354.57 576.525C354.57 578.083 354.242 579.454 353.588 580.639C352.941 581.815 351.964 582.731 350.654 583.386C349.353 584.04 347.717 584.368 345.745 584.368H338.872V581.061H345.397C346.64 581.061 347.651 580.883 348.43 580.527C349.217 580.171 349.793 579.653 350.157 578.973C350.522 578.294 350.704 577.478 350.704 576.525C350.704 575.564 350.518 574.731 350.145 574.027C349.78 573.322 349.204 572.784 348.417 572.411C347.638 572.03 346.615 571.839 345.347 571.839H340.525V594H336.684ZM349.25 582.516L355.539 594H351.164L344.999 582.516H349.25ZM376.506 594V568.545H385.827C387.634 568.545 389.129 568.844 390.314 569.44C391.499 570.029 392.386 570.828 392.974 571.839C393.562 572.842 393.856 573.973 393.856 575.232C393.856 576.293 393.662 577.188 393.272 577.917C392.883 578.638 392.361 579.218 391.706 579.657C391.06 580.088 390.347 580.403 389.568 580.602V580.85C390.414 580.892 391.238 581.165 392.042 581.67C392.854 582.168 393.525 582.876 394.055 583.796C394.586 584.716 394.851 585.834 394.851 587.152C394.851 588.453 394.544 589.621 393.931 590.657C393.326 591.684 392.39 592.5 391.122 593.105C389.854 593.702 388.234 594 386.262 594H376.506ZM380.346 590.706H385.889C387.729 590.706 389.046 590.35 389.842 589.637C390.637 588.925 391.035 588.034 391.035 586.965C391.035 586.161 390.832 585.424 390.426 584.753C390.02 584.082 389.44 583.547 388.686 583.15C387.94 582.752 387.054 582.553 386.026 582.553H380.346V590.706ZM380.346 579.558H385.492C386.353 579.558 387.128 579.392 387.816 579.06C388.512 578.729 389.063 578.265 389.469 577.668C389.883 577.063 390.09 576.351 390.09 575.531C390.09 574.478 389.722 573.596 388.984 572.883C388.247 572.171 387.116 571.814 385.591 571.814H380.346V579.558ZM403.406 594V568.545H419.365V571.852H407.246V579.607H418.532V582.901H407.246V590.694H419.514V594H403.406ZM427.239 571.852V568.545H446.939V571.852H438.997V594H435.169V571.852H427.239ZM469.176 575.232C469.043 574.056 468.496 573.144 467.535 572.498C466.574 571.843 465.364 571.516 463.906 571.516C462.862 571.516 461.959 571.682 461.196 572.013C460.434 572.336 459.842 572.784 459.419 573.355C459.005 573.919 458.798 574.561 458.798 575.282C458.798 575.887 458.938 576.409 459.22 576.848C459.51 577.287 459.887 577.656 460.351 577.954C460.824 578.244 461.329 578.489 461.868 578.688C462.406 578.878 462.924 579.036 463.421 579.16L465.907 579.806C466.719 580.005 467.552 580.274 468.405 580.614C469.259 580.954 470.05 581.401 470.779 581.956C471.508 582.511 472.097 583.199 472.544 584.02C473 584.84 473.228 585.822 473.228 586.965C473.228 588.407 472.855 589.687 472.109 590.806C471.372 591.924 470.299 592.807 468.89 593.453C467.49 594.099 465.795 594.423 463.806 594.423C461.901 594.423 460.252 594.12 458.86 593.515C457.468 592.91 456.378 592.053 455.591 590.942C454.804 589.824 454.369 588.498 454.286 586.965H458.139C458.213 587.885 458.512 588.651 459.034 589.265C459.564 589.869 460.239 590.321 461.06 590.619C461.888 590.909 462.796 591.054 463.782 591.054C464.867 591.054 465.832 590.884 466.678 590.545C467.531 590.197 468.202 589.716 468.691 589.103C469.18 588.482 469.424 587.757 469.424 586.928C469.424 586.174 469.209 585.557 468.778 585.076C468.355 584.595 467.78 584.198 467.05 583.883C466.33 583.568 465.513 583.29 464.602 583.05L461.594 582.23C459.556 581.675 457.94 580.858 456.747 579.781C455.562 578.704 454.969 577.279 454.969 575.506C454.969 574.039 455.367 572.759 456.163 571.665C456.958 570.571 458.035 569.722 459.394 569.117C460.753 568.504 462.286 568.197 463.993 568.197C465.716 568.197 467.237 568.5 468.554 569.105C469.88 569.71 470.924 570.542 471.686 571.603C472.449 572.655 472.846 573.865 472.88 575.232H469.176ZM495.08 594V568.545H510.865V571.852H498.92V579.607H509.733V582.901H498.92V594H495.08ZM518.559 594H514.482L523.642 568.545H528.08L537.24 594H533.163L525.967 573.169H525.768L518.559 594ZM519.243 584.032H532.467V587.263H519.243V584.032ZM558.594 575.232C558.461 574.056 557.914 573.144 556.953 572.498C555.992 571.843 554.782 571.516 553.324 571.516C552.28 571.516 551.377 571.682 550.614 572.013C549.852 572.336 549.26 572.784 548.837 573.355C548.423 573.919 548.216 574.561 548.216 575.282C548.216 575.887 548.356 576.409 548.638 576.848C548.928 577.287 549.305 577.656 549.769 577.954C550.241 578.244 550.747 578.489 551.286 578.688C551.824 578.878 552.342 579.036 552.839 579.16L555.325 579.806C556.137 580.005 556.97 580.274 557.823 580.614C558.677 580.954 559.468 581.401 560.197 581.956C560.926 582.511 561.515 583.199 561.962 584.02C562.418 584.84 562.646 585.822 562.646 586.965C562.646 588.407 562.273 589.687 561.527 590.806C560.79 591.924 559.717 592.807 558.308 593.453C556.908 594.099 555.213 594.423 553.224 594.423C551.319 594.423 549.67 594.12 548.278 593.515C546.886 592.91 545.796 592.053 545.009 590.942C544.222 589.824 543.787 588.498 543.704 586.965H547.557C547.631 587.885 547.93 588.651 548.452 589.265C548.982 589.869 549.657 590.321 550.478 590.619C551.306 590.909 552.214 591.054 553.2 591.054C554.285 591.054 555.25 590.884 556.096 590.545C556.949 590.197 557.62 589.716 558.109 589.103C558.598 588.482 558.842 587.757 558.842 586.928C558.842 586.174 558.627 585.557 558.196 585.076C557.773 584.595 557.198 584.198 556.468 583.883C555.748 583.568 554.931 583.29 554.02 583.05L551.012 582.23C548.974 581.675 547.358 580.858 546.165 579.781C544.98 578.704 544.387 577.279 544.387 575.506C544.387 574.039 544.785 572.759 545.581 571.665C546.376 570.571 547.453 569.722 548.812 569.117C550.171 568.504 551.704 568.197 553.411 568.197C555.134 568.197 556.655 568.5 557.972 569.105C559.298 569.71 560.342 570.542 561.104 571.603C561.867 572.655 562.264 573.865 562.298 575.232H558.594ZM569.98 571.852V568.545H589.68V571.852H581.737V594H577.909V571.852H569.98ZM598.033 594V568.545H613.992V571.852H601.873V579.607H613.159V582.901H601.873V590.694H614.141V594H598.033ZM623.122 594V568.545H632.195C634.167 568.545 635.803 568.885 637.104 569.565C638.414 570.244 639.391 571.185 640.038 572.386C640.684 573.579 641.007 574.959 641.007 576.525C641.007 578.083 640.68 579.454 640.025 580.639C639.379 581.815 638.401 582.731 637.092 583.386C635.791 584.04 634.155 584.368 632.182 584.368H625.309V581.061H631.834C633.077 581.061 634.088 580.883 634.867 580.527C635.654 580.171 636.23 579.653 636.595 578.973C636.959 578.294 637.142 577.478 637.142 576.525C637.142 575.564 636.955 574.731 636.582 574.027C636.218 573.322 635.642 572.784 634.855 572.411C634.076 572.03 633.052 571.839 631.785 571.839H626.962V594H623.122ZM635.687 582.516L641.976 594H637.601L631.437 582.516H635.687Z" fill="#FFC730"/>
<defs>
<clipPath id="clip0_0_1">
<rect width="502" height="125" fill="white" transform="translate(154 477)"/>
</clipPath>
</defs>
</svg>
