<svg width="810" height="1080" viewBox="0 0 810 1080" fill="none" xmlns="http://www.w3.org/2000/svg">
<rect width="810" height="1080" fill="#25431E"/>
<g clip-path="url(#clip0_0_6)">
<path d="M484.235 514.863C484.235 522.908 484.235 530.902 484.235 538.885C484.235 545.179 484.255 551.474 484.265 557.769C484.265 557.82 484.265 557.881 484.265 557.932C484.315 559.621 484.315 559.652 482.601 559.662C475.974 559.682 469.347 559.682 462.72 559.682C461.504 559.682 461.494 559.642 461.494 558.383C461.484 547.871 461.454 537.36 461.454 526.849C461.454 516.89 461.504 506.921 461.514 496.962C461.514 491.384 461.504 485.796 461.504 480.218C461.504 479.133 461.584 479.051 462.65 479.051C471.31 479.051 479.96 479.051 488.62 479.092C488.929 479.092 489.368 479.481 489.527 479.798C490.803 482.357 492.028 484.936 493.274 487.505C494.978 491.026 496.712 494.547 498.406 498.078C500.14 501.701 501.864 505.345 503.558 508.989C504.724 511.486 505.84 514.014 506.996 516.511C507.206 516.962 507.505 517.381 507.943 517.791C507.943 516.603 507.943 515.416 507.943 514.229C507.943 504.864 507.943 495.509 507.923 486.144C507.923 484.158 507.844 482.173 507.814 480.187C507.804 479.133 507.834 479.092 508.9 479.102C511.87 479.123 514.829 479.194 517.799 479.194C521.616 479.194 525.443 479.143 529.259 479.123C530.365 479.123 530.485 479.174 530.495 480.31C530.545 483.872 530.545 487.423 530.545 490.985C530.545 513.543 530.545 536.091 530.565 558.649C530.565 559.427 530.336 559.642 529.618 559.642C522.274 559.642 514.919 559.672 507.574 559.693C507.285 559.693 506.987 559.652 506.698 559.642C506.01 559.642 505.671 559.386 505.472 558.608C505.233 557.656 504.655 556.786 504.216 555.875C501.804 550.911 499.393 545.937 496.981 540.973C494.141 535.129 491.281 529.285 488.451 523.43C487.693 521.864 487.046 520.257 486.348 518.671C485.89 517.637 485.431 516.593 484.923 515.58C484.774 515.293 484.445 515.099 484.225 514.874L484.235 514.863Z" fill="#FFC730"/>
<path d="M224.506 519.357C224.506 531.751 224.506 544.156 224.506 556.551C224.506 557.288 224.526 558.035 224.595 558.761C224.665 559.396 224.416 559.621 223.838 559.59C223.599 559.58 223.36 559.601 223.12 559.601C216.254 559.621 209.388 559.631 202.522 559.693C201.764 559.693 201.585 559.478 201.595 558.72C201.645 549.519 201.665 540.328 201.705 531.127C201.705 530.421 201.426 530.257 200.788 530.257C196.114 530.257 191.44 530.236 186.766 530.185C185.989 530.185 185.969 530.595 185.969 531.168C185.969 536.398 185.969 541.628 185.969 546.848C185.969 550.655 185.969 554.452 185.969 558.26C185.969 559.58 185.969 559.59 184.644 559.59C179.382 559.59 174.12 559.59 168.849 559.59C167.384 559.59 165.909 559.662 164.444 559.642C163.308 559.631 163.238 559.519 163.258 558.526C163.358 552.16 163.507 545.794 163.527 539.427C163.567 520.953 163.547 502.479 163.527 483.995C163.527 482.664 163.387 481.323 163.278 479.993C163.218 479.235 163.517 478.98 164.244 478.99C171.22 479.031 178.196 479.061 185.162 479.051C185.899 479.051 185.979 479.369 185.979 479.983C185.969 485.131 185.969 490.279 185.979 495.417C185.979 499.388 186.009 503.359 185.979 507.32C185.979 508.078 186.188 508.313 186.936 508.303C191.61 508.252 196.283 508.231 200.957 508.221C201.535 508.221 201.615 507.893 201.625 507.443C201.655 505.744 201.705 504.055 201.715 502.356C201.725 496.093 201.725 489.818 201.715 483.555C201.715 482.326 201.685 481.098 201.675 479.87C201.675 479.276 201.884 479.031 202.532 479.031C209.537 479.061 216.533 479.061 223.539 479.031C224.336 479.031 224.516 479.297 224.516 480.065C224.496 493.145 224.506 506.235 224.506 519.316H224.526L224.506 519.357Z" fill="#FFC730"/>
<path d="M539.733 519.428C539.733 507.494 539.733 495.56 539.733 483.626C539.733 482.449 539.683 481.272 539.693 480.095C539.693 479.01 539.743 479.051 540.779 479.061C544.785 479.102 548.792 479.113 552.808 479.113C565.713 479.113 578.628 479.113 591.533 479.113C592.44 479.113 593.357 479.133 594.254 479.02C594.922 478.939 595.081 479.113 595.081 479.778C595.061 484.568 595.081 489.358 595.081 494.148C595.081 496.174 595.101 498.201 595.151 500.217C595.171 500.882 594.812 500.923 594.344 500.923C592.42 500.923 590.497 500.964 588.574 500.964C580.502 500.964 572.43 500.964 564.358 500.964C562.335 500.964 562.325 500.964 562.315 503.001C562.315 504.587 562.345 506.174 562.325 507.76C562.325 508.262 562.534 508.333 562.963 508.333C569.46 508.323 575.947 508.323 582.445 508.323C583.501 508.323 583.491 508.323 583.491 509.388C583.491 515.959 583.491 522.529 583.491 529.1C583.491 530.185 583.501 530.195 582.445 530.195C576.117 530.216 569.779 530.236 563.451 530.267C562.315 530.267 562.315 530.298 562.325 531.444C562.325 533.327 562.355 535.221 562.325 537.104C562.325 537.585 562.464 537.739 562.903 537.728C563.919 537.708 564.936 537.708 565.952 537.708C575.409 537.708 584.877 537.708 594.334 537.698C594.892 537.698 595.061 537.851 595.061 538.435C595.041 545.005 595.041 551.576 595.041 558.147C595.041 559.621 595.041 559.621 593.517 559.621C580.312 559.621 567.118 559.611 553.914 559.621C549.669 559.621 545.413 559.652 541.168 559.672C540.899 559.672 540.63 559.621 540.371 559.652C539.813 559.703 539.703 559.437 539.713 558.925C539.733 556.458 539.733 554.002 539.733 551.535C539.733 540.83 539.733 530.124 539.733 519.428Z" fill="#FFC730"/>
<path d="M614.544 559.672C609.87 559.672 605.196 559.672 600.512 559.672C598.579 559.672 598.569 559.682 598.569 557.707C598.569 551.525 598.559 545.333 598.559 539.151C598.559 537.78 598.559 537.759 599.944 537.759C604.698 537.759 609.461 537.759 614.215 537.759C615.012 537.759 615.819 537.698 616.607 537.595C617.982 537.432 618.889 536.367 618.988 534.944C619.168 532.549 618.59 530.288 617.802 528.067C617.195 526.368 616.736 524.597 615.989 522.97C615.421 521.731 615.112 520.431 614.633 519.183C614.105 517.791 613.388 516.47 612.83 515.078C612.292 513.727 611.853 512.325 611.385 510.943C610.896 509.47 610.358 508.016 609.96 506.522C609.262 503.861 608.535 501.2 608.056 498.487C607.737 496.676 607.678 494.782 607.777 492.94C607.887 491.026 608.445 489.163 609.252 487.393C610.408 484.865 612.491 483.319 614.753 481.999C616.308 481.098 618.012 480.627 619.766 480.32C621.171 480.064 622.546 479.563 623.961 479.409C626.054 479.194 628.166 479.133 630.279 479.123C638.461 479.082 646.632 479.092 654.814 479.092C655.97 479.092 655.98 479.092 655.98 480.269C655.98 486.727 655.97 493.186 655.96 499.644C655.96 500.913 655.96 500.923 654.685 500.923C649.423 500.923 644.151 500.923 638.889 500.964C638.132 500.964 637.345 501.23 636.617 501.497C635.78 501.804 635.531 502.612 635.471 503.421C635.322 505.314 635.521 507.177 636.139 508.978C636.607 510.34 636.956 511.742 637.484 513.083C638.451 515.559 639.537 517.995 640.524 520.472C641.112 521.926 641.63 523.41 642.138 524.894C642.985 527.34 643.852 529.766 644.629 532.232C645.925 536.357 646.902 540.553 646.782 544.934C646.662 549.755 644.57 553.449 640.663 556.1C637.933 557.953 634.913 559.017 631.664 559.181C625.964 559.468 620.254 559.611 614.544 559.816C614.544 559.764 614.544 559.713 614.544 559.662V559.672Z" fill="#FFC730"/>
<path d="M341.58 479.072C350.957 479.072 360.335 479.082 369.712 479.051C370.549 479.051 370.749 479.338 370.749 480.136C370.729 486.564 370.739 493.001 370.749 499.429C370.749 500.903 370.769 500.923 369.284 500.934C364.181 500.964 359.079 500.985 353.977 501.015C352.602 501.015 352.851 501.118 352.861 502.233C352.891 506.553 352.861 510.882 352.851 515.211C352.851 517.893 352.881 520.575 352.881 523.256C352.871 528.374 352.811 533.491 352.811 538.609C352.811 545.364 352.851 552.129 352.901 558.884C352.901 559.549 352.582 559.601 352.113 559.601C349.652 559.601 347.2 559.611 344.739 559.621C340.543 559.642 336.348 559.662 332.153 559.682C331.963 559.682 331.774 559.682 331.594 559.682C330.01 559.682 330.02 559.682 330.09 558.096C330.139 556.786 330.149 555.466 330.149 554.156C330.149 538.035 330.149 521.915 330.149 505.795C330.149 504.373 330.05 502.95 330.05 501.527C330.05 500.964 329.711 501.005 329.352 501.005C326.253 500.985 323.154 500.964 320.054 500.954C317.812 500.954 315.57 500.975 313.318 500.954C312.102 500.954 312.122 500.934 312.291 499.757C312.381 499.132 312.361 498.498 312.361 497.873C312.361 492.039 312.341 486.216 312.331 480.382C312.331 479.082 312.331 479.072 313.607 479.072C322.346 479.072 331.086 479.082 339.816 479.092C340.404 479.092 340.992 479.092 341.58 479.092C341.58 479.082 341.58 479.061 341.58 479.051V479.072Z" fill="#FFC730"/>
<path d="M425.011 537.78C425.021 538.097 425.05 538.363 425.05 538.629C425.05 542.682 425.041 546.725 425.031 550.778C425.031 553.511 424.991 556.254 425.031 558.986C425.031 559.58 424.752 559.611 424.353 559.611C421.842 559.631 419.33 559.652 416.819 559.662C412.095 559.662 407.362 559.662 402.638 559.662C396.978 559.662 391.307 559.662 385.647 559.662C382.657 559.662 379.668 559.682 376.668 559.682C375.403 559.682 375.393 559.672 375.393 558.372C375.393 532.949 375.393 507.515 375.393 482.091C375.393 481.323 375.393 480.556 375.393 479.788C375.393 479.297 375.552 479.072 376.1 479.072C383.156 479.092 390.211 479.102 397.267 479.072C397.974 479.072 398.174 479.307 398.174 480.023C398.164 497.812 398.174 515.6 398.174 533.389C398.174 534.596 398.094 535.794 398.114 537.002C398.114 537.227 398.373 537.595 398.572 537.647C399.031 537.769 399.519 537.759 400.007 537.759C408.099 537.759 416.201 537.759 424.293 537.759C424.522 537.759 424.761 537.78 425.05 537.8L425.011 537.78Z" fill="#FFC730"/>
<path d="M429.595 559.713C429.595 556.499 429.595 553.439 429.595 550.369C429.595 527.135 429.595 503.892 429.595 480.658C429.595 479.02 429.595 479.061 431.149 479.072C437.139 479.102 443.118 479.092 449.107 479.092C450.173 479.092 451.24 479.092 452.456 479.092C452.456 479.532 452.456 479.983 452.456 480.433C452.436 487.792 452.396 495.151 452.396 502.52C452.396 509.193 452.446 515.877 452.446 522.55C452.446 532.427 452.416 542.303 452.406 552.19C452.406 554.411 452.376 556.622 452.446 558.843C452.466 559.611 452.177 559.703 451.569 559.703C449.914 559.682 448.26 559.703 446.596 559.703C441.274 559.703 435.963 559.703 430.641 559.703H429.595V559.713Z" fill="#FFC730"/>
<path d="M269.44 558.669C290.679 558.669 307.897 540.986 307.897 519.172C307.897 497.359 290.679 479.676 269.44 479.676C248.201 479.676 230.983 497.359 230.983 519.172C230.983 540.986 248.201 558.669 269.44 558.669Z" fill="#FFC730"/>
<path d="M284.328 505.55C285.604 511.291 277.273 514.945 277.273 514.945C284.328 502.152 270.357 488.58 270.357 488.58C270.357 512.601 247.645 514.689 247.645 533.993C247.645 543.081 253.475 548.127 260.74 550C260.72 549.98 251.831 544.31 254.113 536.193C254.113 536.193 256.206 543.828 258.597 543.092C260.979 542.355 256.266 538.639 257.242 535.211C258.219 531.782 260.501 531.004 261.747 530.021C262.982 529.039 263.75 527.186 262.514 525.129C262.514 525.129 268.423 530.513 264.607 534.034C260.79 537.554 261.079 539.223 262.982 540.297C264.886 541.372 271.373 540.195 273.466 532.171C273.466 532.171 276.615 541.372 273.466 544.412C273.466 544.412 274.991 545.978 278.04 543.429C278.04 543.429 277.333 548.629 273.306 550.338C277.641 549.56 281.658 547.882 284.528 545.487C295.141 536.613 284.328 505.55 284.328 505.55Z" fill="#25431E"/>
<g opacity="0.1">
<path d="M289.162 532.897C289.142 532.979 285.803 545.681 273.296 550.338C277.631 549.56 281.648 547.882 284.518 545.487C287.717 542.815 288.962 538.138 289.162 532.897Z" fill="#25431E"/>
</g>
<g opacity="0.1">
<path d="M248.562 527.637C247.974 529.551 247.635 531.639 247.635 533.993C247.635 542.928 253.256 547.953 260.351 549.898C252.13 546.09 248.582 527.729 248.562 527.637Z" fill="#25431E"/>
</g>
</g>
<rect width="810" height="44" fill="#25431E"/>
<path d="M26.3207 27.2563C29.0087 27.2563 30.6053 25.1543 30.6053 21.5947C30.6053 20.2544 30.349 19.1265 29.8583 18.2549C29.1478 16.8999 27.9247 16.1675 26.3793 16.1675C24.0795 16.1675 22.4535 17.7129 22.4535 19.8809C22.4535 21.917 23.9183 23.3965 25.9325 23.3965C27.1703 23.3965 28.1737 22.8179 28.6718 21.8145H28.6937C28.6937 21.8145 28.723 21.8145 28.7303 21.8145C28.745 21.8145 28.7963 21.8145 28.7963 21.8145C28.7963 24.2314 27.8807 25.6743 26.3353 25.6743C25.4271 25.6743 24.724 25.1763 24.4823 24.3779H22.6C22.9149 26.1138 24.3871 27.2563 26.3207 27.2563ZM26.3866 21.895C25.1708 21.895 24.3065 21.0308 24.3065 19.8223C24.3065 18.6431 25.2147 17.7422 26.3939 17.7422C27.5731 17.7422 28.4813 18.6577 28.4813 19.8516C28.4813 21.0308 27.5951 21.895 26.3866 21.895Z" fill="white"/>
<path d="M33.6965 27.1538C34.3923 27.1538 34.8683 26.6558 34.8683 25.9966C34.8683 25.3301 34.3923 24.8394 33.6965 24.8394C33.008 24.8394 32.5246 25.3301 32.5246 25.9966C32.5246 26.6558 33.008 27.1538 33.6965 27.1538ZM33.6965 21.6606C34.3923 21.6606 34.8683 21.1699 34.8683 20.5107C34.8683 19.8442 34.3923 19.3535 33.6965 19.3535C33.008 19.3535 32.5246 19.8442 32.5246 20.5107C32.5246 21.1699 33.008 21.6606 33.6965 21.6606Z" fill="white"/>
<path d="M41.7241 27H43.5332V25.0298H44.9614V23.4331H43.5332V16.4312H40.8672C38.9995 19.2437 37.5127 21.5947 36.5605 23.3452V25.0298H41.7241V27ZM38.311 23.3672C39.5415 21.1992 40.6401 19.4634 41.6509 17.9692H41.7534V23.4771H38.311V23.3672Z" fill="white"/>
<path d="M48.99 27H50.8797V16.4312H48.9973L46.2361 18.3647V20.1812L48.8655 18.3354H48.99V27Z" fill="white"/>
<path opacity="0.35" d="M761.833 18.6667C761.833 17.47 762.803 16.5 764 16.5H780.667C781.863 16.5 782.833 17.47 782.833 18.6667V24.6667C782.833 25.8633 781.863 26.8333 780.667 26.8333H764C762.803 26.8333 761.833 25.8633 761.833 24.6667V18.6667Z" stroke="white"/>
<path opacity="0.4" d="M784.333 19.6667V23.6667C785.138 23.3279 785.661 22.5398 785.661 21.6667C785.661 20.7936 785.138 20.0055 784.333 19.6667Z" fill="white"/>
<path d="M763.333 19.3333C763.333 18.597 763.93 18 764.667 18H780C780.736 18 781.333 18.597 781.333 19.3333V24C781.333 24.7364 780.736 25.3333 780 25.3333H764.667C763.93 25.3333 763.333 24.7364 763.333 24V19.3333Z" fill="white"/>
<path fill-rule="evenodd" clip-rule="evenodd" d="M748.664 19.2773C750.88 19.2774 753.011 20.1289 754.617 21.6557C754.738 21.7735 754.931 21.772 755.05 21.6523L756.206 20.4857C756.266 20.4249 756.3 20.3427 756.299 20.2571C756.299 20.1715 756.264 20.0897 756.203 20.0297C751.988 15.9901 745.338 15.9901 741.123 20.0297C741.062 20.0896 741.028 20.1715 741.027 20.257C741.027 20.3426 741.06 20.4249 741.12 20.4857L742.277 21.6523C742.396 21.7722 742.589 21.7737 742.71 21.6557C744.316 20.1288 746.448 19.2773 748.664 19.2773ZM748.664 23.073C749.881 23.0729 751.055 23.5255 751.958 24.3427C752.08 24.4586 752.272 24.4561 752.391 24.337L753.546 23.1703C753.607 23.1091 753.64 23.0261 753.639 22.9399C753.638 22.8536 753.603 22.7713 753.541 22.7113C750.793 20.1549 746.537 20.1549 743.789 22.7113C743.727 22.7713 743.691 22.8536 743.69 22.9399C743.69 23.0262 743.723 23.1092 743.784 23.1703L744.939 24.337C745.058 24.4561 745.25 24.4586 745.372 24.3427C746.274 23.526 747.447 23.0735 748.664 23.073ZM750.977 25.6268C750.978 25.7133 750.944 25.7967 750.883 25.8573L748.885 27.873C748.827 27.9322 748.747 27.9656 748.664 27.9656C748.58 27.9656 748.501 27.9322 748.442 27.873L746.444 25.8573C746.383 25.7967 746.349 25.7132 746.351 25.6267C746.352 25.5402 746.39 25.4583 746.454 25.4003C747.73 24.3214 749.598 24.3214 750.873 25.4003C750.938 25.4584 750.975 25.5403 750.977 25.6268Z" fill="white"/>
<path fill-rule="evenodd" clip-rule="evenodd" d="M735 17H734C733.448 17 733 17.4477 733 18V26.6667C733 27.219 733.448 27.6667 734 27.6667H735C735.552 27.6667 736 27.219 736 26.6667V18C736 17.4477 735.552 17 735 17ZM729.333 19.3333H730.333C730.886 19.3333 731.333 19.781 731.333 20.3333V26.6667C731.333 27.219 730.886 27.6667 730.333 27.6667H729.333C728.781 27.6667 728.333 27.219 728.333 26.6667V20.3333C728.333 19.781 728.781 19.3333 729.333 19.3333ZM725.667 21.6667H724.667C724.114 21.6667 723.667 22.1144 723.667 22.6667V26.6667C723.667 27.219 724.114 27.6667 724.667 27.6667H725.667C726.219 27.6667 726.667 27.219 726.667 26.6667V22.6667C726.667 22.1144 726.219 21.6667 725.667 21.6667ZM721 23.6667H720C719.448 23.6667 719 24.1144 719 24.6667V26.6667C719 27.219 719.448 27.6667 720 27.6667H721C721.552 27.6667 722 27.219 722 26.6667V24.6667C722 24.1144 721.552 23.6667 721 23.6667Z" fill="white"/>
<path d="M194.68 577.232C194.547 576.056 194 575.144 193.039 574.498C192.078 573.843 190.868 573.516 189.41 573.516C188.366 573.516 187.463 573.682 186.7 574.013C185.938 574.336 185.346 574.784 184.923 575.355C184.509 575.919 184.301 576.561 184.301 577.282C184.301 577.887 184.442 578.409 184.724 578.848C185.014 579.287 185.391 579.656 185.855 579.954C186.327 580.244 186.833 580.489 187.371 580.688C187.91 580.878 188.428 581.036 188.925 581.16L191.411 581.806C192.223 582.005 193.056 582.274 193.909 582.614C194.763 582.954 195.554 583.401 196.283 583.956C197.012 584.511 197.6 585.199 198.048 586.02C198.504 586.84 198.732 587.822 198.732 588.965C198.732 590.407 198.359 591.687 197.613 592.806C196.875 593.924 195.802 594.807 194.394 595.453C192.993 596.099 191.299 596.423 189.31 596.423C187.405 596.423 185.756 596.12 184.364 595.515C182.972 594.91 181.882 594.053 181.095 592.942C180.308 591.824 179.873 590.498 179.79 588.965H183.643C183.717 589.885 184.016 590.651 184.538 591.265C185.068 591.869 185.743 592.321 186.564 592.619C187.392 592.909 188.299 593.054 189.286 593.054C190.371 593.054 191.336 592.884 192.181 592.545C193.035 592.197 193.706 591.716 194.195 591.103C194.684 590.482 194.928 589.757 194.928 588.928C194.928 588.174 194.713 587.557 194.282 587.076C193.859 586.595 193.283 586.198 192.554 585.883C191.833 585.568 191.017 585.29 190.106 585.05L187.098 584.23C185.06 583.675 183.444 582.858 182.251 581.781C181.066 580.704 180.473 579.279 180.473 577.506C180.473 576.039 180.871 574.759 181.667 573.665C182.462 572.571 183.539 571.722 184.898 571.117C186.257 570.504 187.79 570.197 189.497 570.197C191.22 570.197 192.741 570.5 194.058 571.105C195.384 571.71 196.428 572.542 197.19 573.603C197.953 574.655 198.35 575.865 198.384 577.232H194.68ZM205.071 570.545H209.732L217.835 590.332H218.134L226.237 570.545H230.898V596H227.244V577.58H227.008L219.501 595.963H216.468L208.961 577.568H208.725V596H205.071V570.545ZM240.382 596H236.306L245.466 570.545H249.903L259.063 596H254.986L247.79 575.169H247.591L240.382 596ZM241.066 586.032H254.29V589.263H241.066V586.032ZM264.489 596V570.545H273.562C275.534 570.545 277.171 570.885 278.472 571.565C279.781 572.244 280.758 573.185 281.405 574.386C282.051 575.579 282.374 576.959 282.374 578.525C282.374 580.083 282.047 581.454 281.392 582.639C280.746 583.815 279.768 584.731 278.459 585.386C277.158 586.04 275.522 586.368 273.55 586.368H266.676V583.061H273.202C274.445 583.061 275.455 582.883 276.234 582.527C277.021 582.171 277.597 581.653 277.962 580.973C278.326 580.294 278.509 579.478 278.509 578.525C278.509 577.564 278.322 576.731 277.949 576.027C277.585 575.322 277.009 574.784 276.222 574.411C275.443 574.03 274.42 573.839 273.152 573.839H268.329V596H264.489ZM277.055 584.516L283.344 596H278.969L272.804 584.516H277.055ZM287.542 573.852V570.545H307.242V573.852H299.3V596H295.472V573.852H287.542ZM313.345 596V570.545H329.304V573.852H317.186V581.607H328.471V584.901H317.186V592.694H329.453V596H313.345ZM336.184 596V570.545H345.257C347.229 570.545 348.866 570.885 350.167 571.565C351.476 572.244 352.454 573.185 353.1 574.386C353.746 575.579 354.07 576.959 354.07 578.525C354.07 580.083 353.742 581.454 353.088 582.639C352.441 583.815 351.464 584.731 350.154 585.386C348.853 586.04 347.217 586.368 345.245 586.368H338.372V583.061H344.897C346.14 583.061 347.151 582.883 347.93 582.527C348.717 582.171 349.293 581.653 349.657 580.973C350.022 580.294 350.204 579.478 350.204 578.525C350.204 577.564 350.018 576.731 349.645 576.027C349.28 575.322 348.704 574.784 347.917 574.411C347.138 574.03 346.115 573.839 344.847 573.839H340.025V596H336.184ZM348.75 584.516L355.039 596H350.664L344.499 584.516H348.75ZM371.506 596V570.545H380.827C382.634 570.545 384.129 570.844 385.314 571.44C386.499 572.029 387.386 572.828 387.974 573.839C388.562 574.842 388.856 575.973 388.856 577.232C388.856 578.293 388.662 579.188 388.272 579.917C387.883 580.638 387.361 581.218 386.706 581.657C386.06 582.088 385.347 582.403 384.568 582.602V582.85C385.414 582.892 386.238 583.165 387.042 583.67C387.854 584.168 388.525 584.876 389.055 585.796C389.586 586.716 389.851 587.834 389.851 589.152C389.851 590.453 389.544 591.621 388.931 592.657C388.326 593.684 387.39 594.5 386.122 595.105C384.854 595.702 383.234 596 381.262 596H371.506ZM375.346 592.706H380.889C382.729 592.706 384.046 592.35 384.842 591.637C385.637 590.925 386.035 590.034 386.035 588.965C386.035 588.161 385.832 587.424 385.426 586.753C385.02 586.082 384.44 585.547 383.686 585.15C382.94 584.752 382.054 584.553 381.026 584.553H375.346V592.706ZM375.346 581.558H380.492C381.353 581.558 382.128 581.392 382.816 581.06C383.512 580.729 384.063 580.265 384.469 579.668C384.883 579.063 385.09 578.351 385.09 577.531C385.09 576.478 384.722 575.596 383.984 574.883C383.247 574.171 382.116 573.814 380.591 573.814H375.346V581.558ZM396.156 596V570.545H412.115V573.852H399.996V581.607H411.282V584.901H399.996V592.694H412.264V596H396.156ZM417.739 573.852V570.545H437.439V573.852H429.497V596H425.669V573.852H417.739ZM457.426 577.232C457.293 576.056 456.746 575.144 455.785 574.498C454.824 573.843 453.614 573.516 452.156 573.516C451.112 573.516 450.209 573.682 449.446 574.013C448.684 574.336 448.092 574.784 447.669 575.355C447.255 575.919 447.048 576.561 447.048 577.282C447.048 577.887 447.188 578.409 447.47 578.848C447.76 579.287 448.137 579.656 448.601 579.954C449.074 580.244 449.579 580.489 450.118 580.688C450.656 580.878 451.174 581.036 451.671 581.16L454.157 581.806C454.969 582.005 455.802 582.274 456.655 582.614C457.509 582.954 458.3 583.401 459.029 583.956C459.758 584.511 460.347 585.199 460.794 586.02C461.25 586.84 461.478 587.822 461.478 588.965C461.478 590.407 461.105 591.687 460.359 592.806C459.622 593.924 458.549 594.807 457.14 595.453C455.74 596.099 454.045 596.423 452.056 596.423C450.151 596.423 448.502 596.12 447.11 595.515C445.718 594.91 444.628 594.053 443.841 592.942C443.054 591.824 442.619 590.498 442.536 588.965H446.389C446.463 589.885 446.762 590.651 447.284 591.265C447.814 591.869 448.489 592.321 449.31 592.619C450.138 592.909 451.046 593.054 452.032 593.054C453.117 593.054 454.082 592.884 454.928 592.545C455.781 592.197 456.452 591.716 456.941 591.103C457.43 590.482 457.674 589.757 457.674 588.928C457.674 588.174 457.459 587.557 457.028 587.076C456.605 586.595 456.03 586.198 455.3 585.883C454.58 585.568 453.763 585.29 452.852 585.05L449.844 584.23C447.806 583.675 446.19 582.858 444.997 581.781C443.812 580.704 443.219 579.279 443.219 577.506C443.219 576.039 443.617 574.759 444.413 573.665C445.208 572.571 446.285 571.722 447.644 571.117C449.003 570.504 450.536 570.197 452.243 570.197C453.966 570.197 455.487 570.5 456.804 571.105C458.13 571.71 459.174 572.542 459.936 573.603C460.699 574.655 461.096 575.865 461.13 577.232H457.426ZM472.354 592.52L472.167 593.875C472.043 594.869 471.832 595.905 471.533 596.982C471.243 598.067 470.941 599.074 470.626 600.002C470.319 600.93 470.067 601.668 469.868 602.214H467.233C467.341 601.701 467.49 601.005 467.68 600.126C467.871 599.256 468.057 598.283 468.24 597.206C468.422 596.128 468.559 595.031 468.65 593.912L468.774 592.52H472.354ZM490.253 596V570.545H506.037V573.852H494.093V581.607H504.906V584.901H494.093V596H490.253ZM511.482 596H507.405L516.565 570.545H521.002L530.163 596H526.086L518.89 575.169H518.691L511.482 596ZM512.165 586.032H525.39V589.263H512.165V586.032ZM549.267 577.232C549.134 576.056 548.587 575.144 547.626 574.498C546.665 573.843 545.455 573.516 543.997 573.516C542.953 573.516 542.05 573.682 541.287 574.013C540.525 574.336 539.932 574.784 539.51 575.355C539.096 575.919 538.888 576.561 538.888 577.282C538.888 577.887 539.029 578.409 539.311 578.848C539.601 579.287 539.978 579.656 540.442 579.954C540.914 580.244 541.42 580.489 541.958 580.688C542.497 580.878 543.015 581.036 543.512 581.16L545.998 581.806C546.81 582.005 547.643 582.274 548.496 582.614C549.349 582.954 550.141 583.401 550.87 583.956C551.599 584.511 552.187 585.199 552.635 586.02C553.091 586.84 553.318 587.822 553.318 588.965C553.318 590.407 552.946 591.687 552.2 592.806C551.462 593.924 550.389 594.807 548.981 595.453C547.58 596.099 545.886 596.423 543.897 596.423C541.992 596.423 540.343 596.12 538.951 595.515C537.559 594.91 536.469 594.053 535.682 592.942C534.895 591.824 534.46 590.498 534.377 588.965H538.23C538.304 589.885 538.603 590.651 539.125 591.265C539.655 591.869 540.33 592.321 541.15 592.619C541.979 592.909 542.886 593.054 543.872 593.054C544.958 593.054 545.923 592.884 546.768 592.545C547.622 592.197 548.293 591.716 548.782 591.103C549.271 590.482 549.515 589.757 549.515 588.928C549.515 588.174 549.3 587.557 548.869 587.076C548.446 586.595 547.87 586.198 547.141 585.883C546.42 585.568 545.604 585.29 544.693 585.05L541.685 584.23C539.647 583.675 538.031 582.858 536.838 581.781C535.653 580.704 535.06 579.279 535.06 577.506C535.06 576.039 535.458 574.759 536.253 573.665C537.049 572.571 538.126 571.722 539.485 571.117C540.844 570.504 542.377 570.197 544.084 570.197C545.807 570.197 547.328 570.5 548.645 571.105C549.971 571.71 551.015 572.542 551.777 573.603C552.54 574.655 552.937 575.865 552.97 577.232H549.267ZM558.403 573.852V570.545H578.102V573.852H570.16V596H566.332V573.852H558.403ZM584.206 596V570.545H600.165V573.852H588.046V581.607H599.332V584.901H588.046V592.694H600.314V596H584.206ZM607.045 596V570.545H616.118C618.09 570.545 619.726 570.885 621.027 571.565C622.336 572.244 623.314 573.185 623.96 574.386C624.607 575.579 624.93 576.959 624.93 578.525C624.93 580.083 624.603 581.454 623.948 582.639C623.302 583.815 622.324 584.731 621.015 585.386C619.714 586.04 618.077 586.368 616.105 586.368H609.232V583.061H615.757C617 583.061 618.011 582.883 618.79 582.527C619.577 582.171 620.153 581.653 620.518 580.973C620.882 580.294 621.064 579.478 621.064 578.525C621.064 577.564 620.878 576.731 620.505 576.027C620.141 575.322 619.565 574.784 618.778 574.411C617.999 574.03 616.975 573.839 615.708 573.839H610.885V596H607.045ZM619.61 584.516L625.899 596H621.524L615.36 584.516H619.61Z" fill="#FFC730"/>
<defs>
<clipPath id="clip0_0_6">
<rect width="502" height="125" fill="white" transform="translate(154 479)"/>
</clipPath>
</defs>
</svg>
