<?xml version="1.0" standalone="no"?>
<!DOCTYPE svg PUBLIC "-//W3C//DTD SVG 20010904//EN"
 "http://www.w3.org/TR/2001/REC-SVG-20010904/DTD/svg10.dtd">
<svg version="1.0" xmlns="http://www.w3.org/2000/svg"
 width="481.000000pt" height="519.000000pt" viewBox="0 0 481.000000 519.000000"
 preserveAspectRatio="xMidYMid meet">

<g transform="translate(0.000000,519.000000) scale(0.100000,-0.100000)"
fill="#000000" stroke="none">
<path d="M1332 4459 c-19 -6 -53 -29 -77 -53 -38 -39 -44 -50 -51 -107 l-9
-64 -150 -5 c-142 -5 -153 -7 -210 -35 -78 -39 -154 -114 -191 -190 l-29 -60
0 -1275 0 -1275 28 -57 c41 -83 103 -147 183 -188 l69 -35 1272 -3 c1257 -2
1272 -2 1326 18 118 44 210 134 243 236 8 27 18 97 21 155 l6 106 61 6 c215
21 376 166 376 338 0 27 -20 131 -44 232 -45 185 -125 517 -236 977 -34 140
-83 345 -110 455 -27 110 -52 220 -55 245 -22 153 -87 244 -225 316 -52 27
-63 29 -207 32 l-153 4 0 26 c0 80 -52 160 -125 193 -28 13 -64 19 -125 19
-105 0 -150 -12 -197 -53 -41 -36 -58 -71 -68 -140 l-7 -48 -102 3 c-100 3
-101 3 -104 28 -8 76 -16 95 -59 141 -54 58 -86 69 -206 69 -157 0 -230 -55
-246 -185 l-6 -50 -107 -3 -108 -3 0 38 c-1 46 -22 107 -47 135 -10 11 -40 31
-68 44 -41 20 -65 24 -140 23 -49 0 -105 -5 -123 -10z m238 -117 c15 -12 24
-33 27 -65 l6 -47 -148 0 -148 0 6 47 c8 71 28 83 142 83 74 0 97 -4 115 -18z
m734 -8 c19 -20 26 -37 26 -65 l0 -39 -145 0 c-162 0 -166 2 -145 65 18 55 41
65 146 65 85 0 93 -2 118 -26z m727 -4 c24 -23 30 -37 27 -62 l-3 -33 -145 0
-145 0 1 39 c1 30 8 46 28 63 24 20 38 23 117 23 87 0 92 -1 120 -30z m-1831
-312 c0 -93 4 -119 21 -155 31 -63 78 -96 148 -101 65 -5 85 9 79 55 -3 24
-10 30 -50 43 -84 27 -88 34 -88 160 l0 110 309 0 309 0 4 -124 c3 -120 4
-126 33 -168 17 -24 46 -51 65 -60 40 -21 120 -24 138 -6 29 29 -1 88 -44 88
-13 0 -38 13 -56 29 l-33 29 0 104 0 103 306 3 306 2 5 -112 c5 -121 21 -169
70 -215 61 -57 188 -57 188 0 0 23 -31 57 -52 57 -31 0 -85 37 -92 63 -3 12
-6 64 -6 115 l0 93 338 -3 c331 -3 338 -3 382 -26 68 -36 127 -99 150 -160 18
-46 20 -78 20 -252 l0 -200 -1467 2 -1468 3 0 200 c0 227 8 263 73 332 77 82
132 101 295 102 l117 1 0 -112z m2450 -1233 l0 -605 -187 0 c-258 0 -304 -13
-405 -117 -39 -40 -66 -79 -85 -123 -25 -62 -27 -75 -31 -262 l-4 -198 -1002
0 -1001 0 -51 24 c-63 29 -114 79 -145 142 l-24 49 -3 835 c-1 459 0 840 2
847 4 11 281 13 1471 13 l1465 0 0 -605z m274 -80 c37 -154 92 -382 122 -506
64 -260 64 -272 -8 -354 -52 -59 -129 -95 -215 -103 l-63 -5 1 814 1 814 47
-190 c26 -104 78 -316 115 -470z m-365 -642 c-8 -9 -124 -126 -259 -261 l-245
-244 -3 129 c-3 145 5 192 49 263 58 95 148 128 343 129 119 1 127 0 115 -16z
m89 -356 l-3 -283 -30 -59 c-36 -70 -113 -129 -190 -145 -34 -7 -443 -9 -1270
-8 l-1220 3 -46 21 c-86 40 -151 122 -173 217 -8 33 -3 34 38 2 17 -13 59 -37
91 -52 l60 -28 1056 -3 1055 -2 310 309 c170 170 313 310 317 310 4 1 7 -126
5 -282z"/>
<path d="M1070 3191 c-8 -19 -10 -76 -8 -171 3 -127 5 -143 22 -156 15 -10 55
-14 161 -14 195 0 185 -11 185 189 0 109 -4 161 -12 169 -8 8 -61 12 -174 12
l-162 0 -12 -29z m255 -151 l0 -75 -77 -3 -78 -3 0 81 0 81 78 -3 77 -3 0 -75z"/>
<path d="M1702 3208 c-8 -8 -12 -60 -12 -169 0 -199 -10 -189 181 -189 123 0
139 2 163 21 26 20 26 21 26 163 0 197 11 186 -189 186 -109 0 -161 -4 -169
-12z m248 -168 l0 -81 -77 3 -78 3 -3 64 c-2 35 -1 70 2 77 4 10 27 14 81 14
l75 0 0 -80z"/>
<path d="M2326 3204 c-13 -13 -16 -42 -16 -165 0 -198 -9 -189 185 -189 193 0
185 -8 185 186 0 81 -5 154 -10 165 -10 18 -23 19 -170 19 -131 0 -161 -3
-174 -16z m244 -164 l0 -80 -75 0 -75 0 0 80 0 80 75 0 75 0 0 -80z"/>
<path d="M2949 3203 c-10 -12 -15 -55 -16 -160 -2 -141 -2 -145 22 -169 23
-23 29 -24 163 -24 194 0 185 -8 184 189 0 102 -4 157 -12 167 -10 11 -45 14
-170 14 -134 0 -160 -2 -171 -17z m251 -163 l0 -80 -80 0 -80 0 0 80 0 80 80
0 80 0 0 -80z"/>
<path d="M2052 2685 c-86 -24 -158 -63 -219 -118 -75 -69 -124 -147 -152 -242
-30 -100 -26 -237 10 -330 45 -118 141 -225 261 -290 102 -56 304 -64 422 -18
96 38 190 115 245 202 68 107 85 161 85 281 1 130 -16 190 -83 293 -61 93
-149 165 -246 202 -88 34 -240 43 -323 20z m243 -107 c77 -19 150 -67 204
-133 81 -100 96 -141 96 -265 0 -97 -2 -110 -32 -172 -64 -135 -178 -220 -326
-241 -62 -9 -85 -8 -148 7 -95 23 -115 34 -189 102 -139 129 -171 316 -85 491
87 176 279 261 480 211z"/>
<path d="M2142 2538 c-7 -7 -12 -27 -12 -45 0 -18 -4 -33 -10 -33 -16 0 -80
-61 -96 -91 -7 -15 -14 -47 -14 -69 0 -89 59 -154 157 -174 46 -9 60 -16 73
-38 13 -25 13 -31 0 -55 -35 -62 -94 -56 -120 12 -22 57 -28 65 -55 65 -88 0
-61 -156 36 -205 22 -12 29 -23 29 -45 0 -34 23 -60 54 -60 30 0 46 19 51 61
2 19 8 35 12 36 35 12 77 50 90 80 17 41 19 116 4 154 -14 37 -79 88 -121 95
-71 11 -80 15 -93 42 -24 46 6 92 59 92 36 0 64 -29 64 -65 0 -30 19 -45 55
-45 43 0 57 30 43 93 -9 44 -44 87 -93 114 -8 5 -18 22 -21 38 -3 16 -10 35
-16 42 -13 16 -60 17 -76 1z"/>
<path d="M1076 2638 c-13 -18 -16 -52 -16 -163 0 -195 -9 -185 181 -185 85 0
159 5 170 10 18 10 19 23 19 175 0 152 -1 165 -19 175 -11 5 -85 10 -170 10
-144 0 -151 -1 -165 -22z m249 -163 l0 -70 -77 -3 -78 -3 0 76 0 76 78 -3 77
-3 0 -70z"/>
<path d="M2954 2646 c-17 -13 -19 -27 -19 -169 0 -116 3 -158 14 -170 11 -15
37 -17 171 -17 116 0 160 3 168 13 7 8 12 77 13 171 2 145 1 160 -16 172 -27
20 -303 20 -331 0z m246 -171 l0 -75 -80 0 -80 0 0 75 0 75 80 0 80 0 0 -75z"/>
<path d="M1084 2086 c-17 -13 -19 -29 -22 -156 -2 -95 0 -152 8 -171 l12 -29
162 0 c113 0 166 4 174 12 8 8 12 60 12 169 0 200 10 189 -185 189 -106 0
-146 -4 -161 -14z m241 -176 l0 -75 -77 -3 -78 -3 0 81 0 81 78 -3 77 -3 0
-75z"/>
</g>
</svg>
