<svg width="68" height="68" viewBox="0 0 68 68" fill="none" xmlns="http://www.w3.org/2000/svg">
<path d="M50.6631 34.0117C50.6631 43.21 43.1982 50.6749 34 50.6749C24.8018 50.6749 17.3369 43.21 17.3369 34.0117C17.3369 24.8135 24.8018 17.3486 34 17.3486C43.1982 17.3486 50.6631 24.8135 50.6631 34.0117Z" fill="#FFC800"/>
<path d="M48.0859 45.8446C48.9064 45.0588 50.6513 42.2624 51.2868 40.321C53.0202 41.881 55.077 44.4002 56.4984 47.0233C53.5286 47.0926 50.293 46.561 48.0859 45.8446Z" fill="#FFC800"/>
<path d="M40.2747 51.3102C41.5921 50.8017 41.3956 50.9057 43.1867 49.9582C44.7121 48.9413 43.6143 49.8195 45.8214 48.1208C47.1387 52.4195 46.977 56.5448 46.977 56.5448C46.977 56.5448 43.2907 54.6035 40.2632 51.3102H40.2747Z" fill="#FFC800"/>
<path d="M30.7759 52.1422C34.8319 52.6275 35.0399 52.3155 36.1839 52.2924C36.7848 52.2115 37.1777 52.1306 37.1777 52.1306C36.5768 54.9039 35.2248 57.9777 33.9652 60C32.4745 57.5271 31.3768 54.7537 30.7759 52.1422Z" fill="#FFC800"/>
<path d="M22.1558 48.0977C22.9416 48.9181 25.7381 50.6514 27.6794 51.2985C26.0385 53.1128 23.5309 55.1234 20.9772 56.5101C20.9078 53.4941 21.4509 50.2585 22.1558 48.0977Z" fill="#FFC800"/>
<path d="M16.6896 40.2747C17.198 41.5921 17.094 41.3956 18.03 43.1867C19.0469 44.7121 18.1802 43.6143 19.8674 45.8214C15.5687 47.1387 11.4434 46.977 11.4434 46.977C11.4434 46.977 13.3847 43.2907 16.678 40.2632L16.6896 40.2747Z" fill="#FFC800"/>
<path d="M15.8578 30.7874C15.5804 33.1217 15.6267 32.2319 15.592 33.9883C15.5458 34.7972 15.696 35.5945 15.7076 36.1954C15.7884 36.7963 15.8693 37.1777 15.8693 37.1777C13.1076 36.5768 10.0569 35.2479 8 33.9652C10.4613 32.4861 13.2578 31.3768 15.8578 30.7759V30.7874Z" fill="#FFC800"/>
<path d="M19.9139 22.1556C19.9139 22.1556 19.625 22.4329 19.2899 22.9413C18.3192 24.2818 17.3139 25.8533 16.713 27.6791C14.8988 26.0382 12.8881 23.5307 11.5015 20.9769C14.4712 20.9076 17.6721 21.4276 19.9139 22.1556Z" fill="#FFC800"/>
<path d="M27.7251 16.7015C24.7553 17.857 23.5536 18.8277 22.1784 19.8908C20.8611 15.5921 21.0229 11.4668 21.0229 11.4668C21.0229 11.4668 24.7207 13.4197 27.7367 16.7015H27.7251Z" fill="#FFC800"/>
<path d="M37.224 15.8578C33.168 15.3724 32.96 15.6844 31.816 15.7076C31.2152 15.7884 30.8223 15.8693 30.8223 15.8693C31.4116 13.1884 32.6943 10.1493 34.0347 8C35.3752 10.2302 36.5769 13.0267 37.224 15.8578Z" fill="#FFC800"/>
<path d="M45.8444 19.9137C45.0586 19.0932 42.2737 17.3599 40.3208 16.7128C41.8808 14.9794 44.3999 12.9226 47.023 11.5012C47.0924 14.5172 46.5492 17.7528 45.8444 19.9137Z" fill="#FFC800"/>
<path d="M51.3101 27.7368C50.8017 26.4195 50.9057 26.6159 49.9697 24.8248C48.9528 23.2995 49.8194 24.3973 48.1323 22.1902C52.431 20.8728 56.5563 21.0346 56.5563 21.0346C56.5563 21.0346 54.6034 24.7324 51.3217 27.7368H51.3101Z" fill="#FFC800"/>
<path d="M52.1424 37.224C52.4197 34.8898 52.3735 35.768 52.4082 34.0232C52.4544 33.2143 52.3042 32.4169 52.2926 31.816C52.2117 31.2267 52.1309 30.8223 52.1309 30.8223C54.9157 31.4347 57.978 32.7752 60.0002 34.0347C57.77 35.3752 54.9735 36.5769 52.1424 37.224Z" fill="#FFC800"/>
<path d="M50.6631 34C50.6631 43.2098 43.2098 50.6631 34 50.6631H33.9769C24.7902 50.6631 17.3369 43.1982 17.3369 34C17.3369 24.8018 24.7902 17.3485 33.9769 17.3369H34C43.2098 17.3369 50.6631 24.8018 50.6631 34Z" fill="#FFC800"/>
<path d="M56.4985 47.0233C53.5288 47.1042 50.2932 46.5726 48.0977 45.8446C48.9181 45.0588 50.6514 42.2624 51.287 40.321C53.0203 41.881 55.0772 44.4002 56.4985 47.0233Z" fill="#FFC800"/>
<path d="M46.9882 56.5448C46.9882 56.5448 43.302 54.6035 40.2744 51.3102C41.5802 50.8017 41.3953 50.9057 43.1864 49.9697C44.7233 48.9644 43.6255 49.8311 45.8326 48.1208C47.1384 52.4195 46.9882 56.5448 46.9882 56.5448Z" fill="#FFC800"/>
<path d="M37.1775 52.1306C36.5766 54.8924 35.2477 57.9546 33.9766 59.9768C33.9766 59.9768 33.9766 59.9768 33.9766 60C32.4975 57.5386 31.3882 54.7537 30.7988 52.1422C32.3242 52.3155 33.2948 52.3964 33.9882 52.408C35.1322 52.4426 35.4904 52.304 36.1953 52.2924C36.7962 52.2115 37.189 52.1306 37.189 52.1306H37.1775Z" fill="#FFC800"/>
<path d="M22.1558 48.0977C22.9416 48.9181 25.7381 50.6514 27.6794 51.2985C26.0385 53.1128 23.5309 55.1234 20.9772 56.5101C20.9078 53.4941 21.4509 50.2585 22.1558 48.0977Z" fill="#FFC800"/>
<path d="M16.6896 40.2747C17.198 41.5921 17.094 41.3956 18.03 43.1867C19.0469 44.7121 18.1802 43.6143 19.8674 45.8214C15.5687 47.1387 11.4434 46.977 11.4434 46.977C11.4434 46.977 13.3847 43.2907 16.678 40.2632L16.6896 40.2747Z" fill="#FFC800"/>
<path d="M15.8578 30.7874C15.5804 33.1217 15.6267 32.2319 15.592 33.9883C15.5458 34.7972 15.696 35.5945 15.7076 36.1954C15.7884 36.7963 15.8693 37.1777 15.8693 37.1777C13.1076 36.5768 10.0569 35.2479 8 33.9652C10.4613 32.4861 13.2578 31.3768 15.8578 30.7759V30.7874Z" fill="#FFC800"/>
<path d="M19.9139 22.1556C19.9139 22.1556 19.625 22.4329 19.2899 22.9413C18.3192 24.2818 17.3139 25.8533 16.713 27.6791C14.8988 26.0382 12.8881 23.5307 11.5015 20.9769C14.4712 20.9076 17.6721 21.4276 19.9139 22.1556Z" fill="#FFC800"/>
<path d="M27.7251 16.7015C24.7553 17.857 23.5536 18.8277 22.1784 19.8908C20.8611 15.5921 21.0229 11.4668 21.0229 11.4668C21.0229 11.4668 24.7207 13.4197 27.7367 16.7015H27.7251Z" fill="#FFC800"/>
<path d="M37.2239 15.8578C35.6639 15.6729 34.6701 15.6036 33.9768 15.592C32.8674 15.5689 32.5092 15.7076 31.8043 15.7191C31.215 15.8 30.8105 15.8809 30.8105 15.8809C31.3883 13.2231 32.6594 10.2418 33.9652 8.09244C33.9883 8.05778 33.9999 8.03467 34.023 8C35.3634 10.2302 36.5652 13.0382 37.2123 15.8578H37.2239Z" fill="#FFC800"/>
<path d="M45.8444 19.9137C45.0701 19.1048 42.2737 17.3599 40.3208 16.7128C41.8924 14.991 44.3999 12.9341 47.023 11.5012C47.1039 14.5172 46.5608 17.7528 45.8444 19.9137Z" fill="#FFC800"/>
<path d="M56.5451 21.0234C56.5451 21.0234 54.5922 24.7096 51.3104 27.7372C50.802 26.4198 50.906 26.6163 49.97 24.8136C48.9531 23.2883 49.8198 24.386 48.1211 22.1789C52.4198 20.8616 56.5451 21.0234 56.5451 21.0234Z" fill="#FFC800"/>
<path d="M52.408 34.0232C52.4543 33.2143 52.304 32.4285 52.2925 31.816C52.2 31.2267 52.1191 30.8223 52.1191 30.8223C54.8925 31.4347 57.9663 32.7752 59.9885 34.0347C57.7698 35.3752 54.9618 36.5769 52.1307 37.224C52.4196 34.8898 52.3503 35.768 52.3965 34.0232H52.408Z" fill="#FFC800"/>
<path d="M37.2242 15.8578C35.6642 15.6729 34.6704 15.6036 33.9771 15.592V8.09244C33.9771 8.09244 34.0117 8.03467 34.0348 8C35.3753 10.2302 36.577 13.0382 37.2242 15.8578Z" fill="#FFDC00"/>
<path d="M36.1842 52.3039C36.7851 52.223 37.1779 52.1421 37.1779 52.1421C36.5771 54.9039 35.2482 57.9661 33.9771 59.9883V52.4194C35.1211 52.4541 35.4793 52.3154 36.1842 52.3039Z" fill="#FFDC00"/>
<path d="M34.0002 50.6631H33.9771V17.3369H34.0002C43.2099 17.3369 50.6633 24.8018 50.6633 34C50.6633 43.1982 43.2099 50.6631 34.0002 50.6631Z" fill="#FFDC00"/>
<path d="M45.8326 48.1208C47.1384 52.4195 46.9882 56.5448 46.9882 56.5448C46.9882 56.5448 43.302 54.6035 40.2744 51.3102C41.5802 50.8017 41.3953 50.9057 43.1864 49.9697C44.7233 48.9644 43.6255 49.8311 45.8326 48.1208Z" fill="#FFDC00"/>
<path d="M45.8444 19.9137C45.0701 19.1048 42.2737 17.3599 40.3208 16.7128C41.8924 14.991 44.3999 12.9341 47.023 11.5012C47.1039 14.5172 46.5608 17.7528 45.8444 19.9137Z" fill="#FFDC00"/>
<path d="M56.4985 47.0233C53.5288 47.1042 50.2932 46.5726 48.0977 45.8446C48.9181 45.0588 50.6514 42.2624 51.287 40.321C53.0203 41.881 55.0772 44.4002 56.4985 47.0233Z" fill="#FFDC00"/>
<path d="M49.97 24.8136C48.9531 23.2883 49.8198 24.386 48.1211 22.1789C52.4198 20.8616 56.5451 21.0234 56.5451 21.0234C56.5451 21.0234 54.5922 24.7096 51.3104 27.7372C50.802 26.4198 50.906 26.6163 49.97 24.8136Z" fill="#FFDC00"/>
<path d="M52.408 34.0232C52.4543 33.2143 52.304 32.4285 52.2925 31.816C52.2 31.2267 52.1191 30.8223 52.1191 30.8223C54.8925 31.4347 57.9663 32.7752 59.9885 34.0347C57.7698 35.3752 54.9618 36.5769 52.1307 37.224C52.4196 34.8898 52.3503 35.768 52.3965 34.0232H52.408Z" fill="#FFDC00"/>
<path d="M48.7566 34.0001H47.0233C47.0233 26.8241 41.1762 20.977 34.0002 20.977L33.9771 19.2437H34.0002C42.1353 19.2437 48.7566 25.865 48.7566 34.0001Z" fill="white"/>
<path d="M43.6257 33.9999C43.6257 39.327 39.3155 43.6372 33.9884 43.6372H33.9653C28.6497 43.6141 24.3511 39.3154 24.3511 33.9999C24.3511 28.6843 28.6497 24.3857 33.9653 24.3625H33.9884C39.3155 24.3625 43.6257 28.6843 43.6257 33.9999Z" fill="#FFC800"/>
<path d="M33.977 24.3741V43.6372C28.6615 43.6141 24.3628 39.3154 24.3628 33.9999C24.3628 28.6843 28.6615 24.3857 33.977 24.3625V24.3741Z" fill="#FFDC00"/>
</svg>
