<svg width="68" height="68" viewBox="0 0 68 68" fill="none" xmlns="http://www.w3.org/2000/svg">
<path d="M30.2172 29.416C30.2172 35.9396 24.928 41.2174 18.4157 41.2174C11.9034 41.2174 6.61426 35.9283 6.61426 29.416C6.61426 22.9036 11.9034 17.6145 18.4157 17.6145C24.928 17.6145 30.2172 22.9036 30.2172 29.416Z" fill="#FFC800"/>
<path d="M28.3937 37.8079C28.9826 37.2529 30.2058 35.2709 30.6588 33.8892C31.882 34.9991 33.3431 36.7772 34.3511 38.646C32.2445 38.6913 29.9566 38.3175 28.3937 37.8079Z" fill="#FFC800"/>
<path d="M22.8554 41.6818C23.7842 41.3194 23.6482 41.3987 24.9167 40.7304C25.9927 40.0169 25.2225 40.6285 26.7855 39.428C27.7255 42.4746 27.6009 45.3967 27.6009 45.3967C27.6009 45.3967 24.996 44.0149 22.8441 41.6931L22.8554 41.6818Z" fill="#FFC800"/>
<path d="M16.1279 42.2708C18.9934 42.6106 19.1519 42.3954 19.956 42.3728C20.3751 42.3162 20.6582 42.2595 20.6582 42.2595C20.2279 44.2302 19.2765 46.4048 18.3817 47.8318C17.3285 46.0763 16.547 44.117 16.1279 42.2708Z" fill="#FFC800"/>
<path d="M10.0233 39.405C10.5896 39.994 12.5603 41.2172 13.942 41.6702C12.7868 42.95 10.9973 44.377 9.1965 45.3624C9.15119 43.2331 9.53627 40.934 10.0346 39.405H10.0233Z" fill="#FFC800"/>
<path d="M6.14991 33.8668C6.51234 34.7955 6.43307 34.6596 7.10129 35.9281C7.81482 37.0154 7.20322 36.2339 8.40375 37.7968C5.35712 38.7369 2.43506 38.6123 2.43506 38.6123C2.43506 38.6123 3.81681 35.996 6.13859 33.8555L6.14991 33.8668Z" fill="#FFC800"/>
<path d="M5.56096 27.1392C5.3571 28.7927 5.4024 28.1698 5.37975 29.4043C5.34577 29.9706 5.44769 30.5369 5.45902 30.9673C5.51565 31.3863 5.57228 31.6695 5.57228 31.6695C3.61292 31.2391 1.4497 30.2991 0 29.4043C1.74417 28.351 3.72619 27.5695 5.56096 27.1505V27.1392Z" fill="#FFC800"/>
<path d="M8.42637 21.0235C8.42637 21.0235 8.2225 21.2273 7.98466 21.5784C7.29379 22.5298 6.59159 23.6397 6.16121 24.9309C4.8814 23.7756 3.45434 21.9975 2.46899 20.1854C4.57559 20.1287 6.84076 20.5025 8.42637 21.0235Z" fill="#FFC800"/>
<path d="M13.9647 17.1611C11.8581 17.9766 11.0087 18.6675 10.0347 19.415C9.09463 16.3683 9.21921 13.4463 9.21921 13.4463C9.21921 13.4463 11.8355 14.828 13.976 17.1498L13.9647 17.1611Z" fill="#FFC800"/>
<path d="M20.6922 16.5724C17.8154 16.2213 17.6682 16.4479 16.8641 16.4705C16.445 16.5271 16.1619 16.5838 16.1619 16.5838C16.5809 14.681 17.487 12.5405 18.4383 11.0115C19.3897 12.5858 20.2391 14.5678 20.6922 16.5724Z" fill="#FFC800"/>
<path d="M26.7968 19.4378C26.2418 18.8602 24.2711 17.6257 22.8781 17.1727C23.988 15.9495 25.7661 14.4885 27.6236 13.4805C27.6689 15.6097 27.2838 17.9088 26.7854 19.4378H26.7968Z" fill="#FFC800"/>
<path d="M30.6702 24.9761C30.3078 24.0474 30.3871 24.1833 29.7189 22.9148C29.0053 21.8388 29.6169 22.609 28.4164 21.046C31.463 20.106 34.3851 20.2306 34.3851 20.2306C34.3851 20.2306 33.0033 22.8468 30.6815 24.9874L30.6702 24.9761Z" fill="#FFC800"/>
<path d="M31.2591 31.7037C31.463 30.0501 31.4177 30.673 31.4403 29.4385C31.4743 28.8722 31.3724 28.3059 31.361 27.8755C31.3044 27.4565 31.2478 27.1733 31.2365 27.1733C33.2071 27.6037 35.3817 28.5551 36.8087 29.4498C35.2344 30.4012 33.2411 31.2506 31.2478 31.7037H31.2591Z" fill="#FFC800"/>
<path d="M30.2172 29.416C30.2172 35.9396 24.9394 41.2174 18.4157 41.2174H18.4044C11.8921 41.2174 6.61426 35.9283 6.61426 29.416C6.61426 22.9036 11.8921 17.6145 18.4044 17.6145H18.4157C24.9394 17.6145 30.2172 22.9036 30.2172 29.416Z" fill="#FFC800"/>
<path d="M34.3511 38.6461C32.2445 38.7028 29.9567 38.3177 28.405 37.808C28.9826 37.2531 30.2171 35.2711 30.6588 33.9006C31.882 35.0106 33.3431 36.7887 34.3511 38.6461Z" fill="#FFC800"/>
<path d="M27.6123 45.3853C27.6123 45.3853 24.996 44.0036 22.8555 41.6818C23.7842 41.3194 23.6483 41.3987 24.9168 40.7304C26.004 40.0169 25.2226 40.6285 26.7969 39.428C27.7256 42.4746 27.6123 45.3967 27.6123 45.3967V45.3853Z" fill="#FFC800"/>
<path d="M20.6583 42.2595C20.2392 44.2189 19.2879 46.3821 18.3931 47.8205C18.3931 47.8205 18.3931 47.8205 18.3931 47.8318C17.3511 46.0876 16.5583 44.117 16.1393 42.2708C17.2152 42.3954 17.9061 42.4521 18.4044 42.4634C19.2199 42.486 19.4691 42.3954 19.9674 42.3841C20.3978 42.3275 20.6696 42.2708 20.6696 42.2708L20.6583 42.2595Z" fill="#FFC800"/>
<path d="M10.0233 39.405C10.5896 39.994 12.5603 41.2172 13.942 41.6702C12.7868 42.95 10.9973 44.377 9.1965 45.3624C9.15119 43.2331 9.53627 40.934 10.0346 39.405H10.0233Z" fill="#FFC800"/>
<path d="M6.14991 33.8668C6.51234 34.7955 6.43307 34.6596 7.10129 35.9281C7.81482 37.0154 7.20322 36.2339 8.40375 37.7968C5.35712 38.7369 2.43506 38.6123 2.43506 38.6123C2.43506 38.6123 3.81681 35.996 6.13859 33.8555L6.14991 33.8668Z" fill="#FFC800"/>
<path d="M5.56096 27.1392C5.3571 28.7927 5.4024 28.1698 5.37975 29.4043C5.34577 29.9706 5.44769 30.5369 5.45902 30.9673C5.51565 31.3863 5.57228 31.6695 5.57228 31.6695C3.61292 31.2391 1.4497 30.2991 0 29.4043C1.74417 28.351 3.72619 27.5695 5.56096 27.1505V27.1392Z" fill="#FFC800"/>
<path d="M8.42637 21.0235C8.42637 21.0235 8.2225 21.2273 7.98466 21.5784C7.29379 22.5298 6.59159 23.6397 6.16121 24.9309C4.8814 23.7756 3.45434 21.9975 2.46899 20.1854C4.57559 20.1287 6.84076 20.5025 8.42637 21.0235Z" fill="#FFC800"/>
<path d="M13.9647 17.1611C11.8581 17.9766 11.0087 18.6675 10.0347 19.415C9.09463 16.3683 9.21921 13.4463 9.21921 13.4463C9.21921 13.4463 11.8355 14.828 13.976 17.1498L13.9647 17.1611Z" fill="#FFC800"/>
<path d="M20.6922 16.561C19.5936 16.4251 18.88 16.3797 18.393 16.3684C17.6002 16.3571 17.3511 16.4477 16.8527 16.459C16.4337 16.5157 16.1505 16.5836 16.1505 16.5836C16.5582 14.7035 17.453 12.5856 18.3817 11.068C18.393 11.0453 18.4044 11.034 18.427 11C19.3784 12.5856 20.2278 14.5676 20.6808 16.561H20.6922Z" fill="#FFC800"/>
<path d="M26.7968 19.4378C26.2418 18.8602 24.2711 17.6257 22.8894 17.1727C23.9993 15.9495 25.7775 14.4998 27.6349 13.4805C27.6915 15.6097 27.3065 17.9088 26.7968 19.4378Z" fill="#FFC800"/>
<path d="M34.3738 20.2193C34.3738 20.2193 32.992 22.8356 30.6702 24.9762C30.3078 24.0361 30.3871 24.1834 29.7189 22.9035C28.994 21.8276 29.6169 22.6091 28.4164 21.0348C31.463 20.0948 34.3851 20.2193 34.3851 20.2193H34.3738Z" fill="#FFC800"/>
<path d="M31.4517 29.4385C31.4857 28.8609 31.3837 28.3059 31.3724 27.8755C31.3044 27.4565 31.2592 27.1733 31.2592 27.1733C33.2298 27.6037 35.4044 28.5551 36.8314 29.4498C35.2572 30.4012 33.2751 31.2506 31.2705 31.7037C31.4743 30.0501 31.429 30.673 31.463 29.4385H31.4517Z" fill="#FFC800"/>
<path d="M20.6922 16.561C19.5936 16.425 18.8801 16.3797 18.3931 16.3684V11.068C18.3931 11.068 18.4157 11.034 18.4384 11C19.3897 12.5856 20.2392 14.5676 20.6922 16.561Z" fill="#FFDC00"/>
<path d="M19.956 42.384C20.3864 42.3274 20.6582 42.2708 20.6582 42.2708C20.2392 44.2301 19.2878 46.3933 18.3931 47.8317V42.4746C19.2085 42.4973 19.4577 42.4067 19.956 42.3953V42.384Z" fill="#FFDC00"/>
<path d="M18.4044 41.2174H18.3931V17.6145H18.4044C24.928 17.6145 30.2058 22.9036 30.2058 29.416C30.2058 35.9283 24.928 41.2174 18.4044 41.2174Z" fill="#FFDC00"/>
<path d="M26.7969 39.4165C27.7256 42.4631 27.6123 45.3852 27.6123 45.3852C27.6123 45.3852 24.996 44.0034 22.8555 41.6817C23.7842 41.3192 23.6483 41.3985 24.9168 40.7303C26.004 40.0168 25.2226 40.6284 26.7969 39.4278V39.4165Z" fill="#FFDC00"/>
<path d="M26.7968 19.4378C26.2418 18.8602 24.2711 17.6257 22.8894 17.1727C23.9993 15.9495 25.7775 14.4998 27.6349 13.4805C27.6915 15.6097 27.3065 17.9088 26.7968 19.4378Z" fill="#FFDC00"/>
<path d="M34.3511 38.6461C32.2445 38.7028 29.9567 38.3177 28.405 37.808C28.9826 37.2531 30.2171 35.2711 30.6588 33.9006C31.882 35.0106 33.3431 36.7887 34.3511 38.6461Z" fill="#FFDC00"/>
<path d="M29.7189 22.9035C28.994 21.8276 29.6169 22.6091 28.4164 21.0348C31.463 20.0948 34.3851 20.2193 34.3851 20.2193C34.3851 20.2193 33.0033 22.8356 30.6815 24.9762C30.3191 24.0361 30.3984 24.1834 29.7302 22.9035H29.7189Z" fill="#FFDC00"/>
<path d="M31.4517 29.4385C31.4857 28.8609 31.3837 28.3059 31.3724 27.8755C31.3044 27.4565 31.2592 27.1733 31.2592 27.1733C33.2298 27.6037 35.4044 28.5551 36.8314 29.4498C35.2572 30.4012 33.2751 31.2506 31.2705 31.7037C31.4743 30.0501 31.429 30.673 31.463 29.4385H31.4517Z" fill="#FFDC00"/>
<path d="M28.9148 29.4157H27.5783C27.5783 24.3644 23.4671 20.2532 18.4158 20.2532V18.9167C24.2146 18.9167 28.9261 23.6283 28.9261 29.4271L28.9148 29.4157Z" fill="white"/>
<path d="M67.9887 46.0077C67.9887 48.8504 66.8448 51.4327 64.976 53.2901C63.1072 55.1476 60.5363 56.3028 57.6935 56.3028H14.6216C9.68353 56.3028 5.67419 52.2935 5.67419 47.3554C5.67419 42.4174 9.68353 38.4194 14.6216 38.4194C16.2072 38.4194 17.6909 38.8271 18.982 39.5633C18.7781 38.9857 18.6422 38.3514 18.6422 37.6945C18.6422 34.6819 21.0886 32.2468 24.1012 32.2468C25.8794 32.2468 27.465 33.1076 28.4617 34.4327C28.9374 27.6033 34.3737 22.1442 41.2032 21.6912C41.509 21.6686 41.8261 21.6572 42.1432 21.6572C49.7315 21.6572 55.8814 27.8071 55.8814 35.3841C55.8814 35.554 55.8587 35.7238 55.8587 35.8937C56.459 35.7805 57.0819 35.7239 57.7048 35.7239C63.3904 35.7239 68 40.3334 68 46.019L67.9887 46.0077Z" fill="#F0F0F0"/>
<path d="M67.9887 46.0078C67.9887 48.8505 66.8448 51.4328 64.9761 53.2902C63.1073 55.1477 60.5364 56.3029 57.6936 56.3029H41.2032V21.68C41.509 21.6573 41.8261 21.646 42.1433 21.646C49.7315 21.646 55.8815 27.7959 55.8815 35.3728C55.8815 35.5427 55.8588 35.7126 55.8588 35.8825C56.4591 35.7692 57.082 35.7126 57.7049 35.7126C63.3904 35.7126 68 40.3222 68 46.0078H67.9887Z" fill="#F0F0F0"/>
</svg>
