<svg width="68" height="61" viewBox="0 0 68 61" fill="none" xmlns="http://www.w3.org/2000/svg">
<path d="M29.8347 19.8759C29.8347 26.5812 24.3957 32.0201 17.6905 32.0201C10.9852 32.0201 5.54626 26.5812 5.54626 19.8759C5.54626 13.1707 10.9852 7.73169 17.6905 7.73169C24.3957 7.73169 29.8347 13.1707 29.8347 19.8759Z" fill="#FFC800"/>
<path d="M27.9653 28.5111C28.5683 27.9323 29.8346 25.8942 30.2929 24.4832C31.5471 25.6288 33.0546 27.4619 34.0917 29.3674C31.921 29.4156 29.5693 29.0297 27.9653 28.5111Z" fill="#FFC800"/>
<path d="M22.2611 32.4905C23.2138 32.1167 23.0691 32.2011 24.3836 31.5137C25.4931 30.778 24.6972 31.4051 26.3012 30.175C27.2659 33.3106 27.1453 36.3135 27.1453 36.3135C27.1453 36.3135 24.456 34.9025 22.2611 32.5026V32.4905Z" fill="#FFC800"/>
<path d="M15.3508 33.0934C18.3055 33.4552 18.4622 33.226 19.2944 33.2019C19.7285 33.1416 20.018 33.0813 20.018 33.0813C19.5718 35.1073 18.5949 37.3384 17.6784 38.8218C16.593 37.0249 15.797 34.9988 15.3508 33.0934Z" fill="#FFC800"/>
<path d="M9.0676 30.1509C9.64647 30.7539 11.6725 32.0201 13.0956 32.4784C11.9016 33.805 10.0686 35.2642 8.21136 36.2773C8.16312 34.0824 8.56109 31.7307 9.0676 30.1509Z" fill="#FFC800"/>
<path d="M5.08797 24.4468C5.46182 25.3995 5.3774 25.2668 6.06481 26.5693C6.80046 27.6788 6.17335 26.8829 7.40345 28.4868C4.2679 29.4516 1.26501 29.331 1.26501 29.331C1.26501 29.331 2.67602 26.6417 5.07592 24.4468H5.08797Z" fill="#FFC800"/>
<path d="M4.47291 17.5364C4.2679 19.2368 4.30407 18.5976 4.27995 19.876C4.24377 20.4669 4.35232 21.0458 4.36438 21.4799C4.42468 21.9141 4.48497 22.2035 4.48497 22.2035C2.47098 21.7694 0.239923 20.7925 -1.25549 19.8639C0.541418 18.7906 2.57952 17.9705 4.47291 17.5364Z" fill="#FFC800"/>
<path d="M7.42753 11.241C7.42753 11.241 7.21045 11.4461 6.96925 11.8079C6.25772 12.7847 5.53415 13.9304 5.1 15.269C3.77342 14.0751 2.31417 12.242 1.30115 10.3848C3.45985 10.3366 5.79946 10.7104 7.42753 11.241Z" fill="#FFC800"/>
<path d="M13.1198 7.26158C10.949 8.10576 10.0807 8.81729 9.07972 9.58912C8.11494 6.45357 8.23554 3.45068 8.23554 3.45068C8.23554 3.45068 10.9249 4.87374 13.1198 7.26158Z" fill="#FFC800"/>
<path d="M20.042 6.65858C17.0874 6.30885 16.9306 6.53799 16.0985 6.55005C15.6643 6.61035 15.3749 6.67065 15.3749 6.67065C15.797 4.71696 16.7376 2.49795 17.7145 0.930176C18.6913 2.55825 19.5596 4.59636 20.042 6.65858Z" fill="#FFC800"/>
<path d="M26.3253 9.6132C25.7585 9.02227 23.7204 7.74393 22.2974 7.28566C23.431 6.03144 25.2761 4.52396 27.1816 3.48682C27.2298 5.6817 26.8318 8.04542 26.3253 9.6132Z" fill="#FFC800"/>
<path d="M30.305 15.3053C29.9311 14.3526 30.0155 14.4852 29.3281 13.1828C28.5925 12.0733 29.2196 12.8692 27.9895 11.2653C31.1251 10.3005 34.1279 10.4211 34.1279 10.4211C34.1279 10.4211 32.7049 13.1104 30.317 15.3053H30.305Z" fill="#FFC800"/>
<path d="M30.908 22.2277C31.1131 20.5273 31.0769 21.1664 31.101 19.8881C31.1372 19.2972 31.0286 18.7303 31.0166 18.2841C30.9563 17.85 30.896 17.5605 30.896 17.5605C32.922 18.0068 35.1531 18.9836 36.6365 19.9002C35.0084 20.877 32.9703 21.7453 30.908 22.2277Z" fill="#FFC800"/>
<path d="M29.8347 19.8759C29.8347 26.5932 24.3957 32.0201 17.6905 32.0201H17.6784C10.9852 32.0201 5.54626 26.5812 5.54626 19.8759C5.54626 13.1707 10.9732 7.74375 17.6784 7.73169H17.6905C24.3957 7.73169 29.8347 13.1707 29.8347 19.8759Z" fill="#FFC800"/>
<path d="M34.0917 29.3674C31.933 29.4277 29.5693 29.0297 27.9653 28.5111C28.5683 27.9323 29.8226 25.9062 30.2929 24.4832C31.5592 25.6288 33.0546 27.4499 34.0917 29.3674Z" fill="#FFC800"/>
<path d="M27.1574 36.3015C27.1574 36.3015 24.4681 34.8905 22.2732 32.4906C23.2259 32.1168 23.0933 32.2012 24.3957 31.5138C25.5173 30.7781 24.7093 31.4052 26.3253 30.1631C27.278 33.2986 27.1695 36.3015 27.1695 36.3015H27.1574Z" fill="#FFC800"/>
<path d="M20.0059 33.0814C19.5718 35.0954 18.5949 37.3264 17.6784 38.7977C17.6784 38.7977 17.6784 38.7977 17.6784 38.8098C16.6051 37.0129 15.7971 34.9868 15.3629 33.0814C16.4724 33.2141 17.1839 33.2623 17.6904 33.2744C18.5226 33.2985 18.7879 33.202 19.2944 33.1899C19.7286 33.1296 20.018 33.0693 20.018 33.0693L20.0059 33.0814Z" fill="#FFC800"/>
<path d="M9.0676 30.1509C9.64647 30.7539 11.6725 32.0201 13.0956 32.4784C11.9016 33.805 10.0686 35.2642 8.21136 36.2773C8.16312 34.0824 8.56109 31.7307 9.0676 30.1509Z" fill="#FFC800"/>
<path d="M5.08797 24.4468C5.46182 25.3995 5.3774 25.2668 6.06481 26.5693C6.80046 27.6788 6.17335 26.8829 7.40345 28.4868C4.2679 29.4516 1.26501 29.331 1.26501 29.331C1.26501 29.331 2.67602 26.6417 5.07592 24.4468H5.08797Z" fill="#FFC800"/>
<path d="M4.47291 17.5364C4.2679 19.2368 4.30407 18.5976 4.27995 19.876C4.24377 20.4669 4.35232 21.0458 4.36438 21.4799C4.42468 21.9141 4.48497 22.2035 4.48497 22.2035C2.47098 21.7694 0.239923 20.7925 -1.25549 19.8639C0.541418 18.7906 2.57952 17.9705 4.47291 17.5364Z" fill="#FFC800"/>
<path d="M7.42753 11.241C7.42753 11.241 7.21045 11.4461 6.96925 11.8079C6.25772 12.7847 5.53415 13.9304 5.1 15.269C3.77342 14.0751 2.31417 12.242 1.30115 10.3848C3.45985 10.3366 5.79946 10.7104 7.42753 11.241Z" fill="#FFC800"/>
<path d="M13.1198 7.26158C10.949 8.10576 10.0807 8.81729 9.07972 9.58912C8.11494 6.45357 8.23554 3.45068 8.23554 3.45068C8.23554 3.45068 10.9249 4.87374 13.1198 7.26158Z" fill="#FFC800"/>
<path d="M20.042 6.65848C18.9084 6.52583 18.1848 6.47759 17.6783 6.46553C16.8703 6.45347 16.605 6.54995 16.0985 6.56201C15.6643 6.62231 15.3749 6.68261 15.3749 6.68261C15.797 4.75304 16.7256 2.57022 17.6783 1.00244C17.6904 0.978322 17.7024 0.966258 17.7145 0.942139C18.6913 2.57021 19.5717 4.60832 20.042 6.67055V6.65848Z" fill="#FFC800"/>
<path d="M26.3253 9.6132C25.7585 9.02227 23.7325 7.74393 22.2974 7.28566C23.443 6.03144 25.2641 4.53602 27.1816 3.48682C27.2419 5.6817 26.8439 8.04542 26.3253 9.6132Z" fill="#FFC800"/>
<path d="M34.1159 10.4211C34.1159 10.4211 32.6928 13.1104 30.305 15.3053C29.9311 14.3405 30.0155 14.4852 29.3281 13.1828C28.5804 12.0733 29.2196 12.8692 27.9774 11.2653C31.113 10.3005 34.1159 10.4211 34.1159 10.4211Z" fill="#FFC800"/>
<path d="M31.101 19.8881C31.1372 19.2972 31.0286 18.7183 31.0166 18.2841C30.9563 17.85 30.896 17.5605 30.896 17.5605C32.922 18.0068 35.1531 18.9836 36.6244 19.9002C35.0084 20.877 32.9703 21.7574 30.896 22.2277C31.101 20.5273 31.0528 21.1664 31.0889 19.9002L31.101 19.8881Z" fill="#FFC800"/>
<path d="M20.0421 6.65848C18.9085 6.52583 18.1849 6.47759 17.6783 6.46553V1.00244C17.6783 1.00244 17.7025 0.966258 17.7145 0.942139C18.6914 2.57021 19.5717 4.60832 20.0421 6.67055V6.65848Z" fill="#FFDC00"/>
<path d="M19.2823 33.2141C19.7165 33.1538 20.0059 33.0935 20.0059 33.0935C19.5717 35.1075 18.5949 37.3386 17.6783 38.8099V33.2985C18.5105 33.3226 18.7758 33.2262 19.2823 33.2141Z" fill="#FFDC00"/>
<path d="M17.6904 32.0201H17.6783V7.73169H17.6904C24.3956 7.73169 29.8346 13.1707 29.8346 19.8759C29.8346 26.5812 24.3956 32.0201 17.6904 32.0201Z" fill="#FFDC00"/>
<path d="M26.3132 30.1631C27.266 33.2986 27.1574 36.3015 27.1574 36.3015C27.1574 36.3015 24.4681 34.8905 22.2732 32.4906C23.2259 32.1168 23.0933 32.2012 24.3957 31.5138C25.5173 30.7781 24.7093 31.4052 26.3253 30.1631H26.3132Z" fill="#FFDC00"/>
<path d="M26.3253 9.6132C25.7585 9.02227 23.7325 7.74393 22.2974 7.28566C23.443 6.03144 25.2641 4.53602 27.1816 3.48682C27.2419 5.6817 26.8439 8.04542 26.3253 9.6132Z" fill="#FFDC00"/>
<path d="M34.0917 29.3674C31.933 29.4277 29.5693 29.0297 27.9653 28.5111C28.5683 27.9323 29.8226 25.9062 30.2929 24.4832C31.5592 25.6288 33.0546 27.4499 34.0917 29.3674Z" fill="#FFDC00"/>
<path d="M29.3281 13.1828C28.5804 12.0733 29.2196 12.8692 27.9774 11.2653C31.113 10.3005 34.1159 10.4211 34.1159 10.4211C34.1159 10.4211 32.6928 13.1104 30.305 15.3053C29.9311 14.3405 30.0155 14.4852 29.3281 13.1828Z" fill="#FFDC00"/>
<path d="M31.101 19.8881C31.1372 19.2972 31.0286 18.7183 31.0166 18.2841C30.9563 17.85 30.896 17.5605 30.896 17.5605C32.922 18.0068 35.1531 18.9836 36.6244 19.9002C35.0084 20.877 32.9703 21.7574 30.896 22.2277C31.101 20.5273 31.0528 21.1664 31.0889 19.9002L31.101 19.8881Z" fill="#FFDC00"/>
<path d="M28.508 19.8759H27.1331C27.1331 14.6781 22.9002 10.4451 17.7024 10.4451V9.07031C23.6599 9.07031 28.508 13.9184 28.508 19.8759Z" fill="#F0F0F0"/>
<path d="M68.6914 36.9406C68.6914 39.8591 67.5095 42.5123 65.592 44.4298C63.6745 46.3352 61.0213 47.5292 58.1029 47.5292H13.7951C8.71795 47.5292 4.59351 43.4047 4.59351 38.3275C4.59351 33.2503 8.71795 29.1259 13.7951 29.1259C15.4232 29.1259 16.9548 29.548 18.2814 30.2957C18.0643 29.6927 17.9316 29.0535 17.9316 28.3782C17.9316 25.2788 20.4401 22.7704 23.5515 22.7704C25.3846 22.7704 27.0127 23.6507 28.0377 25.0256C28.5201 18.0068 34.128 12.3869 41.1468 11.9165C41.4724 11.8924 41.7859 11.8804 42.1115 11.8804C49.9142 11.8804 56.2336 18.2118 56.2336 26.0145C56.2336 26.1954 56.2095 26.3642 56.2095 26.533C56.8245 26.4245 57.4637 26.3521 58.1149 26.3521C63.9639 26.3521 68.7155 31.0916 68.7155 36.9406H68.6914Z" fill="#F0F0F0"/>
<path d="M68.6914 36.9406C68.6914 39.8591 67.5096 42.5123 65.592 44.4298C63.6745 46.3352 61.0214 47.5292 58.1029 47.5292H41.1348V11.9165C41.4604 11.8924 41.7739 11.8804 42.0996 11.8804C49.9022 11.8804 56.2216 18.2118 56.2216 26.0145C56.2216 26.1954 56.1975 26.3642 56.1975 26.533C56.8125 26.4245 57.4517 26.3521 58.1029 26.3521C63.9519 26.3521 68.7035 31.0916 68.7035 36.9406H68.6914Z" fill="#F0F0F0"/>
<path d="M54.4609 54.3429C54.4609 58.0211 51.47 60.9999 47.7918 60.9999C44.1135 60.9999 41.1348 58.0211 41.1348 54.3429C41.1348 50.6646 47.7918 41.2339 47.7918 41.2339C47.7918 41.2339 54.4609 50.6526 54.4609 54.3429Z" fill="#96DCF0"/>
<path d="M54.4608 54.3428C54.4608 58.021 51.47 60.9998 47.7917 60.9998V41.2458C47.7917 41.2458 54.4608 50.6646 54.4608 54.3549V54.3428Z" fill="#A0E6FA"/>
<path d="M47.7917 59.1666V58.25C49.9505 58.25 51.6991 56.5014 51.6991 54.3547H52.6157C52.6157 57.0079 50.457 59.1666 47.7917 59.1666Z" fill="#F0F0F0"/>
<path d="M37.0706 47.7461C37.0706 49.5672 35.5993 51.0385 33.7783 51.0385C31.9573 51.0385 30.486 49.5672 30.486 47.7461C30.486 45.9251 33.7783 41.27 33.7783 41.27C33.7783 41.27 37.0706 45.9251 37.0706 47.7461Z" fill="#96DCF0"/>
<path d="M37.0705 47.7461C37.0705 49.5672 35.5992 51.0385 33.7782 51.0385V41.27C33.7782 41.27 37.0705 45.9251 37.0705 47.7461Z" fill="#A0E6FA"/>
</svg>
