<svg width="68" height="68" viewBox="0 0 68 68" fill="none" xmlns="http://www.w3.org/2000/svg">
<g clip-path="url(#clip0_142_340)">
<path d="M68 34.7366C68 37.843 66.7457 40.6446 64.7061 42.6842C62.6664 44.7122 59.8649 45.9782 56.7585 45.9782H9.76451C4.37234 45.9782 0 41.6058 0 36.2136C0 30.8215 4.37234 26.4608 9.76451 26.4608C11.4994 26.4608 13.117 26.9063 14.5237 27.7034C14.301 27.0587 14.1603 26.3788 14.1603 25.6637C14.1603 22.3698 16.8212 19.7206 20.1152 19.7206C22.0493 19.7206 23.7842 20.6584 24.8626 22.1119C25.3784 14.6684 31.3098 8.71353 38.7651 8.20948C39.105 8.18604 39.4449 8.17432 39.7849 8.17432C48.049 8.17432 54.7658 14.8911 54.7658 23.1552C54.7658 23.3427 54.7423 23.5186 54.7306 23.7061C55.387 23.5889 56.0552 23.5186 56.7468 23.5186C62.9478 23.5186 67.9766 28.5474 67.9766 34.7366H68Z" fill="#F0F0F0"/>
<path d="M68.0001 34.7366C68.0001 37.843 66.7458 40.6446 64.7062 42.6842C62.6665 44.7122 59.8649 45.9782 56.7586 45.9782H38.7651V8.20948C39.1051 8.18604 39.445 8.17432 39.785 8.17432C48.0491 8.17432 54.7658 14.8911 54.7658 23.1552C54.7658 23.3427 54.7424 23.5186 54.7307 23.7061C55.3871 23.5889 56.0553 23.5186 56.7469 23.5186C62.9479 23.5186 67.9766 28.5474 67.9766 34.7366H68.0001Z" fill="#F0F0F0"/>
<path d="M52.9136 53.1993C52.9136 57.1028 49.7486 60.256 45.8452 60.256C41.9417 60.256 38.7767 57.1028 38.7767 53.1993C38.7767 49.2958 45.8452 39.2969 45.8452 39.2969C45.8452 39.2969 52.9136 49.2841 52.9136 53.1993Z" fill="#96DCF0"/>
<path d="M52.9137 53.1993C52.9137 57.1028 49.7487 60.256 45.8452 60.256V39.2969C45.8452 39.2969 52.9137 49.2841 52.9137 53.1993Z" fill="#A0E6FA"/>
<path d="M45.8452 58.3106V57.3376C48.131 57.3376 49.9831 55.4855 49.9831 53.1997H50.9561C50.9561 56.013 48.6585 58.3106 45.8452 58.3106Z" fill="#F0F0F0"/>
<path d="M34.4631 46.2007C34.4631 48.1231 32.904 49.6939 30.9699 49.6939C29.0357 49.6939 27.4767 48.1349 27.4767 46.2007C27.4767 44.2666 30.9699 39.3315 30.9699 39.3315C30.9699 39.3315 34.4631 44.2666 34.4631 46.2007Z" fill="#96DCF0"/>
<path d="M34.4631 46.2012C34.4631 48.1236 32.904 49.6944 30.9698 49.6944V39.3438C30.9698 39.3438 34.4631 44.2788 34.4631 46.2129V46.2012Z" fill="#A0E6FA"/>
</g>
<defs>
<clipPath id="clip0_142_340">
<rect width="68" height="68" fill="white"/>
</clipPath>
</defs>
</svg>
