<svg width="63" height="36" viewBox="0 0 63 36" fill="none" xmlns="http://www.w3.org/2000/svg">
<path d="M62.9887 25.0077C62.9887 27.8504 61.8448 30.4327 59.976 32.2901C58.1072 34.1476 55.5363 35.3028 52.6935 35.3028H9.62157C4.68353 35.3028 0.674194 31.2935 0.674194 26.3554C0.674194 21.4174 4.68353 17.4194 9.62157 17.4194C11.2072 17.4194 12.6909 17.8271 13.982 18.5633C13.7781 17.9857 13.6422 17.3514 13.6422 16.6945C13.6422 13.6819 16.0886 11.2468 19.1012 11.2468C20.8794 11.2468 22.465 12.1076 23.4617 13.4327C23.9374 6.60326 29.3737 1.14423 36.2032 0.691204C36.509 0.668552 36.8261 0.657227 37.1432 0.657227C44.7315 0.657227 50.8814 6.80713 50.8814 14.3841C50.8814 14.554 50.8587 14.7238 50.8587 14.8937C51.459 14.7805 52.0819 14.7239 52.7048 14.7239C58.3904 14.7239 63 19.3334 63 25.019L62.9887 25.0077Z" fill="#F0F0F0"/>
</svg>
