<svg width="84" height="40" viewBox="0 0 84 40" fill="none" xmlns="http://www.w3.org/2000/svg">
<rect width="84" height="40" rx="8" fill="#181C24"/>
<path d="M42 2H74C78.4183 2 82 5.58172 82 10V30C82 34.4183 78.4183 38 74 38H42V2Z" fill="#282838"/>
<g clip-path="url(#clip0_748_2258)">
<path d="M22 25C24.7614 25 27 22.7614 27 20C27 17.2386 24.7614 15 22 15C19.2386 15 17 17.2386 17 20C17 22.7614 19.2386 25 22 25Z" stroke="#373737" stroke-width="1.5" stroke-linecap="round" stroke-linejoin="round"/>
<path d="M22 9V11" stroke="#373737" stroke-width="1.5" stroke-linecap="round" stroke-linejoin="round"/>
<path d="M22 29V31" stroke="#373737" stroke-width="1.5" stroke-linecap="round" stroke-linejoin="round"/>
<path d="M14.22 12.2202L15.64 13.6402" stroke="#373737" stroke-width="1.5" stroke-linecap="round" stroke-linejoin="round"/>
<path d="M28.36 26.3599L29.78 27.7799" stroke="#373737" stroke-width="1.5" stroke-linecap="round" stroke-linejoin="round"/>
<path d="M11 20H13" stroke="#373737" stroke-width="1.5" stroke-linecap="round" stroke-linejoin="round"/>
<path d="M31 20H33" stroke="#373737" stroke-width="1.5" stroke-linecap="round" stroke-linejoin="round"/>
<path d="M14.22 27.7799L15.64 26.3599" stroke="#373737" stroke-width="1.5" stroke-linecap="round" stroke-linejoin="round"/>
<path d="M28.36 13.6402L29.78 12.2202" stroke="#373737" stroke-width="1.5" stroke-linecap="round" stroke-linejoin="round"/>
</g>
<path d="M71 20.79C70.8427 22.4922 70.2039 24.1144 69.1583 25.4668C68.1127 26.8192 66.7035 27.8458 65.0957 28.4265C63.4879 29.0073 61.748 29.1181 60.0795 28.7461C58.411 28.3741 56.883 27.5345 55.6742 26.3258C54.4655 25.117 53.626 23.589 53.2539 21.9205C52.8819 20.252 52.9927 18.5121 53.5735 16.9043C54.1542 15.2965 55.1809 13.8874 56.5332 12.8418C57.8856 11.7961 59.5078 11.1573 61.21 11C60.2134 12.3483 59.7339 14.0094 59.8586 15.6814C59.9832 17.3534 60.7039 18.9251 61.8894 20.1106C63.075 21.2961 64.6466 22.0168 66.3186 22.1415C67.9906 22.2662 69.6518 21.7866 71 20.79Z" stroke="white" stroke-width="1.5" stroke-linecap="round" stroke-linejoin="round"/>
<defs>
<clipPath id="clip0_748_2258">
<rect width="24" height="24" fill="white" transform="translate(10 8)"/>
</clipPath>
</defs>
</svg>
