<svg width="553" height="1072" viewBox="0 0 553 1072" fill="none" xmlns="http://www.w3.org/2000/svg">
<rect width="553" height="1072" fill="#25431E"/>
<g clip-path="url(#clip0_311_7961)">
<path d="M336.005 517.247C336.005 522.91 336.005 528.538 336.005 534.158C336.005 538.589 336.02 543.021 336.027 547.452C336.027 547.488 336.027 547.531 336.027 547.567C336.065 548.756 336.065 548.778 334.778 548.785C329.801 548.8 324.824 548.8 319.847 548.8C318.934 548.8 318.926 548.771 318.926 547.884C318.919 540.485 318.896 533.085 318.896 525.685C318.896 518.674 318.934 511.656 318.941 504.645C318.941 500.718 318.934 496.784 318.934 492.857C318.934 492.093 318.994 492.035 319.795 492.035C326.298 492.035 332.794 492.035 339.298 492.064C339.53 492.064 339.859 492.338 339.979 492.561C340.937 494.363 341.857 496.178 342.793 497.987C344.073 500.466 345.375 502.944 346.647 505.43C347.949 507.981 349.244 510.546 350.516 513.111C351.392 514.869 352.23 516.649 353.098 518.407C353.256 518.724 353.48 519.02 353.809 519.308C353.809 518.472 353.809 517.636 353.809 516.8C353.809 510.207 353.809 503.621 353.794 497.029C353.794 495.631 353.735 494.233 353.712 492.835C353.705 492.093 353.727 492.064 354.528 492.071C356.758 492.086 358.981 492.136 361.211 492.136C364.078 492.136 366.951 492.1 369.818 492.086C370.648 492.086 370.738 492.122 370.746 492.921C370.783 495.429 370.783 497.929 370.783 500.437C370.783 516.317 370.783 532.191 370.798 548.072C370.798 548.619 370.626 548.771 370.087 548.771C364.571 548.771 359.048 548.792 353.533 548.807C353.315 548.807 353.091 548.778 352.874 548.771C352.358 548.771 352.103 548.591 351.953 548.043C351.774 547.373 351.34 546.76 351.01 546.119C349.199 542.625 347.388 539.123 345.577 535.628C343.444 531.514 341.296 527.399 339.171 523.278C338.602 522.176 338.115 521.044 337.592 519.927C337.247 519.2 336.903 518.465 336.521 517.751C336.409 517.55 336.162 517.413 335.997 517.254L336.005 517.247Z" fill="#FFC730"/>
<path d="M140.95 520.411C140.95 529.136 140.95 537.869 140.95 546.595C140.95 547.114 140.965 547.64 141.017 548.152C141.07 548.598 140.883 548.757 140.448 548.735C140.269 548.728 140.089 548.742 139.91 548.742C134.753 548.757 129.597 548.764 124.44 548.807C123.871 548.807 123.737 548.656 123.744 548.123C123.782 541.645 123.797 535.175 123.826 528.697C123.826 528.2 123.617 528.084 123.138 528.084C119.628 528.084 116.118 528.07 112.608 528.034C112.024 528.034 112.009 528.322 112.009 528.726C112.009 532.408 112.009 536.09 112.009 539.764C112.009 542.445 112.009 545.118 112.009 547.799C112.009 548.728 112.009 548.735 111.014 548.735C107.062 548.735 103.111 548.735 99.1516 548.735C98.0515 548.735 96.9438 548.786 95.8437 548.771C94.9905 548.764 94.9381 548.685 94.9531 547.986C95.0279 543.504 95.1402 539.022 95.1552 534.541C95.1851 521.535 95.1701 508.529 95.1552 495.516C95.1552 494.579 95.0504 493.635 94.9681 492.699C94.9232 492.165 95.1477 491.985 95.694 491.992C100.933 492.021 106.172 492.043 111.403 492.036C111.957 492.036 112.017 492.259 112.017 492.691C112.009 496.316 112.009 499.94 112.017 503.557C112.017 506.353 112.039 509.149 112.017 511.937C112.017 512.47 112.174 512.636 112.735 512.629C116.245 512.593 119.755 512.578 123.265 512.571C123.699 512.571 123.759 512.341 123.767 512.024C123.789 510.827 123.826 509.639 123.834 508.442C123.841 504.033 123.841 499.616 123.834 495.206C123.834 494.341 123.811 493.477 123.804 492.612C123.804 492.194 123.961 492.021 124.448 492.021C129.709 492.043 134.963 492.043 140.224 492.021C140.823 492.021 140.957 492.209 140.957 492.749C140.942 501.958 140.95 511.173 140.95 520.382H140.965L140.95 520.411Z" fill="#FFC730"/>
<path d="M377.684 520.46C377.684 512.059 377.684 503.657 377.684 495.256C377.684 494.427 377.647 493.598 377.654 492.77C377.654 492.006 377.692 492.035 378.47 492.042C381.479 492.071 384.487 492.078 387.503 492.078C397.195 492.078 406.894 492.078 416.586 492.078C417.267 492.078 417.956 492.092 418.629 492.013C419.131 491.956 419.25 492.078 419.25 492.546C419.236 495.919 419.25 499.291 419.25 502.663C419.25 504.09 419.265 505.516 419.303 506.936C419.318 507.404 419.048 507.433 418.697 507.433C417.252 507.433 415.808 507.462 414.363 507.462C408.301 507.462 402.239 507.462 396.177 507.462C394.658 507.462 394.651 507.462 394.643 508.896C394.643 510.012 394.665 511.129 394.651 512.246C394.651 512.599 394.808 512.65 395.13 512.65C400.009 512.642 404.881 512.642 409.761 512.642C410.554 512.642 410.547 512.642 410.547 513.392C410.547 518.018 410.547 522.644 410.547 527.269C410.547 528.033 410.554 528.04 409.761 528.04C405.008 528.055 400.249 528.069 395.496 528.091C394.643 528.091 394.643 528.112 394.651 528.919C394.651 530.245 394.673 531.578 394.651 532.904C394.651 533.243 394.755 533.351 395.085 533.344C395.848 533.329 396.611 533.329 397.375 533.329C404.477 533.329 411.587 533.329 418.689 533.322C419.108 533.322 419.236 533.43 419.236 533.841C419.221 538.467 419.221 543.093 419.221 547.718C419.221 548.756 419.221 548.756 418.076 548.756C408.159 548.756 398.25 548.749 388.334 548.756C385.146 548.756 381.95 548.778 378.762 548.792C378.56 548.792 378.358 548.756 378.163 548.778C377.744 548.814 377.662 548.626 377.669 548.266C377.684 546.53 377.684 544.8 377.684 543.064C377.684 535.527 377.684 527.99 377.684 520.46Z" fill="#FFC730"/>
<path d="M433.867 548.792C430.357 548.792 426.847 548.792 423.329 548.792C421.877 548.792 421.87 548.799 421.87 547.408C421.87 543.056 421.862 538.697 421.862 534.345C421.862 533.379 421.862 533.365 422.903 533.365C426.472 533.365 430.05 533.365 433.62 533.365C434.218 533.365 434.825 533.322 435.416 533.25C436.449 533.134 437.13 532.385 437.205 531.383C437.339 529.697 436.905 528.105 436.314 526.541C435.857 525.345 435.513 524.099 434.952 522.953C434.525 522.081 434.293 521.166 433.934 520.287C433.537 519.307 432.999 518.378 432.579 517.398C432.175 516.446 431.846 515.459 431.494 514.487C431.128 513.449 430.723 512.426 430.424 511.374C429.9 509.5 429.354 507.627 428.995 505.718C428.755 504.442 428.71 503.109 428.785 501.812C428.867 500.465 429.286 499.153 429.893 497.907C430.761 496.127 432.325 495.039 434.024 494.11C435.191 493.476 436.471 493.144 437.788 492.928C438.844 492.748 439.876 492.395 440.939 492.287C442.511 492.135 444.097 492.092 445.684 492.085C451.828 492.056 457.965 492.063 464.11 492.063C464.978 492.063 464.985 492.063 464.985 492.892C464.985 497.439 464.978 501.985 464.97 506.532C464.97 507.425 464.97 507.432 464.012 507.432C460.061 507.432 456.102 507.432 452.15 507.461C451.581 507.461 450.99 507.649 450.444 507.836C449.815 508.052 449.628 508.621 449.583 509.191C449.471 510.524 449.621 511.835 450.085 513.103C450.436 514.062 450.698 515.049 451.095 515.993C451.821 517.736 452.637 519.451 453.377 521.195C453.819 522.218 454.208 523.263 454.59 524.308C455.226 526.03 455.877 527.737 456.461 529.474C457.434 532.378 458.167 535.332 458.077 538.416C457.988 541.81 456.416 544.411 453.482 546.277C451.432 547.581 449.164 548.331 446.724 548.446C442.443 548.648 438.155 548.748 433.867 548.893C433.867 548.857 433.867 548.821 433.867 548.784V548.792Z" fill="#FFC730"/>
<path d="M228.872 492.05C235.914 492.05 242.957 492.057 249.999 492.035C250.628 492.035 250.777 492.237 250.777 492.799C250.762 497.324 250.77 501.856 250.777 506.381C250.777 507.419 250.792 507.433 249.677 507.44C245.845 507.462 242.014 507.476 238.182 507.498C237.149 507.498 237.336 507.57 237.343 508.355C237.366 511.396 237.343 514.444 237.336 517.492C237.336 519.38 237.358 521.268 237.358 523.155C237.351 526.758 237.306 530.361 237.306 533.964C237.306 538.719 237.336 543.482 237.373 548.238C237.373 548.706 237.134 548.742 236.782 548.742C234.934 548.742 233.093 548.749 231.244 548.756C228.093 548.771 224.942 548.785 221.792 548.8C221.649 548.8 221.507 548.8 221.373 548.8C220.183 548.8 220.19 548.8 220.242 547.683C220.28 546.76 220.287 545.831 220.287 544.909C220.287 533.56 220.287 522.212 220.287 510.863C220.287 509.861 220.213 508.86 220.213 507.858C220.213 507.462 219.958 507.491 219.689 507.491C217.361 507.476 215.034 507.462 212.706 507.455C211.022 507.455 209.338 507.469 207.647 507.455C206.734 507.455 206.749 507.44 206.876 506.612C206.943 506.172 206.928 505.725 206.928 505.286C206.928 501.179 206.913 497.079 206.906 492.972C206.906 492.057 206.906 492.05 207.864 492.05C214.427 492.05 220.991 492.057 227.547 492.064C227.988 492.064 228.43 492.064 228.872 492.064C228.872 492.057 228.872 492.042 228.872 492.035V492.05Z" fill="#FFC730"/>
<path d="M291.528 533.381C291.535 533.605 291.558 533.792 291.558 533.979C291.558 536.833 291.55 539.679 291.543 542.532C291.543 544.456 291.513 546.387 291.543 548.311C291.543 548.729 291.333 548.75 291.034 548.75C289.148 548.765 287.262 548.779 285.376 548.786C281.828 548.786 278.273 548.786 274.726 548.786C270.475 548.786 266.217 548.786 261.966 548.786C259.72 548.786 257.475 548.801 255.223 548.801C254.272 548.801 254.265 548.794 254.265 547.879C254.265 529.98 254.265 512.075 254.265 494.176C254.265 493.636 254.265 493.096 254.265 492.555C254.265 492.209 254.384 492.051 254.796 492.051C260.095 492.065 265.393 492.072 270.692 492.051C271.223 492.051 271.373 492.217 271.373 492.721C271.366 505.244 271.373 517.767 271.373 530.29C271.373 531.14 271.313 531.983 271.328 532.834C271.328 532.992 271.523 533.251 271.672 533.287C272.017 533.374 272.383 533.367 272.75 533.367C278.827 533.367 284.912 533.367 290.989 533.367C291.161 533.367 291.34 533.381 291.558 533.396L291.528 533.381Z" fill="#FFC730"/>
<path d="M294.971 548.824C294.971 546.562 294.971 544.407 294.971 542.245C294.971 525.889 294.971 509.526 294.971 493.169C294.971 492.016 294.971 492.045 296.138 492.052C300.636 492.074 305.127 492.067 309.624 492.067C310.425 492.067 311.226 492.067 312.139 492.067C312.139 492.377 312.139 492.694 312.139 493.011C312.124 498.191 312.094 503.372 312.094 508.56C312.094 513.258 312.132 517.963 312.132 522.661C312.132 529.614 312.109 536.568 312.102 543.528C312.102 545.092 312.079 546.648 312.132 548.212C312.147 548.752 311.93 548.817 311.473 548.817C310.231 548.802 308.988 548.817 307.738 548.817C303.742 548.817 299.753 548.817 295.757 548.817H294.971V548.824Z" fill="#FFC730"/>
<path d="M174.695 548.088C190.646 548.088 203.576 535.639 203.576 520.282C203.576 504.926 190.646 492.477 174.695 492.477C158.745 492.477 145.814 504.926 145.814 520.282C145.814 535.639 158.745 548.088 174.695 548.088Z" fill="#FFC730"/>
<path d="M103.02 579.048V561.949H108.687C109.775 561.949 110.718 562.055 111.51 562.261C112.302 562.466 112.95 562.765 113.459 563.143C113.969 563.527 114.341 563.991 114.589 564.548C114.836 565.105 114.953 565.722 114.953 566.418C114.953 566.842 114.885 567.247 114.747 567.638C114.609 568.029 114.403 568.387 114.127 568.725C113.852 569.057 113.5 569.355 113.087 569.62C112.667 569.885 112.178 570.097 111.621 570.263C112.915 570.508 113.9 570.959 114.561 571.609C115.222 572.259 115.553 573.121 115.553 574.188C115.553 574.911 115.415 575.574 115.139 576.17C114.864 576.767 114.458 577.278 113.927 577.709C113.397 578.14 112.743 578.471 111.972 578.703C111.2 578.935 110.319 579.055 109.327 579.055H103.02V579.048ZM105.423 569.607H108.597C109.272 569.607 109.865 569.534 110.36 569.395C110.856 569.249 111.269 569.05 111.593 568.798C111.917 568.546 112.158 568.234 112.316 567.87C112.474 567.505 112.55 567.114 112.55 566.683C112.55 565.682 112.233 564.946 111.607 564.475C110.98 564.005 110.002 563.772 108.68 563.772H105.423V569.607ZM105.423 571.251V577.205H109.265C109.954 577.205 110.539 577.132 111.028 576.979C111.517 576.827 111.924 576.615 112.24 576.343C112.557 576.071 112.791 575.74 112.943 575.362C113.094 574.984 113.163 574.566 113.163 574.115C113.163 573.233 112.839 572.537 112.192 572.02C111.545 571.51 110.56 571.251 109.252 571.251H105.423Z" fill="#FFC730"/>
<path d="M131.866 561.949V563.832H123.341V569.514H130.248V571.331H123.341V577.165H131.866V579.048H120.924V561.949H131.866Z" fill="#FFC730"/>
<path d="M149.281 561.949V563.892H143.545V579.048H141.142V563.892H135.378V561.949H149.288H149.281Z" fill="#FFC730"/>
<path d="M165.768 561.949V563.892H160.031V579.048H157.628V563.892H151.864V561.949H165.775H165.768Z" fill="#FFC730"/>
<path d="M173.005 579.048H170.602V561.949H173.005V579.048Z" fill="#FFC730"/>
<path d="M181.338 562.029C181.441 562.082 181.558 562.188 181.689 562.347L191.977 575.236C191.95 575.03 191.936 574.825 191.929 574.632C191.922 574.44 191.915 574.248 191.915 574.062V561.949H194.022V579.048H192.81C192.617 579.048 192.459 579.015 192.335 578.955C192.204 578.889 192.08 578.783 191.956 578.63L181.682 565.755C181.696 565.954 181.71 566.146 181.716 566.338C181.723 566.531 181.73 566.703 181.73 566.862V579.048H179.623V561.949H180.863C181.076 561.949 181.234 561.976 181.338 562.029Z" fill="#FFC730"/>
<path d="M208.146 577.365C208.628 577.365 209.061 577.345 209.468 577.299C209.867 577.252 210.246 577.193 210.604 577.1C210.962 577.014 211.293 576.908 211.609 576.782C211.926 576.656 212.236 576.516 212.553 576.357V572.585H209.798C209.64 572.585 209.516 572.538 209.42 572.452C209.323 572.366 209.275 572.26 209.275 572.127V570.815H214.729V577.378C214.281 577.69 213.82 577.962 213.338 578.187C212.856 578.419 212.339 578.612 211.788 578.764C211.237 578.917 210.652 579.036 210.025 579.109C209.399 579.182 208.717 579.221 207.98 579.221C206.693 579.221 205.508 579.009 204.434 578.585C203.36 578.161 202.437 577.564 201.659 576.795C200.881 576.026 200.275 575.104 199.841 574.03C199.407 572.956 199.193 571.776 199.193 570.483C199.193 569.19 199.407 567.99 199.834 566.916C200.261 565.842 200.867 564.921 201.659 564.152C202.451 563.383 203.401 562.792 204.523 562.368C205.646 561.944 206.899 561.738 208.283 561.738C208.986 561.738 209.64 561.791 210.239 561.884C210.845 561.984 211.403 562.129 211.919 562.315C212.436 562.501 212.911 562.726 213.352 562.998C213.792 563.263 214.199 563.568 214.577 563.9L213.896 564.947C213.758 565.159 213.572 565.272 213.352 565.272C213.221 565.272 213.076 565.226 212.918 565.139C212.711 565.027 212.477 564.894 212.222 564.735C211.967 564.576 211.651 564.423 211.286 564.278C210.921 564.132 210.487 564.006 209.984 563.9C209.481 563.794 208.889 563.747 208.208 563.747C207.209 563.747 206.3 563.906 205.494 564.218C204.682 564.529 203.993 564.98 203.422 565.564C202.85 566.147 202.416 566.857 202.106 567.685C201.803 568.514 201.645 569.449 201.645 570.483C201.645 571.517 201.803 572.532 202.12 573.38C202.437 574.229 202.884 574.945 203.463 575.535C204.041 576.125 204.73 576.576 205.522 576.881C206.314 577.193 207.188 577.345 208.152 577.345L208.146 577.365Z" fill="#FFC730"/>
<path d="M229.775 579.048H227.372V561.949H229.775V579.048Z" fill="#FFC730"/>
<path d="M245.49 564.622C245.414 564.741 245.339 564.834 245.256 564.894C245.173 564.953 245.063 564.98 244.932 564.98C244.795 564.98 244.629 564.914 244.443 564.774C244.258 564.635 244.023 564.489 243.734 564.33C243.445 564.171 243.108 564.019 242.708 563.886C242.309 563.753 241.82 563.681 241.248 563.681C240.711 563.681 240.236 563.753 239.823 563.893C239.41 564.032 239.065 564.224 238.79 564.456C238.514 564.695 238.301 564.973 238.163 565.298C238.025 565.623 237.95 565.968 237.95 566.346C237.95 566.823 238.074 567.221 238.315 567.533C238.556 567.844 238.879 568.116 239.279 568.335C239.678 568.554 240.133 568.752 240.642 568.912C241.152 569.071 241.668 569.243 242.205 569.415C242.736 569.588 243.259 569.787 243.769 570.005C244.278 570.224 244.733 570.503 245.132 570.834C245.531 571.166 245.855 571.577 246.096 572.061C246.337 572.545 246.461 573.141 246.461 573.851C246.461 574.6 246.33 575.303 246.062 575.959C245.8 576.616 245.408 577.186 244.905 577.67C244.395 578.154 243.775 578.538 243.032 578.817C242.288 579.095 241.455 579.234 240.511 579.234C239.361 579.234 238.315 579.035 237.371 578.631C236.428 578.227 235.615 577.69 234.947 577L235.643 575.9C235.712 575.813 235.787 575.74 235.884 575.681C235.98 575.621 236.083 575.595 236.201 575.595C236.373 575.595 236.572 575.681 236.793 575.866C237.013 576.045 237.295 576.244 237.626 576.456C237.963 576.669 238.363 576.867 238.838 577.047C239.313 577.226 239.892 577.318 240.58 577.318C241.152 577.318 241.661 577.245 242.102 577.093C242.543 576.94 242.928 576.728 243.238 576.456C243.548 576.185 243.782 575.853 243.948 575.469C244.113 575.084 244.196 574.66 244.196 574.189C244.196 573.672 244.072 573.248 243.831 572.916C243.59 572.585 243.266 572.306 242.873 572.087C242.481 571.869 242.026 571.676 241.517 571.517C241.007 571.365 240.491 571.206 239.954 571.04C239.416 570.874 238.9 570.688 238.39 570.476C237.881 570.264 237.426 569.986 237.034 569.641C236.634 569.296 236.318 568.872 236.077 568.361C235.836 567.851 235.712 567.214 235.712 566.458C235.712 565.855 235.836 565.272 236.077 564.702C236.318 564.138 236.676 563.634 237.137 563.197C237.598 562.759 238.17 562.408 238.852 562.149C239.534 561.884 240.319 561.758 241.2 561.758C242.192 561.758 243.094 561.91 243.913 562.209C244.733 562.514 245.449 562.951 246.055 563.521L245.47 564.622H245.49Z" fill="#FFC730"/>
<path d="M272.65 579.049H270.791C270.577 579.049 270.405 578.996 270.267 578.897C270.137 578.791 270.033 578.665 269.971 578.505L268.312 574.375H260.344L258.685 578.505C258.63 578.651 258.526 578.777 258.389 578.89C258.251 579.003 258.072 579.056 257.865 579.056H256.006L263.106 561.957H265.55L272.65 579.056V579.049ZM261.012 572.698H267.644L264.855 565.743C264.676 565.312 264.497 564.775 264.325 564.132C264.235 564.457 264.145 564.755 264.056 565.033C263.966 565.312 263.884 565.55 263.801 565.756L261.012 572.704V572.698Z" fill="#FFC730"/>
<path d="M295.491 561.949V563.892H289.755V579.048H287.352V563.892H281.588V561.949H295.498H295.491Z" fill="#FFC730"/>
<path d="M310.827 561.949V563.832H302.302V569.514H309.209V571.331H302.302V577.165H310.827V579.048H299.885V561.949H310.827Z" fill="#FFC730"/>
<path d="M330.756 579.049H328.897C328.684 579.049 328.512 578.996 328.374 578.897C328.243 578.791 328.14 578.665 328.078 578.505L326.418 574.375H318.451L316.791 578.505C316.736 578.651 316.633 578.777 316.495 578.89C316.357 579.003 316.178 579.056 315.972 579.056H314.112L321.212 561.957H323.657L330.756 579.056V579.049ZM319.119 572.698H325.75L322.961 565.743C322.782 565.312 322.603 564.775 322.431 564.132C322.341 564.457 322.252 564.755 322.162 565.033C322.073 565.312 321.99 565.55 321.908 565.756L319.119 572.704V572.698Z" fill="#FFC730"/>
<path d="M343.902 573.472C343.992 573.684 344.074 573.896 344.157 574.109C344.239 573.883 344.329 573.671 344.419 573.472C344.508 573.267 344.611 573.061 344.728 572.856L350.74 562.34C350.85 562.155 350.961 562.049 351.078 562.009C351.195 561.969 351.36 561.949 351.573 561.949H353.343V579.048H351.236V566.484C351.236 566.318 351.236 566.139 351.25 565.947C351.257 565.755 351.27 565.563 351.284 565.364L345.197 576.058C344.99 576.416 344.701 576.595 344.329 576.595H343.985C343.613 576.595 343.324 576.416 343.117 576.058L336.892 565.33C336.919 565.536 336.933 565.742 336.947 565.94C336.961 566.139 336.968 566.325 336.968 566.491V579.055H334.86V561.956H336.63C336.844 561.956 337.009 561.976 337.126 562.016C337.243 562.055 337.353 562.168 337.463 562.347L343.599 572.875C343.716 573.068 343.819 573.267 343.902 573.479V573.472Z" fill="#FFC730"/>
<path d="M375.269 564.622C375.194 564.741 375.118 564.834 375.035 564.894C374.953 564.953 374.843 564.98 374.712 564.98C374.567 564.98 374.409 564.914 374.223 564.774C374.037 564.642 373.803 564.489 373.513 564.33C373.224 564.171 372.887 564.019 372.487 563.886C372.088 563.753 371.599 563.681 371.028 563.681C370.49 563.681 370.015 563.753 369.602 563.893C369.189 564.032 368.845 564.224 368.569 564.456C368.294 564.695 368.08 564.973 367.942 565.298C367.805 565.623 367.729 565.968 367.729 566.346C367.729 566.823 367.853 567.221 368.094 567.533C368.335 567.844 368.659 568.116 369.058 568.335C369.457 568.554 369.912 568.752 370.422 568.912C370.931 569.077 371.448 569.243 371.985 569.415C372.515 569.588 373.038 569.787 373.548 570.005C374.057 570.224 374.512 570.503 374.911 570.834C375.311 571.166 375.634 571.577 375.875 572.061C376.116 572.545 376.24 573.141 376.24 573.851C376.24 574.6 376.11 575.303 375.841 575.959C375.572 576.616 375.194 577.186 374.684 577.67C374.175 578.154 373.555 578.538 372.811 578.817C372.074 579.095 371.234 579.234 370.291 579.234C369.141 579.234 368.094 579.035 367.151 578.631C366.207 578.227 365.395 577.69 364.727 577L365.422 575.9C365.491 575.813 365.567 575.74 365.663 575.681C365.759 575.621 365.863 575.595 365.98 575.595C366.152 575.595 366.352 575.681 366.572 575.866C366.792 576.045 367.075 576.244 367.405 576.456C367.743 576.669 368.142 576.867 368.617 577.047C369.092 577.226 369.671 577.318 370.36 577.318C370.931 577.318 371.441 577.245 371.881 577.093C372.329 576.94 372.708 576.728 373.018 576.456C373.328 576.185 373.562 575.853 373.734 575.469C373.906 575.084 373.982 574.66 373.982 574.189C373.982 573.672 373.858 573.248 373.617 572.916C373.376 572.585 373.052 572.306 372.653 572.087C372.253 571.869 371.806 571.676 371.296 571.517C370.786 571.365 370.27 571.206 369.733 571.04C369.203 570.874 368.679 570.688 368.17 570.476C367.66 570.264 367.213 569.986 366.813 569.641C366.414 569.296 366.097 568.872 365.849 568.361C365.608 567.851 365.484 567.214 365.484 566.458C365.484 565.855 365.608 565.272 365.849 564.702C366.09 564.138 366.448 563.634 366.91 563.197C367.371 562.759 367.942 562.408 368.624 562.149C369.306 561.884 370.091 561.758 370.972 561.758C371.964 561.758 372.866 561.91 373.686 562.209C374.505 562.514 375.221 562.951 375.827 563.521L375.242 564.622H375.269Z" fill="#FFC730"/>
<path d="M383.808 572.65V579.048H381.419V561.949H386.659C387.782 561.949 388.76 562.075 389.593 562.327C390.426 562.579 391.115 562.937 391.659 563.395C392.203 563.852 392.609 564.416 392.878 565.065C393.146 565.715 393.277 566.444 393.277 567.247C393.277 568.049 393.133 568.771 392.843 569.428C392.554 570.084 392.134 570.654 391.576 571.132C391.018 571.609 390.323 571.98 389.503 572.246C388.677 572.511 387.734 572.643 386.666 572.643H383.815L383.808 572.65ZM383.808 570.813H386.659C387.348 570.813 387.954 570.727 388.477 570.548C389.001 570.376 389.441 570.131 389.8 569.812C390.158 569.501 390.426 569.123 390.605 568.685C390.784 568.248 390.881 567.764 390.881 567.24C390.881 566.153 390.53 565.297 389.834 564.687C389.138 564.077 388.078 563.766 386.666 563.766H383.815V570.807L383.808 570.813Z" fill="#FFC730"/>
<path d="M414.673 570.502C414.673 571.781 414.459 572.961 414.039 574.029C413.619 575.096 413.02 576.018 412.256 576.793C411.485 577.562 410.562 578.166 409.488 578.59C408.406 579.014 407.215 579.227 405.914 579.227C404.612 579.227 403.421 579.014 402.346 578.59C401.272 578.166 400.349 577.569 399.585 576.793C398.821 576.018 398.222 575.103 397.802 574.029C397.381 572.961 397.168 571.781 397.168 570.502C397.168 569.222 397.381 568.048 397.802 566.974C398.222 565.907 398.821 564.979 399.585 564.203C400.356 563.427 401.272 562.824 402.346 562.393C403.421 561.962 404.612 561.75 405.914 561.75C407.215 561.75 408.413 561.962 409.488 562.393C410.569 562.824 411.491 563.427 412.256 564.203C413.027 564.979 413.619 565.9 414.039 566.974C414.459 568.048 414.673 569.222 414.673 570.502ZM412.208 570.502C412.208 569.454 412.056 568.506 411.76 567.671C411.464 566.835 411.044 566.126 410.493 565.549C409.949 564.972 409.288 564.528 408.51 564.216C407.732 563.905 406.864 563.752 405.907 563.752C404.949 563.752 404.096 563.905 403.317 564.216C402.539 564.528 401.878 564.972 401.327 565.549C400.776 566.126 400.356 566.835 400.06 567.671C399.764 568.506 399.613 569.447 399.613 570.502C399.613 571.556 399.764 572.491 400.06 573.326C400.356 574.155 400.783 574.864 401.327 575.441C401.871 576.018 402.539 576.462 403.317 576.767C404.096 577.072 404.956 577.224 405.907 577.224C406.857 577.224 407.732 577.072 408.51 576.767C409.288 576.462 409.949 576.018 410.493 575.441C411.037 574.864 411.457 574.161 411.76 573.326C412.056 572.497 412.208 571.556 412.208 570.502Z" fill="#FFC730"/>
<path d="M422.454 571.914V579.048H420.064V561.949H425.085C426.207 561.949 427.178 562.062 427.997 562.281C428.817 562.5 429.492 562.818 430.022 563.229C430.552 563.64 430.952 564.144 431.206 564.727C431.461 565.311 431.592 565.967 431.592 566.69C431.592 567.293 431.496 567.857 431.296 568.387C431.096 568.917 430.807 569.381 430.435 569.799C430.063 570.217 429.602 570.575 429.058 570.867C428.514 571.158 427.901 571.384 427.219 571.536C427.515 571.702 427.784 571.947 428.011 572.265L433.19 579.055H431.055C430.614 579.055 430.297 578.889 430.091 578.564L425.477 572.451C425.339 572.259 425.181 572.12 425.016 572.04C424.85 571.96 424.603 571.914 424.272 571.914H422.447H422.454ZM422.454 570.23H424.967C425.67 570.23 426.29 570.15 426.82 569.985C427.35 569.819 427.798 569.594 428.156 569.295C428.514 568.997 428.789 568.639 428.968 568.228C429.147 567.817 429.244 567.359 429.244 566.855C429.244 565.834 428.893 565.072 428.197 564.555C427.502 564.038 426.462 563.779 425.078 563.779H422.447V570.237L422.454 570.23Z" fill="#FFC730"/>
<path d="M449.097 561.949V563.892H443.361V579.048H440.957V563.892H435.193V561.949H449.104H449.097Z" fill="#FFC730"/>
<path d="M185.877 510.693C186.835 514.735 180.578 517.307 180.578 517.307C185.877 508.301 175.384 498.746 175.384 498.746C175.384 515.657 158.328 517.127 158.328 530.717C158.328 537.115 162.706 540.667 168.162 541.986C168.147 541.972 161.471 537.98 163.185 532.266C163.185 532.266 164.757 537.641 166.553 537.122C168.342 536.603 164.802 533.988 165.535 531.574C166.269 529.16 167.983 528.613 168.918 527.921C169.846 527.229 170.422 525.925 169.494 524.477C169.494 524.477 173.932 528.267 171.066 530.745C168.2 533.224 168.417 534.399 169.846 535.155C171.275 535.912 176.148 535.083 177.719 529.434C177.719 529.434 180.084 535.912 177.719 538.052C177.719 538.052 178.864 539.154 181.154 537.36C181.154 537.36 180.623 541.02 177.599 542.224C180.855 541.676 183.871 540.494 186.026 538.808C193.997 532.561 185.877 510.693 185.877 510.693Z" fill="#25431E"/>
<g opacity="0.1">
<path d="M189.506 529.945C189.491 530.003 186.984 538.945 177.592 542.223C180.847 541.676 183.863 540.494 186.019 538.808C188.421 536.927 189.357 533.634 189.506 529.945Z" fill="#25431E"/>
</g>
<g opacity="0.1">
<path d="M159.016 526.242C158.575 527.59 158.32 529.06 158.32 530.717C158.32 537.007 162.541 540.545 167.87 541.914C161.696 539.234 159.031 526.307 159.016 526.242Z" fill="#25431E"/>
</g>
</g>
<defs>
<clipPath id="clip0_311_7961">
<rect width="377" height="88" fill="white" transform="translate(88 492)"/>
</clipPath>
</defs>
</svg>
