<svg width="810" height="1080" viewBox="0 0 810 1080" fill="none" xmlns="http://www.w3.org/2000/svg">
<rect width="810" height="1080" fill="#25431E"/>
<g clip-path="url(#clip0_1_543)">
<path d="M484.235 514.003C484.235 521.854 484.235 529.656 484.235 537.448C484.235 543.591 484.255 549.735 484.265 555.878C484.265 555.928 484.265 555.988 484.265 556.038C484.315 557.686 484.315 557.716 482.601 557.726C475.974 557.746 469.347 557.746 462.72 557.746C461.504 557.746 461.494 557.706 461.494 556.478C461.484 546.218 461.454 535.959 461.454 525.7C461.454 515.981 461.504 506.251 461.514 496.531C461.514 491.087 461.504 485.633 461.504 480.189C461.504 479.13 461.584 479.05 462.65 479.05C471.31 479.05 479.96 479.05 488.62 479.09C488.929 479.09 489.367 479.47 489.527 479.779C490.802 482.277 492.028 484.794 493.274 487.301C494.978 490.738 496.712 494.174 498.406 497.62C500.14 501.156 501.864 504.713 503.558 508.269C504.724 510.706 505.84 513.174 506.996 515.611C507.206 516.051 507.505 516.46 507.943 516.86C507.943 515.701 507.943 514.542 507.943 513.383C507.943 504.243 507.943 495.113 507.923 485.973C507.923 484.035 507.843 482.097 507.813 480.159C507.803 479.13 507.833 479.09 508.9 479.1C511.869 479.12 514.829 479.19 517.799 479.19C521.616 479.19 525.442 479.14 529.259 479.12C530.365 479.12 530.485 479.17 530.495 480.279C530.545 483.755 530.545 487.221 530.545 490.698C530.545 512.714 530.545 534.721 530.565 556.737C530.565 557.496 530.335 557.706 529.618 557.706C522.273 557.706 514.919 557.736 507.574 557.756C507.285 557.756 506.986 557.716 506.697 557.706C506.01 557.706 505.671 557.457 505.472 556.697C505.232 555.768 504.654 554.919 504.216 554.03C501.804 549.185 499.393 544.33 496.981 539.486C494.141 533.782 491.281 528.078 488.451 522.364C487.693 520.836 487.045 519.267 486.348 517.719C485.889 516.71 485.431 515.691 484.923 514.702C484.773 514.422 484.444 514.233 484.225 514.013L484.235 514.003Z" fill="#FFC730"/>
<path d="M224.506 518.388C224.506 530.485 224.506 542.592 224.506 554.689C224.506 555.409 224.526 556.138 224.595 556.847C224.665 557.466 224.416 557.686 223.838 557.656C223.599 557.646 223.36 557.666 223.12 557.666C216.254 557.686 209.388 557.696 202.522 557.756C201.764 557.756 201.585 557.546 201.595 556.807C201.645 547.827 201.665 538.856 201.705 529.876C201.705 529.187 201.426 529.027 200.788 529.027C196.114 529.027 191.44 529.007 186.766 528.957C185.989 528.957 185.969 529.356 185.969 529.916C185.969 535.02 185.969 540.125 185.969 545.219C185.969 548.936 185.969 552.642 185.969 556.358C185.969 557.646 185.969 557.656 184.644 557.656C179.382 557.656 174.12 557.656 168.849 557.656C167.384 557.656 165.909 557.726 164.444 557.706C163.308 557.696 163.238 557.586 163.258 556.617C163.358 550.404 163.507 544.191 163.527 537.977C163.567 519.946 163.547 501.916 163.527 483.875C163.527 482.576 163.387 481.268 163.278 479.969C163.218 479.23 163.517 478.98 164.245 478.99C171.22 479.03 178.196 479.06 185.162 479.05C185.899 479.05 185.979 479.36 185.979 479.959C185.969 484.984 185.969 490.008 185.979 495.023C185.979 498.899 186.009 502.775 185.979 506.641C185.979 507.38 186.188 507.61 186.936 507.6C191.61 507.55 196.283 507.53 200.957 507.52C201.535 507.52 201.615 507.2 201.625 506.76C201.655 505.102 201.705 503.454 201.715 501.796C201.725 495.682 201.725 489.559 201.715 483.445C201.715 482.247 201.685 481.048 201.675 479.849C201.675 479.27 201.884 479.03 202.532 479.03C209.538 479.06 216.533 479.06 223.539 479.03C224.336 479.03 224.516 479.29 224.516 480.039C224.496 492.805 224.506 505.582 224.506 518.348H224.526L224.506 518.388Z" fill="#FFC730"/>
<path d="M539.733 518.458C539.733 506.81 539.733 495.163 539.733 483.515C539.733 482.366 539.683 481.218 539.693 480.069C539.693 479.01 539.743 479.05 540.779 479.06C544.786 479.1 548.792 479.11 552.808 479.11C565.713 479.11 578.628 479.11 591.534 479.11C592.44 479.11 593.357 479.13 594.254 479.02C594.922 478.94 595.081 479.11 595.081 479.759C595.061 484.434 595.081 489.109 595.081 493.784C595.081 495.762 595.101 497.74 595.151 499.708C595.171 500.357 594.812 500.397 594.344 500.397C592.42 500.397 590.497 500.437 588.574 500.437C580.502 500.437 572.43 500.437 564.358 500.437C562.335 500.437 562.325 500.437 562.315 502.425C562.315 503.973 562.345 505.522 562.325 507.07C562.325 507.56 562.534 507.63 562.963 507.63C569.46 507.62 575.948 507.62 582.445 507.62C583.501 507.62 583.491 507.62 583.491 508.658C583.491 515.072 583.491 521.485 583.491 527.898C583.491 528.957 583.501 528.967 582.445 528.967C576.117 528.987 569.779 529.007 563.451 529.037C562.315 529.037 562.315 529.067 562.325 530.186C562.325 532.024 562.355 533.872 562.325 535.71C562.325 536.179 562.464 536.329 562.903 536.319C563.919 536.299 564.936 536.299 565.952 536.299C575.409 536.299 584.877 536.299 594.334 536.289C594.892 536.289 595.061 536.439 595.061 537.008C595.041 543.421 595.041 549.835 595.041 556.248C595.041 557.686 595.041 557.686 593.517 557.686C580.312 557.686 567.118 557.676 553.914 557.686C549.669 557.686 545.413 557.716 541.168 557.736C540.899 557.736 540.63 557.686 540.371 557.716C539.813 557.766 539.703 557.506 539.713 557.007C539.733 554.6 539.733 552.202 539.733 549.795C539.733 539.346 539.733 528.897 539.733 518.458Z" fill="#FFC730"/>
<path d="M614.544 557.736C609.87 557.736 605.196 557.736 600.512 557.736C598.579 557.736 598.569 557.746 598.569 555.818C598.569 549.785 598.559 543.741 598.559 537.708C598.559 536.369 598.559 536.349 599.944 536.349C604.698 536.349 609.461 536.349 614.215 536.349C615.012 536.349 615.819 536.289 616.607 536.189C617.982 536.029 618.889 534.99 618.988 533.602C619.168 531.264 618.59 529.057 617.802 526.889C617.194 525.231 616.736 523.503 615.989 521.914C615.421 520.706 615.112 519.437 614.633 518.218C614.105 516.86 613.388 515.571 612.83 514.213C612.291 512.894 611.853 511.525 611.385 510.177C610.896 508.738 610.358 507.32 609.96 505.861C609.262 503.264 608.535 500.667 608.056 498.02C607.737 496.252 607.677 494.404 607.777 492.606C607.887 490.738 608.445 488.92 609.252 487.191C610.408 484.724 612.491 483.216 614.753 481.927C616.308 481.048 618.012 480.588 619.766 480.289C621.171 480.039 622.546 479.549 623.961 479.4C626.054 479.19 628.166 479.13 630.279 479.12C638.461 479.08 646.632 479.09 654.814 479.09C655.97 479.09 655.98 479.09 655.98 480.239C655.98 486.542 655.97 492.845 655.96 499.149C655.96 500.387 655.96 500.397 654.685 500.397C649.423 500.397 644.151 500.397 638.889 500.437C638.132 500.437 637.345 500.697 636.617 500.957C635.78 501.256 635.531 502.046 635.471 502.835C635.322 504.683 635.521 506.501 636.139 508.259C636.607 509.587 636.956 510.956 637.484 512.265C638.451 514.682 639.537 517.06 640.524 519.477C641.112 520.895 641.63 522.344 642.138 523.792C642.985 526.18 643.852 528.547 644.629 530.955C645.925 534.98 646.902 539.076 646.782 543.351C646.662 548.056 644.57 551.663 640.663 554.25C637.933 556.058 634.913 557.097 631.664 557.257C625.964 557.536 620.254 557.676 614.544 557.876C614.544 557.826 614.544 557.776 614.544 557.726V557.736Z" fill="#FFC730"/>
<path d="M341.58 479.07C350.957 479.07 360.335 479.08 369.712 479.05C370.549 479.05 370.749 479.33 370.749 480.109C370.729 486.382 370.739 492.666 370.749 498.939C370.749 500.377 370.769 500.397 369.284 500.407C364.181 500.437 359.079 500.457 353.977 500.487C352.602 500.487 352.851 500.587 352.861 501.676C352.891 505.891 352.861 510.117 352.851 514.342C352.851 516.96 352.881 519.577 352.881 522.194C352.871 527.189 352.811 532.183 352.811 537.178C352.811 543.771 352.851 550.374 352.901 556.967C352.901 557.616 352.582 557.666 352.113 557.666C349.652 557.666 347.2 557.676 344.739 557.686C340.543 557.706 336.348 557.726 332.152 557.746C331.963 557.746 331.774 557.746 331.594 557.746C330.01 557.746 330.02 557.746 330.09 556.198C330.139 554.919 330.149 553.631 330.149 552.352C330.149 536.619 330.149 520.885 330.149 505.152C330.149 503.764 330.05 502.375 330.05 500.987C330.05 500.437 329.711 500.477 329.352 500.477C326.253 500.457 323.154 500.437 320.054 500.427C317.812 500.427 315.57 500.447 313.318 500.427C312.102 500.427 312.122 500.407 312.291 499.259C312.381 498.649 312.361 498.03 312.361 497.42C312.361 491.727 312.341 486.043 312.331 480.349C312.331 479.08 312.331 479.07 313.607 479.07C322.346 479.07 331.086 479.08 339.816 479.09C340.404 479.09 340.992 479.09 341.58 479.09C341.58 479.08 341.58 479.06 341.58 479.05V479.07Z" fill="#FFC730"/>
<path d="M425.011 536.369C425.021 536.678 425.05 536.938 425.05 537.198C425.05 541.154 425.04 545.099 425.031 549.055C425.031 551.722 424.991 554.4 425.031 557.067C425.031 557.646 424.751 557.676 424.353 557.676C421.842 557.696 419.33 557.716 416.819 557.726C412.095 557.726 407.362 557.726 402.638 557.726C396.978 557.726 391.307 557.726 385.647 557.726C382.657 557.726 379.668 557.746 376.668 557.746C375.403 557.746 375.393 557.736 375.393 556.467C375.393 531.654 375.393 506.83 375.393 482.017C375.393 481.267 375.393 480.518 375.393 479.769C375.393 479.29 375.552 479.07 376.1 479.07C383.156 479.09 390.211 479.1 397.267 479.07C397.974 479.07 398.174 479.3 398.174 479.999C398.164 497.36 398.174 514.722 398.174 532.083C398.174 533.262 398.094 534.431 398.114 535.61C398.114 535.829 398.373 536.189 398.572 536.239C399.031 536.359 399.519 536.349 400.007 536.349C408.099 536.349 416.201 536.349 424.293 536.349C424.522 536.349 424.761 536.369 425.05 536.389L425.011 536.369Z" fill="#FFC730"/>
<path d="M429.595 557.776C429.595 554.639 429.595 551.653 429.595 548.656C429.595 525.98 429.595 503.294 429.595 480.618C429.595 479.02 429.595 479.06 431.149 479.07C437.139 479.1 443.118 479.09 449.107 479.09C450.173 479.09 451.24 479.09 452.455 479.09C452.455 479.519 452.455 479.959 452.455 480.398C452.436 487.581 452.396 494.763 452.396 501.955C452.396 508.469 452.446 514.992 452.446 521.505C452.446 531.144 452.416 540.784 452.406 550.434C452.406 552.602 452.376 554.759 452.446 556.927C452.465 557.676 452.176 557.766 451.569 557.766C449.914 557.746 448.26 557.766 446.596 557.766C441.274 557.766 435.963 557.766 430.641 557.766H429.595V557.776Z" fill="#FFC730"/>
<path d="M269.44 556.757C290.679 556.757 307.897 539.498 307.897 518.208C307.897 496.918 290.679 479.659 269.44 479.659C248.201 479.659 230.983 496.918 230.983 518.208C230.983 539.498 248.201 556.757 269.44 556.757Z" fill="#FFC730"/>
<path d="M154 600.71V574.948H162.202C163.776 574.948 165.141 575.108 166.287 575.417C167.433 575.727 168.37 576.176 169.108 576.746C169.845 577.325 170.383 578.024 170.742 578.864C171.101 579.703 171.27 580.632 171.27 581.681C171.27 582.32 171.17 582.929 170.971 583.519C170.772 584.108 170.473 584.647 170.074 585.157C169.676 585.656 169.167 586.106 168.569 586.505C167.962 586.905 167.254 587.225 166.447 587.474C168.32 587.844 169.745 588.523 170.702 589.502C171.659 590.481 172.137 591.78 172.137 593.388C172.137 594.477 171.938 595.476 171.539 596.375C171.141 597.274 170.553 598.043 169.785 598.692C169.018 599.342 168.071 599.841 166.955 600.191C165.839 600.54 164.563 600.72 163.128 600.72H154V600.71ZM157.478 586.485H162.072C163.049 586.485 163.906 586.376 164.623 586.166C165.341 585.946 165.939 585.646 166.407 585.267C166.875 584.887 167.224 584.418 167.453 583.868C167.683 583.319 167.792 582.729 167.792 582.08C167.792 580.572 167.334 579.463 166.427 578.754C165.52 578.044 164.105 577.695 162.192 577.695H157.478V586.485ZM157.478 588.963V597.933H163.039C164.035 597.933 164.882 597.823 165.59 597.594C166.297 597.364 166.885 597.044 167.344 596.635C167.802 596.225 168.141 595.726 168.36 595.156C168.579 594.587 168.679 593.957 168.679 593.278C168.679 591.95 168.211 590.901 167.274 590.122C166.337 589.352 164.912 588.963 163.019 588.963H157.478Z" fill="#FFC730"/>
<path d="M195.745 574.948V577.785H183.408V586.346H193.403V589.083H183.408V597.873H195.745V600.71H179.91V574.948H195.745Z" fill="#FFC730"/>
<path d="M220.948 574.948V577.875H212.647V600.71H209.169V577.875H200.828V574.948H220.958H220.948Z" fill="#FFC730"/>
<path d="M244.805 574.948V577.875H236.504V600.71H233.026V577.875H224.685V574.948H244.815H244.805Z" fill="#FFC730"/>
<path d="M255.279 600.71H251.801V574.948H255.279V600.71Z" fill="#FFC730"/>
<path d="M267.337 575.068C267.487 575.148 267.656 575.307 267.846 575.547L282.734 594.966C282.694 594.657 282.674 594.347 282.664 594.057C282.654 593.768 282.644 593.478 282.644 593.198V574.948H285.694V600.71H283.94C283.661 600.71 283.432 600.66 283.252 600.57C283.063 600.471 282.883 600.311 282.704 600.081L267.836 580.682C267.856 580.981 267.875 581.271 267.885 581.561C267.895 581.85 267.905 582.11 267.905 582.35V600.71H264.856V574.948H266.65C266.959 574.948 267.188 574.988 267.337 575.068Z" fill="#FFC730"/>
<path d="M306.133 598.173C306.83 598.173 307.458 598.143 308.046 598.073C308.624 598.003 309.172 597.913 309.69 597.773C310.209 597.644 310.687 597.484 311.145 597.294C311.604 597.104 312.052 596.894 312.511 596.655V590.971H308.525C308.295 590.971 308.116 590.901 307.976 590.771C307.837 590.641 307.767 590.481 307.767 590.281V588.303H315.66V598.193C315.012 598.662 314.344 599.072 313.647 599.412C312.949 599.761 312.202 600.051 311.405 600.281C310.607 600.51 309.76 600.69 308.853 600.8C307.947 600.91 306.96 600.97 305.894 600.97C304.03 600.97 302.316 600.65 300.761 600.011C299.207 599.372 297.871 598.473 296.745 597.314C295.619 596.155 294.742 594.767 294.114 593.148C293.487 591.53 293.178 589.752 293.178 587.804C293.178 585.856 293.487 584.048 294.105 582.43C294.722 580.811 295.599 579.423 296.745 578.264C297.891 577.105 299.267 576.216 300.891 575.577C302.515 574.938 304.329 574.628 306.332 574.628C307.349 574.628 308.295 574.708 309.162 574.848C310.039 574.998 310.846 575.217 311.594 575.497C312.341 575.777 313.029 576.116 313.667 576.526C314.305 576.926 314.892 577.385 315.441 577.885L314.454 579.463C314.255 579.783 313.986 579.952 313.667 579.952C313.477 579.952 313.268 579.882 313.039 579.753C312.74 579.583 312.401 579.383 312.032 579.143C311.664 578.903 311.205 578.674 310.677 578.454C310.149 578.234 309.521 578.044 308.794 577.885C308.066 577.725 307.209 577.655 306.223 577.655C304.778 577.655 303.462 577.895 302.296 578.364C301.12 578.834 300.124 579.513 299.297 580.392C298.469 581.271 297.842 582.34 297.393 583.588C296.955 584.837 296.725 586.246 296.725 587.804C296.725 589.362 296.955 590.891 297.413 592.169C297.871 593.448 298.519 594.527 299.356 595.416C300.193 596.305 301.19 596.984 302.336 597.444C303.482 597.913 304.748 598.143 306.143 598.143L306.133 598.173Z" fill="#FFC730"/>
<path d="M337.434 600.71H333.956V574.948H337.434V600.71Z" fill="#FFC730"/>
<path d="M360.176 578.973C360.066 579.153 359.956 579.293 359.837 579.383C359.717 579.473 359.558 579.513 359.368 579.513C359.169 579.513 358.93 579.413 358.661 579.203C358.392 578.993 358.053 578.774 357.634 578.534C357.216 578.294 356.728 578.064 356.15 577.865C355.572 577.665 354.864 577.555 354.037 577.555C353.26 577.555 352.572 577.665 351.974 577.875C351.376 578.084 350.878 578.374 350.479 578.724C350.081 579.083 349.772 579.503 349.572 579.992C349.373 580.482 349.263 581.001 349.263 581.571C349.263 582.29 349.443 582.889 349.792 583.359C350.14 583.828 350.609 584.238 351.187 584.568C351.765 584.897 352.422 585.197 353.16 585.437C353.897 585.676 354.645 585.936 355.422 586.196C356.189 586.456 356.947 586.755 357.684 587.085C358.422 587.414 359.079 587.834 359.657 588.334C360.235 588.833 360.704 589.452 361.053 590.182C361.401 590.911 361.581 591.81 361.581 592.879C361.581 594.007 361.391 595.066 361.003 596.055C360.624 597.044 360.056 597.903 359.329 598.633C358.591 599.362 357.694 599.941 356.618 600.361C355.542 600.78 354.336 600.99 352.971 600.99C351.306 600.99 349.792 600.69 348.426 600.081C347.061 599.472 345.885 598.663 344.918 597.624L345.925 595.965C346.025 595.836 346.134 595.726 346.274 595.636C346.413 595.546 346.563 595.506 346.732 595.506C346.981 595.506 347.27 595.636 347.589 595.915C347.908 596.185 348.317 596.485 348.795 596.804C349.283 597.124 349.861 597.424 350.549 597.694C351.237 597.963 352.074 598.103 353.07 598.103C353.897 598.103 354.635 597.993 355.273 597.763C355.91 597.534 356.468 597.214 356.917 596.804C357.365 596.395 357.704 595.895 357.943 595.316C358.182 594.737 358.302 594.097 358.302 593.388C358.302 592.609 358.123 591.97 357.774 591.47C357.425 590.971 356.957 590.551 356.389 590.221C355.821 589.892 355.163 589.602 354.425 589.362C353.688 589.133 352.941 588.893 352.163 588.643C351.386 588.393 350.639 588.114 349.901 587.794C349.164 587.474 348.506 587.055 347.938 586.535C347.36 586.016 346.902 585.377 346.553 584.607C346.204 583.838 346.025 582.879 346.025 581.741C346.025 580.831 346.204 579.952 346.553 579.093C346.902 578.244 347.42 577.485 348.087 576.826C348.755 576.166 349.582 575.637 350.569 575.247C351.555 574.848 352.692 574.658 353.967 574.658C355.402 574.658 356.708 574.888 357.893 575.337C359.079 575.797 360.116 576.456 360.993 577.315L360.146 578.973H360.176Z" fill="#FFC730"/>
<path d="M399.479 600.71H396.788C396.479 600.71 396.23 600.63 396.031 600.48C395.842 600.321 395.692 600.131 395.603 599.891L393.201 593.668H381.671L379.269 599.891C379.189 600.111 379.04 600.301 378.841 600.47C378.641 600.64 378.382 600.72 378.083 600.72H375.393L385.667 574.958H389.205L399.479 600.72V600.71ZM382.637 591.14H392.234L388.198 580.662C387.939 580.012 387.68 579.203 387.431 578.234C387.301 578.724 387.172 579.173 387.042 579.593C386.913 580.012 386.793 580.372 386.673 580.682L382.637 591.15V591.14Z" fill="#FFC730"/>
<path d="M432.534 574.948V577.875H424.233V600.71H420.755V577.875H412.414V574.948H432.544H432.534Z" fill="#FFC730"/>
<path d="M454.728 574.948V577.785H442.39V586.346H452.386V589.083H442.39V597.873H454.728V600.71H438.893V574.948H454.728Z" fill="#FFC730"/>
<path d="M483.567 600.71H480.877C480.568 600.71 480.319 600.63 480.119 600.48C479.93 600.321 479.781 600.131 479.691 599.891L477.289 593.668H465.759L463.358 599.891C463.278 600.111 463.128 600.301 462.929 600.47C462.73 600.64 462.471 600.72 462.172 600.72H459.481L469.755 574.958H473.293L483.567 600.72V600.71ZM466.726 591.14H476.323L472.287 580.662C472.027 580.012 471.768 579.203 471.519 578.234C471.39 578.724 471.26 579.173 471.131 579.593C471.001 580.012 470.881 580.372 470.762 580.682L466.726 591.15V591.14Z" fill="#FFC730"/>
<path d="M502.592 592.309C502.721 592.629 502.841 592.949 502.961 593.268C503.08 592.929 503.21 592.609 503.339 592.309C503.469 592 503.618 591.69 503.788 591.38L512.488 575.537C512.647 575.257 512.807 575.098 512.976 575.038C513.145 574.978 513.385 574.948 513.693 574.948H516.255V600.71H513.205V581.78C513.205 581.531 513.205 581.261 513.225 580.971C513.235 580.682 513.255 580.392 513.275 580.092L504.465 596.205C504.166 596.745 503.748 597.014 503.21 597.014H502.712C502.173 597.014 501.755 596.745 501.456 596.205L492.447 580.042C492.487 580.352 492.507 580.662 492.527 580.961C492.547 581.261 492.557 581.541 492.557 581.79V600.72H489.507V574.958H492.068C492.377 574.958 492.617 574.988 492.786 575.048C492.955 575.108 493.115 575.277 493.274 575.547L502.153 591.41C502.323 591.7 502.472 592 502.592 592.319V592.309Z" fill="#FFC730"/>
<path d="M547.985 578.973C547.875 579.153 547.765 579.293 547.646 579.383C547.526 579.473 547.367 579.513 547.177 579.513C546.968 579.513 546.739 579.413 546.47 579.203C546.201 579.003 545.862 578.774 545.443 578.534C545.025 578.294 544.537 578.064 543.959 577.865C543.381 577.665 542.673 577.555 541.846 577.555C541.069 577.555 540.381 577.665 539.783 577.875C539.185 578.084 538.687 578.374 538.288 578.724C537.89 579.083 537.581 579.503 537.381 579.992C537.182 580.482 537.072 581.001 537.072 581.571C537.072 582.29 537.252 582.889 537.601 583.359C537.949 583.828 538.418 584.238 538.996 584.568C539.574 584.897 540.232 585.197 540.969 585.437C541.706 585.686 542.454 585.936 543.231 586.196C543.998 586.456 544.756 586.755 545.493 587.085C546.231 587.414 546.888 587.834 547.466 588.334C548.044 588.833 548.513 589.452 548.862 590.182C549.21 590.911 549.39 591.81 549.39 592.879C549.39 594.007 549.2 595.066 548.812 596.055C548.423 597.044 547.875 597.903 547.138 598.633C546.4 599.362 545.503 599.941 544.427 600.361C543.361 600.78 542.145 600.99 540.78 600.99C539.115 600.99 537.601 600.69 536.235 600.081C534.87 599.472 533.694 598.663 532.728 597.624L533.734 595.965C533.834 595.836 533.943 595.726 534.083 595.636C534.222 595.546 534.372 595.506 534.541 595.506C534.79 595.506 535.079 595.636 535.398 595.915C535.717 596.185 536.126 596.485 536.604 596.804C537.092 597.124 537.67 597.424 538.358 597.694C539.046 597.963 539.883 598.103 540.879 598.103C541.706 598.103 542.444 597.993 543.082 597.763C543.729 597.534 544.277 597.214 544.726 596.804C545.174 596.395 545.513 595.895 545.762 595.316C546.011 594.737 546.121 594.097 546.121 593.388C546.121 592.609 545.942 591.97 545.593 591.47C545.244 590.971 544.776 590.551 544.198 590.221C543.62 589.892 542.972 589.602 542.235 589.362C541.497 589.133 540.75 588.893 539.972 588.643C539.205 588.393 538.448 588.114 537.71 587.794C536.973 587.474 536.325 587.055 535.747 586.535C535.169 586.016 534.711 585.377 534.352 584.607C534.003 583.838 533.824 582.879 533.824 581.741C533.824 580.831 534.003 579.952 534.352 579.093C534.701 578.244 535.219 577.485 535.887 576.826C536.554 576.166 537.381 575.637 538.368 575.247C539.355 574.848 540.491 574.658 541.766 574.658C543.201 574.658 544.507 574.888 545.693 575.337C546.878 575.797 547.915 576.456 548.792 577.315L547.945 578.973H547.985Z" fill="#FFC730"/>
<path d="M560.342 591.071V600.71H556.884V574.948H564.468C566.092 574.948 567.507 575.138 568.713 575.517C569.919 575.897 570.915 576.436 571.702 577.125C572.49 577.815 573.078 578.664 573.466 579.643C573.855 580.622 574.044 581.721 574.044 582.929C574.044 584.138 573.835 585.227 573.416 586.216C572.998 587.205 572.39 588.064 571.583 588.783C570.776 589.502 569.769 590.062 568.583 590.461C567.387 590.861 566.022 591.061 564.477 591.061H560.352L560.342 591.071ZM560.342 588.304H564.468C565.464 588.304 566.341 588.174 567.098 587.904C567.856 587.644 568.494 587.275 569.012 586.795C569.53 586.326 569.919 585.756 570.178 585.097C570.437 584.438 570.576 583.708 570.576 582.919C570.576 581.281 570.068 579.992 569.062 579.073C568.055 578.154 566.52 577.685 564.477 577.685H560.352V588.294L560.342 588.304Z" fill="#FFC730"/>
<path d="M605.007 587.834C605.007 589.762 604.698 591.54 604.09 593.148C603.482 594.757 602.615 596.145 601.509 597.314C600.393 598.473 599.058 599.382 597.503 600.021C595.938 600.66 594.214 600.98 592.331 600.98C590.447 600.98 588.723 600.66 587.169 600.021C585.614 599.382 584.279 598.483 583.173 597.314C582.067 596.145 581.2 594.767 580.592 593.148C579.984 591.54 579.675 589.762 579.675 587.834C579.675 585.906 579.984 584.138 580.592 582.52C581.2 580.911 582.067 579.513 583.173 578.344C584.289 577.175 585.614 576.266 587.169 575.617C588.723 574.968 590.447 574.648 592.331 574.648C594.214 574.648 595.948 574.968 597.503 575.617C599.068 576.266 600.403 577.175 601.509 578.344C602.625 579.513 603.482 580.901 604.09 582.52C604.698 584.138 605.007 585.906 605.007 587.834ZM601.439 587.834C601.439 586.256 601.22 584.827 600.792 583.569C600.363 582.31 599.755 581.241 598.958 580.372C598.171 579.503 597.214 578.834 596.088 578.364C594.962 577.895 593.706 577.665 592.321 577.665C590.936 577.665 589.7 577.895 588.574 578.364C587.448 578.834 586.491 579.503 585.694 580.372C584.897 581.241 584.289 582.31 583.86 583.569C583.432 584.827 583.213 586.246 583.213 587.834C583.213 589.422 583.432 590.831 583.86 592.089C584.289 593.338 584.907 594.407 585.694 595.276C586.481 596.145 587.448 596.814 588.574 597.274C589.7 597.733 590.946 597.963 592.321 597.963C593.696 597.963 594.962 597.733 596.088 597.274C597.214 596.814 598.171 596.145 598.958 595.276C599.745 594.407 600.353 593.348 600.792 592.089C601.22 590.841 601.439 589.422 601.439 587.834Z" fill="#FFC730"/>
<path d="M616.268 589.962V600.71H612.81V574.948H620.074C621.699 574.948 623.104 575.118 624.29 575.447C625.476 575.777 626.452 576.256 627.22 576.876C627.987 577.495 628.565 578.254 628.934 579.133C629.302 580.012 629.492 581.001 629.492 582.09C629.492 582.999 629.352 583.848 629.063 584.647C628.774 585.447 628.356 586.146 627.818 586.775C627.279 587.404 626.612 587.944 625.824 588.383C625.037 588.823 624.15 589.163 623.164 589.392C623.592 589.642 623.981 590.012 624.31 590.491L631.804 600.72H628.714C628.077 600.72 627.618 600.471 627.319 599.981L620.642 590.771C620.443 590.481 620.214 590.271 619.975 590.152C619.736 590.032 619.377 589.962 618.898 589.962H616.258H616.268ZM616.268 587.424H619.905C620.921 587.424 621.818 587.305 622.586 587.055C623.353 586.805 624.001 586.465 624.519 586.016C625.037 585.566 625.436 585.027 625.695 584.408C625.954 583.788 626.094 583.099 626.094 582.34C626.094 580.802 625.585 579.653 624.579 578.874C623.572 578.094 622.067 577.705 620.064 577.705H616.258V587.434L616.268 587.424Z" fill="#FFC730"/>
<path d="M654.824 574.948V577.875H646.523V600.71H643.045V577.875H634.704V574.948H654.834H654.824Z" fill="#FFC730"/>
<path d="M284.328 504.912C285.603 510.516 277.272 514.083 277.272 514.083C284.328 501.596 270.356 488.35 270.356 488.35C270.356 511.795 247.645 513.833 247.645 532.673C247.645 541.543 253.475 546.468 260.74 548.296C260.72 548.276 251.831 542.742 254.113 534.821C254.113 534.821 256.205 542.273 258.597 541.553C260.979 540.834 256.265 537.208 257.242 533.862C258.218 530.515 260.5 529.756 261.746 528.797C262.982 527.838 263.749 526.03 262.513 524.022C262.513 524.022 268.423 529.276 264.606 532.713C260.789 536.149 261.078 537.777 262.982 538.826C264.885 539.875 271.373 538.726 273.466 530.895C273.466 530.895 276.615 539.875 273.466 542.842C273.466 542.842 274.99 544.37 278.04 541.883C278.04 541.883 277.332 546.958 273.306 548.626C277.641 547.867 281.657 546.228 284.527 543.891C295.14 535.23 284.328 504.912 284.328 504.912Z" fill="#25431E"/>
<g opacity="0.1">
<path d="M289.161 531.604C289.141 531.684 285.803 544.081 273.296 548.626C277.631 547.867 281.647 546.228 284.517 543.891C287.716 541.284 288.962 536.719 289.161 531.604Z" fill="#25431E"/>
</g>
<g opacity="0.1">
<path d="M248.562 526.469C247.974 528.337 247.635 530.375 247.635 532.673C247.635 541.394 253.256 546.298 260.351 548.196C252.13 544.48 248.582 526.559 248.562 526.469Z" fill="#25431E"/>
</g>
</g>
<defs>
<clipPath id="clip0_1_543">
<rect width="502" height="122" fill="white" transform="translate(154 479)"/>
</clipPath>
</defs>
</svg>
