<svg width="810" height="1080" viewBox="0 0 810 1080" fill="none" xmlns="http://www.w3.org/2000/svg">
<rect width="810" height="1080" fill="#25431E"/>
<g clip-path="url(#clip0_301_7907)">
<path d="M484.235 514.004C484.235 521.855 484.235 529.657 484.235 537.449C484.235 543.592 484.255 549.735 484.265 555.879C484.265 555.929 484.265 555.989 484.265 556.039C484.315 557.687 484.315 557.717 482.601 557.727C475.974 557.747 469.347 557.747 462.72 557.747C461.504 557.747 461.494 557.707 461.494 556.478C461.484 546.219 461.454 535.96 461.454 525.701C461.454 515.981 461.504 506.252 461.514 496.532C461.514 491.088 461.504 485.634 461.504 480.19C461.504 479.131 461.584 479.051 462.65 479.051C471.31 479.051 479.96 479.051 488.62 479.091C488.929 479.091 489.367 479.47 489.527 479.78C490.802 482.277 492.028 484.795 493.274 487.302C494.978 490.738 496.712 494.175 498.406 497.621C500.14 501.157 501.864 504.713 503.558 508.27C504.724 510.707 505.84 513.174 506.996 515.612C507.206 516.051 507.505 516.461 507.943 516.86C507.943 515.702 507.943 514.543 507.943 513.384C507.943 504.244 507.943 495.114 507.923 485.973C507.923 484.035 507.843 482.098 507.813 480.16C507.803 479.131 507.833 479.091 508.9 479.101C511.869 479.121 514.829 479.191 517.799 479.191C521.616 479.191 525.442 479.141 529.259 479.121C530.365 479.121 530.485 479.171 530.495 480.279C530.545 483.756 530.545 487.222 530.545 490.698C530.545 512.715 530.545 534.721 530.565 556.738C530.565 557.497 530.335 557.707 529.618 557.707C522.273 557.707 514.919 557.737 507.574 557.757C507.285 557.757 506.986 557.717 506.697 557.707C506.01 557.707 505.671 557.457 505.472 556.698C505.232 555.769 504.654 554.92 504.216 554.031C501.804 549.186 499.393 544.331 496.981 539.486C494.141 533.782 491.281 528.079 488.451 522.365C487.693 520.836 487.045 519.268 486.348 517.72C485.889 516.711 485.431 515.692 484.923 514.703C484.773 514.423 484.444 514.233 484.225 514.014L484.235 514.004Z" fill="#FFC730"/>
<path d="M224.505 518.387C224.505 530.484 224.505 542.591 224.505 554.688C224.505 555.407 224.525 556.136 224.595 556.846C224.665 557.465 224.415 557.685 223.837 557.655C223.598 557.645 223.359 557.665 223.12 557.665C216.254 557.685 209.388 557.695 202.521 557.755C201.764 557.755 201.585 557.545 201.595 556.806C201.644 547.825 201.664 538.855 201.704 529.874C201.704 529.185 201.425 529.025 200.787 529.025C196.114 529.025 191.44 529.005 186.766 528.955C185.989 528.955 185.969 529.355 185.969 529.914C185.969 535.019 185.969 540.123 185.969 545.218C185.969 548.934 185.969 552.64 185.969 556.356C185.969 557.645 185.969 557.655 184.643 557.655C179.382 557.655 174.12 557.655 168.848 557.655C167.383 557.655 165.908 557.725 164.443 557.705C163.307 557.695 163.238 557.585 163.257 556.616C163.357 550.402 163.507 544.189 163.527 537.976C163.566 519.945 163.546 501.914 163.527 483.873C163.527 482.575 163.387 481.266 163.277 479.968C163.218 479.228 163.517 478.979 164.244 478.989C171.22 479.029 178.196 479.058 185.162 479.049C185.899 479.049 185.979 479.358 185.979 479.958C185.969 484.982 185.969 490.007 185.979 495.021C185.979 498.897 186.009 502.773 185.979 506.639C185.979 507.378 186.188 507.608 186.935 507.598C191.609 507.548 196.283 507.528 200.957 507.518C201.535 507.518 201.614 507.199 201.624 506.759C201.654 505.101 201.704 503.452 201.714 501.794C201.724 495.681 201.724 489.557 201.714 483.444C201.714 482.245 201.684 481.046 201.674 479.848C201.674 479.268 201.884 479.029 202.531 479.029C209.537 479.058 216.533 479.058 223.539 479.029C224.336 479.029 224.515 479.288 224.515 480.037C224.495 492.804 224.505 505.58 224.505 518.347H224.525L224.505 518.387Z" fill="#FFC730"/>
<path d="M539.733 518.456C539.733 506.809 539.733 495.161 539.733 483.514C539.733 482.365 539.683 481.216 539.693 480.067C539.693 479.008 539.743 479.048 540.779 479.058C544.785 479.098 548.791 479.108 552.807 479.108C565.713 479.108 578.628 479.108 591.533 479.108C592.44 479.108 593.357 479.128 594.254 479.018C594.921 478.938 595.081 479.108 595.081 479.758C595.061 484.433 595.081 489.108 595.081 493.783C595.081 495.76 595.101 497.738 595.15 499.706C595.17 500.356 594.812 500.396 594.343 500.396C592.42 500.396 590.497 500.436 588.573 500.436C580.501 500.436 572.429 500.436 564.357 500.436C562.334 500.436 562.324 500.436 562.314 502.423C562.314 503.972 562.344 505.52 562.324 507.068C562.324 507.558 562.534 507.628 562.962 507.628C569.46 507.618 575.947 507.618 582.445 507.618C583.501 507.618 583.491 507.618 583.491 508.657C583.491 515.07 583.491 521.483 583.491 527.896C583.491 528.955 583.501 528.965 582.445 528.965C576.116 528.985 569.778 529.005 563.45 529.035C562.314 529.035 562.314 529.065 562.324 530.184C562.324 532.022 562.354 533.87 562.324 535.708C562.324 536.177 562.464 536.327 562.902 536.317C563.919 536.297 564.935 536.297 565.952 536.297C575.409 536.297 584.876 536.297 594.333 536.287C594.891 536.287 595.061 536.437 595.061 537.007C595.041 543.42 595.041 549.833 595.041 556.246C595.041 557.685 595.041 557.685 593.516 557.685C580.312 557.685 567.118 557.675 553.913 557.685C549.668 557.685 545.413 557.714 541.168 557.734C540.899 557.734 540.629 557.685 540.37 557.714C539.812 557.764 539.703 557.505 539.713 557.005C539.733 554.598 539.733 552.2 539.733 549.793C539.733 539.344 539.733 528.895 539.733 518.456Z" fill="#FFC730"/>
<path d="M614.544 557.737C609.87 557.737 605.197 557.737 600.513 557.737C598.579 557.737 598.57 557.747 598.57 555.819C598.57 549.786 598.56 543.742 598.56 537.708C598.56 536.37 598.56 536.35 599.945 536.35C604.698 536.35 609.462 536.35 614.215 536.35C615.013 536.35 615.82 536.29 616.607 536.19C617.982 536.03 618.889 534.991 618.989 533.603C619.168 531.265 618.59 529.058 617.803 526.89C617.195 525.232 616.737 523.504 615.989 521.915C615.421 520.707 615.112 519.438 614.634 518.219C614.106 516.861 613.388 515.572 612.83 514.214C612.292 512.895 611.853 511.526 611.385 510.178C610.897 508.739 610.359 507.321 609.96 505.862C609.262 503.265 608.535 500.668 608.057 498.021C607.738 496.253 607.678 494.405 607.778 492.607C607.887 490.739 608.445 488.92 609.252 487.192C610.408 484.725 612.491 483.217 614.753 481.928C616.308 481.049 618.012 480.589 619.766 480.29C621.171 480.04 622.546 479.55 623.962 479.401C626.054 479.191 628.167 479.131 630.28 479.121C638.461 479.081 646.633 479.091 654.815 479.091C655.971 479.091 655.981 479.091 655.981 480.24C655.981 486.543 655.971 492.846 655.961 499.15C655.961 500.388 655.961 500.398 654.685 500.398C649.423 500.398 644.152 500.398 638.89 500.438C638.132 500.438 637.345 500.698 636.618 500.958C635.781 501.257 635.531 502.046 635.472 502.836C635.322 504.684 635.521 506.502 636.139 508.26C636.608 509.588 636.956 510.957 637.485 512.266C638.451 514.683 639.538 517.06 640.524 519.478C641.112 520.896 641.63 522.345 642.139 523.793C642.986 526.181 643.853 528.548 644.63 530.956C645.925 534.981 646.902 539.077 646.782 543.352C646.663 548.057 644.57 551.664 640.664 554.251C637.933 556.059 634.914 557.098 631.665 557.258C625.965 557.537 620.254 557.677 614.544 557.877C614.544 557.827 614.544 557.777 614.544 557.727V557.737Z" fill="#FFC730"/>
<path d="M341.58 479.071C350.957 479.071 360.335 479.081 369.712 479.051C370.549 479.051 370.749 479.33 370.749 480.11C370.729 486.383 370.739 492.666 370.749 498.94C370.749 500.378 370.769 500.398 369.284 500.408C364.181 500.438 359.079 500.458 353.977 500.488C352.602 500.488 352.851 500.588 352.861 501.677C352.891 505.892 352.861 510.118 352.851 514.343C352.851 516.96 352.881 519.578 352.881 522.195C352.871 527.189 352.811 532.184 352.811 537.179C352.811 543.772 352.851 550.375 352.901 556.968C352.901 557.617 352.582 557.667 352.113 557.667C349.652 557.667 347.2 557.677 344.739 557.687C340.543 557.707 336.348 557.727 332.152 557.747C331.963 557.747 331.774 557.747 331.594 557.747C330.01 557.747 330.02 557.747 330.09 556.199C330.139 554.92 330.149 553.631 330.149 552.353C330.149 536.619 330.149 520.886 330.149 505.153C330.149 503.764 330.05 502.376 330.05 500.987C330.05 500.438 329.711 500.478 329.352 500.478C326.253 500.458 323.154 500.438 320.054 500.428C317.812 500.428 315.57 500.448 313.318 500.428C312.102 500.428 312.122 500.408 312.291 499.259C312.381 498.65 312.361 498.031 312.361 497.421C312.361 491.727 312.341 486.043 312.331 480.349C312.331 479.081 312.331 479.071 313.607 479.071C322.346 479.071 331.086 479.081 339.816 479.091C340.404 479.091 340.992 479.091 341.58 479.091C341.58 479.081 341.58 479.061 341.58 479.051V479.071Z" fill="#FFC730"/>
<path d="M425.011 536.369C425.021 536.679 425.05 536.939 425.05 537.198C425.05 541.154 425.04 545.1 425.031 549.056C425.031 551.723 424.991 554.4 425.031 557.067C425.031 557.647 424.751 557.677 424.353 557.677C421.842 557.697 419.33 557.717 416.819 557.726C412.095 557.726 407.362 557.726 402.638 557.726C396.978 557.726 391.307 557.726 385.647 557.726C382.657 557.726 379.668 557.746 376.668 557.746C375.403 557.746 375.393 557.736 375.393 556.468C375.393 531.654 375.393 506.831 375.393 482.017C375.393 481.268 375.393 480.519 375.393 479.77C375.393 479.29 375.552 479.07 376.1 479.07C383.156 479.09 390.211 479.1 397.267 479.07C397.974 479.07 398.174 479.3 398.174 479.999C398.164 497.361 398.174 514.722 398.174 532.084C398.174 533.263 398.094 534.431 398.114 535.61C398.114 535.83 398.373 536.189 398.572 536.239C399.031 536.359 399.519 536.349 400.007 536.349C408.099 536.349 416.201 536.349 424.293 536.349C424.522 536.349 424.761 536.369 425.05 536.389L425.011 536.369Z" fill="#FFC730"/>
<path d="M429.595 557.775C429.595 554.638 429.595 551.651 429.595 548.654C429.595 525.979 429.595 503.293 429.595 480.617C429.595 479.019 429.595 479.059 431.149 479.069C437.139 479.099 443.118 479.089 449.107 479.089C450.173 479.089 451.24 479.089 452.455 479.089C452.455 479.518 452.455 479.958 452.455 480.397C452.436 487.58 452.396 494.762 452.396 501.954C452.396 508.467 452.446 514.99 452.446 521.503C452.446 531.143 452.416 540.783 452.406 550.433C452.406 552.6 452.376 554.758 452.446 556.926C452.465 557.675 452.176 557.765 451.569 557.765C449.914 557.745 448.26 557.765 446.596 557.765C441.274 557.765 435.963 557.765 430.641 557.765H429.595V557.775Z" fill="#FFC730"/>
<path d="M269.44 556.758C290.679 556.758 307.897 539.499 307.897 518.209C307.897 496.919 290.679 479.66 269.44 479.66C248.201 479.66 230.983 496.919 230.983 518.209C230.983 539.499 248.201 556.758 269.44 556.758Z" fill="#FFC730"/>
<path d="M174 599.678V575.973H181.547C182.995 575.973 184.252 576.12 185.306 576.405C186.361 576.69 187.222 577.103 187.901 577.627C188.58 578.16 189.075 578.804 189.405 579.576C189.735 580.348 189.891 581.203 189.891 582.168C189.891 582.756 189.799 583.317 189.616 583.859C189.432 584.401 189.157 584.898 188.79 585.366C188.424 585.826 187.956 586.24 187.406 586.607C186.847 586.975 186.195 587.269 185.453 587.499C187.177 587.839 188.488 588.464 189.368 589.365C190.248 590.265 190.689 591.46 190.689 592.94C190.689 593.942 190.505 594.861 190.138 595.689C189.772 596.516 189.231 597.223 188.525 597.821C187.819 598.418 186.947 598.878 185.92 599.2C184.893 599.521 183.72 599.687 182.399 599.687H174V599.678ZM177.2 586.589H181.427C182.326 586.589 183.115 586.488 183.775 586.295C184.435 586.093 184.985 585.817 185.416 585.468C185.847 585.118 186.168 584.686 186.379 584.181C186.59 583.675 186.691 583.133 186.691 582.535C186.691 581.147 186.269 580.127 185.434 579.475C184.6 578.822 183.298 578.5 181.537 578.5H177.2V586.589ZM177.2 588.868V597.122H182.317C183.234 597.122 184.013 597.021 184.664 596.81C185.315 596.598 185.856 596.304 186.278 595.927C186.7 595.551 187.012 595.091 187.213 594.567C187.415 594.043 187.507 593.464 187.507 592.839C187.507 591.617 187.076 590.652 186.214 589.935C185.352 589.227 184.041 588.868 182.298 588.868H177.2Z" fill="#FFC730"/>
<path d="M212.411 575.973V578.583H201.059V586.46H210.256V588.979H201.059V597.067H212.411V599.678H197.841V575.973H212.411Z" fill="#FFC730"/>
<path d="M235.601 575.973V578.666H227.963V599.678H224.763V578.666H217.088V575.973H235.61H235.601Z" fill="#FFC730"/>
<path d="M257.553 575.973V578.666H249.915V599.678H246.715V578.666H239.04V575.973H257.563H257.553Z" fill="#FFC730"/>
<path d="M267.19 599.678H263.99V575.973H267.19V599.678Z" fill="#FFC730"/>
<path d="M278.285 576.083C278.423 576.156 278.579 576.304 278.753 576.524L292.452 594.392C292.415 594.108 292.397 593.823 292.388 593.556C292.379 593.29 292.37 593.023 292.37 592.766V575.973H295.175V599.678H293.562C293.305 599.678 293.094 599.632 292.929 599.549C292.755 599.457 292.59 599.31 292.425 599.099L278.744 581.249C278.762 581.524 278.78 581.791 278.789 582.057C278.799 582.324 278.808 582.563 278.808 582.784V599.678H276.002V575.973H277.652C277.937 575.973 278.148 576.009 278.285 576.083Z" fill="#FFC730"/>
<path d="M313.982 597.344C314.624 597.344 315.201 597.317 315.742 597.252C316.274 597.188 316.779 597.105 317.255 596.976C317.732 596.857 318.172 596.71 318.594 596.535C319.016 596.361 319.429 596.168 319.85 595.947V590.717H316.183C315.972 590.717 315.807 590.653 315.678 590.533C315.55 590.414 315.486 590.267 315.486 590.083V588.263H322.748V597.363C322.152 597.795 321.538 598.171 320.896 598.484C320.254 598.806 319.566 599.072 318.833 599.284C318.099 599.495 317.32 599.66 316.485 599.762C315.651 599.863 314.743 599.918 313.762 599.918C312.047 599.918 310.47 599.624 309.04 599.035C307.609 598.447 306.38 597.62 305.344 596.554C304.308 595.487 303.501 594.21 302.923 592.721C302.346 591.232 302.062 589.596 302.062 587.803C302.062 586.011 302.346 584.347 302.914 582.858C303.483 581.369 304.29 580.092 305.344 579.025C306.399 577.959 307.664 577.141 309.159 576.553C310.653 575.965 312.322 575.68 314.165 575.68C315.101 575.68 315.972 575.753 316.769 575.882C317.576 576.02 318.319 576.222 319.007 576.479C319.695 576.737 320.327 577.049 320.914 577.426C321.501 577.794 322.042 578.217 322.546 578.676L321.639 580.128C321.455 580.423 321.208 580.579 320.914 580.579C320.74 580.579 320.547 580.514 320.336 580.395C320.061 580.239 319.75 580.055 319.41 579.834C319.071 579.614 318.649 579.402 318.163 579.2C317.677 578.998 317.1 578.823 316.43 578.676C315.761 578.529 314.972 578.465 314.064 578.465C312.735 578.465 311.524 578.685 310.452 579.117C309.37 579.549 308.453 580.174 307.692 580.983C306.931 581.792 306.353 582.776 305.94 583.924C305.537 585.073 305.326 586.369 305.326 587.803C305.326 589.237 305.537 590.644 305.959 591.82C306.38 592.997 306.976 593.989 307.747 594.807C308.517 595.625 309.434 596.25 310.488 596.673C311.543 597.105 312.707 597.317 313.991 597.317L313.982 597.344Z" fill="#FFC730"/>
<path d="M342.784 599.678H339.584V575.973H342.784V599.678Z" fill="#FFC730"/>
<path d="M363.709 579.678C363.608 579.843 363.507 579.972 363.397 580.055C363.287 580.137 363.14 580.174 362.966 580.174C362.782 580.174 362.562 580.082 362.315 579.889C362.067 579.696 361.755 579.494 361.37 579.273C360.985 579.053 360.536 578.841 360.004 578.658C359.472 578.474 358.821 578.373 358.06 578.373C357.345 578.373 356.712 578.474 356.162 578.667C355.612 578.86 355.153 579.126 354.787 579.448C354.42 579.779 354.135 580.165 353.952 580.615C353.769 581.066 353.668 581.544 353.668 582.068C353.668 582.729 353.833 583.281 354.154 583.713C354.475 584.145 354.906 584.522 355.438 584.825C355.969 585.128 356.575 585.404 357.253 585.625C357.932 585.845 358.619 586.084 359.335 586.323C360.041 586.562 360.738 586.838 361.416 587.141C362.095 587.445 362.7 587.831 363.232 588.29C363.764 588.75 364.194 589.32 364.515 589.991C364.836 590.662 365.001 591.489 365.001 592.472C365.001 593.511 364.827 594.485 364.47 595.395C364.121 596.305 363.598 597.096 362.929 597.767C362.251 598.438 361.425 598.971 360.435 599.357C359.445 599.743 358.335 599.936 357.079 599.936C355.548 599.936 354.154 599.66 352.898 599.099C351.641 598.539 350.559 597.794 349.67 596.838L350.596 595.313C350.688 595.193 350.789 595.092 350.917 595.009C351.045 594.927 351.183 594.89 351.339 594.89C351.568 594.89 351.834 595.009 352.127 595.267C352.421 595.515 352.797 595.791 353.237 596.085C353.686 596.379 354.218 596.655 354.851 596.903C355.483 597.151 356.254 597.28 357.171 597.28C357.932 597.28 358.61 597.178 359.197 596.967C359.784 596.756 360.297 596.462 360.71 596.085C361.123 595.708 361.434 595.248 361.655 594.715C361.875 594.182 361.985 593.594 361.985 592.941C361.985 592.224 361.82 591.636 361.499 591.176C361.178 590.717 360.747 590.331 360.224 590.027C359.701 589.724 359.096 589.458 358.418 589.237C357.739 589.026 357.051 588.805 356.336 588.575C355.621 588.345 354.933 588.088 354.255 587.794C353.576 587.5 352.971 587.114 352.448 586.636C351.916 586.158 351.495 585.57 351.174 584.862C350.853 584.154 350.688 583.272 350.688 582.224C350.688 581.387 350.853 580.579 351.174 579.788C351.495 579.007 351.971 578.308 352.586 577.702C353.2 577.095 353.961 576.608 354.869 576.249C355.777 575.882 356.822 575.707 357.996 575.707C359.316 575.707 360.518 575.918 361.609 576.332C362.7 576.755 363.653 577.362 364.46 578.152L363.681 579.678H363.709Z" fill="#FFC730"/>
<path d="M399.874 599.68H397.398C397.114 599.68 396.884 599.607 396.701 599.469C396.527 599.322 396.389 599.147 396.307 598.926L394.097 593.2H383.488L381.278 598.926C381.205 599.129 381.067 599.303 380.884 599.46C380.7 599.616 380.462 599.689 380.187 599.689H377.711L387.165 575.984H390.42L399.874 599.689V599.68ZM384.377 590.875H393.207L389.494 581.233C389.255 580.635 389.017 579.891 388.788 578.999C388.669 579.45 388.549 579.863 388.43 580.249C388.311 580.635 388.201 580.966 388.091 581.251L384.377 590.884V590.875Z" fill="#FFC730"/>
<path d="M430.289 575.973V578.666H422.65V599.678H419.45V578.666H411.775V575.973H430.298H430.289Z" fill="#FFC730"/>
<path d="M450.709 575.973V578.583H439.357V586.46H448.554V588.979H439.357V597.067H450.709V599.678H436.139V575.973H450.709Z" fill="#FFC730"/>
<path d="M477.246 599.68H474.77C474.486 599.68 474.257 599.607 474.073 599.469C473.899 599.322 473.761 599.147 473.679 598.926L471.469 593.2H460.86L458.65 598.926C458.577 599.129 458.439 599.303 458.256 599.46C458.072 599.616 457.834 599.689 457.559 599.689H455.083L464.537 575.984H467.792L477.246 599.689V599.68ZM461.749 590.875H470.58L466.866 581.233C466.627 580.635 466.389 579.891 466.16 578.999C466.041 579.45 465.921 579.863 465.802 580.249C465.683 580.635 465.573 580.966 465.463 581.251L461.749 590.884V590.875Z" fill="#FFC730"/>
<path d="M494.751 591.948C494.87 592.242 494.98 592.536 495.09 592.83C495.2 592.517 495.319 592.223 495.438 591.948C495.557 591.663 495.695 591.378 495.851 591.093L503.856 576.515C504.003 576.258 504.149 576.111 504.305 576.055C504.461 576 504.681 575.973 504.965 575.973H507.322V599.678H504.516V582.26C504.516 582.03 504.516 581.782 504.534 581.515C504.544 581.249 504.562 580.982 504.58 580.706L496.474 595.532C496.199 596.029 495.814 596.277 495.319 596.277H494.861C494.365 596.277 493.98 596.029 493.705 595.532L485.416 580.66C485.453 580.945 485.471 581.23 485.489 581.506C485.508 581.782 485.517 582.039 485.517 582.269V599.687H482.711V575.982H485.067C485.352 575.982 485.572 576.009 485.728 576.065C485.884 576.12 486.03 576.276 486.177 576.524L494.347 591.12C494.503 591.387 494.64 591.663 494.751 591.957V591.948Z" fill="#FFC730"/>
<path d="M536.518 579.678C536.417 579.843 536.316 579.972 536.206 580.055C536.096 580.137 535.95 580.174 535.775 580.174C535.583 580.174 535.372 580.082 535.124 579.889C534.877 579.705 534.565 579.494 534.18 579.273C533.795 579.053 533.345 578.841 532.814 578.658C532.282 578.474 531.631 578.373 530.87 578.373C530.154 578.373 529.522 578.474 528.972 578.667C528.421 578.86 527.963 579.126 527.596 579.448C527.229 579.779 526.945 580.165 526.762 580.615C526.578 581.066 526.477 581.544 526.477 582.068C526.477 582.729 526.642 583.281 526.963 583.713C527.284 584.145 527.715 584.522 528.247 584.825C528.779 585.128 529.384 585.404 530.063 585.625C530.741 585.854 531.429 586.084 532.144 586.323C532.85 586.562 533.547 586.838 534.226 587.141C534.904 587.445 535.509 587.831 536.041 588.29C536.573 588.75 537.004 589.32 537.325 589.991C537.646 590.662 537.811 591.489 537.811 592.472C537.811 593.511 537.637 594.485 537.279 595.395C536.922 596.305 536.417 597.096 535.739 597.767C535.06 598.438 534.235 598.971 533.245 599.357C532.263 599.743 531.145 599.936 529.888 599.936C528.357 599.936 526.963 599.66 525.707 599.099C524.451 598.539 523.369 597.794 522.479 596.838L523.406 595.313C523.497 595.193 523.598 595.092 523.727 595.009C523.855 594.927 523.992 594.89 524.148 594.89C524.378 594.89 524.643 595.009 524.937 595.267C525.23 595.515 525.606 595.791 526.046 596.085C526.496 596.379 527.028 596.655 527.66 596.903C528.293 597.151 529.063 597.28 529.98 597.28C530.741 597.28 531.42 597.178 532.007 596.967C532.603 596.756 533.107 596.462 533.52 596.085C533.932 595.708 534.244 595.248 534.473 594.715C534.702 594.182 534.803 593.594 534.803 592.941C534.803 592.224 534.638 591.636 534.317 591.176C533.996 590.717 533.565 590.331 533.034 590.027C532.502 589.724 531.906 589.458 531.227 589.237C530.549 589.026 529.861 588.805 529.146 588.575C528.44 588.345 527.743 588.088 527.064 587.794C526.386 587.5 525.79 587.114 525.258 586.636C524.726 586.158 524.304 585.57 523.974 584.862C523.653 584.154 523.488 583.272 523.488 582.224C523.488 581.387 523.653 580.579 523.974 579.788C524.295 579.007 524.772 578.308 525.386 577.702C526.001 577.095 526.762 576.608 527.669 576.249C528.577 575.882 529.623 575.707 530.796 575.707C532.117 575.707 533.318 575.918 534.409 576.332C535.5 576.755 536.454 577.362 537.261 578.152L536.481 579.678H536.518Z" fill="#FFC730"/>
<path d="M547.889 590.808V599.678H544.707V575.973H551.685C553.18 575.973 554.482 576.147 555.591 576.497C556.701 576.846 557.618 577.342 558.342 577.976C559.067 578.611 559.608 579.392 559.965 580.293C560.323 581.193 560.497 582.205 560.497 583.317C560.497 584.429 560.304 585.431 559.919 586.341C559.534 587.251 558.975 588.041 558.232 588.703C557.489 589.365 556.563 589.879 555.472 590.247C554.372 590.615 553.116 590.799 551.694 590.799H547.898L547.889 590.808ZM547.889 588.262H551.685C552.602 588.262 553.409 588.142 554.106 587.894C554.803 587.655 555.39 587.315 555.866 586.874C556.343 586.442 556.701 585.918 556.939 585.311C557.178 584.705 557.306 584.034 557.306 583.307C557.306 581.8 556.838 580.614 555.912 579.769C554.986 578.923 553.574 578.491 551.694 578.491H547.898V588.253L547.889 588.262Z" fill="#FFC730"/>
<path d="M588.987 587.832C588.987 589.606 588.702 591.242 588.143 592.722C587.584 594.202 586.786 595.479 585.768 596.555C584.741 597.621 583.513 598.457 582.082 599.046C580.642 599.634 579.056 599.928 577.323 599.928C575.59 599.928 574.004 599.634 572.573 599.046C571.143 598.457 569.914 597.63 568.896 596.555C567.878 595.479 567.081 594.211 566.521 592.722C565.962 591.242 565.678 589.606 565.678 587.832C565.678 586.058 565.962 584.431 566.521 582.942C567.081 581.462 567.878 580.175 568.896 579.1C569.923 578.025 571.143 577.188 572.573 576.591C574.004 575.993 575.59 575.699 577.323 575.699C579.056 575.699 580.652 575.993 582.082 576.591C583.522 577.188 584.75 578.025 585.768 579.1C586.795 580.175 587.584 581.453 588.143 582.942C588.702 584.431 588.987 586.058 588.987 587.832ZM585.704 587.832C585.704 586.38 585.502 585.065 585.108 583.907C584.714 582.749 584.154 581.766 583.421 580.966C582.696 580.166 581.816 579.55 580.78 579.118C579.744 578.686 578.588 578.475 577.314 578.475C576.039 578.475 574.902 578.686 573.866 579.118C572.83 579.55 571.95 580.166 571.216 580.966C570.483 581.766 569.923 582.749 569.529 583.907C569.135 585.065 568.933 586.371 568.933 587.832C568.933 589.294 569.135 590.59 569.529 591.748C569.923 592.897 570.492 593.88 571.216 594.68C571.941 595.479 572.83 596.095 573.866 596.518C574.902 596.941 576.048 597.152 577.314 597.152C578.579 597.152 579.744 596.941 580.78 596.518C581.816 596.095 582.696 595.479 583.421 594.68C584.145 593.88 584.705 592.906 585.108 591.748C585.502 590.599 585.704 589.294 585.704 587.832Z" fill="#FFC730"/>
<path d="M599.348 589.788V599.678H596.166V575.973H602.851C604.345 575.973 605.638 576.129 606.729 576.432C607.821 576.736 608.719 577.177 609.425 577.747C610.131 578.316 610.663 579.015 611.002 579.824C611.342 580.633 611.516 581.543 611.516 582.545C611.516 583.381 611.387 584.162 611.122 584.898C610.856 585.633 610.471 586.276 609.975 586.855C609.48 587.435 608.866 587.931 608.141 588.335C607.417 588.74 606.601 589.052 605.693 589.264C606.087 589.493 606.445 589.833 606.748 590.275L613.643 599.687H610.801C610.214 599.687 609.792 599.457 609.517 599.007L603.373 590.532C603.19 590.265 602.979 590.072 602.759 589.962C602.539 589.852 602.209 589.788 601.769 589.788H599.339H599.348ZM599.348 587.453H602.695C603.63 587.453 604.455 587.343 605.161 587.113C605.867 586.883 606.463 586.57 606.94 586.157C607.417 585.743 607.784 585.247 608.022 584.677C608.261 584.107 608.389 583.473 608.389 582.774C608.389 581.359 607.921 580.302 606.995 579.585C606.069 578.868 604.685 578.51 602.841 578.51H599.339V587.462L599.348 587.453Z" fill="#FFC730"/>
<path d="M634.825 575.973V578.666H627.187V599.678H623.986V578.666H616.312V575.973H634.834H634.825Z" fill="#FFC730"/>
<path d="M284.328 504.914C285.604 510.518 277.273 514.084 277.273 514.084C284.328 501.597 270.357 488.352 270.357 488.352C270.357 511.797 247.646 513.834 247.646 532.674C247.646 541.545 253.475 546.47 260.74 548.298C260.72 548.278 251.831 542.744 254.113 534.822C254.113 534.822 256.206 542.274 258.598 541.555C260.979 540.836 256.266 537.209 257.242 533.863C258.219 530.517 260.501 529.757 261.747 528.798C262.982 527.839 263.75 526.031 262.514 524.024C262.514 524.024 268.423 529.278 264.607 532.714C260.79 536.151 261.079 537.779 262.982 538.828C264.886 539.877 271.373 538.728 273.466 530.896C273.466 530.896 276.615 539.877 273.466 542.843C273.466 542.843 274.991 544.372 278.04 541.885C278.04 541.885 277.333 546.959 273.307 548.627C277.642 547.868 281.658 546.23 284.528 543.892C295.141 535.232 284.328 504.914 284.328 504.914Z" fill="#25431E"/>
<g opacity="0.1">
<path d="M289.162 531.605C289.142 531.685 285.804 544.082 273.297 548.627C277.632 547.868 281.648 546.23 284.518 543.892C287.717 541.285 288.963 536.72 289.162 531.605Z" fill="#25431E"/>
</g>
<g opacity="0.1">
<path d="M248.563 526.473C247.975 528.341 247.636 530.378 247.636 532.676C247.636 541.397 253.256 546.302 260.352 548.2C252.13 544.483 248.582 526.563 248.563 526.473Z" fill="#25431E"/>
</g>
</g>
<defs>
<clipPath id="clip0_301_7907">
<rect width="502" height="122" fill="white" transform="translate(154 479)"/>
</clipPath>
</defs>
</svg>
